<svg width="160" height="160" viewBox="0 0 160 160" fill="none" xmlns="http://www.w3.org/2000/svg">
<path d="M149.333 160H10.6667C4.77333 160 0 155.227 0 149.333V10.6667C0 4.77333 4.77333 0 10.6667 0H149.333C155.227 0 160 4.77333 160 10.6667V149.333C160 155.227 155.227 160 149.333 160Z" fill="url(#paint0_linear_1_1236)"/>
<path fill-rule="evenodd" clip-rule="evenodd" d="M150.053 13.1735C148.204 12.5557 146.534 11.4936 145.19 10.0802C143.846 8.66685 142.87 6.9454 142.347 5.06683C142.318 4.95564 142.255 4.85672 142.165 4.78511C142.075 4.71351 141.965 4.67312 141.85 4.6701C141.735 4.66709 141.623 4.7016 141.53 4.76839C141.436 4.83519 141.367 4.93062 141.333 5.04017C140.725 6.89624 139.67 8.57448 138.261 9.92751C136.852 11.2805 135.132 12.267 133.253 12.8002C133.147 12.8277 133.052 12.8891 132.984 12.975C132.915 13.061 132.877 13.1669 132.874 13.2768C132.871 13.3867 132.904 13.4945 132.967 13.5841C133.031 13.6737 133.122 13.7402 133.227 13.7735C136.973 15.0135 139.88 18.0668 140.947 21.8535C141.093 22.3735 141.787 22.3868 141.96 21.8801C143.187 18.1202 146.227 15.2135 150.027 14.1468C150.52 14.0135 150.533 13.3335 150.053 13.1735Z" fill="#FFF176"/>
<path fill-rule="evenodd" clip-rule="evenodd" d="M16.5201 22.0268C15.1875 21.5803 13.9843 20.8148 13.0152 19.7969C12.0462 18.7791 11.3406 17.5397 10.9601 16.1868C10.9397 16.1059 10.8932 16.034 10.8279 15.9821C10.7625 15.9302 10.6819 15.9013 10.5985 15.8998C10.5151 15.8983 10.4335 15.9242 10.3663 15.9737C10.2991 16.0232 10.25 16.0934 10.2267 16.1735C9.78783 17.511 9.02686 18.72 8.01081 19.6942C6.99476 20.6684 5.75479 21.3779 4.40006 21.7602C4.0534 21.8535 4.04006 22.3468 4.38673 22.4668C5.71982 22.9084 6.92402 23.6707 7.8935 24.6867C8.86298 25.7026 9.56805 26.9412 9.94672 28.2935C10.0534 28.6668 10.5601 28.6802 10.6801 28.3068C11.1164 26.9717 11.8752 25.7646 12.8891 24.7925C13.9031 23.8204 15.141 23.1132 16.4934 22.7335C16.8534 22.6268 16.8667 22.1468 16.5201 22.0268Z" fill="#FFF9C4"/>
<path d="M151.56 59.2534C153.909 59.2534 155.813 57.3491 155.813 55C155.813 52.651 153.909 50.7467 151.56 50.7467C149.211 50.7467 147.307 52.651 147.307 55C147.307 57.3491 149.211 59.2534 151.56 59.2534Z" fill="#7986CB"/>
<path opacity="0.58" d="M144.04 43.2001C145.815 43.2001 147.253 41.7614 147.253 39.9867C147.253 38.2121 145.815 36.7734 144.04 36.7734C142.265 36.7734 140.827 38.2121 140.827 39.9867C140.827 41.7614 142.265 43.2001 144.04 43.2001Z" fill="#7BAAF7"/>
<path opacity="0.7" d="M37.8266 123.747C39.6013 123.747 41.0399 122.308 41.0399 120.534C41.0399 118.759 39.6013 117.32 37.8266 117.32C36.0519 117.32 34.6133 118.759 34.6133 120.534C34.6133 122.308 36.0519 123.747 37.8266 123.747Z" fill="#7BAAF7"/>
<path d="M79.9997 125.573C112.813 125.573 139.413 98.9731 139.413 66.16C139.413 33.347 112.813 6.74673 79.9997 6.74673C47.1867 6.74673 20.5864 33.347 20.5864 66.16C20.5864 98.9731 47.1867 125.573 79.9997 125.573Z" fill="#FFE558"/>
<path d="M78.5865 13.2669C78.7865 14.9869 75.0531 16.3869 70.5598 17.2002C66.0665 18.0135 62.2265 17.9602 61.6132 16.3335C60.9998 14.7069 64.1732 11.9602 69.0798 11.0669C73.9731 10.1602 78.3865 11.5469 78.5865 13.2669ZM37.2798 98.5735C37.3865 98.3868 38.3732 98.0668 39.5865 99.0801C40.7998 100.093 44.3865 103.107 45.8132 104.253C47.2398 105.4 45.9732 106.52 44.8398 106.387C39.3598 105.76 36.0932 100.547 37.2798 98.5735ZM55.0798 112.267C55.1198 112.08 55.7998 111.533 57.0798 111.973C58.3598 112.413 62.1198 113.72 63.5998 114.2C65.0798 114.68 64.4132 115.947 63.4665 116.187C58.9065 117.36 54.7332 114.2 55.0798 112.267ZM64.1732 106.547C64.9332 107.053 65.7198 107.867 65.4398 108.707C65.1732 109.467 64.1998 109.72 63.3732 109.787C60.6398 110 57.8532 109.467 55.3732 108.333C53.6265 107.533 49.0398 105.013 49.5198 102.667C50.1732 99.3468 62.2265 105.267 64.1732 106.547ZM131.48 57.7468C131.226 57.9335 128.146 58.0535 127.186 55.9868C126.226 53.9202 123.386 47.8002 122.24 45.4268C121.08 43.0535 125 42.0002 126.4 42.8268C133.146 46.7868 134.226 55.7335 131.48 57.7468ZM123.56 38.5202C123.413 38.7335 122.253 39.0135 120.986 37.6802C119.72 36.3469 115.986 32.3602 114.493 30.8402C113 29.3202 114.573 28.0935 115.853 28.3735C122.04 29.6802 125.146 36.2802 123.56 38.5202ZM100.666 17.7869C100.626 17.9869 99.8798 18.5735 98.5598 18.0535C97.2398 17.5335 93.3598 15.9735 91.8265 15.4002C90.2931 14.8269 91.0531 13.4402 92.0531 13.2002C96.8798 12.0669 101.12 15.6802 100.666 17.7869Z" fill="#FFCD40"/>
<path d="M79.9997 125.573C112.813 125.573 139.413 98.9731 139.413 66.16C139.413 33.347 112.813 6.74673 79.9997 6.74673C47.1867 6.74673 20.5864 33.347 20.5864 66.16C20.5864 98.9731 47.1867 125.573 79.9997 125.573Z" fill="url(#paint1_radial_1_1236)"/>
<path d="M134.773 160L131.307 120.533H88.7733L85.4399 160H134.773Z" fill="#BA793E"/>
<path d="M87.3599 137.44H132.8L131.64 124.173H88.4799L87.3599 137.44Z" fill="#784D30"/>
<path d="M87.3867 137.44H132.827L131.667 124.173H88.5067L87.3867 137.44Z" fill="#784D30"/>
<path d="M109.92 95.933C117.777 95.933 124.147 89.5636 124.147 81.7064C124.147 73.8492 117.777 67.4797 109.92 67.4797C102.063 67.4797 95.6934 73.8492 95.6934 81.7064C95.6934 89.5636 102.063 95.933 109.92 95.933Z" fill="#FFF7EB"/>
<path d="M97.7467 111.826C105.604 111.826 111.973 105.457 111.973 97.5996C111.973 89.7425 105.604 83.373 97.7467 83.373C89.8895 83.373 83.52 89.7425 83.52 97.5996C83.52 105.457 89.8895 111.826 97.7467 111.826Z" fill="#FFF7EB"/>
<path d="M122.093 111.826C129.951 111.826 136.32 105.457 136.32 97.5996C136.32 89.7425 129.951 83.373 122.093 83.373C114.236 83.373 107.867 89.7425 107.867 97.5996C107.867 105.457 114.236 111.826 122.093 111.826Z" fill="url(#paint2_radial_1_1236)"/>
<path d="M122.093 111.826C129.951 111.826 136.32 105.457 136.32 97.5996C136.32 89.7425 129.951 83.373 122.093 83.373C114.236 83.373 107.867 89.7425 107.867 97.5996C107.867 105.457 114.236 111.826 122.093 111.826Z" fill="#FFF7EB"/>
<path d="M89.5465 126.44C97.4036 126.44 103.773 120.071 103.773 112.214C103.773 104.356 97.4036 97.9869 89.5465 97.9869C81.6893 97.9869 75.3198 104.356 75.3198 112.214C75.3198 120.071 81.6893 126.44 89.5465 126.44Z" fill="#FFF7EB"/>
<path d="M130.293 126.44C138.15 126.44 144.52 120.071 144.52 112.214C144.52 104.356 138.15 97.9869 130.293 97.9869C122.436 97.9869 116.066 104.356 116.066 112.214C116.066 120.071 122.436 126.44 130.293 126.44Z" fill="#FFF7EB"/>
<path d="M109.92 126.44C117.777 126.44 124.147 120.071 124.147 112.214C124.147 104.356 117.777 97.9869 109.92 97.9869C102.063 97.9869 95.6934 104.356 95.6934 112.214C95.6934 120.071 102.063 126.44 109.92 126.44Z" fill="#FFF7EB"/>
<path opacity="0.26" d="M137.4 114.173C133.347 114.066 130.36 112.36 128.093 110.2C124.453 106.053 127.2 101.266 130.507 99.4664C133.08 98.0664 136.067 99.2131 136.067 99.2131C129.76 94.8531 126.2 99.7997 119.067 97.4131C114.6 95.9197 113.64 91.9464 114.6 88.0664C116.067 82.1331 123.96 83.4931 123.96 83.4931C123.96 83.4931 122.88 81.9864 120 81.9731C116.347 81.9598 113.707 83.0264 111.973 84.1064C110.72 84.8931 109.133 84.8931 107.88 84.1064C106.133 83.0131 103.507 81.9464 99.8535 81.9731C96.9735 81.9864 95.8935 83.4931 95.8935 83.4931C95.8935 83.4931 103.787 82.1198 105.253 88.0664C106.213 91.9464 105.253 95.9197 100.787 97.4131C93.6535 99.7997 90.0935 94.8531 83.7868 99.2131C83.7868 99.2131 86.7735 98.0664 89.3468 99.4664C92.6535 101.266 95.4135 106.053 91.7601 110.2C89.4935 112.36 86.5068 114.066 82.4535 114.173C76.5468 114.333 75.3335 112.36 75.3335 112.36C75.4002 115.386 76.1468 116.946 76.1468 116.946H143.72C143.72 116.946 144.467 115.386 144.533 112.36C144.52 112.36 143.307 114.333 137.4 114.173ZM110.12 114.133C103.827 114.133 97.7601 111.826 98.6668 106.733C99.4935 102.12 103.64 97.9997 109.92 97.9997C116.2 97.9997 120.827 102.093 121.427 106.733C122.093 111.826 116.4 114.133 110.12 114.133Z" fill="#EA7554"/>
<path opacity="0.26" d="M137.4 114.173C133.347 114.066 130.36 112.36 128.093 110.2C124.453 106.053 127.2 101.266 130.507 99.4664C133.08 98.0664 136.067 99.2131 136.067 99.2131C129.76 94.8531 126.2 99.7997 119.067 97.4131C114.6 95.9197 113.64 91.9464 114.6 88.0664C116.067 82.1331 123.96 83.4931 123.96 83.4931C123.96 83.4931 122.88 81.9864 120 81.9731C116.347 81.9598 113.707 83.0264 111.973 84.1064C110.72 84.8931 109.133 84.8931 107.88 84.1064C106.133 83.0131 103.507 81.9464 99.8535 81.9731C96.9735 81.9864 95.8935 83.4931 95.8935 83.4931C95.8935 83.4931 103.787 82.1198 105.253 88.0664C106.213 91.9464 105.253 95.9197 100.787 97.4131C93.6535 99.7997 90.0935 94.8531 83.7868 99.2131C83.7868 99.2131 86.7735 98.0664 89.3468 99.4664C92.6535 101.266 95.4135 106.053 91.7601 110.2C89.4935 112.36 86.5068 114.066 82.4535 114.173C76.5468 114.333 75.3335 112.36 75.3335 112.36C75.4002 115.386 76.1468 116.946 76.1468 116.946H143.72C143.72 116.946 144.467 115.386 144.533 112.36C144.52 112.36 143.307 114.333 137.4 114.173ZM110.12 114.133C103.827 114.133 97.7601 111.826 98.6668 106.733C99.4935 102.12 103.64 97.9997 109.92 97.9997C116.2 97.9997 120.827 102.093 121.427 106.733C122.093 111.826 116.4 114.133 110.12 114.133Z" fill="#EA7554"/>
<path d="M147.84 131.933H72.3733C70.32 131.933 68.6533 130.267 68.6533 128.213V116.947H151.56V128.213C151.56 130.28 149.893 131.933 147.84 131.933Z" fill="#BA793E"/>
<path d="M69.8135 116.947H150.4" stroke="#FFB74D" stroke-width="2" stroke-miterlimit="10" stroke-linecap="round"/>
<path opacity="0.38" d="M146.693 118.173L139.213 115.68C141.546 104.48 134.093 99.733 130.64 99.2263C130.693 98.813 130.72 98.3997 130.72 97.9863C130.72 92.6664 129.173 84.5864 120.733 83.6397C120.786 83.1997 120.826 82.7597 120.826 82.3064C120.826 76.493 116.12 71.7864 110.307 71.7864C110.24 71.7864 110.173 71.7997 110.12 71.7997C110.053 71.7997 109.986 71.7864 109.933 71.7864C104.12 71.7864 99.4132 76.493 99.4132 82.3064C99.4132 82.7597 99.4532 83.1997 99.5065 83.6397C91.0665 84.573 89.5199 92.653 89.5199 97.9863C89.5199 98.413 89.5465 98.8263 89.5998 99.2263C86.1465 99.733 78.6932 104.48 81.0265 115.68L73.5465 118.173L73.5332 128.226C73.5332 130.28 74.8932 131.946 76.5732 131.946H90.9599L89.2932 160H130.92L129.253 131.933H143.64C145.32 131.933 146.68 130.266 146.68 128.213L146.693 118.173Z" fill="#1A237E"/>
<path d="M114.533 144.16C114.146 141.72 112.36 139.8 110.053 139.8C107.746 139.8 105.946 141.6 105.573 144.16C103.52 144.667 101.853 144.667 101.853 147.36C101.853 150.307 106.853 155.173 110.186 155.173C113.52 155.173 118.253 150.307 118.253 147.36C118.253 144.667 116.72 144.667 114.533 144.16Z" fill="#4E342E"/>
<path d="M113.6 144.453C113.293 142.533 111.88 141.013 110.053 141.013C108.227 141.013 106.813 142.426 106.507 144.453C104.893 144.853 103.573 144.853 103.573 146.986C103.573 149.32 107.52 153.16 110.16 153.16C112.787 153.16 116.533 149.306 116.533 146.986C116.533 144.866 115.32 144.866 113.6 144.453Z" fill="#212121"/>
<path d="M11.6802 160C11.6535 159.546 9.26687 118.186 32.9335 68.1464L35.4402 68.5998C13.4269 118.4 16.3202 159.506 16.3469 159.96L11.6802 160Z" fill="#97A53B"/>
<path d="M19.9067 160H16.3467C16.3867 159.627 18.1733 124.44 37.2133 94.4934L39.4933 95.9334C23.2667 125 19.9467 159.64 19.9067 160Z" fill="#97A53B"/>
<path d="M37.3066 131.227C40.3999 129 45.0799 126.4 48.6666 127.693C50.7999 128.467 52.4399 130.2 53.9066 131.947C57.8266 136.587 60.4933 142.507 64.4933 147.08C69.8133 153.173 80.0132 155.893 80.0132 155.893C80.0132 155.893 66.6399 158.547 60.7599 152.667C54.5733 146.467 54.5866 144.947 51.2933 139.96C49.8266 137.733 44.9999 131.84 41.5866 132.187C38.1733 132.533 30.16 156.013 26.92 160H20.96C20.96 160 22.1066 150.867 25.4533 144.067C28.04 138.827 32.5466 134.64 37.3066 131.227Z" fill="#668424"/>
<path d="M11.2399 160H14.6532C14.6532 160 8.06657 108.76 19.2266 73.9732C23.6799 60.0799 34.5999 44.1599 39.4132 37.5333C39.7465 37.0666 39.1332 36.5199 38.6932 36.8933C-6.28008 75.3599 7.25324 142.613 11.2399 160Z" fill="#97A53B"/>
<path d="M4.4001 72.0134C3.17344 90.4668 4.73344 111.827 4.73344 111.827C4.73344 111.827 5.05344 90.2134 9.89343 78.1334C9.89343 78.1334 11.3201 56.6135 17.8001 38.7201C24.0801 21.4002 35.2801 9.54684 34.4267 9.24017C32.6934 8.60017 7.38677 26.8401 4.4001 72.0134Z" fill="#668424"/>
<path d="M69.4265 14.533C61.8265 17.3863 55.3599 22.7597 50.2932 29.093C45.2265 35.4263 41.4665 42.7063 38.1865 50.1196C34.9199 57.5196 31.6665 66.1596 31.0132 73.213C30.8132 75.3463 32.7732 75.3596 34.0665 73.6663C39.1599 66.9996 44.2799 55.6796 60.5732 48.8663C65.9198 46.6263 71.6265 43.0796 69.5732 40.6396C68.9865 39.9463 67.4132 39.173 64.7465 39.7996C61.5332 40.5596 57.8265 42.5063 56.3465 43.333C55.9332 43.5596 55.3065 43.5196 56.3465 42.653C58.2798 41.0263 63.3332 37.693 71.6932 35.6397C73.4532 35.213 75.5998 33.8397 74.4798 32.533C73.3198 31.1863 71.0798 31.013 68.2265 31.933C57.4932 35.413 51.0532 39.853 45.5199 46.933C45.1732 47.373 44.4799 46.933 44.7465 46.4396C47.4799 41.333 50.6799 37.5863 56.3065 33.7197C63.3465 28.8797 81.6665 24.7997 83.4132 23.7597C86.0932 22.1597 86.6398 21.0263 86.7065 19.9997C86.8665 17.613 84.2532 17.1863 82.3465 17.5463C71.5065 19.533 61.1998 24.413 52.9599 31.7197C52.7332 31.9197 52.4532 31.7997 52.7599 31.413C61.0398 21.0663 68.7065 18.4397 73.4932 16.293C74.5065 15.8397 76.0532 14.9997 74.5465 13.8263C73.3198 12.8663 70.6532 14.0663 69.4265 14.533ZM34.2665 105.56C33.1065 106.253 31.7065 105.146 32.1199 103.853C33.9865 97.9863 36.8532 90.7863 43.1065 81.1863C50.7065 69.5063 60.2532 60.7463 65.3865 59.5063C70.1865 58.3463 69.6265 61.3196 68.2798 62.1063C64.1598 64.5063 59.2532 67.533 55.7465 70.7596C51.1865 74.9729 48.4532 79.5063 47.3599 81.5063C46.9999 82.1729 47.3465 81.8929 47.6132 81.5596C54.3065 73.3863 65.4398 65.2663 76.3332 62.533C78.3998 62.013 81.6132 61.4796 83.6132 62.1996C84.6265 62.5596 85.6265 63.373 85.6532 64.453C85.6798 65.613 84.4132 66.9596 81.4532 68.0796C74.4798 70.7196 60.9332 76.8796 56.3465 81.4663C56.3465 81.4663 55.6932 82.5063 58.6665 80.7329C60.9065 79.3863 66.0265 76.1596 71.6265 75.8796C76.2132 75.6529 76.0932 80.2796 67.7998 82.9596C62.5865 84.6396 57.9332 86.4396 53.5732 88.3463C49.7865 89.9863 45.3599 92.6796 43.2665 94.5996C41.6399 96.1063 41.7999 96.1996 42.5199 95.7329C42.5199 95.7329 49.0799 91.9196 50.0932 93.9729C50.6665 95.1463 49.1065 96.3996 48.0132 97.1063C44.0399 99.6929 37.9732 103.346 34.2665 105.56Z" fill="white"/>
<defs>
<linearGradient id="paint0_linear_1_1236" x1="79.9999" y1="202.077" x2="79.9999" y2="-5.65866" gradientUnits="userSpaceOnUse">
<stop offset="0.043" stop-color="#3367D6"/>
<stop offset="0.279" stop-color="#3446B3"/>
<stop offset="0.521" stop-color="#352893"/>
<stop offset="1" stop-color="#1A237E"/>
</linearGradient>
<radialGradient id="paint1_radial_1_1236" cx="0" cy="0" r="1" gradientUnits="userSpaceOnUse" gradientTransform="translate(79.9997 66.1547) scale(65.6706 65.6706)">
<stop offset="0.758" stop-color="#FFF9C4" stop-opacity="0"/>
<stop offset="0.992" stop-color="#FFF9C4"/>
</radialGradient>
<radialGradient id="paint2_radial_1_1236" cx="0" cy="0" r="1" gradientUnits="userSpaceOnUse" gradientTransform="translate(122.096 97.5996) scale(14.2227 14.2227)">
<stop offset="0.536" stop-color="#FCEBCD"/>
<stop offset="0.718" stop-color="#FDF1D7"/>
<stop offset="1" stop-color="#FFF8E1"/>
</radialGradient>
</defs>
</svg>
