<svg width="162" height="163" viewBox="0 0 162 163" fill="none" xmlns="http://www.w3.org/2000/svg">
<path d="M2.8484 36.4076L34.306 23.7892L58.4505 2.51238L66.4884 20.3534L79.331 28.7073L86.5606 39.7163L94.44 32.443L102.189 28.8261L106.017 39.4391L111.923 43.3341L121.253 32.195L125.752 31.3266L133.001 19.5822L145.874 34.4759L150.18 46.4155L159.762 57.779L156.365 153.369L-1.08741 147.146L2.8484 36.4076Z" fill="#63686B"/>
<path d="M58.4505 2.51238L58.3601 12.4474L53.4881 16.4395L50.8385 24.4426L58.8689 20.3138L64.173 18.9542L66.4884 20.3534L58.4505 2.51238ZM69.3193 22.0346L68.3186 28.0105L61.9673 36.6519L51.9379 60.0559L58.0014 59.5109L60.8534 67.993L65.8276 61.1279L69.8964 64.9503L71.6641 81.7589L78.9815 75.5096L80.421 64.5817L83.9675 75.7066L85.4053 87.0098L90.393 64.9758L86.5606 39.7163L79.331 28.7073L69.3193 22.0346ZM102.189 28.8261L100.938 41.8538L93.7438 52.0311L91.5288 69.99L101.215 56.2495L104.039 65.5152L111.589 82.2907L112.063 68.9708L111.064 52.7157L111.923 43.3341L106.017 39.4391L102.189 28.8261ZM133.001 19.5822L136.304 30.1745L133.325 32.6721L132.018 47.2668L123.743 50.863L123.196 66.2723L119.02 80.2306L126.547 82.8819L131.292 89.8696L136.577 89.0323L146.452 106.946L145.268 95.9143L151.436 99.8197L153.193 87.3352L158.333 98L159.762 57.779L150.18 46.4155L145.874 34.4759L133.001 19.5822ZM23.5736 74.3658L28.5242 53.3765L47.3856 40.2602L42.9802 38.5169L46.0592 25.823L38.2009 39.8972L30.4515 43.5141L34.4967 33.2123L30.7392 35.4176L32.1231 26.0568L24.8453 38.5847L21.6177 55.4574L14.3089 31.8913L2.8484 36.4076L0.806233 93.8662L23.5736 74.3658Z" fill="#C5D0D8"/>
<path d="M-1.08789 147.146L156.364 153.369L156.188 158.331L-1.26426 152.108L-1.08789 147.146Z" fill="#3E4347"/>
<path d="M-1.26416 152.108L156.188 158.332L156.012 163.294L-1.44053 157.071L-1.26416 152.108Z" fill="#89664C"/>
<path d="M97.1435 155.998L107.116 156.392L106.939 161.354L96.9672 160.96L97.1435 155.998ZM77.462 155.22L87.434 155.614L87.2576 160.576L77.2856 160.182L77.462 155.22ZM136.507 157.554L146.479 157.948L146.302 162.91L136.33 162.516L136.507 157.554ZM116.825 156.776L126.797 157.17L126.621 162.132L116.649 161.738L116.825 156.776ZM18.4174 152.886L28.3894 153.28L28.213 158.243L18.241 157.849L18.4174 152.886ZM-1.26416 152.108L8.70782 152.503L8.53145 157.465L-1.44053 157.071L-1.26416 152.108ZM57.7805 154.442L67.7524 154.836L67.5761 159.799L57.6041 159.404L57.7805 154.442ZM38.0989 153.664L48.0709 154.058L47.8945 159.021L37.9225 158.626L38.0989 153.664Z" fill="#DBB471"/>
<path d="M64.6593 153.144C71.0363 153.396 76.3887 148.455 76.6143 142.108C76.8398 135.762 71.8532 130.412 65.4762 130.16C59.0992 129.908 53.7468 134.849 53.5213 141.196C53.2957 147.542 58.2824 152.892 64.6593 153.144Z" fill="#94989B"/>
<path d="M64.7891 149.488C60.5904 149.322 57.2996 145.792 57.4481 141.614C57.5966 137.435 61.1288 134.174 65.3275 134.34C69.5262 134.506 72.817 138.036 72.6685 142.215C72.5292 146.133 68.9878 149.654 64.7891 149.488ZM65.1975 137.997C63.0982 137.914 61.1962 139.669 61.122 141.759C61.0477 143.848 62.8197 145.749 64.919 145.832C67.0184 145.915 68.9203 144.159 68.9946 142.07C69.0781 139.719 67.2969 138.08 65.1975 137.997Z" fill="#3E4347"/>
<path d="M90.3766 154.162C96.7536 154.414 102.106 149.473 102.332 143.126C102.557 136.78 97.5704 131.43 91.1935 131.178C84.8165 130.926 79.4641 135.867 79.2385 142.214C79.013 148.56 83.9997 153.91 90.3766 154.162Z" fill="#94989B"/>
<path d="M90.5064 150.505C86.3077 150.34 83.0169 146.809 83.1654 142.631C83.3139 138.452 86.846 135.191 91.0448 135.357C95.2435 135.523 98.5343 139.053 98.3858 143.232C98.2465 147.15 94.7051 150.671 90.5064 150.505ZM90.9148 139.014C88.8155 138.931 86.9135 140.686 86.8393 142.776C86.765 144.865 88.537 146.766 90.6363 146.849C92.7357 146.932 94.6376 145.176 94.7119 143.087C94.533 140.726 93.0142 139.097 90.9148 139.014Z" fill="#3E4347"/>
<path d="M143.123 156.246C149.5 156.498 154.853 151.557 155.078 145.211C155.304 138.864 150.317 133.515 143.94 133.263C137.563 133.01 132.211 137.951 131.985 144.298C131.76 150.645 136.746 155.994 143.123 156.246Z" fill="#94989B"/>
<path d="M143.253 152.59C139.055 152.424 135.764 148.894 135.912 144.715C136.061 140.536 139.593 137.276 143.792 137.442C147.991 137.608 151.281 141.138 151.133 145.317C150.994 149.234 147.452 152.756 143.253 152.59ZM143.662 141.098C141.563 141.015 139.661 142.771 139.586 144.86C139.512 146.95 141.284 148.851 143.383 148.934C145.483 149.017 147.385 147.261 147.459 145.172C147.28 142.811 145.761 141.181 143.662 141.098Z" fill="#3E4347"/>
<path d="M159.846 55.4289L65.112 51.6846C57.7642 51.3942 51.515 57.1626 51.2551 64.4756L48.526 141.261L156.643 145.534L159.846 55.4289Z" fill="#F2B200"/>
<path d="M159.846 55.4289L65.112 51.6846C57.7642 51.3942 51.515 57.1626 51.2551 64.4756L51.0138 71.2661L159.131 75.5394L159.846 55.4289Z" fill="#699635"/>
<path d="M50.7603 70.9942L159.14 75.2778L157.84 111.842L49.4607 107.559L50.7603 70.9942Z" fill="#FFE62E"/>
<path d="M46.9302 134.397L48.5047 134.46L48.2634 141.25L46.6888 141.188L46.9302 134.397Z" fill="#3E4347"/>
<path d="M43.1147 130.847L47.3135 131.013L46.8401 144.333L42.6413 144.167L43.1147 130.847Z" fill="#3E4347"/>
<path d="M102.777 130.589L132.43 131.761L139.223 125.491L157.33 126.206L157.571 119.416L136.84 118.596L129.776 125.117L105.633 124.163L99.3137 117.113L49.1914 115.132L48.9501 121.923L96.1858 123.79L102.777 130.589Z" fill="#89664C"/>
<path d="M154.229 102.546C154.183 103.852 153.087 105.117 151.512 105.054L136.554 104.463C135.242 104.411 133.967 103.315 134.023 101.748L134.672 83.4654C134.719 82.1596 135.815 80.8952 137.39 80.9574L152.348 81.5486C153.66 81.6005 154.935 82.697 154.879 84.2641L154.229 102.546ZM128.774 101.54C128.728 102.846 127.632 104.111 126.057 104.048L111.099 103.457C109.787 103.405 108.512 102.309 108.568 100.742L109.218 82.4594C109.264 81.1535 110.36 79.8891 111.935 79.9513L126.893 80.5425C128.205 80.5944 129.48 81.691 129.424 83.258L128.774 101.54ZM103.057 100.524C103.011 101.83 101.915 103.094 100.34 103.032L85.3821 102.441C84.07 102.389 82.795 101.292 82.8507 99.7252L83.5005 81.4429C83.5469 80.137 84.643 78.8726 86.2175 78.9349L101.175 79.5261C102.488 79.5779 103.763 80.6745 103.707 82.2416L103.057 100.524ZM77.6023 99.5178C77.5559 100.824 76.4598 102.088 74.8853 102.026L59.9273 101.435C58.6152 101.383 57.3402 100.286 57.3959 98.7191L58.0457 80.4368C58.0921 79.131 59.1882 77.8666 60.7627 77.9288L75.7207 78.52C77.0328 78.5719 78.3078 79.6684 78.2521 81.2355L77.6023 99.5178ZM48.6254 131.065L157.005 135.349L156.652 145.274L48.2727 140.99L48.6254 131.065Z" fill="#3E4347"/>
<path d="M75.0712 96.8014C75.0248 98.1073 73.938 99.1105 72.6259 99.0586L62.6539 98.6645C61.3418 98.6126 60.3293 97.5264 60.3757 96.2206L60.8305 83.423C60.8769 82.1171 61.9637 81.1139 63.2758 81.1657L73.2478 81.5599C74.5599 81.6117 75.5725 82.6979 75.5261 84.0038L75.0712 96.8014ZM100.526 97.8075C100.48 99.1133 99.3928 100.117 98.0807 100.065L88.1087 99.6706C86.7966 99.6187 85.7841 98.5325 85.8305 97.2266L86.2853 84.4291C86.3317 83.1232 87.4185 82.12 88.7306 82.1718L98.7026 82.5659C100.015 82.6178 101.027 83.704 100.981 85.0099L100.526 97.8075ZM125.981 98.8136C125.934 100.119 124.848 101.123 123.535 101.071L113.563 100.677C112.251 100.625 111.239 99.5386 111.285 98.2327L111.74 85.4351C111.787 84.1293 112.873 83.126 114.185 83.1779L124.157 83.572C125.47 83.6239 126.482 84.7101 126.436 86.016L125.981 98.8136ZM151.436 99.8196C151.389 101.126 150.302 102.129 148.99 102.077L139.018 101.683C137.706 101.631 136.694 100.545 136.74 99.2388L137.195 86.4412C137.241 85.1353 138.328 84.1321 139.64 84.184L149.612 84.5781C150.924 84.63 151.937 85.7162 151.89 87.022L151.436 99.8196Z" fill="#B4D7EE"/>
</svg>
