<svg width="260" height="260" viewBox="0 0 260 260" fill="none" xmlns="http://www.w3.org/2000/svg">
<g filter="url(#filter0_d_1_1052)">
<rect x="50" y="46" width="160" height="160" rx="17" fill="#2979FF"/>
</g>
<rect x="50" y="150" width="160" height="56" rx="17" fill="#DDD8B1"/>
<path d="M54.7484 182C67.6804 182 67.6804 173.475 80.6124 173.475C93.5443 173.475 93.5443 182 106.476 182C119.408 182 119.408 173.475 132.34 173.475C145.272 173.475 145.278 182 158.204 182C171.131 182 171.136 173.475 184.068 173.475C196.322 173.475 196.937 181.122 207.903 181.937C212.757 160.915 209.108 138.83 197.751 120.479C186.394 102.129 168.246 88.9966 147.249 83.9356C136.87 81.6183 126.134 81.3791 115.662 83.2319C105.19 85.0847 95.1889 88.9927 86.2381 94.7299C77.2873 100.467 69.564 107.92 63.5147 116.657C57.4655 125.394 53.2103 135.242 50.9952 145.632C48.3564 157.505 48.3348 169.808 50.932 181.69C52.2163 181.884 53.5127 181.988 54.8116 182H54.7484Z" fill="#304FFE"/>
<path d="M121 93H142V112H121V93Z" fill="#FFD54F"/>
<path d="M121 93H128V112H121V93Z" fill="#FFF176"/>
<path d="M128.5 104C130.985 104 133 101.09 133 97.5C133 93.9101 130.985 91 128.5 91C126.015 91 124 93.9101 124 97.5C124 101.09 126.015 104 128.5 104Z" fill="#FFF176"/>
<path d="M120.003 90C119.969 88.5675 120.229 87.1429 120.766 85.8098C121.304 84.4768 122.108 83.2621 123.133 82.2374C124.157 81.2126 125.381 80.3983 126.732 79.8423C128.083 79.2864 129.534 79 131 79C132.466 79 133.917 79.2864 135.268 79.8423C136.619 80.3983 137.843 81.2126 138.867 82.2374C139.892 83.2621 140.696 84.4768 141.234 85.8098C141.771 87.1429 142.031 88.5675 141.997 90" fill="#F4511E"/>
<path d="M119.428 89H142.674C143.036 89.0447 143.373 89.2748 143.618 89.6449C143.864 90.015 144 90.4984 144 91C144 91.5015 143.864 91.9849 143.618 92.355C143.373 92.7251 143.036 92.9552 142.674 92.9999H119.428C119.237 93.0022 119.049 92.9515 118.873 92.8509C118.697 92.7502 118.538 92.6018 118.405 92.4143C118.271 92.2269 118.167 92.0043 118.097 91.7599C118.028 91.5155 117.995 91.2543 118.001 90.992C118.004 90.469 118.154 89.9683 118.421 89.5963C118.687 89.2243 119.049 89.0104 119.428 89Z" fill="#F4511E"/>
<path d="M118 173L121.055 112H142.253L145 169.97L118 173Z" fill="#C5CAE9"/>
<path d="M119.811 126.704L119 144L143 132.528L142.189 116L119.811 126.704Z" fill="#FF7043"/>
<path d="M118.863 160.052L118 177L145 164.195L144.177 148L118.863 160.052Z" fill="#FF7043"/>
<path d="M118 103H145V112H118V103Z" fill="#E64A19"/>
<path d="M118 103H136V112H118V103Z" fill="#F4511E"/>
<path d="M165.691 100.726C166.364 100.737 167.028 100.892 167.646 101.181C167.796 99.1602 168.58 97.2556 169.867 95.7827C171.154 94.3098 172.867 93.357 174.723 93.0821C176.579 92.8073 178.466 93.2268 180.071 94.2713C181.676 95.3157 182.904 96.9224 183.55 98.8253C185.011 98.8749 186.397 99.538 187.414 100.674C188.431 101.81 189 103.33 189 104.913C189 106.495 188.431 108.015 187.414 109.151C186.397 110.287 185.011 110.95 183.55 111H165.691C165.068 110.998 164.452 110.862 163.878 110.6C163.304 110.338 162.784 109.955 162.348 109.474C161.911 108.993 161.568 108.422 161.336 107.796C161.105 107.17 160.991 106.501 161.001 105.827C160.992 105.156 161.108 104.491 161.341 103.87C161.573 103.248 161.918 102.684 162.355 102.209C162.792 101.733 163.312 101.357 163.885 101.103C164.458 100.848 165.072 100.72 165.691 100.726Z" fill="#2979FF"/>
<path d="M110.916 147.492C111.517 147.49 112.11 147.622 112.655 147.878C112.759 146.19 113.438 144.59 114.575 143.35C115.713 142.109 117.24 141.304 118.898 141.07C120.555 140.837 122.242 141.189 123.672 142.068C125.102 142.947 126.187 144.298 126.745 145.893C128.071 145.826 129.369 146.295 130.353 147.195C131.338 148.096 131.928 149.355 131.994 150.695C132.06 152.035 131.596 153.347 130.706 154.342C129.815 155.337 128.569 155.933 127.243 156H110.98C110.431 155.977 109.893 155.844 109.395 155.609C108.898 155.374 108.451 155.041 108.081 154.631C107.712 154.22 107.426 153.739 107.242 153.217C107.057 152.694 106.977 152.139 107.006 151.585C107.005 150.523 107.412 149.502 108.142 148.737C108.871 147.972 109.866 147.53 110.916 147.492Z" fill="#448AFF"/>
<path d="M151 91C151.552 91 152 90.7761 152 90.5C152 90.2239 151.552 90 151 90C150.448 90 150 90.2239 150 90.5C150 90.7761 150.448 91 151 91Z" fill="#FDD835"/>
<path d="M72 145C72.5523 145 73 144.328 73 143.5C73 142.672 72.5523 142 72 142C71.4477 142 71 142.672 71 143.5C71 144.328 71.4477 145 72 145Z" fill="#FDD835"/>
<path d="M77 139C77.5523 139 78 138.776 78 138.5C78 138.224 77.5523 138 77 138C76.4477 138 76 138.224 76 138.5C76 138.776 76.4477 139 77 139Z" fill="#FDD835"/>
<path d="M100 119C100.552 119 101 118.552 101 118C101 117.448 100.552 117 100 117C99.4477 117 99 117.448 99 118C99 118.552 99.4477 119 100 119Z" fill="#FDD835"/>
<path d="M171.5 121C171.776 121 172 120.776 172 120.5C172 120.224 171.776 120 171.5 120C171.224 120 171 120.224 171 120.5C171 120.776 171.224 121 171.5 121Z" fill="#FDD835"/>
<path d="M85 116C85.5523 116 86 115.552 86 115C86 114.448 85.5523 114 85 114C84.4477 114 84 114.448 84 115C84 115.552 84.4477 116 85 116Z" fill="#FDD835"/>
<path d="M162 158C162.552 158 163 157.776 163 157.5C163 157.224 162.552 157 162 157C161.448 157 161 157.224 161 157.5C161 157.776 161.448 158 162 158Z" fill="#FDD835"/>
<path opacity="0.5" d="M121 91.9193C121 91.9193 80.7503 86 80.6317 86C69.8999 93.2421 60.8147 102.794 54 114L120.938 103.694L121 91.9193Z" fill="#FFE082"/>
<path d="M106.226 182C119.021 182 119.021 173.582 131.815 173.582C144.61 173.582 144.615 182 157.41 182C168.254 182 169.92 175.935 178 174.064C163.755 167.047 148.006 163.604 132.122 164.036C116.147 163.613 100.311 167.099 86 174.189C93.796 176.116 95.5019 182 106.226 182Z" fill="#00C853"/>
<path d="M106.502 182C119.626 182 119.626 173.461 132.749 173.461H133L132.878 164.037C116.658 163.598 100.572 167.042 86 174.077C93.8158 176.095 95.6298 182 106.502 182Z" fill="#64DD17"/>
<defs>
<filter id="filter0_d_1_1052" x="0" y="0" width="260" height="260" filterUnits="userSpaceOnUse" color-interpolation-filters="sRGB">
<feFlood flood-opacity="0" result="BackgroundImageFix"/>
<feColorMatrix in="SourceAlpha" type="matrix" values="0 0 0 0 0 0 0 0 0 0 0 0 0 0 0 0 0 0 127 0" result="hardAlpha"/>
<feOffset dy="4"/>
<feGaussianBlur stdDeviation="25"/>
<feComposite in2="hardAlpha" operator="out"/>
<feColorMatrix type="matrix" values="0 0 0 0 0 0 0 0 0 0 0 0 0 0 0 0 0 0 0.1 0"/>
<feBlend mode="normal" in2="BackgroundImageFix" result="effect1_dropShadow_1_1052"/>
<feBlend mode="normal" in="SourceGraphic" in2="effect1_dropShadow_1_1052" result="shape"/>
</filter>
</defs>
</svg>
