<svg width="160" height="160" viewBox="0 0 160 160" fill="none" xmlns="http://www.w3.org/2000/svg">
<path d="M150.002 160H9.99751C4.48027 160 0 155.52 0 150.002V9.99751C0 4.48027 4.48027 0 9.99751 0H149.989C155.506 0 159.987 4.48027 159.987 9.99751V149.989C159.99 151.303 159.734 152.604 159.234 153.818C158.734 155.032 157.999 156.136 157.071 157.066C156.144 157.996 155.042 158.734 153.829 159.237C152.616 159.741 151.316 160 150.002 160Z" fill="url(#paint0_radial_1_1115)"/>
<path d="M85.8959 65.4357C87.704 65.9276 87.1323 58.0307 92.8091 54.5608C97.3824 51.7556 102.727 53.2313 102.222 48.8175C101.889 45.8794 94.1518 45.7598 88.7808 50.5192C83.4763 55.2388 84.5798 65.0768 85.8959 65.4357Z" fill="url(#paint1_radial_1_1115)"/>
<path d="M92.2111 70.2482C93.7533 71.5643 97.0237 65.2494 104.017 65.4754C109.614 65.6616 112.233 71.6973 115.211 68.9187C118.601 65.7546 113.615 60.4501 105.971 59.9183C95.8006 59.2004 90.5227 68.8124 92.2111 70.2482Z" fill="url(#paint2_radial_1_1115)"/>
<path d="M93.9127 77.2411C94.0722 78.3712 102.368 77.9059 108.125 81.8809C113.868 85.856 115.357 90.6553 118.747 89.7779C122.137 88.8872 120.395 83.1572 113.296 78.6371C105.572 73.6915 93.4341 73.8776 93.9127 77.2411Z" fill="url(#paint3_radial_1_1115)"/>
<path d="M95.0826 84.3936C94.1919 85.4306 95.1624 86.0954 98.619 89.7779C102.076 93.4605 103.777 95.4547 105.253 96.7842C106.649 98.0472 108.577 98.4194 109.534 97.5154C110.93 96.1859 108.882 93.5669 107.287 91.9184C105.08 89.6317 101.491 86.9196 99.9484 85.9624C98.4329 85.0451 95.8936 83.4497 95.0826 84.3936Z" fill="url(#paint4_radial_1_1115)"/>
<path d="M85.537 84.0479C84.766 84.3005 85.8029 86.7201 86.4677 90.3894C86.8798 92.6894 87.4648 94.5373 87.8902 102.315C88.3688 111.262 86.9064 115.343 91.3335 115.396C96.0265 115.463 94.1652 105.691 93.3011 100.693C92.3306 95.109 91.2005 91.3865 89.9375 88.7808C88.7942 86.4276 86.6538 83.6889 85.537 84.0479Z" fill="url(#paint5_radial_1_1115)"/>
<path d="M78.8898 89.4454C77.3476 89.1131 75.4199 92.809 73.6517 98.6453C71.8038 104.787 70.82 110.052 74.5292 110.544C79.3152 111.182 78.81 104.787 79.169 99.3632C79.4482 95.1488 79.9135 89.6715 78.8898 89.4454Z" fill="url(#paint6_radial_1_1115)"/>
<path d="M75.0344 83.0643C73.1599 81.655 65.582 86.7602 61.8063 92.4103C57.6584 98.6056 54.1885 107.912 58.7087 108.231C63.6277 108.577 62.83 101.943 66.4594 95.2288C70.82 87.1723 75.9384 83.7423 75.0344 83.0643Z" fill="url(#paint7_radial_1_1115)"/>
<path d="M65.0368 81.6419C65.542 82.5459 61.5138 85.165 58.3496 88.2493C55.1855 91.3336 51.8087 96.4122 50.0538 94.644C48.299 92.8891 49.2828 89.4724 52.8723 85.6835C57.2728 81.0171 64.2524 80.2327 65.0368 81.6419Z" fill="url(#paint8_radial_1_1115)"/>
<path d="M42.4492 82.5588C45.1347 84.327 46.4242 76.6693 52.9784 76.0445C59.4396 75.4329 65.9406 77.5601 66.5256 76.0711C66.9776 74.941 59.7321 71.1388 51.8484 72.229C43.659 73.3723 38.9261 80.2323 42.4492 82.5588Z" fill="url(#paint9_radial_1_1115)"/>
<path d="M72.8409 70.6073C74.5293 69.9027 71.8571 57.2728 59.8389 56.7145C49.0836 56.2093 45.5605 63.9334 47.7408 66.4594C49.5356 68.5466 54.0424 62.5375 59.6394 62.5109C69.7167 62.4577 70.8733 71.4182 72.8409 70.6073Z" fill="url(#paint10_radial_1_1115)"/>
<path d="M67.4033 47.7541C65.9941 49.0171 66.4993 51.5165 71.1125 54.6141C75.7922 57.7516 75.7124 64.1064 77.321 64.0266C78.943 63.9602 78.7037 56.5019 75.8985 51.8488C73.439 47.8073 69.4108 45.9327 67.4033 47.7541Z" fill="url(#paint11_radial_1_1115)"/>
<path d="M115.915 59.3333C117.404 61.1147 123.068 57.1529 133.052 57.2194C141.919 57.2726 146.479 61.0217 148.181 56.8073C149.909 52.5131 143.581 50.4658 133.344 51.2103C123.493 51.9415 114.081 57.1662 115.915 59.3333Z" fill="url(#paint12_radial_1_1115)"/>
<path d="M122.137 68.3473C122.709 69.7565 126.75 67.9219 130.885 68.8924C134.381 69.7033 138.024 72.4819 139.26 69.5438C140.51 66.6057 137.333 63.6676 131.576 63.548C125.859 63.4416 121.339 66.3398 122.137 68.3473Z" fill="url(#paint13_radial_1_1115)"/>
<path d="M116.248 76.8161C116.394 78.3051 121.233 77.082 127.229 78.8369C133.225 80.5918 136.163 82.7056 139.035 85.1784C141.92 87.6645 145.376 91.3205 147.676 88.6749C150.455 85.4709 145.815 81.9079 142.305 79.5814C139.221 77.534 134.621 75.1676 127.668 74.6624C120.276 74.1306 116.115 75.4069 116.248 76.8161Z" fill="url(#paint14_radial_1_1115)"/>
<path d="M127.176 88.914C127.242 90.0972 129.728 90.496 132.799 92.9821C136.402 95.9069 138.755 98.938 142.159 103.804C144.459 107.101 146.2 111.648 149.378 110.491C153.273 109.082 150.707 104.017 146.745 99.6028C143.382 95.867 141.281 93.5936 136.602 90.8284C132.693 88.5284 127.056 86.7735 127.176 88.914Z" fill="url(#paint15_radial_1_1115)"/>
<path d="M128.186 102.195C127.162 103.325 129.263 104.642 130.739 106.45C132.214 108.258 135.006 112.911 135.99 114.24C137.572 116.394 139.779 115.942 140.789 115.091C141.8 114.24 142.145 112.007 140.882 110.172C139.021 107.46 135.525 104.907 132.985 103.445C131.151 102.368 129.077 101.212 128.186 102.195Z" fill="url(#paint16_radial_1_1115)"/>
<path d="M112.366 101.065C111.727 101.996 113.123 102.82 115.038 105.466C117.005 108.191 119.651 111.515 122.35 120.582C125.155 130.007 125.527 137.266 125.753 139.26C126.125 142.411 127.096 144.578 129.968 144.578C132.347 144.578 133.225 141.64 132.985 137.266C132.72 132.467 131.377 124.663 127.814 116.979C123.493 107.633 118.72 103.844 117.577 102.926C115.995 101.69 113.416 99.5362 112.366 101.065Z" fill="url(#paint17_radial_1_1115)"/>
<path d="M98.3263 95.9333C97.0368 96.6645 98.4327 98.4061 99.6159 100.679C100.799 102.953 104.588 110.637 106.024 116.726C107.646 123.573 108.018 127.601 108.231 130.898C108.364 132.945 109.082 135.192 111.834 135.152C115.33 135.099 115.091 129.901 114.24 124.703C112.937 116.739 110.212 110.823 107.114 105.585C104.641 101.384 103.657 99.8817 102.049 98.1535C100.547 96.5315 99.1905 95.4414 98.3263 95.9333Z" fill="url(#paint18_radial_1_1115)"/>
<path d="M113.044 139.34C110.292 138.981 109.201 141.68 109.095 143.355C108.949 145.602 110.079 147.37 112.286 147.53C115.091 147.742 115.982 145.575 116.075 143.209C116.115 141.906 115.942 139.726 113.044 139.34Z" fill="#FFDD74"/>
<path d="M99.7222 124.49C98.2731 124.583 98.313 128.425 97.2893 134.78C96.2656 141.135 93.9125 146.16 98.18 147.264C102.554 148.394 102.394 139.313 102.168 134.541C101.996 131.177 101.557 124.37 99.7222 124.49Z" fill="url(#paint19_radial_1_1115)"/>
<path d="M71.0725 119.305C69.3309 118.999 67.0177 123.918 66.0073 129.13C64.8773 134.926 64.5582 139.18 67.842 139.553C70.8465 139.898 70.8997 134.501 71.139 129.063C71.4581 121.804 72.2425 119.518 71.0725 119.305Z" fill="url(#paint20_radial_1_1115)"/>
<path d="M66.5791 111.78C65.2763 110.73 57.0336 118.56 55.4117 130.273C54.069 139.991 54.4279 150.733 59.6128 149.936C64.7977 149.138 60.3706 140.51 61.7665 129.369C63.3884 116.593 68.1479 113.03 66.5791 111.78Z" fill="url(#paint21_radial_1_1115)"/>
<path d="M54.521 100.786C53.2713 99.2704 45.0818 105.333 40.4686 114.253C36.4537 122.031 34.8317 128.877 34.0606 135.086C33.5156 139.46 34.7786 143.395 38.1687 143.222C40.9339 143.076 41.5056 140.005 41.7715 132.946C42.1304 123.653 44.7894 116.58 47.8471 110.784C50.4661 105.865 55.5048 101.983 54.521 100.786Z" fill="url(#paint22_radial_1_1115)"/>
<path d="M37.278 102.129C35.7359 101.039 31.4018 105.718 28.9025 109.467C26.4031 113.217 22.8933 119.558 26.8285 121.074C31.4151 122.842 31.588 116.168 33.1966 112.592C35.8289 106.742 38.5809 103.059 37.278 102.129Z" fill="url(#paint23_radial_1_1115)"/>
<path d="M41.6522 88.4616C42.8088 90.243 35.3373 92.5297 26.749 104.402C18.0411 116.46 20.3809 126.524 14.8371 125.726C9.16029 124.902 13.6804 112.551 21.0855 102.408C29.0755 91.4794 40.6152 86.8529 41.6522 88.4616Z" fill="url(#paint24_radial_1_1115)"/>
<path d="M10.2629 102.155C12.4964 103.937 14.4241 102.581 16.4316 99.8285C19.1171 96.1593 23.2517 91.9449 26.1765 89.3258C30.3776 85.5768 36.8919 82.2664 36.0943 80.8838C35.3498 79.6075 29.3273 81.03 21.9887 85.949C14.8629 90.7351 12.2039 93.9656 11.3531 95.0824C10.1699 96.6246 7.20519 99.7089 10.2629 102.155Z" fill="url(#paint25_radial_1_1115)"/>
<path d="M15.3021 79.6212C16.8575 81.7351 19.769 80.6981 21.4707 79.2623C23.1724 77.8265 25.8712 75.9386 29.1018 74.556C32.3457 73.1734 35.0179 73.6653 34.8716 71.578C34.7653 69.9694 27.7192 69.7567 20.6199 72.5086C14.0524 75.0479 14.0391 77.9195 15.3021 79.6212Z" fill="url(#paint26_radial_1_1115)"/>
<path d="M38.7938 62.3648C38.4082 64.0266 33.6754 61.2746 23.638 62.3515C14.6376 63.322 5.69032 70.0623 3.7759 65.3162C1.19676 58.9215 13.4676 56.4886 22.1357 56.5817C30.8037 56.6747 39.4319 59.6261 38.7938 62.3648Z" fill="url(#paint27_radial_1_1115)"/>
<path d="M46.3053 55.5842C45.295 56.5149 43.0482 53.6831 37.398 51.6358C32.0669 49.708 28.5039 48.5647 22.4283 48.4849C16.3527 48.4052 12.2713 51.4762 10.7557 47.6341C9.24012 43.792 12.7366 41.4255 21.8567 41.6781C32.4258 41.9706 38.3818 45.8792 41.9846 48.6312C44.6169 50.6254 47.5284 54.4542 46.3053 55.5842Z" fill="url(#paint28_radial_1_1115)"/>
<path d="M60.6896 51.7425C59.0544 52.9656 54.2816 46.4778 48.1262 42.4629C44.2044 39.897 37.1051 39.445 38.4478 34.5925C39.7773 29.7932 45.8263 32.1729 51.3169 36.6532C57.9642 42.064 62.6173 50.2934 60.6896 51.7425Z" fill="url(#paint29_radial_1_1115)"/>
<path d="M34.2336 14.8364C32.9972 17.7479 34.9914 20.1542 39.0595 21.0981C43.4068 22.1085 48.2061 25.2062 52.0084 28.3038C56.4089 31.8933 59.6262 35.7487 61.7932 38.8996C63.3885 41.2128 64.9573 43.8584 66.0341 43.4995C67.111 43.1405 66.7388 40.6411 65.755 38.0487C64.7712 35.4563 61.5007 27.1605 52.4471 19.6357C45.5206 13.8925 36.826 8.76079 34.2336 14.8364Z" fill="url(#paint30_radial_1_1115)"/>
<path d="M26.549 31.2821C26.4027 33.4358 28.0645 35.1375 30.75 35.297C32.7309 35.4167 35.669 34.9381 35.8419 32.0798C36.0147 29.4076 34.1402 27.6128 31.109 27.6128C28.7824 27.6128 26.7351 28.5966 26.549 31.2821Z" fill="#FEDE6A"/>
<path d="M66.579 19.2105C64.2392 20.859 66.1137 23.7838 68.1743 27.1872C70.235 30.5906 73.2795 37.8893 75.606 37.2645C77.9325 36.6397 73.9974 26.2699 73.1066 23.6775C72.2159 21.085 69.8893 16.8839 66.579 19.2105Z" fill="url(#paint31_radial_1_1115)"/>
<path d="M82.3066 48.8839C84.8325 49.203 84.899 39.0593 87.8504 29.5802C90.8018 20.1012 94.6439 15.2886 90.8018 13.8528C86.9597 12.417 83.8089 17.4556 82.0008 27.0809C80.3922 35.6559 80.0731 48.5915 82.3066 48.8839Z" fill="url(#paint32_radial_1_1115)"/>
<path d="M95.0029 39.9364C97.0901 41.1861 98.9646 32.1857 106.25 25.4453C115.902 16.5114 124.876 17.1761 123.427 12.6028C122.562 9.87741 115.53 10.2762 109.188 14.7565C102.7 19.3431 99.9218 23.6905 97.1433 29.5002C95.3086 33.329 93.5272 39.059 95.0029 39.9364Z" fill="url(#paint33_radial_1_1115)"/>
<path d="M103.485 43.0744C104.907 44.0449 108.75 39.2057 112.419 36.1879C117.551 31.9602 122.895 29.3146 128.997 27.5198C135.139 25.725 139.606 26.1239 138.955 22.2419C138.237 17.961 131.257 19.45 126.338 21.3777C119.651 24.01 113.668 27.214 109.202 32.2793C105.559 36.4272 102.448 42.3565 103.485 43.0744Z" fill="url(#paint34_radial_1_1115)"/>
<path d="M108.576 54.8664C110.305 56.2091 112.033 52.2208 116.646 49.0965C120.754 46.318 124.025 44.3371 128.399 42.9943C132.148 41.851 138.064 41.9972 136.987 38.6869C136.043 35.7754 130.207 35.7887 125.66 37.4638C121.313 39.0591 117.085 42.1036 113.815 45.5203C111.182 48.2989 107.287 53.856 108.576 54.8664Z" fill="url(#paint35_radial_1_1115)"/>
<path d="M70.4609 75.287C70.4609 76.55 75.021 76.5367 77.0019 78.3315C79.6475 80.7245 79.8469 83.8354 81.0434 83.8354C82.2266 83.8354 83.0376 79.2222 85.2578 77.5072C87.4913 75.7922 91.4265 75.7257 91.36 74.609C91.2935 73.4923 86.5606 73.5188 84.1543 71.3385C82.0405 69.4241 81.748 66.3531 80.8041 66.3664C79.714 66.3797 80.0197 69.5571 76.9354 72.0166C73.6649 74.609 70.4609 74.024 70.4609 75.287Z" fill="#FFFFFD"/>
<path d="M36.8389 146.081C34.0736 146.161 33.4621 148.766 33.595 150.348C33.7679 152.489 35.2303 153.951 37.4372 153.845C40.0562 153.712 40.5614 151.532 40.3088 149.285C40.1625 148.062 39.2851 146.014 36.8389 146.081Z" fill="#FFDD74"/>
<path d="M98.2339 48.8045C98.0345 50.9582 99.1113 51.8888 100.866 51.8888C102.874 51.8888 103.645 50.453 103.592 49.0571C103.552 47.8738 102.927 46.5311 101.012 46.4247C99.5235 46.345 98.3934 47.1559 98.2339 48.8045ZM113.576 69.8896C113.43 71.6977 114.387 73.3728 116.182 73.3728C118.229 73.3728 119.066 71.6977 119.013 70.2752C118.973 69.0654 118.535 67.3902 116.594 67.2839C115.065 67.1908 113.709 68.2145 113.576 69.8896ZM64.9443 47.7675C64.6518 49.6154 65.7819 51.0379 67.5367 50.9316C69.7038 50.7986 70.4217 49.2831 70.3685 47.8207C70.3153 46.5843 69.4113 45.2548 67.8026 45.2548C66.194 45.2548 65.2235 46.0525 64.9443 47.7675ZM43.1811 65.5689C42.9551 67.8688 44.2713 68.9457 46.1857 68.9457C48.3793 68.9457 49.2434 67.1376 49.177 65.6487C49.1238 64.3857 48.4458 62.9499 46.3718 62.8435C44.7366 62.7637 43.3407 63.8007 43.1811 65.5689ZM38.2754 82.9715C38.0627 85.4044 39.2858 86.428 41.1072 86.428C43.1944 86.428 43.9921 84.7928 43.9389 83.2241C43.899 81.8813 43.2476 80.3657 41.2667 80.2461C39.7112 80.153 38.435 81.0969 38.2754 82.9715ZM47.0365 94.6707C45.9597 96.5186 46.3053 98.1672 47.7412 98.8452C49.403 99.6296 50.892 98.2469 51.437 96.9839C51.9024 95.9071 52.1018 94.2718 50.5729 93.4343C49.3897 92.7829 47.8608 93.2615 47.0365 94.6707ZM55.7312 107.885C55.5318 110.106 56.6086 111.103 58.3502 111.103C60.3444 111.103 61.1288 109.64 61.0889 108.205C61.049 106.981 60.3843 105.32 58.4832 105.32C56.9809 105.32 55.8774 106.184 55.7312 107.885ZM71.4852 111.927C71.0731 113.855 72.0835 115.344 73.8783 115.503C75.9389 115.689 76.8031 114.24 76.9759 112.765C77.1221 111.409 76.5239 109.72 74.5696 109.534C73.0274 109.401 71.8575 110.199 71.4852 111.927ZM87.9971 117.949C87.7711 120.316 89.0872 121.592 91.0149 121.592C93.2351 121.592 94.0062 119.824 93.953 118.295C93.8999 116.992 93.5542 115.011 91.0149 114.918C89.3531 114.852 88.1699 116.141 87.9971 117.949ZM106.118 96.9042C105.918 98.9914 107.221 99.8821 108.697 99.9353C110.664 100.002 111.449 98.566 111.395 97.2099C111.356 96.0666 110.704 94.4978 108.83 94.4978C107.354 94.5111 106.277 95.3088 106.118 96.9042ZM117.95 91.3204C118.003 93.3146 119.066 94.3649 120.914 94.2585C122.749 94.1522 123.427 92.61 123.214 90.895C123.042 89.4725 121.965 88.1696 120.223 88.4089C118.854 88.5951 117.897 89.5523 117.95 91.3204ZM123.028 11.4202C122.749 14.3583 124.265 15.6345 126.724 15.6345C129.556 15.6345 130.633 13.6669 130.566 11.7791C130.5 10.1705 129.622 8.40229 126.937 8.20287C124.783 8.03004 123.241 9.17338 123.028 11.4202ZM143.555 20.4206C140.976 19.49 139.58 20.2212 138.835 22.202C137.985 24.4488 139.5 25.9777 141.202 26.4696C142.638 26.895 144.499 26.7089 145.35 24.5552C146.001 22.8801 145.15 21.0055 143.555 20.4206ZM150.548 58.8285C150.136 61.1817 151.492 62.4181 153.247 62.4181C155.254 62.4181 156.318 60.7164 156.185 59.0147C156.092 57.8315 155.44 56.5153 153.526 56.4089C152.024 56.3292 150.84 57.1933 150.548 58.8285ZM147.836 88.1829C146.453 90.0442 146.799 92.0782 148.275 92.9956C150.255 94.2187 152.103 93.2083 152.954 91.7326C153.672 90.4696 153.925 88.7014 152.117 87.4251C150.681 86.428 149.046 86.561 147.836 88.1829ZM148.487 111.541C148.275 113.762 149.351 114.706 151.173 114.706C153.247 114.706 154.005 112.911 153.951 111.475C153.911 110.252 153.26 108.869 151.292 108.763C149.737 108.683 148.647 109.84 148.487 111.541ZM130.779 146.413C128.439 146.293 127.455 147.796 127.535 149.657C127.628 151.797 129.436 152.289 130.952 152.17C132.241 152.077 133.664 151.345 133.69 149.311C133.704 147.743 132.574 146.506 130.779 146.413ZM94.4449 149.604C94.2189 152.01 95.4819 153.18 97.4362 153.18C99.6697 153.18 100.481 151.239 100.427 149.684C100.374 148.354 99.683 146.865 97.5559 146.745C95.894 146.652 94.6178 147.756 94.4449 149.604ZM56.6884 149.059C57.0075 151.625 58.7092 152.489 60.7166 152.05C63.0299 151.545 63.4287 149.338 63.0033 147.743C62.6443 146.373 61.5941 144.977 59.3739 145.336C57.6456 145.602 56.4491 147.091 56.6884 149.059ZM24.8612 121.419C23.8641 123.32 24.5156 124.942 26.1109 125.594C27.9589 126.352 29.275 125.035 29.7536 123.746C30.1657 122.642 30.086 121.18 28.3843 120.369C27.0415 119.731 25.619 119.97 24.8612 121.419ZM10.6626 129.343C11.1146 131.949 13.4013 132.627 14.9967 132.028C17.2966 131.178 17.6689 129.117 17.1637 127.495C16.7382 126.112 15.329 124.544 13.0557 125.035C11.2742 125.421 10.317 127.349 10.6626 129.343ZM11.6863 79.0895C9.62566 80.831 9.95802 82.9981 11.2343 84.1281C12.6967 85.4177 14.8903 84.6998 16.007 83.357C16.9643 82.2137 17.5625 80.1929 16.1001 78.7704C15.0498 77.7467 13.2684 77.7467 11.6863 79.0895ZM8.93434 45.2016C7.65806 47.0097 8.37597 49.2964 10.3702 50.32C12.3112 51.3038 14.5313 49.9744 15.236 48.379C15.8342 47.0097 15.8475 45.1484 13.7071 43.9652C12.032 43.0346 10.1308 43.4999 8.93434 45.2016ZM27.9323 14.7571C27.2675 17.4559 28.5837 18.9715 30.8039 19.3038C33.3431 19.6894 34.6726 17.6952 34.872 15.9137C35.0449 14.3981 34.5131 12.5768 32.12 12.0849C30.2588 11.686 28.4507 12.6831 27.9323 14.7571ZM60.464 15.3819C60.2646 17.6553 61.8866 18.8651 63.6281 18.8651C65.6223 18.8651 66.9119 17.5755 66.9784 15.8207C67.0316 14.571 66.1408 12.8427 64.0004 12.6167C62.3253 12.4305 60.6103 13.6403 60.464 15.3819ZM88.8612 11.4866C88.6219 13.9594 90.2173 15.2889 92.2513 15.2889C94.5912 15.2889 95.4553 13.4941 95.4021 11.8988C95.349 10.5427 94.6842 8.8676 92.464 8.74795C90.7092 8.66818 89.034 9.5988 88.8612 11.4866Z" fill="#FFFEFD"/>
<defs>
<radialGradient id="paint0_radial_1_1115" cx="0" cy="0" r="1" gradientUnits="userSpaceOnUse" gradientTransform="translate(80 75.424) scale(109.634 109.634)">
<stop offset="0.285" stop-color="#004FA3"/>
<stop offset="0.393" stop-color="#014D9E"/>
<stop offset="0.524" stop-color="#04468F"/>
<stop offset="0.667" stop-color="#083B77"/>
<stop offset="0.818" stop-color="#0F2B54"/>
<stop offset="0.974" stop-color="#171729"/>
<stop offset="0.977" stop-color="#171728"/>
</radialGradient>
<radialGradient id="paint1_radial_1_1115" cx="0" cy="0" r="1" gradientUnits="userSpaceOnUse" gradientTransform="translate(84.1344 67.8128) scale(15.435)">
<stop stop-color="#FEB1DA"/>
<stop offset="0.447" stop-color="#F086D2"/>
<stop offset="0.993" stop-color="#DD4CC8"/>
</radialGradient>
<radialGradient id="paint2_radial_1_1115" cx="0" cy="0" r="1" gradientUnits="userSpaceOnUse" gradientTransform="translate(89.8566 71.4447) scale(17.0157 17.0157)">
<stop stop-color="#FEB1DA"/>
<stop offset="0.447" stop-color="#F086D2"/>
<stop offset="0.993" stop-color="#DD4CC8"/>
</radialGradient>
<radialGradient id="paint3_radial_1_1115" cx="0" cy="0" r="1" gradientUnits="userSpaceOnUse" gradientTransform="translate(91.8493 76.591) scale(14.2558 14.2558)">
<stop stop-color="#FEB1DA"/>
<stop offset="0.447" stop-color="#F086D2"/>
<stop offset="0.993" stop-color="#DD4CC8"/>
</radialGradient>
<radialGradient id="paint4_radial_1_1115" cx="0" cy="0" r="1" gradientUnits="userSpaceOnUse" gradientTransform="translate(93.131 83.1081) scale(10.2873)">
<stop stop-color="#FEB1DA"/>
<stop offset="0.447" stop-color="#F086D2"/>
<stop offset="0.993" stop-color="#DD4CC8"/>
</radialGradient>
<radialGradient id="paint5_radial_1_1115" cx="0" cy="0" r="1" gradientUnits="userSpaceOnUse" gradientTransform="translate(86.0542 83.088) scale(24.5019 24.5019)">
<stop stop-color="#FEB1DA"/>
<stop offset="0.447" stop-color="#F086D2"/>
<stop offset="0.993" stop-color="#DD4CC8"/>
</radialGradient>
<radialGradient id="paint6_radial_1_1115" cx="0" cy="0" r="1" gradientUnits="userSpaceOnUse" gradientTransform="translate(78.6691 87.6494) scale(18.5831 18.5831)">
<stop stop-color="#FEB1DA"/>
<stop offset="0.447" stop-color="#F086D2"/>
<stop offset="0.993" stop-color="#DD4CC8"/>
</radialGradient>
<radialGradient id="paint7_radial_1_1115" cx="0" cy="0" r="1" gradientUnits="userSpaceOnUse" gradientTransform="translate(71.526 81.8731) scale(21.5824 21.5824)">
<stop stop-color="#FEB1DA"/>
<stop offset="0.447" stop-color="#F086D2"/>
<stop offset="0.993" stop-color="#DD4CC8"/>
</radialGradient>
<radialGradient id="paint8_radial_1_1115" cx="0" cy="0" r="1" gradientUnits="userSpaceOnUse" gradientTransform="translate(65.8956 80.5026) scale(12.3679 12.3679)">
<stop stop-color="#FEB1DA"/>
<stop offset="0.447" stop-color="#F086D2"/>
<stop offset="0.993" stop-color="#DD4CC8"/>
</radialGradient>
<radialGradient id="paint9_radial_1_1115" cx="0" cy="0" r="1" gradientUnits="userSpaceOnUse" gradientTransform="translate(67.5985 76.5204) scale(16.6873)">
<stop stop-color="#FEB1DA"/>
<stop offset="0.447" stop-color="#F086D2"/>
<stop offset="0.993" stop-color="#DD4CC8"/>
</radialGradient>
<radialGradient id="paint10_radial_1_1115" cx="0" cy="0" r="1" gradientUnits="userSpaceOnUse" gradientTransform="translate(70.9478 67.2132) scale(14.4206 14.4206)">
<stop stop-color="#FEB1DA"/>
<stop offset="0.447" stop-color="#F086D2"/>
<stop offset="0.993" stop-color="#DD4CC8"/>
</radialGradient>
<radialGradient id="paint11_radial_1_1115" cx="0" cy="0" r="1" gradientUnits="userSpaceOnUse" gradientTransform="translate(78.7555 65.8174) scale(13.1736)">
<stop stop-color="#FEB1DA"/>
<stop offset="0.447" stop-color="#F086D2"/>
<stop offset="0.993" stop-color="#DD4CC8"/>
</radialGradient>
<radialGradient id="paint12_radial_1_1115" cx="0" cy="0" r="1" gradientUnits="userSpaceOnUse" gradientTransform="translate(115.788 56.12) scale(31.8245)">
<stop offset="0.223" stop-color="#FF7E8A"/>
<stop offset="0.337" stop-color="#FF8290"/>
<stop offset="0.483" stop-color="#FF8E9F"/>
<stop offset="0.61" stop-color="#FF9CB3"/>
<stop offset="0.694" stop-color="#FFA6A8"/>
<stop offset="0.84" stop-color="#FEC08C"/>
<stop offset="1" stop-color="#FDE366"/>
</radialGradient>
<radialGradient id="paint13_radial_1_1115" cx="0" cy="0" r="1" gradientUnits="userSpaceOnUse" gradientTransform="translate(122.407 66.9553) scale(14.846)">
<stop offset="0.396" stop-color="#FF7E8A"/>
<stop offset="0.575" stop-color="#FF8290"/>
<stop offset="0.802" stop-color="#FF8E9F"/>
<stop offset="1" stop-color="#FF9CB3"/>
</radialGradient>
<radialGradient id="paint14_radial_1_1115" cx="0" cy="0" r="1" gradientUnits="userSpaceOnUse" gradientTransform="translate(119.067 75.4308) scale(30.6519 30.6519)">
<stop offset="0.309" stop-color="#FF7E8A"/>
<stop offset="0.397" stop-color="#FF8290"/>
<stop offset="0.508" stop-color="#FF8E9F"/>
<stop offset="0.605" stop-color="#FF9CB3"/>
<stop offset="0.69" stop-color="#FFA6A8"/>
<stop offset="0.838" stop-color="#FEC08C"/>
<stop offset="1" stop-color="#FDE366"/>
</radialGradient>
<radialGradient id="paint15_radial_1_1115" cx="0" cy="0" r="1" gradientUnits="userSpaceOnUse" gradientTransform="translate(128.024 86.4824) scale(32.6661 32.6661)">
<stop offset="0.316" stop-color="#FF7E8A"/>
<stop offset="0.405" stop-color="#FF8290"/>
<stop offset="0.518" stop-color="#FF8E9F"/>
<stop offset="0.617" stop-color="#FF9CB3"/>
<stop offset="0.699" stop-color="#FFA6A8"/>
<stop offset="0.843" stop-color="#FEC08C"/>
<stop offset="1" stop-color="#FDE366"/>
</radialGradient>
<radialGradient id="paint16_radial_1_1115" cx="0" cy="0" r="1" gradientUnits="userSpaceOnUse" gradientTransform="translate(130.275 100.358) scale(24.8794 24.8794)">
<stop offset="0.178" stop-color="#FF7E8A"/>
<stop offset="0.286" stop-color="#FF8290"/>
<stop offset="0.423" stop-color="#FF8E9F"/>
<stop offset="0.543" stop-color="#FF9CB3"/>
<stop offset="0.611" stop-color="#FFA6A8"/>
<stop offset="0.73" stop-color="#FEC08C"/>
<stop offset="0.861" stop-color="#FDE366"/>
</radialGradient>
<radialGradient id="paint17_radial_1_1115" cx="0" cy="0" r="1" gradientUnits="userSpaceOnUse" gradientTransform="translate(117.118 101.209) scale(45.6535 45.6535)">
<stop stop-color="#FF7E8A"/>
<stop offset="0.158" stop-color="#FF8290"/>
<stop offset="0.36" stop-color="#FF8E9F"/>
<stop offset="0.536" stop-color="#FF9CB3"/>
<stop offset="0.62" stop-color="#FFA6A8"/>
<stop offset="0.768" stop-color="#FEC18B"/>
<stop offset="0.922" stop-color="#FDE366"/>
</radialGradient>
<radialGradient id="paint18_radial_1_1115" cx="0" cy="0" r="1" gradientUnits="userSpaceOnUse" gradientTransform="translate(102.753 99.7009) scale(40.8808 40.8808)">
<stop offset="0.304" stop-color="#FF7E8A"/>
<stop offset="0.348" stop-color="#FF818E"/>
<stop offset="0.756" stop-color="#FF9CB3"/>
<stop offset="0.804" stop-color="#FFA3AC"/>
<stop offset="0.876" stop-color="#FEB598"/>
<stop offset="0.961" stop-color="#FDD377"/>
<stop offset="1" stop-color="#FDE366"/>
</radialGradient>
<radialGradient id="paint19_radial_1_1115" cx="0" cy="0" r="1" gradientUnits="userSpaceOnUse" gradientTransform="translate(94.661 125.316) scale(23.9967 23.9967)">
<stop offset="0.126" stop-color="#FF7E8A"/>
<stop offset="0.302" stop-color="#FF8A9B"/>
<stop offset="0.598" stop-color="#FF9CB3"/>
<stop offset="0.731" stop-color="#FF9EB0"/>
<stop offset="0.811" stop-color="#FFA6A8"/>
<stop offset="0.878" stop-color="#FEB39A"/>
<stop offset="0.937" stop-color="#FEC685"/>
<stop offset="0.991" stop-color="#FDDE6B"/>
<stop offset="1" stop-color="#FDE366"/>
</radialGradient>
<radialGradient id="paint20_radial_1_1115" cx="0" cy="0" r="1" gradientUnits="userSpaceOnUse" gradientTransform="translate(74.125 118.398) scale(23.3652 23.3652)">
<stop offset="0.126" stop-color="#FF7E8A"/>
<stop offset="0.302" stop-color="#FF8A9B"/>
<stop offset="0.598" stop-color="#FF9CB3"/>
<stop offset="0.731" stop-color="#FF9EB0"/>
<stop offset="0.811" stop-color="#FFA6A8"/>
<stop offset="0.878" stop-color="#FEB39A"/>
<stop offset="0.937" stop-color="#FEC685"/>
<stop offset="0.991" stop-color="#FDDE6B"/>
<stop offset="1" stop-color="#FDE366"/>
</radialGradient>
<radialGradient id="paint21_radial_1_1115" cx="0" cy="0" r="1" gradientUnits="userSpaceOnUse" gradientTransform="translate(58.8484 114.888) scale(31.4111)">
<stop offset="0.318" stop-color="#FF7E8A"/>
<stop offset="0.53" stop-color="#FF93A7"/>
<stop offset="0.612" stop-color="#FF9CB3"/>
<stop offset="0.699" stop-color="#FFAAA4"/>
<stop offset="0.866" stop-color="#FECF7B"/>
<stop offset="0.945" stop-color="#FDE366"/>
</radialGradient>
<radialGradient id="paint22_radial_1_1115" cx="0" cy="0" r="1" gradientUnits="userSpaceOnUse" gradientTransform="translate(45.0606 108.619) scale(30.5722 30.5722)">
<stop offset="0.396" stop-color="#FF7E8A"/>
<stop offset="0.485" stop-color="#FF8290"/>
<stop offset="0.598" stop-color="#FF8E9F"/>
<stop offset="0.696" stop-color="#FF9CB3"/>
<stop offset="0.744" stop-color="#FFA6A8"/>
<stop offset="0.829" stop-color="#FEC08C"/>
<stop offset="0.922" stop-color="#FDE366"/>
</radialGradient>
<radialGradient id="paint23_radial_1_1115" cx="0" cy="0" r="1" gradientUnits="userSpaceOnUse" gradientTransform="translate(40.1988 102.96) scale(24.9167 24.9167)">
<stop offset="0.233" stop-color="#FF7E8A"/>
<stop offset="0.369" stop-color="#FF8A9B"/>
<stop offset="0.598" stop-color="#FF9CB3"/>
<stop offset="0.731" stop-color="#FF9EB0"/>
<stop offset="0.811" stop-color="#FFA6A8"/>
<stop offset="0.878" stop-color="#FEB39A"/>
<stop offset="0.937" stop-color="#FEC685"/>
<stop offset="0.991" stop-color="#FDDE6B"/>
<stop offset="1" stop-color="#FDE366"/>
</radialGradient>
<radialGradient id="paint24_radial_1_1115" cx="0" cy="0" r="1" gradientUnits="userSpaceOnUse" gradientTransform="translate(38.0746 89.5145) scale(39.1219)">
<stop offset="0.35" stop-color="#FF7E8A"/>
<stop offset="0.43" stop-color="#FF8290"/>
<stop offset="0.533" stop-color="#FF8E9F"/>
<stop offset="0.622" stop-color="#FF9CB3"/>
<stop offset="0.687" stop-color="#FFA6A8"/>
<stop offset="0.799" stop-color="#FEC08C"/>
<stop offset="0.922" stop-color="#FDE366"/>
</radialGradient>
<radialGradient id="paint25_radial_1_1115" cx="0" cy="0" r="1" gradientUnits="userSpaceOnUse" gradientTransform="translate(33.5936 79.6208) scale(38.497 38.497)">
<stop offset="0.29" stop-color="#FF7E8A"/>
<stop offset="0.397" stop-color="#FF8290"/>
<stop offset="0.533" stop-color="#FF8E9F"/>
<stop offset="0.652" stop-color="#FF9CB3"/>
<stop offset="0.71" stop-color="#FFA6A8"/>
<stop offset="0.811" stop-color="#FEC08C"/>
<stop offset="0.922" stop-color="#FDE366"/>
</radialGradient>
<radialGradient id="paint26_radial_1_1115" cx="0" cy="0" r="1" gradientUnits="userSpaceOnUse" gradientTransform="translate(35.8249 71.824) scale(24.9765 24.9765)">
<stop offset="0.357" stop-color="#FF7E8A"/>
<stop offset="0.445" stop-color="#FF8290"/>
<stop offset="0.557" stop-color="#FF8E9F"/>
<stop offset="0.654" stop-color="#FF9CB3"/>
<stop offset="0.711" stop-color="#FFA6A8"/>
<stop offset="0.81" stop-color="#FEC08C"/>
<stop offset="0.918" stop-color="#FDE366"/>
</radialGradient>
<radialGradient id="paint27_radial_1_1115" cx="0" cy="0" r="1" gradientUnits="userSpaceOnUse" gradientTransform="translate(42.3341 62.2013) scale(36.5414 36.5414)">
<stop offset="0.334" stop-color="#FF7E8A"/>
<stop offset="0.427" stop-color="#FF8290"/>
<stop offset="0.545" stop-color="#FF8E9F"/>
<stop offset="0.648" stop-color="#FF9CB3"/>
<stop offset="0.696" stop-color="#FFA6A8"/>
<stop offset="0.778" stop-color="#FEC08C"/>
<stop offset="0.869" stop-color="#FDE366"/>
</radialGradient>
<radialGradient id="paint28_radial_1_1115" cx="0" cy="0" r="1" gradientUnits="userSpaceOnUse" gradientTransform="translate(42.9711 53.2497) scale(32.3496 32.3496)">
<stop offset="0.272" stop-color="#FF7E8A"/>
<stop offset="0.372" stop-color="#FF8290"/>
<stop offset="0.499" stop-color="#FF8E9F"/>
<stop offset="0.61" stop-color="#FF9CB3"/>
<stop offset="0.677" stop-color="#FFA6A8"/>
<stop offset="0.794" stop-color="#FEC08C"/>
<stop offset="0.922" stop-color="#FDE366"/>
</radialGradient>
<radialGradient id="paint29_radial_1_1115" cx="0" cy="0" r="1" gradientUnits="userSpaceOnUse" gradientTransform="translate(59.8401 49.5608) scale(24.5471 24.5471)">
<stop offset="0.396" stop-color="#FF7E8A"/>
<stop offset="0.758" stop-color="#FF9CB3"/>
<stop offset="0.812" stop-color="#FFA7A7"/>
<stop offset="0.908" stop-color="#FEC389"/>
<stop offset="1" stop-color="#FDE366"/>
</radialGradient>
<radialGradient id="paint30_radial_1_1115" cx="0" cy="0" r="1" gradientUnits="userSpaceOnUse" gradientTransform="translate(67.9765 42.2524) scale(36.0828 36.0828)">
<stop offset="0.666" stop-color="#FF7E8A"/>
<stop offset="0.723" stop-color="#FF8488"/>
<stop offset="0.796" stop-color="#FF9382"/>
<stop offset="0.877" stop-color="#FEAE79"/>
<stop offset="0.965" stop-color="#FDD26C"/>
<stop offset="1" stop-color="#FDE366"/>
</radialGradient>
<radialGradient id="paint31_radial_1_1115" cx="0" cy="0" r="1" gradientUnits="userSpaceOnUse" gradientTransform="translate(74.8349 40.1042) scale(21.1091 21.1091)">
<stop offset="0.666" stop-color="#FF7E8A"/>
<stop offset="0.723" stop-color="#FF8488"/>
<stop offset="0.796" stop-color="#FF9382"/>
<stop offset="0.877" stop-color="#FEAE79"/>
<stop offset="0.965" stop-color="#FDD26C"/>
<stop offset="1" stop-color="#FDE366"/>
</radialGradient>
<radialGradient id="paint32_radial_1_1115" cx="0" cy="0" r="1" gradientUnits="userSpaceOnUse" gradientTransform="translate(81.6857 51.959) scale(32.0651 32.0651)">
<stop offset="0.666" stop-color="#FF7E8A"/>
<stop offset="0.723" stop-color="#FF8488"/>
<stop offset="0.796" stop-color="#FF9382"/>
<stop offset="0.877" stop-color="#FEAE79"/>
<stop offset="0.965" stop-color="#FDD26C"/>
<stop offset="1" stop-color="#FDE366"/>
</radialGradient>
<radialGradient id="paint33_radial_1_1115" cx="0" cy="0" r="1" gradientUnits="userSpaceOnUse" gradientTransform="translate(93.7625 41.46) scale(36.6278)">
<stop offset="0.666" stop-color="#FF7E8A"/>
<stop offset="0.723" stop-color="#FF8488"/>
<stop offset="0.796" stop-color="#FF9382"/>
<stop offset="0.877" stop-color="#FEAE79"/>
<stop offset="0.965" stop-color="#FDD26C"/>
<stop offset="1" stop-color="#FDE366"/>
</radialGradient>
<radialGradient id="paint34_radial_1_1115" cx="0" cy="0" r="1" gradientUnits="userSpaceOnUse" gradientTransform="translate(102.042 40.6203) scale(33.7084 33.7083)">
<stop offset="0.666" stop-color="#FF7E8A"/>
<stop offset="0.723" stop-color="#FF8488"/>
<stop offset="0.796" stop-color="#FF9382"/>
<stop offset="0.877" stop-color="#FEAE79"/>
<stop offset="0.965" stop-color="#FDD26C"/>
<stop offset="1" stop-color="#FDE366"/>
</radialGradient>
<radialGradient id="paint35_radial_1_1115" cx="0" cy="0" r="1" gradientUnits="userSpaceOnUse" gradientTransform="translate(113.127 50.7703) scale(29.0154 29.0154)">
<stop offset="0.109" stop-color="#FF7E8A"/>
<stop offset="0.227" stop-color="#FF8290"/>
<stop offset="0.377" stop-color="#FF8E9F"/>
<stop offset="0.507" stop-color="#FF9CB3"/>
<stop offset="0.613" stop-color="#FFA6A8"/>
<stop offset="0.798" stop-color="#FEC08C"/>
<stop offset="1" stop-color="#FDE366"/>
</radialGradient>
</defs>
</svg>
