<svg width="260" height="260" viewBox="0 0 260 260" fill="none" xmlns="http://www.w3.org/2000/svg">
<g filter="url(#filter0_d_143_4)">
<rect x="50" y="46" width="160" height="160" rx="17" fill="#DDD8B1"/>
</g>
<path d="M151.066 128.847C150.88 129.557 151.595 130.343 152.65 130.61C153.708 130.873 154.703 130.509 154.885 129.8L161.083 104.991C161.263 104.283 160.549 103.487 159.499 103.233C158.442 102.959 157.439 103.323 157.265 104.035L151.066 128.847Z" fill="#808285"/>
<path d="M152.69 129.013C152.647 129.182 152.638 129.358 152.663 129.531C152.688 129.704 152.747 129.87 152.837 130.02C152.926 130.169 153.044 130.3 153.184 130.404C153.324 130.508 153.483 130.584 153.653 130.627C153.994 130.709 154.354 130.654 154.654 130.473C154.955 130.291 155.172 129.999 155.258 129.658L161.463 104.853C161.532 104.518 161.47 104.17 161.288 103.88C161.107 103.591 160.82 103.383 160.489 103.299C160.158 103.216 159.807 103.264 159.51 103.433C159.213 103.603 158.994 103.88 158.896 104.208L152.69 129.013Z" fill="#9D9EA4"/>
<path d="M147.85 95.9751C148.211 90.2779 151.588 86.3327 155.317 84.4371C157.244 83.4499 159.518 82.769 162.161 82.8854C168.228 83.1488 172.019 87.0581 173.468 91.2172C174.224 93.3729 174.465 96.1479 173.447 98.8972C171.69 103.7 167.049 106.536 162.06 105.842C159.124 105.428 157.139 103.956 155.761 101.949C154.211 99.6996 153.319 95.4669 155.666 92.2779C157.62 89.609 162.595 87.7733 165.932 90.9024C167.148 92.0333 168.279 94.2865 167.482 96.6526C166.813 98.6885 164.654 100.067 162.621 99.5148C161.129 99.1145 160.34 98.0144 160.635 96.3053C160.814 96.2625 160.862 96.8202 161.056 97.0905C161.249 97.3609 161.589 97.6517 161.964 97.7886C164.132 98.6115 165.536 96.7227 165.302 94.7501C165.127 93.159 163.663 91.8382 161.697 91.8109C159.672 91.7715 157.853 93.118 157.165 94.9571C155.873 98.4182 158.127 102.185 161.725 103.102C165.644 104.102 169.174 101.824 170.64 98.7295C172.01 95.8416 171.461 93.0752 170.411 90.9281C168.941 87.9187 165.504 85.2617 160.802 85.6022C156.308 85.9255 151.629 89.0239 150.684 95.0409C150.37 97.0717 150.537 98.5225 150.98 100.143C151.755 103.031 153.34 105.587 156.276 107.518C159.172 109.421 163.458 110.1 166.701 109.309C169.736 108.57 172.452 106.957 174.405 104.569C176.743 101.708 177.943 98.085 177.776 94.3942C177.606 91.2584 176.543 88.2364 174.713 85.6843C173.035 83.3541 169.959 80.9795 166.635 79.9239L164.715 79.438C160.951 78.9795 157.581 79.4021 154.679 80.6048C156.516 79.4692 158.562 78.7138 160.696 78.3831C162.83 78.0525 165.009 78.1535 167.103 78.6801C175.776 80.8477 181.052 89.6501 178.886 98.3258C176.713 107.005 167.92 112.281 159.242 110.115C156.182 109.351 153.412 107.71 151.273 105.394C149.133 103.077 147.717 100.186 147.198 97.0751C147.456 96.798 147.685 96.4404 147.853 95.9751" fill="#DEB5E5"/>
<path d="M170.671 98.7313C169.947 100.253 168.775 101.518 167.312 102.355L166.503 98.3293C166.951 97.8536 167.312 97.2856 167.519 96.6543C167.835 95.6979 167.867 94.6708 167.613 93.6963L170.871 91.9136C171.612 93.8896 171.839 96.2625 170.671 98.7313Z" fill="#29ABE2"/>
<path d="M166.733 109.306C165.696 109.544 164.633 109.651 163.569 109.624L163.295 105.929C165.229 105.982 167.059 105.518 168.666 104.618L172.122 106.776C170.516 107.977 168.681 108.838 166.731 109.306M174.743 85.6844C176.136 87.6297 177.089 89.8543 177.538 92.2044L173.867 92.5295C173.333 90.2286 172.173 88.1202 170.515 86.4371L172.897 83.6228C173.612 84.29 174.241 84.9915 174.743 85.6844Z" fill="#93278F"/>
<path d="M161.757 103.104C158.159 102.184 155.906 98.42 157.198 94.9555C157.885 93.1164 159.699 91.7734 161.724 91.8093C163.697 91.8401 165.163 93.1609 165.336 94.752C165.564 96.728 164.159 98.6133 161.998 97.787C161.635 97.6432 161.319 97.403 161.083 97.0924C160.896 96.8221 160.848 96.2558 160.669 96.3071C160.368 98.018 161.163 99.1163 162.655 99.5167C162.768 99.5509 162.883 99.5748 162.996 99.5902L163.738 103.337C163.07 103.347 162.404 103.269 161.757 103.104ZM174.804 104.105L171.634 102.126C172.425 101.156 173.048 100.061 173.478 98.8854C173.797 98.0216 174.004 97.1207 174.094 96.2045L177.798 95.8777C177.632 98.8551 176.59 101.717 174.804 104.105ZM156.299 107.527C154.623 106.42 153.377 105.103 152.482 103.642L155.793 101.963C156.73 103.315 157.947 104.437 159.552 105.133L159.832 109.085C158.582 108.748 157.391 108.223 156.299 107.527Z" fill="#29ABE2"/>
<path d="M151.005 100.141C150.568 98.5224 150.396 97.0716 150.715 95.0425C151.265 91.5558 153.07 89.0409 155.371 87.4857L156.996 90.957C156.504 91.3373 156.065 91.7815 155.691 92.2778C154.274 94.2025 154.04 96.5036 154.414 98.5224L151.037 100.233C151.025 100.208 151.018 100.175 151.005 100.137" fill="#93278F"/>
<path d="M160.833 85.6004C164.351 85.3506 167.152 86.7706 168.965 88.7569L165.608 90.5892C164.016 89.3061 162.11 89.0477 160.346 89.4104L158.727 85.9545C159.429 85.7663 160.13 85.6517 160.833 85.6004ZM157.966 79.6261L158.293 83.2976C157.23 83.5782 156.24 83.9699 155.337 84.4387C154.102 85.0691 152.97 85.883 151.98 86.8527L149.205 84.3857C151.54 81.9392 154.488 80.3121 157.966 79.6261ZM147.876 95.975C146.885 98.6439 144.142 97.8672 144.124 97.472C144.03 93.9716 145.155 90.2402 146.952 87.3146L149.713 89.7697C148.626 91.6672 147.997 93.7918 147.876 95.975Z" fill="#29ABE2"/>
<path d="M164.739 79.4413L166.665 79.9238C167.801 80.2848 168.907 80.8031 169.935 81.4156L167.535 84.2573C165.873 83.4159 164.047 82.9482 162.185 82.887C162.111 82.8801 162.031 82.8801 161.957 82.8801L161.63 79.2617C162.669 79.2518 163.708 79.3118 164.739 79.4413Z" fill="#93278F"/>
<path d="M146.958 87.3165C147.091 87.0919 147.231 86.8722 147.379 86.6578C147.942 85.8349 148.551 85.0787 149.212 84.3841L151.987 86.8512C151.104 87.7179 150.341 88.6997 149.72 89.7699L146.958 87.3165ZM161.629 79.2618L161.956 82.8803C160.721 82.8468 159.487 82.9873 158.291 83.2977L157.964 79.6263C159.128 79.3987 160.353 79.2721 161.629 79.2618ZM172.895 83.6228L170.515 86.4371C169.639 85.5613 168.634 84.8261 167.533 84.2575L169.933 81.4158C171.025 82.0676 172.026 82.8187 172.895 83.6228ZM177.805 94.3977C177.832 94.899 177.832 95.3883 177.805 95.8827L174.101 96.2095C174.221 94.9785 174.144 93.7364 173.874 92.5295L177.545 92.2044C177.678 92.9332 177.766 93.662 177.805 94.3977ZM174.435 104.572C173.754 105.398 172.977 106.14 172.12 106.783L168.664 104.625C169.797 103.982 170.803 103.136 171.632 102.131L174.803 104.11C174.683 104.268 174.561 104.425 174.435 104.572ZM159.833 109.084L159.552 105.132C160.307 105.467 161.15 105.713 162.091 105.842C162.5 105.901 162.902 105.936 163.295 105.943L163.569 109.638C162.306 109.606 161.051 109.42 159.833 109.084ZM151.039 100.239L154.416 98.5277C154.669 99.8553 155.171 101.065 155.793 101.967L152.483 103.645C151.842 102.587 151.356 101.443 151.039 100.247M158.712 85.9547L160.33 89.4106C159.114 89.6679 157.971 90.1972 156.987 90.9589L155.362 87.4876C156.388 86.7982 157.519 86.2792 158.712 85.9547ZM170.431 90.9298C170.585 91.2412 170.734 91.5714 170.861 91.9136L167.603 93.6963C167.321 92.6308 166.752 91.6629 165.959 90.8973C165.841 90.7922 165.721 90.6895 165.598 90.5894L168.955 88.757C169.562 89.4294 170.063 90.1651 170.431 90.9298ZM163.742 103.339L162.999 99.5919C164.289 99.8057 165.595 99.2736 166.503 98.331L167.312 102.357C166.222 102.975 164.995 103.312 163.742 103.339Z" fill="#FBB03B"/>
<path d="M133.566 85.4429L166.659 94.0245L158.016 127.362L124.921 118.78L133.566 85.4429Z" fill="#00A79D"/>
<path d="M147.415 88.0776L153.259 89.5934L144.15 124.734L138.306 123.22L147.415 88.0776Z" fill="#EF4136"/>
<path d="M127.574 104.31L129.092 98.4712L164.231 107.597L162.713 113.438L127.574 104.31Z" fill="#EF4136"/>
<path d="M84.8545 85.4943L131.526 73L144.111 120.014L97.4395 132.508L84.8545 85.4943Z" fill="#FFF200"/>
<path d="M125.239 126.431L117.009 128.64L103.726 79.07L111.967 76.8596L125.239 126.431Z" fill="#27AAE1"/>
<path d="M90.6289 112.87L88.4219 104.627L138.001 91.3507L140.208 99.5919L90.6289 112.87Z" fill="#27AAE1"/>
<path d="M92.5944 109.049L84.9777 108.175L79 175.411L89.0102 174.241L103.725 136.654L92.5944 109.049Z" fill="#BE1E2D"/>
<path d="M79 175.403L93.4909 182L89.0102 174.233L79 175.403Z" fill="#CC2D32"/>
<path d="M92.5945 109.049L89.0103 174.232L93.491 182L107.027 131.324L95.4362 106.947L92.5945 109.049Z" fill="#840C1A"/>
<path d="M178.831 108.175L95.436 106.947L93.4907 182L184.118 176.611L178.831 108.175Z" fill="#C92B3D"/>
<path d="M127.313 115.292C142.151 118.659 156.205 125.643 171.393 119.506C174.115 118.404 176.782 117.177 179.43 115.917L178.833 108.173L95.4343 106.947L94.981 124.38C104.551 117.67 114.521 112.387 127.313 115.292Z" fill="#BE1E2D"/>
<path d="M137.908 131.77C118.771 126.132 109.234 130.177 94.5843 139.86L93.835 168.881C99.077 164.756 103.905 159.827 109.429 155.448C118.136 148.553 126.314 150.579 136.406 152.491C150.75 155.213 165.508 157.378 179.571 151.93C180.465 151.581 181.275 151.193 182.125 150.82L180.465 129.356C167.472 134.671 154.053 136.524 137.903 131.77" fill="#DB425F"/>
<path d="M147.709 168.176C140.674 167.037 132.175 163.834 125.101 164.041C114.502 164.342 109.474 170.854 102.264 177.213C100.455 178.811 98.5883 180.342 96.668 181.805L184.109 176.612L183.174 164.45C171.677 168.465 159.995 170.166 147.706 168.176" fill="#D1334A"/>
<path d="M183.409 166.123L93.7782 169.22L93.4839 182L186.263 176.782L183.409 166.123Z" fill="#BE1E2D"/>
<path d="M118.064 118.269C118.064 120.967 115.457 123.164 112.247 123.164C109.044 123.164 106.437 120.967 106.437 118.269C106.437 115.564 109.044 113.378 112.247 113.378C115.457 113.376 118.064 115.564 118.064 118.269ZM173.446 117.159C173.446 119.853 170.845 122.05 167.636 122.05C164.426 122.05 161.819 119.853 161.819 117.159C161.819 114.454 164.426 112.268 167.636 112.268C170.845 112.266 173.446 114.454 173.446 117.159Z" fill="#FFF200"/>
<path d="M114.948 121.672C116.532 129.992 115.489 140.343 132.823 146.469C135.725 147.492 139.424 148.38 143.122 148.594C147.141 148.835 150.577 148.187 153.266 147.051C159.459 144.396 161.731 140.207 163.177 136.551C165.216 131.385 166.267 125.973 165.872 120.661C165.771 119.116 171.375 119.137 171.488 120.688C171.829 125.29 170.867 129.858 169.629 134.375C168.552 138.322 166.766 142.3 162.462 145.756C160.356 147.448 157.567 149.027 153.73 150.05C150.231 150.986 146.033 151.165 141.839 150.878C133.427 150.289 125.999 147.321 121.138 144.426C115.889 141.304 113.475 137.419 111.951 133.78C110.266 129.749 110.118 125.669 109.355 121.648C109.061 120.108 114.671 120.129 114.958 121.67" fill="#E6E7E8"/>
<defs>
<filter id="filter0_d_143_4" x="0" y="0" width="260" height="260" filterUnits="userSpaceOnUse" color-interpolation-filters="sRGB">
<feFlood flood-opacity="0" result="BackgroundImageFix"/>
<feColorMatrix in="SourceAlpha" type="matrix" values="0 0 0 0 0 0 0 0 0 0 0 0 0 0 0 0 0 0 127 0" result="hardAlpha"/>
<feOffset dy="4"/>
<feGaussianBlur stdDeviation="25"/>
<feComposite in2="hardAlpha" operator="out"/>
<feColorMatrix type="matrix" values="0 0 0 0 0 0 0 0 0 0 0 0 0 0 0 0 0 0 0.1 0"/>
<feBlend mode="normal" in2="BackgroundImageFix" result="effect1_dropShadow_143_4"/>
<feBlend mode="normal" in="SourceGraphic" in2="effect1_dropShadow_143_4" result="shape"/>
</filter>
</defs>
</svg>
