<svg width="260" height="260" viewBox="0 0 260 260" fill="none" xmlns="http://www.w3.org/2000/svg">
<g opacity="0.32" filter="url(#filter0_d_1_1270)">
<rect x="50" y="46" width="160" height="160" rx="17" fill="#DDD8B1"/>
</g>
<path d="M196.752 194.255H130.206V208.8H196.752V194.255Z" fill="url(#paint0_linear_1_1270)"/>
<path d="M131.4 193.755H67.1533V208.85H131.41L131.4 193.755Z" fill="url(#paint1_linear_1_1270)"/>
<path d="M131.4 193.755H67.1533V208.85H131.41L131.4 193.755Z" fill="url(#paint2_linear_1_1270)"/>
<path d="M191.954 178.861H131.405V194.255H191.954V178.861Z" fill="url(#paint3_linear_1_1270)"/>
<path d="M131.4 178.861H72.0015V194.255H131.41L131.4 178.861Z" fill="url(#paint4_linear_1_1270)"/>
<path d="M131.4 178.861H72.0015V194.255H131.41L131.4 178.861Z" fill="url(#paint5_linear_1_1270)"/>
<path d="M187.156 163.916H130.406V178.811H187.156V163.916Z" fill="url(#paint6_linear_1_1270)"/>
<path d="M129.476 163.916H76.9946V178.811H129.476V163.916Z" fill="url(#paint7_linear_1_1270)"/>
<path d="M129.476 163.916H76.9946V178.811H129.476V163.916Z" fill="url(#paint8_linear_1_1270)"/>
<path d="M146.97 98.8892H116.98V108.836H146.97V98.8892Z" fill="url(#paint9_radial_1_1270)"/>
<path d="M146.97 98.8892H116.98V108.836H146.97V98.8892Z" fill="url(#paint10_linear_1_1270)"/>
<path d="M149.219 98.8891H115.131C114.81 98.8891 114.491 98.8258 114.194 98.7027C113.897 98.5796 113.627 98.3992 113.399 98.1718C113.172 97.9444 112.992 97.6744 112.869 97.3773C112.745 97.0801 112.682 96.7616 112.682 96.44V96.3401C112.682 94.9905 113.782 93.8909 115.131 93.8909H149.219C150.569 93.8909 151.668 94.9905 151.668 96.3401V96.39C151.668 97.0443 151.412 97.6725 150.954 98.1397C150.496 98.607 149.873 98.8761 149.219 98.8891Z" fill="url(#paint11_radial_1_1270)"/>
<path d="M149.219 98.8891H115.131C114.81 98.8891 114.491 98.8258 114.194 98.7027C113.897 98.5796 113.627 98.3992 113.399 98.1718C113.172 97.9444 112.992 97.6744 112.869 97.3773C112.745 97.0801 112.682 96.7616 112.682 96.44V96.3401C112.682 94.9905 113.782 93.8909 115.131 93.8909H149.219C150.569 93.8909 151.668 94.9905 151.668 96.3401V96.39C151.668 97.0443 151.412 97.6725 150.954 98.1397C150.496 98.607 149.873 98.8761 149.219 98.8891Z" fill="url(#paint12_radial_1_1270)"/>
<path d="M146.97 93.8913H116.98C116.98 91.1422 119.23 88.943 121.929 88.943H141.972C144.771 88.893 146.97 91.1422 146.97 93.8913Z" fill="url(#paint13_radial_1_1270)"/>
<path d="M146.97 93.8913H116.98C116.98 91.1422 119.23 88.943 121.929 88.943H141.972C144.771 88.893 146.97 91.1422 146.97 93.8913Z" fill="url(#paint14_radial_1_1270)"/>
<g filter="url(#filter1_i_1_1270)">
<path d="M131.975 84.2446C129.226 84.2446 126.977 82.0453 126.977 79.2963V79.1464C126.977 76.4473 129.226 69 131.975 69C134.724 69 136.973 76.4473 136.973 79.1464V79.3463C136.973 82.0453 134.774 84.2446 131.975 84.2446Z" fill="url(#paint15_linear_1_1270)"/>
<path d="M131.975 84.2446C129.226 84.2446 126.977 82.0453 126.977 79.2963V79.1464C126.977 76.4473 129.226 69 131.975 69C134.724 69 136.973 76.4473 136.973 79.1464V79.3463C136.973 82.0453 134.774 84.2446 131.975 84.2446Z" fill="url(#paint16_linear_1_1270)"/>
<path d="M131.975 84.2446C129.226 84.2446 126.977 82.0453 126.977 79.2963V79.1464C126.977 76.4473 129.226 69 131.975 69C134.724 69 136.973 76.4473 136.973 79.1464V79.3463C136.973 82.0453 134.774 84.2446 131.975 84.2446Z" fill="url(#paint17_linear_1_1270)"/>
</g>
<path d="M134.524 88.943H129.476C128.126 88.943 126.977 87.8434 126.977 86.4439C126.977 85.0944 128.076 83.9448 129.476 83.9448H134.524C135.873 83.9448 137.023 85.0444 137.023 86.4439C136.973 87.8434 135.873 88.943 134.524 88.943Z" fill="url(#paint18_linear_1_1270)"/>
<path d="M134.524 88.943H129.476C128.126 88.943 126.977 87.8434 126.977 86.4439C126.977 85.0944 128.076 83.9448 129.476 83.9448H134.524C135.873 83.9448 137.023 85.0444 137.023 86.4439C136.973 87.8434 135.873 88.943 134.524 88.943Z" fill="url(#paint19_linear_1_1270)"/>
<path d="M134.524 88.943H129.476C128.126 88.943 126.977 87.8434 126.977 86.4439C126.977 85.0944 128.076 83.9448 129.476 83.9448H134.524C135.873 83.9448 137.023 85.0444 137.023 86.4439C136.973 87.8434 135.873 88.943 134.524 88.943Z" fill="url(#paint20_radial_1_1270)"/>
<path d="M199.451 198.804H64.5491C63.1496 198.804 62 197.654 62 196.255C62 194.855 63.1496 193.706 64.5491 193.706H199.451C200.85 193.706 202 194.855 202 196.255C201.95 197.654 200.85 198.804 199.451 198.804Z" fill="url(#paint21_linear_1_1270)"/>
<path d="M199.451 198.804H64.5491C63.1496 198.804 62 197.654 62 196.255C62 194.855 63.1496 193.706 64.5491 193.706H199.451C200.85 193.706 202 194.855 202 196.255C201.95 197.654 200.85 198.804 199.451 198.804Z" fill="url(#paint22_linear_1_1270)"/>
<path d="M194.253 183.859H69.3473C67.9977 183.859 66.8481 182.759 66.8481 181.36V181.26C66.8481 179.91 67.9478 178.761 69.3473 178.761H194.253C195.602 178.761 196.752 179.86 196.752 181.26V181.36C196.702 182.759 195.602 183.859 194.253 183.859Z" fill="url(#paint23_linear_1_1270)"/>
<path d="M194.253 183.859H69.3473C67.9977 183.859 66.8481 182.759 66.8481 181.36V181.26C66.8481 179.91 67.9478 178.761 69.3473 178.761H194.253C195.602 178.761 196.752 179.86 196.752 181.26V181.36C196.702 182.759 195.602 183.859 194.253 183.859Z" fill="url(#paint24_linear_1_1270)"/>
<path d="M189.454 168.864H74.5455C73.146 168.864 72.0464 167.715 72.0464 166.365C72.0464 164.966 73.196 163.866 74.5455 163.866H189.454C190.854 163.866 191.954 165.016 191.954 166.365C191.954 167.715 190.854 168.864 189.454 168.864Z" fill="url(#paint25_linear_1_1270)"/>
<path d="M189.454 168.864H74.5455C73.146 168.864 72.0464 167.715 72.0464 166.365C72.0464 164.966 73.196 163.866 74.5455 163.866H189.454C190.854 163.866 191.954 165.016 191.954 166.365C191.954 167.715 190.854 168.864 189.454 168.864Z" fill="url(#paint26_linear_1_1270)"/>
<path d="M181.957 148.971H130.406V163.866H181.957V148.971Z" fill="url(#paint27_linear_1_1270)"/>
<path d="M130.4 148.971H81.9478V163.866H130.41L130.4 148.971Z" fill="url(#paint28_linear_1_1270)"/>
<path d="M130.4 148.971H81.9478V163.866H130.41L130.4 148.971Z" fill="url(#paint29_linear_1_1270)"/>
<path d="M184.756 153.87H79.244C78.5945 153.87 77.9716 153.612 77.5123 153.152C77.053 152.693 76.7949 152.07 76.7949 151.421V151.221C76.7949 149.871 77.8945 148.772 79.244 148.772H184.556C186.006 148.772 187.156 149.921 187.156 151.371V151.421C187.156 152.77 186.056 153.87 184.756 153.87Z" fill="url(#paint30_linear_1_1270)"/>
<path d="M184.756 153.87H79.244C78.5945 153.87 77.9716 153.612 77.5123 153.152C77.053 152.693 76.7949 152.07 76.7949 151.421V151.221C76.7949 149.871 77.8945 148.772 79.244 148.772H184.556C186.006 148.772 187.156 149.921 187.156 151.371V151.421C187.156 152.77 186.056 153.87 184.756 153.87Z" fill="url(#paint31_linear_1_1270)"/>
<path d="M171.961 133.877H91.9893V148.871H171.961V133.877Z" fill="url(#paint32_linear_1_1270)"/>
<path d="M171.961 133.877H131.405V148.871H171.961V133.877Z" fill="url(#paint33_linear_1_1270)"/>
<path d="M130.4 133.877H91.9941V148.871H130.41L130.4 133.877Z" fill="url(#paint34_linear_1_1270)"/>
<path d="M130.4 133.877H91.9941V148.871H130.41L130.4 133.877Z" fill="url(#paint35_linear_1_1270)"/>
<path d="M174.41 138.925H89.0403C87.6408 138.925 86.4912 137.775 86.4912 136.376C86.4912 134.976 87.6408 133.827 89.0403 133.827H174.41C175.809 133.827 176.959 134.976 176.959 136.376C176.959 137.775 175.859 138.925 174.41 138.925Z" fill="url(#paint36_linear_1_1270)"/>
<path d="M174.41 138.925H89.0403C87.6408 138.925 86.4912 137.775 86.4912 136.376C86.4912 134.976 87.6408 133.827 89.0403 133.827H174.41C175.809 133.827 176.959 134.976 176.959 136.376C176.959 137.775 175.859 138.925 174.41 138.925Z" fill="url(#paint37_linear_1_1270)"/>
<path d="M166.962 208.85H96.9873V123.88C96.9873 112.834 105.789 104.672 116.98 103.888C128.171 103.103 136.923 103.238 146.969 103.888C157.016 104.537 166.962 112.834 166.962 123.88V208.85Z" fill="url(#paint38_linear_1_1270)"/>
<path d="M166.962 208.85H96.9873V123.88C96.9873 112.834 105.789 104.672 116.98 103.888C128.171 103.103 136.923 103.238 146.969 103.888C157.016 104.537 166.962 112.834 166.962 123.88V208.85Z" fill="url(#paint39_radial_1_1270)"/>
<path d="M166.962 208.85H96.9873V123.88C96.9873 112.834 105.789 104.672 116.98 103.888C128.171 103.103 136.923 103.238 146.969 103.888C157.016 104.537 166.962 112.834 166.962 123.88V208.85Z" fill="url(#paint40_linear_1_1270)"/>
<path d="M152.018 174.162H111.982V208.8H152.018V174.162Z" fill="#AA7369"/>
<path d="M152.018 174.162H111.982V208.8H152.018V174.162Z" fill="url(#paint41_radial_1_1270)"/>
<path d="M152.018 174.162H111.982V208.8H152.018V174.162Z" fill="url(#paint42_linear_1_1270)"/>
<path d="M152.018 174.162H111.982V208.8H152.018V174.162Z" fill="url(#paint43_linear_1_1270)"/>
<g filter="url(#filter2_i_1_1270)">
<path d="M141.921 208.85H121.979V188.307C121.979 185.858 123.978 183.859 126.427 183.859H137.423C139.872 183.859 141.871 185.858 141.871 188.307V208.85H141.921Z" fill="url(#paint44_linear_1_1270)"/>
<path d="M141.921 208.85H121.979V188.307C121.979 185.858 123.978 183.859 126.427 183.859H137.423C139.872 183.859 141.871 185.858 141.871 188.307V208.85H141.921Z" fill="url(#paint45_linear_1_1270)"/>
</g>
<path d="M119.579 145.223L111.682 173.713H150.918L142.871 145.223H119.579Z" fill="url(#paint46_linear_1_1270)"/>
<path d="M119.579 145.223L111.682 173.713H150.918L142.871 145.223H119.579Z" fill="url(#paint47_radial_1_1270)"/>
<path d="M119.579 145.223L111.682 173.713H150.918L142.871 145.223H119.579Z" fill="url(#paint48_radial_1_1270)"/>
<path d="M104.885 178.861H158.916C161.115 178.861 162.564 176.661 161.565 174.812L159.165 170.364C158.666 169.414 157.666 168.864 156.516 168.864H107.284C106.184 168.864 105.135 169.464 104.635 170.364L102.236 174.812C101.286 176.661 102.686 178.861 104.885 178.861Z" fill="#FFCE38"/>
<path d="M104.885 178.861H158.916C161.115 178.861 162.564 176.661 161.565 174.812L159.165 170.364C158.666 169.414 157.666 168.864 156.516 168.864H107.284C106.184 168.864 105.135 169.464 104.635 170.364L102.236 174.812C101.286 176.661 102.686 178.861 104.885 178.861Z" fill="url(#paint49_radial_1_1270)"/>
<path d="M104.885 178.861H158.916C161.115 178.861 162.564 176.661 161.565 174.812L159.165 170.364C158.666 169.414 157.666 168.864 156.516 168.864H107.284C106.184 168.864 105.135 169.464 104.635 170.364L102.236 174.812C101.286 176.661 102.686 178.861 104.885 178.861Z" fill="url(#paint50_linear_1_1270)"/>
<path d="M104.885 178.861H158.916C161.115 178.861 162.564 176.661 161.565 174.812L159.165 170.364C158.666 169.414 157.666 168.864 156.516 168.864H107.284C106.184 168.864 105.135 169.464 104.635 170.364L102.236 174.812C101.286 176.661 102.686 178.861 104.885 178.861Z" fill="url(#paint51_radial_1_1270)"/>
<path d="M104.885 178.861H158.916C161.115 178.861 162.564 176.661 161.565 174.812L159.165 170.364C158.666 169.414 157.666 168.864 156.516 168.864H107.284C106.184 168.864 105.135 169.464 104.635 170.364L102.236 174.812C101.286 176.661 102.686 178.861 104.885 178.861Z" fill="url(#paint52_radial_1_1270)"/>
<path d="M109.983 163.866H153.967C156.167 163.866 157.616 161.667 156.616 159.818L154.217 155.369C153.96 154.893 153.577 154.496 153.11 154.223C152.643 153.949 152.109 153.81 151.568 153.82H112.382C111.283 153.82 110.233 154.42 109.733 155.369L107.334 159.818C106.384 161.667 107.784 163.866 109.983 163.866Z" fill="#FFCE38"/>
<path d="M109.983 163.866H153.967C156.167 163.866 157.616 161.667 156.616 159.818L154.217 155.369C153.96 154.893 153.577 154.496 153.11 154.223C152.643 153.949 152.109 153.81 151.568 153.82H112.382C111.283 153.82 110.233 154.42 109.733 155.369L107.334 159.818C106.384 161.667 107.784 163.866 109.983 163.866Z" fill="url(#paint53_radial_1_1270)"/>
<path d="M109.983 163.866H153.967C156.167 163.866 157.616 161.667 156.616 159.818L154.217 155.369C153.96 154.893 153.577 154.496 153.11 154.223C152.643 153.949 152.109 153.81 151.568 153.82H112.382C111.283 153.82 110.233 154.42 109.733 155.369L107.334 159.818C106.384 161.667 107.784 163.866 109.983 163.866Z" fill="url(#paint54_linear_1_1270)"/>
<path d="M109.983 163.866H153.967C156.167 163.866 157.616 161.667 156.616 159.818L154.217 155.369C153.96 154.893 153.577 154.496 153.11 154.223C152.643 153.949 152.109 153.81 151.568 153.82H112.382C111.283 153.82 110.233 154.42 109.733 155.369L107.334 159.818C106.384 161.667 107.784 163.866 109.983 163.866Z" fill="url(#paint55_radial_1_1270)"/>
<path d="M141.921 138.975H121.979C121.979 136.176 124.278 133.877 127.077 133.877H136.823C139.672 133.877 141.921 136.176 141.921 138.975Z" fill="url(#paint56_linear_1_1270)"/>
<path d="M114.981 148.872H149.019C151.218 148.872 152.668 146.672 151.668 144.823L149.269 140.425C148.769 139.475 147.769 138.925 146.62 138.925H117.38C116.281 138.925 115.231 139.525 114.731 140.425L112.332 144.823C111.332 146.672 112.782 148.872 114.981 148.872Z" fill="#FFCE38"/>
<path d="M114.981 148.872H149.019C151.218 148.872 152.668 146.672 151.668 144.823L149.269 140.425C148.769 139.475 147.769 138.925 146.62 138.925H117.38C116.281 138.925 115.231 139.525 114.731 140.425L112.332 144.823C111.332 146.672 112.782 148.872 114.981 148.872Z" fill="url(#paint57_radial_1_1270)"/>
<path d="M114.981 148.872H149.019C151.218 148.872 152.668 146.672 151.668 144.823L149.269 140.425C148.769 139.475 147.769 138.925 146.62 138.925H117.38C116.281 138.925 115.231 139.525 114.731 140.425L112.332 144.823C111.332 146.672 112.782 148.872 114.981 148.872Z" fill="url(#paint58_linear_1_1270)"/>
<path d="M114.981 148.872H149.019C151.218 148.872 152.668 146.672 151.668 144.823L149.269 140.425C148.769 139.475 147.769 138.925 146.62 138.925H117.38C116.281 138.925 115.231 139.525 114.731 140.425L112.332 144.823C111.332 146.672 112.782 148.872 114.981 148.872Z" fill="url(#paint59_radial_1_1270)"/>
<path d="M131.975 133.877C132.638 133.877 133.274 133.613 133.742 133.145C134.211 132.676 134.474 132.04 134.474 131.378C134.474 130.715 134.211 130.079 133.742 129.61C133.274 129.142 132.638 128.878 131.975 128.878C131.312 128.878 130.677 129.142 130.208 129.61C129.739 130.079 129.476 130.715 129.476 131.378C129.476 132.04 129.739 132.676 130.208 133.145C130.677 133.613 131.312 133.877 131.975 133.877Z" fill="url(#paint60_radial_1_1270)"/>
<path d="M131.975 133.877C132.638 133.877 133.274 133.613 133.742 133.145C134.211 132.676 134.474 132.04 134.474 131.378C134.474 130.715 134.211 130.079 133.742 129.61C133.274 129.142 132.638 128.878 131.975 128.878C131.312 128.878 130.677 129.142 130.208 129.61C129.739 130.079 129.476 130.715 129.476 131.378C129.476 132.04 129.739 132.676 130.208 133.145C130.677 133.613 131.312 133.877 131.975 133.877Z" fill="url(#paint61_linear_1_1270)"/>
<g filter="url(#filter3_f_1_1270)">
<path d="M116.031 123.49H163.479C163.479 112.579 154.297 109.176 149.704 108.836H116.031V123.49Z" fill="url(#paint62_radial_1_1270)"/>
</g>
<defs>
<filter id="filter0_d_1_1270" x="0" y="0" width="260" height="260" filterUnits="userSpaceOnUse" color-interpolation-filters="sRGB">
<feFlood flood-opacity="0" result="BackgroundImageFix"/>
<feColorMatrix in="SourceAlpha" type="matrix" values="0 0 0 0 0 0 0 0 0 0 0 0 0 0 0 0 0 0 127 0" result="hardAlpha"/>
<feOffset dy="4"/>
<feGaussianBlur stdDeviation="25"/>
<feComposite in2="hardAlpha" operator="out"/>
<feColorMatrix type="matrix" values="0 0 0 0 0 0 0 0 0 0 0 0 0 0 0 0 0 0 0.1 0"/>
<feBlend mode="normal" in2="BackgroundImageFix" result="effect1_dropShadow_1_1270"/>
<feBlend mode="normal" in="SourceGraphic" in2="effect1_dropShadow_1_1270" result="shape"/>
</filter>
<filter id="filter1_i_1_1270" x="126.977" y="69" width="10.0966" height="15.2446" filterUnits="userSpaceOnUse" color-interpolation-filters="sRGB">
<feFlood flood-opacity="0" result="BackgroundImageFix"/>
<feBlend mode="normal" in="SourceGraphic" in2="BackgroundImageFix" result="shape"/>
<feColorMatrix in="SourceAlpha" type="matrix" values="0 0 0 0 0 0 0 0 0 0 0 0 0 0 0 0 0 0 127 0" result="hardAlpha"/>
<feOffset dx="0.1"/>
<feGaussianBlur stdDeviation="0.2"/>
<feComposite in2="hardAlpha" operator="arithmetic" k2="-1" k3="1"/>
<feColorMatrix type="matrix" values="0 0 0 0 0.745833 0 0 0 0 0.621759 0 0 0 0 0.313872 0 0 0 1 0"/>
<feBlend mode="normal" in2="shape" result="effect1_innerShadow_1_1270"/>
</filter>
<filter id="filter2_i_1_1270" x="121.729" y="183.859" width="20.1929" height="25.2411" filterUnits="userSpaceOnUse" color-interpolation-filters="sRGB">
<feFlood flood-opacity="0" result="BackgroundImageFix"/>
<feBlend mode="normal" in="SourceGraphic" in2="BackgroundImageFix" result="shape"/>
<feColorMatrix in="SourceAlpha" type="matrix" values="0 0 0 0 0 0 0 0 0 0 0 0 0 0 0 0 0 0 127 0" result="hardAlpha"/>
<feOffset dx="-0.25" dy="0.25"/>
<feGaussianBlur stdDeviation="0.125"/>
<feComposite in2="hardAlpha" operator="arithmetic" k2="-1" k3="1"/>
<feColorMatrix type="matrix" values="0 0 0 0 0.231373 0 0 0 0 0.141176 0 0 0 0 0.317647 0 0 0 1 0"/>
<feBlend mode="normal" in2="shape" result="effect1_innerShadow_1_1270"/>
</filter>
<filter id="filter3_f_1_1270" x="115.031" y="107.836" width="49.4482" height="16.6548" filterUnits="userSpaceOnUse" color-interpolation-filters="sRGB">
<feFlood flood-opacity="0" result="BackgroundImageFix"/>
<feBlend mode="normal" in="SourceGraphic" in2="BackgroundImageFix" result="shape"/>
<feGaussianBlur stdDeviation="0.5" result="effect1_foregroundBlur_1_1270"/>
</filter>
<linearGradient id="paint0_linear_1_1270" x1="189.574" y1="198.649" x2="189.574" y2="210.165" gradientUnits="userSpaceOnUse">
<stop stop-color="#85524F"/>
<stop offset="1" stop-color="#925F59"/>
</linearGradient>
<linearGradient id="paint1_linear_1_1270" x1="77.3797" y1="194.94" x2="77.3797" y2="209.745" gradientUnits="userSpaceOnUse">
<stop stop-color="#895855"/>
<stop offset="1" stop-color="#9C675F"/>
</linearGradient>
<linearGradient id="paint2_linear_1_1270" x1="67.5682" y1="203.872" x2="69.3875" y2="203.872" gradientUnits="userSpaceOnUse">
<stop stop-color="#8D685D"/>
<stop offset="1" stop-color="#896256" stop-opacity="0"/>
</linearGradient>
<linearGradient id="paint3_linear_1_1270" x1="185.426" y1="183.509" x2="185.426" y2="195.7" gradientUnits="userSpaceOnUse">
<stop stop-color="#875141"/>
<stop offset="1" stop-color="#876355"/>
</linearGradient>
<linearGradient id="paint4_linear_1_1270" x1="81.4581" y1="180.07" x2="81.4581" y2="194.255" gradientUnits="userSpaceOnUse">
<stop stop-color="#8F5A53"/>
<stop offset="1" stop-color="#87564A"/>
</linearGradient>
<linearGradient id="paint5_linear_1_1270" x1="72.3813" y1="189.177" x2="74.0657" y2="189.177" gradientUnits="userSpaceOnUse">
<stop stop-color="#846055"/>
<stop offset="1" stop-color="#846055" stop-opacity="0"/>
</linearGradient>
<linearGradient id="paint6_linear_1_1270" x1="181.038" y1="168.415" x2="181.038" y2="180.205" gradientUnits="userSpaceOnUse">
<stop stop-color="#875141"/>
<stop offset="1" stop-color="#876355"/>
</linearGradient>
<linearGradient id="paint7_linear_1_1270" x1="85.3516" y1="165.086" x2="85.3516" y2="178.811" gradientUnits="userSpaceOnUse">
<stop stop-color="#7D514C"/>
<stop offset="1" stop-color="#89584D"/>
</linearGradient>
<linearGradient id="paint8_linear_1_1270" x1="77.3345" y1="173.898" x2="78.824" y2="173.898" gradientUnits="userSpaceOnUse">
<stop stop-color="#7D584C"/>
<stop offset="1" stop-color="#7D584C" stop-opacity="0"/>
</linearGradient>
<radialGradient id="paint9_radial_1_1270" cx="0" cy="0" r="1" gradientUnits="userSpaceOnUse" gradientTransform="translate(131.975 98.8892) rotate(90) scale(12.3464 21.7372)">
<stop offset="0.136" stop-color="#74382B"/>
<stop offset="1" stop-color="#9A6450"/>
</radialGradient>
<linearGradient id="paint10_linear_1_1270" x1="147.625" y1="101.873" x2="144.96" y2="101.873" gradientUnits="userSpaceOnUse">
<stop stop-color="#997061"/>
<stop offset="1" stop-color="#997061" stop-opacity="0"/>
</linearGradient>
<radialGradient id="paint11_radial_1_1270" cx="0" cy="0" r="1" gradientUnits="userSpaceOnUse" gradientTransform="translate(147.04 96.39) rotate(180) scale(29.1568 8.07961)">
<stop stop-color="#50335C"/>
<stop offset="1" stop-color="#2E263A"/>
</radialGradient>
<radialGradient id="paint12_radial_1_1270" cx="0" cy="0" r="1" gradientUnits="userSpaceOnUse" gradientTransform="translate(145.525 95.9052) rotate(180) scale(15.4144 2.76936)">
<stop stop-color="#5E4A70"/>
<stop offset="1" stop-color="#5E4A70" stop-opacity="0"/>
</radialGradient>
<radialGradient id="paint13_radial_1_1270" cx="0" cy="0" r="1" gradientUnits="userSpaceOnUse" gradientTransform="translate(139.942 93.8913) rotate(180) scale(21.7891 6.24812)">
<stop stop-color="#FFC866"/>
<stop offset="1" stop-color="#EC9130"/>
</radialGradient>
<radialGradient id="paint14_radial_1_1270" cx="0" cy="0" r="1" gradientUnits="userSpaceOnUse" gradientTransform="translate(143.276 93.8913) rotate(180) scale(26.2956 159.341)">
<stop offset="0.739" stop-color="#A96F48" stop-opacity="0"/>
<stop offset="1" stop-color="#A96F48"/>
</radialGradient>
<linearGradient id="paint15_linear_1_1270" x1="129.166" y1="76.6223" x2="136.988" y2="76.6323" gradientUnits="userSpaceOnUse">
<stop stop-color="#EBB932"/>
<stop offset="0.419" stop-color="#FFD94C"/>
<stop offset="0.971" stop-color="#FFEF6C"/>
</linearGradient>
<linearGradient id="paint16_linear_1_1270" x1="132.365" y1="84.4395" x2="132.365" y2="79.6762" gradientUnits="userSpaceOnUse">
<stop stop-color="#FFBA23"/>
<stop offset="0.466" stop-color="#FFBA23"/>
<stop offset="1" stop-color="#FFBA23" stop-opacity="0"/>
</linearGradient>
<linearGradient id="paint17_linear_1_1270" x1="131.975" y1="85.2242" x2="131.975" y2="83.2699" gradientUnits="userSpaceOnUse">
<stop offset="0.6" stop-color="#B86C16"/>
<stop offset="1" stop-color="#B86C16" stop-opacity="0"/>
</linearGradient>
<linearGradient id="paint18_linear_1_1270" x1="130.96" y1="83.9448" x2="130.96" y2="89.5927" gradientUnits="userSpaceOnUse">
<stop offset="0.499" stop-color="#FFCC38"/>
<stop offset="1" stop-color="#DB7207"/>
</linearGradient>
<linearGradient id="paint19_linear_1_1270" x1="126.432" y1="87.3286" x2="129.826" y2="87.3286" gradientUnits="userSpaceOnUse">
<stop offset="0.274" stop-color="#C4A25C"/>
<stop offset="1" stop-color="#C4A25C" stop-opacity="0"/>
</linearGradient>
<radialGradient id="paint20_radial_1_1270" cx="0" cy="0" r="1" gradientUnits="userSpaceOnUse" gradientTransform="translate(137.023 85.4942) rotate(180) scale(3.33001 3.51439)">
<stop offset="0.121" stop-color="#FFF169"/>
<stop offset="1" stop-color="#FFF169" stop-opacity="0"/>
</radialGradient>
<linearGradient id="paint21_linear_1_1270" x1="62.04" y1="196.23" x2="202.025" y2="196.23" gradientUnits="userSpaceOnUse">
<stop stop-color="#271830"/>
<stop offset="1" stop-color="#503659"/>
</linearGradient>
<linearGradient id="paint22_linear_1_1270" x1="202.455" y1="196.255" x2="198.916" y2="196.255" gradientUnits="userSpaceOnUse">
<stop stop-color="#5D486E"/>
<stop offset="1" stop-color="#5D486E" stop-opacity="0"/>
</linearGradient>
<linearGradient id="paint23_linear_1_1270" x1="66.8881" y1="181.285" x2="196.772" y2="181.285" gradientUnits="userSpaceOnUse">
<stop stop-color="#271830"/>
<stop offset="1" stop-color="#503659"/>
</linearGradient>
<linearGradient id="paint24_linear_1_1270" x1="197.172" y1="181.31" x2="193.893" y2="181.31" gradientUnits="userSpaceOnUse">
<stop stop-color="#5D486E"/>
<stop offset="1" stop-color="#5D486E" stop-opacity="0"/>
</linearGradient>
<linearGradient id="paint25_linear_1_1270" x1="72.0814" y1="166.34" x2="191.974" y2="166.34" gradientUnits="userSpaceOnUse">
<stop stop-color="#271830"/>
<stop offset="1" stop-color="#503659"/>
</linearGradient>
<linearGradient id="paint26_linear_1_1270" x1="192.343" y1="166.365" x2="189.314" y2="166.365" gradientUnits="userSpaceOnUse">
<stop stop-color="#5D486E"/>
<stop offset="1" stop-color="#5D486E" stop-opacity="0"/>
</linearGradient>
<linearGradient id="paint27_linear_1_1270" x1="176.399" y1="153.47" x2="176.399" y2="165.261" gradientUnits="userSpaceOnUse">
<stop stop-color="#875141"/>
<stop offset="1" stop-color="#876355"/>
</linearGradient>
<linearGradient id="paint28_linear_1_1270" x1="89.66" y1="150.141" x2="89.66" y2="163.866" gradientUnits="userSpaceOnUse">
<stop stop-color="#7D514C"/>
<stop offset="1" stop-color="#89584D"/>
</linearGradient>
<linearGradient id="paint29_linear_1_1270" x1="82.2576" y1="158.953" x2="83.6322" y2="158.953" gradientUnits="userSpaceOnUse">
<stop stop-color="#7D584C"/>
<stop offset="1" stop-color="#7D584C" stop-opacity="0"/>
</linearGradient>
<linearGradient id="paint30_linear_1_1270" x1="76.8299" y1="151.296" x2="187.176" y2="151.296" gradientUnits="userSpaceOnUse">
<stop stop-color="#271830"/>
<stop offset="1" stop-color="#503659"/>
</linearGradient>
<linearGradient id="paint31_linear_1_1270" x1="187.515" y1="151.321" x2="184.726" y2="151.321" gradientUnits="userSpaceOnUse">
<stop stop-color="#5D486E"/>
<stop offset="1" stop-color="#5D486E" stop-opacity="0"/>
</linearGradient>
<linearGradient id="paint32_linear_1_1270" x1="131.99" y1="133.877" x2="131.99" y2="148.871" gradientUnits="userSpaceOnUse">
<stop stop-color="#6A4532"/>
<stop offset="1" stop-color="#A2694F"/>
</linearGradient>
<linearGradient id="paint33_linear_1_1270" x1="167.587" y1="138.405" x2="167.587" y2="150.276" gradientUnits="userSpaceOnUse">
<stop stop-color="#875141"/>
<stop offset="1" stop-color="#876355"/>
</linearGradient>
<linearGradient id="paint34_linear_1_1270" x1="98.107" y1="135.056" x2="98.107" y2="148.871" gradientUnits="userSpaceOnUse">
<stop stop-color="#85584B"/>
<stop offset="1" stop-color="#7A5246"/>
</linearGradient>
<linearGradient id="paint35_linear_1_1270" x1="92.2391" y1="143.928" x2="93.3287" y2="143.928" gradientUnits="userSpaceOnUse">
<stop stop-color="#704F43"/>
<stop offset="1" stop-color="#704F43" stop-opacity="0"/>
</linearGradient>
<linearGradient id="paint36_linear_1_1270" x1="86.5162" y1="136.351" x2="176.974" y2="136.351" gradientUnits="userSpaceOnUse">
<stop stop-color="#271830"/>
<stop offset="1" stop-color="#503659"/>
</linearGradient>
<linearGradient id="paint37_linear_1_1270" x1="177.254" y1="136.376" x2="174.97" y2="136.376" gradientUnits="userSpaceOnUse">
<stop stop-color="#5D486E"/>
<stop offset="1" stop-color="#5D486E" stop-opacity="0"/>
</linearGradient>
<linearGradient id="paint38_linear_1_1270" x1="97.0023" y1="156.344" x2="166.977" y2="156.344" gradientUnits="userSpaceOnUse">
<stop stop-color="#EA7B3A"/>
<stop offset="1" stop-color="#FFB336"/>
</linearGradient>
<radialGradient id="paint39_radial_1_1270" cx="0" cy="0" r="1" gradientUnits="userSpaceOnUse" gradientTransform="translate(148.424 184.915) rotate(-121.562) scale(89.9174 84.9112)">
<stop offset="0.891" stop-color="#BD8063" stop-opacity="0"/>
<stop offset="1" stop-color="#BD8063"/>
</radialGradient>
<linearGradient id="paint40_linear_1_1270" x1="131.975" y1="102.873" x2="131.975" y2="104.002" gradientUnits="userSpaceOnUse">
<stop offset="0.207" stop-color="#8F4021"/>
<stop offset="1" stop-color="#8F4021" stop-opacity="0"/>
</linearGradient>
<radialGradient id="paint41_radial_1_1270" cx="0" cy="0" r="1" gradientUnits="userSpaceOnUse" gradientTransform="translate(132 177.841) rotate(90) scale(3.03841 29.5457)">
<stop offset="0.25" stop-color="#864840"/>
<stop offset="1" stop-color="#864840" stop-opacity="0"/>
</radialGradient>
<linearGradient id="paint42_linear_1_1270" x1="153.412" y1="194.545" x2="147.244" y2="194.545" gradientUnits="userSpaceOnUse">
<stop stop-color="#96695B"/>
<stop offset="1" stop-color="#96695B" stop-opacity="0"/>
</linearGradient>
<linearGradient id="paint43_linear_1_1270" x1="111.982" y1="196.414" x2="115.271" y2="196.414" gradientUnits="userSpaceOnUse">
<stop stop-color="#96695B"/>
<stop offset="1" stop-color="#96695B" stop-opacity="0"/>
</linearGradient>
<linearGradient id="paint44_linear_1_1270" x1="121.979" y1="198.374" x2="143.501" y2="197.534" gradientUnits="userSpaceOnUse">
<stop stop-color="#432E5A"/>
<stop offset="1" stop-color="#4A3260"/>
</linearGradient>
<linearGradient id="paint45_linear_1_1270" x1="121.979" y1="200.578" x2="124.453" y2="200.578" gradientUnits="userSpaceOnUse">
<stop stop-color="#5B4972"/>
<stop offset="1" stop-color="#5B4972" stop-opacity="0"/>
</linearGradient>
<linearGradient id="paint46_linear_1_1270" x1="134.004" y1="173.713" x2="134.004" y2="149.811" gradientUnits="userSpaceOnUse">
<stop stop-color="#8F5E52"/>
<stop offset="1" stop-color="#905D53"/>
</linearGradient>
<radialGradient id="paint47_radial_1_1270" cx="0" cy="0" r="1" gradientUnits="userSpaceOnUse" gradientTransform="translate(131.3 148.247) rotate(90) scale(2.49911 19.1619)">
<stop offset="0.25" stop-color="#864840"/>
<stop offset="1" stop-color="#864840" stop-opacity="0"/>
</radialGradient>
<radialGradient id="paint48_radial_1_1270" cx="0" cy="0" r="1" gradientUnits="userSpaceOnUse" gradientTransform="translate(131.3 163.946) rotate(90) scale(2.34291 17.9643)">
<stop offset="0.083" stop-color="#864840"/>
<stop offset="1" stop-color="#864840" stop-opacity="0"/>
</radialGradient>
<radialGradient id="paint49_radial_1_1270" cx="0" cy="0" r="1" gradientUnits="userSpaceOnUse" gradientTransform="translate(117.52 166.92) rotate(12.2126) scale(40.8641 17.9921)">
<stop offset="0.815" stop-color="#FFE666" stop-opacity="0"/>
<stop offset="1" stop-color="#FFE666"/>
</radialGradient>
<linearGradient id="paint50_linear_1_1270" x1="127.037" y1="180.035" x2="127.037" y2="175.627" gradientUnits="userSpaceOnUse">
<stop offset="0.432" stop-color="#E19620"/>
<stop offset="1" stop-color="#E19620" stop-opacity="0"/>
</linearGradient>
<radialGradient id="paint51_radial_1_1270" cx="0" cy="0" r="1" gradientUnits="userSpaceOnUse" gradientTransform="translate(154.257 180.685) rotate(-90) scale(4.76015 13.4343)">
<stop stop-color="#CE8440"/>
<stop offset="0.822" stop-color="#CE8440" stop-opacity="0"/>
</radialGradient>
<radialGradient id="paint52_radial_1_1270" cx="0" cy="0" r="1" gradientUnits="userSpaceOnUse" gradientTransform="translate(101.933 176.689) rotate(-27.991) scale(6.02625 6.84895)">
<stop stop-color="#FCBF50"/>
<stop offset="1" stop-color="#FCBF50" stop-opacity="0"/>
</radialGradient>
<radialGradient id="paint53_radial_1_1270" cx="0" cy="0" r="1" gradientUnits="userSpaceOnUse" gradientTransform="translate(120.004 151.87) rotate(14.6444) scale(34.363 17.8997)">
<stop offset="0.815" stop-color="#FFE666" stop-opacity="0"/>
<stop offset="1" stop-color="#FFE666"/>
</radialGradient>
<linearGradient id="paint54_linear_1_1270" x1="127.932" y1="165.051" x2="127.932" y2="160.612" gradientUnits="userSpaceOnUse">
<stop offset="0.432" stop-color="#E19620"/>
<stop offset="1" stop-color="#E19620" stop-opacity="0"/>
</linearGradient>
<radialGradient id="paint55_radial_1_1270" cx="0" cy="0" r="1" gradientUnits="userSpaceOnUse" gradientTransform="translate(107.035 161.686) rotate(-32.688) scale(5.26317 6.56046)">
<stop stop-color="#FCBF50"/>
<stop offset="1" stop-color="#FCBF50" stop-opacity="0"/>
</radialGradient>
<linearGradient id="paint56_linear_1_1270" x1="121.994" y1="136.421" x2="141.926" y2="136.421" gradientUnits="userSpaceOnUse">
<stop stop-color="#3A2B47"/>
<stop offset="1" stop-color="#59466A"/>
</linearGradient>
<radialGradient id="paint57_radial_1_1270" cx="0" cy="0" r="1" gradientUnits="userSpaceOnUse" gradientTransform="translate(122.404 136.991) rotate(17.897) scale(27.9883 17.4302)">
<stop offset="0.815" stop-color="#FFE666" stop-opacity="0"/>
<stop offset="1" stop-color="#FFE666"/>
</radialGradient>
<linearGradient id="paint58_linear_1_1270" x1="128.751" y1="150.041" x2="128.751" y2="145.653" gradientUnits="userSpaceOnUse">
<stop offset="0.432" stop-color="#E19620"/>
<stop offset="1" stop-color="#E19620" stop-opacity="0"/>
</linearGradient>
<radialGradient id="paint59_radial_1_1270" cx="0" cy="0" r="1" gradientUnits="userSpaceOnUse" gradientTransform="translate(112.007 146.712) rotate(-38.4165) scale(4.52899 6.0468)">
<stop stop-color="#FCBF50"/>
<stop offset="1" stop-color="#FCBF50" stop-opacity="0"/>
</radialGradient>
<radialGradient id="paint60_radial_1_1270" cx="0" cy="0" r="1" gradientUnits="userSpaceOnUse" gradientTransform="translate(133.491 130.761) rotate(133.122) scale(3.783)">
<stop stop-color="#FFE863"/>
<stop offset="1" stop-color="#C29827"/>
</radialGradient>
<linearGradient id="paint61_linear_1_1270" x1="131.975" y1="134.371" x2="131.975" y2="132.882" gradientUnits="userSpaceOnUse">
<stop stop-color="#3D2A1D"/>
<stop offset="1" stop-color="#3D2A1D" stop-opacity="0"/>
</linearGradient>
<radialGradient id="paint62_radial_1_1270" cx="0" cy="0" r="1" gradientUnits="userSpaceOnUse" gradientTransform="translate(150.473 125.815) rotate(-102.04) scale(23.7808 28.3271)">
<stop offset="0.156" stop-color="#FFC960"/>
<stop offset="1" stop-color="#FFC960" stop-opacity="0"/>
</radialGradient>
</defs>
</svg>
