<svg width="161" height="160" viewBox="0 0 161 160" fill="none" xmlns="http://www.w3.org/2000/svg">
<g filter="url(#filter0_i_1_236)">
<path d="M142.069 9.15527e-05L18.0507 9.15527e-05C13.2634 9.15527e-05 8.67209 1.90186 5.28693 5.28702C1.90176 8.67218 0 13.2634 0 18.0508L0 141.949C0 146.737 1.90176 151.328 5.28693 154.713C8.67209 158.098 13.2634 160 18.0507 160H142.064C146.851 160 151.442 158.098 154.827 154.713C158.212 151.328 160.114 146.737 160.114 141.949V17.9937C160.114 8.05436 152.009 9.15527e-05 142.069 9.15527e-05Z" fill="#4FD3FF"/>
</g>
<path d="M142.069 0L18.0507 0C13.2634 0 8.67209 1.90176 5.28693 5.28693C1.90176 8.67209 0 13.2634 0 18.0507L0 141.949C0 146.737 1.90176 151.328 5.28693 154.713C8.67209 158.098 13.2634 160 18.0507 160H142.064C146.851 160 151.442 158.098 154.827 154.713C158.212 151.328 160.114 146.737 160.114 141.949V17.9936C160.114 8.05427 152.009 0 142.069 0Z" fill="url(#paint0_radial_1_236)"/>
<g filter="url(#filter1_f_1_236)">
<path d="M146.81 61.7438V11.1162" stroke="url(#paint1_linear_1_236)" stroke-width="2" stroke-linecap="round"/>
</g>
<path d="M38.9059 67.1762C43.269 67.1762 47.4534 65.4429 50.5387 62.3577C53.6239 59.2725 55.3571 55.0881 55.3571 50.7249C55.3571 46.3618 53.6239 42.1773 50.5387 39.0921C47.4534 36.0069 43.269 34.2737 38.9059 34.2737C34.5427 34.2737 30.3583 36.0069 27.2731 39.0921C24.1878 42.1773 22.4546 46.3618 22.4546 50.7249C22.4546 55.0881 24.1878 59.2725 27.2731 62.3577C30.3583 65.4429 34.5427 67.1762 38.9059 67.1762Z" fill="url(#paint2_radial_1_236)"/>
<path d="M38.9059 67.1762C43.269 67.1762 47.4534 65.4429 50.5387 62.3577C53.6239 59.2725 55.3571 55.0881 55.3571 50.7249C55.3571 46.3618 53.6239 42.1773 50.5387 39.0921C47.4534 36.0069 43.269 34.2737 38.9059 34.2737C34.5427 34.2737 30.3583 36.0069 27.2731 39.0921C24.1878 42.1773 22.4546 46.3618 22.4546 50.7249C22.4546 55.0881 24.1878 59.2725 27.2731 62.3577C30.3583 65.4429 34.5427 67.1762 38.9059 67.1762Z" fill="url(#paint3_radial_1_236)"/>
<path d="M42.8363 43.1329C48.5314 32.1368 62.4693 22.8145 74.4878 22.8145C94.2179 20.8723 119.072 40.808 119.072 64.6053C119.072 83.3985 93.2868 98.6502 74.4935 98.6502H22.912C18.2702 98.6552 13.7091 97.4371 9.68789 95.1186C5.66665 92.8001 2.32723 89.4631 0.00585937 85.4435L0.00585937 58.9616C3.4771 52.9482 9.1761 48.543 15.8701 46.699C22.5641 44.855 29.715 45.7204 35.7759 49.1079C40.163 51.5642 40.0773 47.4171 42.8363 43.1329Z" fill="#D1D0D2"/>
<path d="M42.8363 43.1329C48.5314 32.1368 62.4693 22.8145 74.4878 22.8145C94.2179 20.8723 119.072 40.808 119.072 64.6053C119.072 83.3985 93.2868 98.6502 74.4935 98.6502H22.912C18.2702 98.6552 13.7091 97.4371 9.68789 95.1186C5.66665 92.8001 2.32723 89.4631 0.00585937 85.4435L0.00585937 58.9616C3.4771 52.9482 9.1761 48.543 15.8701 46.699C22.5641 44.855 29.715 45.7204 35.7759 49.1079C40.163 51.5642 40.0773 47.4171 42.8363 43.1329Z" fill="url(#paint4_radial_1_236)"/>
<path d="M42.8363 43.1329C48.5314 32.1368 62.4693 22.8145 74.4878 22.8145C94.2179 20.8723 119.072 40.808 119.072 64.6053C119.072 83.3985 93.2868 98.6502 74.4935 98.6502H22.912C18.2702 98.6552 13.7091 97.4371 9.68789 95.1186C5.66665 92.8001 2.32723 89.4631 0.00585937 85.4435L0.00585937 58.9616C3.4771 52.9482 9.1761 48.543 15.8701 46.699C22.5641 44.855 29.715 45.7204 35.7759 49.1079C40.163 51.5642 40.0773 47.4171 42.8363 43.1329Z" fill="url(#paint5_radial_1_236)"/>
<path d="M42.8363 43.1329C48.5314 32.1368 62.4693 22.8145 74.4878 22.8145C94.2179 20.8723 119.072 40.808 119.072 64.6053C119.072 83.3985 93.2868 98.6502 74.4935 98.6502H22.912C18.2702 98.6552 13.7091 97.4371 9.68789 95.1186C5.66665 92.8001 2.32723 89.4631 0.00585937 85.4435L0.00585937 58.9616C3.4771 52.9482 9.1761 48.543 15.8701 46.699C22.5641 44.855 29.715 45.7204 35.7759 49.1079C40.163 51.5642 40.0773 47.4171 42.8363 43.1329Z" fill="url(#paint6_radial_1_236)"/>
<path d="M42.8363 43.1329C48.5314 32.1368 62.4693 22.8145 74.4878 22.8145C94.2179 20.8723 119.072 40.808 119.072 64.6053C119.072 83.3985 93.2868 98.6502 74.4935 98.6502H22.912C18.2702 98.6552 13.7091 97.4371 9.68789 95.1186C5.66665 92.8001 2.32723 89.4631 0.00585937 85.4435L0.00585937 58.9616C3.4771 52.9482 9.1761 48.543 15.8701 46.699C22.5641 44.855 29.715 45.7204 35.7759 49.1079C40.163 51.5642 40.0773 47.4171 42.8363 43.1329Z" fill="url(#paint7_linear_1_236)"/>
<path d="M42.8363 43.1329C48.5314 32.1368 62.4693 22.8145 74.4878 22.8145C94.2179 20.8723 119.072 40.808 119.072 64.6053C119.072 83.3985 93.2868 98.6502 74.4935 98.6502H22.912C18.2702 98.6552 13.7091 97.4371 9.68789 95.1186C5.66665 92.8001 2.32723 89.4631 0.00585937 85.4435L0.00585937 58.9616C3.4771 52.9482 9.1761 48.543 15.8701 46.699C22.5641 44.855 29.715 45.7204 35.7759 49.1079C40.163 51.5642 40.0773 47.4171 42.8363 43.1329Z" fill="url(#paint8_radial_1_236)"/>
<path d="M42.8363 43.1329C48.5314 32.1368 62.4693 22.8145 74.4878 22.8145C94.2179 20.8723 119.072 40.808 119.072 64.6053C119.072 83.3985 93.2868 98.6502 74.4935 98.6502H22.912C18.2702 98.6552 13.7091 97.4371 9.68789 95.1186C5.66665 92.8001 2.32723 89.4631 0.00585937 85.4435L0.00585937 58.9616C3.4771 52.9482 9.1761 48.543 15.8701 46.699C22.5641 44.855 29.715 45.7204 35.7759 49.1079C40.163 51.5642 40.0773 47.4171 42.8363 43.1329Z" fill="url(#paint9_radial_1_236)"/>
<path d="M160.121 40.3405C159.503 40.2952 158.884 40.2723 158.264 40.272C145.252 40.272 134.701 50.1256 134.701 62.2755C134.701 74.4312 145.252 84.2791 158.264 84.2791C158.893 84.2791 159.509 84.2563 160.121 84.2163V40.3405Z" fill="url(#paint10_radial_1_236)"/>
<path d="M160.121 58.3798L124.705 22.9638C120.249 18.5083 112.938 18.5083 108.482 22.9638L95.0582 36.3876C92.7162 38.6725 89.5744 39.9863 86.3184 39.9863H85.633C81.9771 39.9863 78.4927 41.6429 76.1507 44.4419L51.3024 74.2598L19.0853 112.36C14.6298 116.816 14.6298 124.128 19.0853 128.583L159.852 85.8271H160.121V58.3798Z" fill="url(#paint11_linear_1_236)"/>
<path d="M160.121 58.3798L124.705 22.9638C120.249 18.5083 112.938 18.5083 108.482 22.9638L95.0582 36.3876C92.7162 38.6725 89.5744 39.9863 86.3184 39.9863H85.633C81.9771 39.9863 78.4927 41.6429 76.1507 44.4419L51.3024 74.2598L19.0853 112.36C14.6298 116.816 14.6298 124.128 19.0853 128.583L159.852 85.8271H160.121V58.3798Z" fill="url(#paint12_radial_1_236)"/>
<path d="M160.121 58.3798L124.705 22.9638C120.249 18.5083 112.938 18.5083 108.482 22.9638L95.0582 36.3876C92.7162 38.6725 89.5744 39.9863 86.3184 39.9863H85.633C81.9771 39.9863 78.4927 41.6429 76.1507 44.4419L51.3024 74.2598L19.0853 112.36C14.6298 116.816 14.6298 124.128 19.0853 128.583L159.852 85.8271H160.121V58.3798Z" fill="url(#paint13_linear_1_236)"/>
<path d="M160.121 58.3798L124.705 22.9638C120.249 18.5083 112.938 18.5083 108.482 22.9638L95.0582 36.3876C92.7162 38.6725 89.5744 39.9863 86.3184 39.9863H85.633C81.9771 39.9863 78.4927 41.6429 76.1507 44.4419L51.3024 74.2598L19.0853 112.36C14.6298 116.816 14.6298 124.128 19.0853 128.583L159.852 85.8271H160.121V58.3798Z" fill="url(#paint14_linear_1_236)"/>
<path d="M133.877 93.7151L107.852 67.6902C104.425 64.2628 99.741 62.3206 94.8856 62.3206C89.5732 62.3206 85.2891 58.0365 85.2891 52.7241V39.9858H86.3173C89.5878 39.9692 92.723 38.6782 95.057 36.3871L108.481 22.9633C112.936 18.5077 120.248 18.5077 124.704 22.9633L160.119 58.3792V85.8322H159.851L133.877 93.7151Z" fill="url(#paint15_linear_1_236)"/>
<path d="M133.877 93.7151L107.852 67.6902C104.425 64.2628 99.741 62.3206 94.8856 62.3206C89.5732 62.3206 85.2891 58.0365 85.2891 52.7241V39.9858H86.3173C89.5878 39.9692 92.723 38.6782 95.057 36.3871L108.481 22.9633C112.936 18.5077 120.248 18.5077 124.704 22.9633L160.119 58.3792V85.8322H159.851L133.877 93.7151Z" fill="url(#paint16_radial_1_236)"/>
<path d="M133.877 93.7151L107.852 67.6902C104.425 64.2628 99.741 62.3206 94.8856 62.3206C89.5732 62.3206 85.2891 58.0365 85.2891 52.7241V39.9858H86.3173C89.5878 39.9692 92.723 38.6782 95.057 36.3871L108.481 22.9633C112.936 18.5077 120.248 18.5077 124.704 22.9633L160.119 58.3792V85.8322H159.851L133.877 93.7151Z" fill="url(#paint17_linear_1_236)"/>
<path d="M0 85.7637L30.5034 108.727H79.2517L31.0175 60.4928C26.5619 56.0372 19.2503 56.0372 14.7947 60.4928L1.37094 73.9165C0.941552 74.3346 0.483454 74.722 0 75.0761L0 85.7637Z" fill="url(#paint18_radial_1_236)"/>
<path d="M0 85.7637L30.5034 108.727H79.2517L31.0175 60.4928C26.5619 56.0372 19.2503 56.0372 14.7947 60.4928L1.37094 73.9165C0.941552 74.3346 0.483454 74.722 0 75.0761L0 85.7637Z" fill="url(#paint19_radial_1_236)"/>
<path d="M0 85.7637L30.5034 108.727H79.2517L31.0175 60.4928C26.5619 56.0372 19.2503 56.0372 14.7947 60.4928L1.37094 73.9165C0.941552 74.3346 0.483454 74.722 0 75.0761L0 85.7637Z" fill="url(#paint20_radial_1_236)"/>
<g filter="url(#filter2_i_1_236)">
<path d="M72.0945 75.5162L68.8386 82.3137C68.096 83.856 69.2384 85.684 70.9521 85.684H77.7497C79.5205 85.684 80.6629 83.7989 79.8632 82.2566L76.3787 75.459C75.4076 73.7454 72.9514 73.8025 72.0945 75.5162Z" fill="url(#paint21_linear_1_236)"/>
<path d="M72.0945 75.5162L68.8386 82.3137C68.096 83.856 69.2384 85.684 70.9521 85.684H77.7497C79.5205 85.684 80.6629 83.7989 79.8632 82.2566L76.3787 75.459C75.4076 73.7454 72.9514 73.8025 72.0945 75.5162Z" fill="url(#paint22_linear_1_236)"/>
<path d="M72.0945 75.5162L68.8386 82.3137C68.096 83.856 69.2384 85.684 70.9521 85.684H77.7497C79.5205 85.684 80.6629 83.7989 79.8632 82.2566L76.3787 75.459C75.4076 73.7454 72.9514 73.8025 72.0945 75.5162Z" fill="url(#paint23_linear_1_236)"/>
</g>
<g filter="url(#filter3_i_1_236)">
<path d="M13.6576 70.7174L8.3452 81.742C7.08851 84.3126 8.97355 87.2829 11.8297 87.2829H22.8543C25.7104 87.2829 27.5955 84.2554 26.2817 81.6849L20.5694 70.6603C20.2438 70.0204 19.7463 69.4839 19.1327 69.1111C18.5191 68.7383 17.8138 68.544 17.0958 68.5499C16.3779 68.5558 15.6758 68.7618 15.0685 69.1447C14.4611 69.5276 13.9725 70.0722 13.6576 70.7174Z" fill="url(#paint24_linear_1_236)"/>
<path d="M13.6576 70.7174L8.3452 81.742C7.08851 84.3126 8.97355 87.2829 11.8297 87.2829H22.8543C25.7104 87.2829 27.5955 84.2554 26.2817 81.6849L20.5694 70.6603C20.2438 70.0204 19.7463 69.4839 19.1327 69.1111C18.5191 68.7383 17.8138 68.544 17.0958 68.5499C16.3779 68.5558 15.6758 68.7618 15.0685 69.1447C14.4611 69.5276 13.9725 70.0722 13.6576 70.7174Z" fill="url(#paint25_linear_1_236)"/>
<path d="M13.6576 70.7174L8.3452 81.742C7.08851 84.3126 8.97355 87.2829 11.8297 87.2829H22.8543C25.7104 87.2829 27.5955 84.2554 26.2817 81.6849L20.5694 70.6603C20.2438 70.0204 19.7463 69.4839 19.1327 69.1111C18.5191 68.7383 17.8138 68.544 17.0958 68.5499C16.3779 68.5558 15.6758 68.7618 15.0685 69.1447C14.4611 69.5276 13.9725 70.0722 13.6576 70.7174Z" fill="url(#paint26_linear_1_236)"/>
</g>
<g filter="url(#filter4_i_1_236)">
<path d="M139.67 72.1454L135.043 81.742C133.957 83.9698 135.614 86.5403 138.07 86.5403H147.667C150.18 86.5403 151.78 83.8555 150.637 81.6278L145.668 72.0312C145.38 71.4776 144.944 71.0154 144.407 70.6967C143.871 70.378 143.257 70.2154 142.633 70.2272C142.009 70.2391 141.402 70.425 140.878 70.7639C140.354 71.1029 139.936 71.5813 139.67 72.1454Z" fill="url(#paint27_linear_1_236)"/>
<path d="M139.67 72.1454L135.043 81.742C133.957 83.9698 135.614 86.5403 138.07 86.5403H147.667C150.18 86.5403 151.78 83.8555 150.637 81.6278L145.668 72.0312C145.38 71.4776 144.944 71.0154 144.407 70.6967C143.871 70.378 143.257 70.2154 142.633 70.2272C142.009 70.2391 141.402 70.425 140.878 70.7639C140.354 71.1029 139.936 71.5813 139.67 72.1454Z" fill="url(#paint28_linear_1_236)"/>
<path d="M139.67 72.1454L135.043 81.742C133.957 83.9698 135.614 86.5403 138.07 86.5403H147.667C150.18 86.5403 151.78 83.8555 150.637 81.6278L145.668 72.0312C145.38 71.4776 144.944 71.0154 144.407 70.6967C143.871 70.378 143.257 70.2154 142.633 70.2272C142.009 70.2391 141.402 70.425 140.878 70.7639C140.354 71.1029 139.936 71.5813 139.67 72.1454Z" fill="url(#paint29_linear_1_236)"/>
</g>
<path d="M160.12 85.6839L0 85.6839L0 111.846L160.114 111.846L160.12 85.6839Z" fill="url(#paint30_radial_1_236)"/>
<path d="M160.12 85.6839L0 85.6839L0 111.846L160.114 111.846L160.12 85.6839Z" fill="url(#paint31_linear_1_236)"/>
<path d="M160.12 109.081C133.63 104.903 106.852 102.81 80.0344 102.821C53.2358 102.817 26.4779 104.91 0.00585937 109.081L0.00585937 141.949C0.00585937 146.737 1.90762 151.328 5.29279 154.713C8.67795 158.098 13.2692 160 18.0566 160H142.069C146.857 160 151.448 158.098 154.833 154.713C158.218 151.328 160.12 146.737 160.12 141.949V109.081Z" fill="url(#paint32_radial_1_236)"/>
<path d="M160.12 109.081C133.63 104.903 106.852 102.81 80.0344 102.821C53.2358 102.817 26.4779 104.91 0.00585937 109.081L0.00585937 141.949C0.00585937 146.737 1.90762 151.328 5.29279 154.713C8.67795 158.098 13.2692 160 18.0566 160H142.069C146.857 160 151.448 158.098 154.833 154.713C158.218 151.328 160.12 146.737 160.12 141.949V109.081Z" fill="url(#paint33_radial_1_236)"/>
<path d="M160.12 109.081C133.63 104.903 106.852 102.81 80.0344 102.821C53.2358 102.817 26.4779 104.91 0.00585937 109.081L0.00585937 141.949C0.00585937 146.737 1.90762 151.328 5.29279 154.713C8.67795 158.098 13.2692 160 18.0566 160H142.069C146.857 160 151.448 158.098 154.833 154.713C158.218 151.328 160.12 146.737 160.12 141.949V109.081Z" fill="url(#paint34_radial_1_236)"/>
<defs>
<filter id="filter0_i_1_236" x="0" y="9.15527e-05" width="160.114" height="160.5" filterUnits="userSpaceOnUse" color-interpolation-filters="sRGB">
<feFlood flood-opacity="0" result="BackgroundImageFix"/>
<feBlend mode="normal" in="SourceGraphic" in2="BackgroundImageFix" result="shape"/>
<feColorMatrix in="SourceAlpha" type="matrix" values="0 0 0 0 0 0 0 0 0 0 0 0 0 0 0 0 0 0 127 0" result="hardAlpha"/>
<feOffset dy="0.5"/>
<feGaussianBlur stdDeviation="2"/>
<feComposite in2="hardAlpha" operator="arithmetic" k2="-1" k3="1"/>
<feColorMatrix type="matrix" values="0 0 0 0 0.27451 0 0 0 0 0.588235 0 0 0 0 0.741176 0 0 0 1 0"/>
<feBlend mode="normal" in2="shape" result="effect1_innerShadow_1_236"/>
</filter>
<filter id="filter1_f_1_236" x="143.81" y="8.1162" width="6" height="56.6276" filterUnits="userSpaceOnUse" color-interpolation-filters="sRGB">
<feFlood flood-opacity="0" result="BackgroundImageFix"/>
<feBlend mode="normal" in="SourceGraphic" in2="BackgroundImageFix" result="shape"/>
<feGaussianBlur stdDeviation="1" result="effect1_foregroundBlur_1_236"/>
</filter>
<filter id="filter2_i_1_236" x="68.6079" y="74.202" width="11.7651" height="11.482" filterUnits="userSpaceOnUse" color-interpolation-filters="sRGB">
<feFlood flood-opacity="0" result="BackgroundImageFix"/>
<feBlend mode="normal" in="SourceGraphic" in2="BackgroundImageFix" result="shape"/>
<feColorMatrix in="SourceAlpha" type="matrix" values="0 0 0 0 0 0 0 0 0 0 0 0 0 0 0 0 0 0 127 0" result="hardAlpha"/>
<feOffset dx="0.25"/>
<feGaussianBlur stdDeviation="0.25"/>
<feComposite in2="hardAlpha" operator="arithmetic" k2="-1" k3="1"/>
<feColorMatrix type="matrix" values="0 0 0 0 0.137255 0 0 0 0 0.517647 0 0 0 0 0.333333 0 0 0 1 0"/>
<feBlend mode="normal" in2="shape" result="effect1_innerShadow_1_236"/>
</filter>
<filter id="filter3_i_1_236" x="7.94873" y="68.5498" width="19.0093" height="18.7332" filterUnits="userSpaceOnUse" color-interpolation-filters="sRGB">
<feFlood flood-opacity="0" result="BackgroundImageFix"/>
<feBlend mode="normal" in="SourceGraphic" in2="BackgroundImageFix" result="shape"/>
<feColorMatrix in="SourceAlpha" type="matrix" values="0 0 0 0 0 0 0 0 0 0 0 0 0 0 0 0 0 0 127 0" result="hardAlpha"/>
<feOffset dx="0.25"/>
<feGaussianBlur stdDeviation="0.25"/>
<feComposite in2="hardAlpha" operator="arithmetic" k2="-1" k3="1"/>
<feColorMatrix type="matrix" values="0 0 0 0 0.156863 0 0 0 0 0.419608 0 0 0 0 0.329412 0 0 0 1 0"/>
<feBlend mode="normal" in2="shape" result="effect1_innerShadow_1_236"/>
</filter>
<filter id="filter4_i_1_236" x="134.704" y="70.2266" width="16.5591" height="16.3137" filterUnits="userSpaceOnUse" color-interpolation-filters="sRGB">
<feFlood flood-opacity="0" result="BackgroundImageFix"/>
<feBlend mode="normal" in="SourceGraphic" in2="BackgroundImageFix" result="shape"/>
<feColorMatrix in="SourceAlpha" type="matrix" values="0 0 0 0 0 0 0 0 0 0 0 0 0 0 0 0 0 0 127 0" result="hardAlpha"/>
<feOffset dx="0.25"/>
<feGaussianBlur stdDeviation="0.25"/>
<feComposite in2="hardAlpha" operator="arithmetic" k2="-1" k3="1"/>
<feColorMatrix type="matrix" values="0 0 0 0 0.137255 0 0 0 0 0.517647 0 0 0 0 0.333333 0 0 0 1 0"/>
<feBlend mode="normal" in2="shape" result="effect1_innerShadow_1_236"/>
</filter>
<radialGradient id="paint0_radial_1_236" cx="0" cy="0" r="1" gradientUnits="userSpaceOnUse" gradientTransform="translate(165.404 -3.32452) rotate(133.078) scale(51.5757 38.1888)">
<stop stop-color="#60DEFF"/>
<stop offset="1" stop-color="#60DEFF" stop-opacity="0"/>
</radialGradient>
<linearGradient id="paint1_linear_1_236" x1="-nan" y1="-nan" x2="-nan" y2="-nan" gradientUnits="userSpaceOnUse">
<stop stop-color="#5DDBFF"/>
<stop offset="1" stop-color="#5DDBFF" stop-opacity="0"/>
</linearGradient>
<radialGradient id="paint2_radial_1_236" cx="0" cy="0" r="1" gradientUnits="userSpaceOnUse" gradientTransform="translate(47.6152 50.7209) rotate(-140.739) scale(16.8672)">
<stop stop-color="#B4B3B5"/>
<stop offset="1" stop-color="#D6DDE2"/>
</radialGradient>
<radialGradient id="paint3_radial_1_236" cx="0" cy="0" r="1" gradientUnits="userSpaceOnUse" gradientTransform="translate(21.4796 30.7007) rotate(102.875) scale(18.5875 18.5875)">
<stop stop-color="#ACB2B6"/>
<stop offset="1" stop-color="#ACB2B6" stop-opacity="0"/>
</radialGradient>
<radialGradient id="paint4_radial_1_236" cx="0" cy="0" r="1" gradientUnits="userSpaceOnUse" gradientTransform="translate(102.236 26.1851) rotate(122.998) scale(47.5316 47.6613)">
<stop stop-color="white"/>
<stop offset="1" stop-color="white" stop-opacity="0"/>
</radialGradient>
<radialGradient id="paint5_radial_1_236" cx="0" cy="0" r="1" gradientUnits="userSpaceOnUse" gradientTransform="translate(31.1237 53.6077) rotate(149.534) scale(19.0732 35.8817)">
<stop stop-color="#EBEBEB"/>
<stop offset="1" stop-color="#E1E0E2" stop-opacity="0"/>
</radialGradient>
<radialGradient id="paint6_radial_1_236" cx="0" cy="0" r="1" gradientUnits="userSpaceOnUse" gradientTransform="translate(53.5613 88.425) rotate(-110.556) scale(39.66 24.0382)">
<stop stop-color="#B2A1C5"/>
<stop offset="1" stop-color="#B2A1C5" stop-opacity="0"/>
</radialGradient>
<linearGradient id="paint7_linear_1_236" x1="-3.30724" y1="81.8505" x2="13.521" y2="62.8973" gradientUnits="userSpaceOnUse">
<stop stop-color="#B6ABC0"/>
<stop offset="1" stop-color="#B6ABC0" stop-opacity="0"/>
</linearGradient>
<radialGradient id="paint8_radial_1_236" cx="0" cy="0" r="1" gradientUnits="userSpaceOnUse" gradientTransform="translate(53.0041 88.1626) rotate(-55.508) scale(58.0975 21.0382)">
<stop stop-color="#A19FA5"/>
<stop offset="1" stop-color="#A19FA5" stop-opacity="0"/>
</radialGradient>
<radialGradient id="paint9_radial_1_236" cx="0" cy="0" r="1" gradientUnits="userSpaceOnUse" gradientTransform="translate(36.2272 32.948) rotate(77.3) scale(35.5616 8.263)">
<stop stop-color="#B4B4B5"/>
<stop offset="1" stop-color="#B4B4B5" stop-opacity="0"/>
</radialGradient>
<radialGradient id="paint10_radial_1_236" cx="0" cy="0" r="1" gradientUnits="userSpaceOnUse" gradientTransform="translate(151.701 56.3634) rotate(-11.9442) scale(13.002 17.6136)">
<stop offset="0.187" stop-color="#EAEFF3"/>
<stop offset="1" stop-color="white"/>
</radialGradient>
<linearGradient id="paint11_linear_1_236" x1="95.2695" y1="46.4469" x2="95.2695" y2="102.855" gradientUnits="userSpaceOnUse">
<stop stop-color="#504681"/>
<stop offset="1" stop-color="#3F3A60"/>
</linearGradient>
<radialGradient id="paint12_radial_1_236" cx="0" cy="0" r="1" gradientUnits="userSpaceOnUse" gradientTransform="translate(98.7231 62.8921) rotate(124.992) scale(15.8306 20.9761)">
<stop stop-color="#50457D"/>
<stop offset="1" stop-color="#50457D" stop-opacity="0"/>
</radialGradient>
<linearGradient id="paint13_linear_1_236" x1="59.8593" y1="94.127" x2="63.7379" y2="80.7089" gradientUnits="userSpaceOnUse">
<stop stop-color="#21183B"/>
<stop offset="1" stop-color="#21183B" stop-opacity="0"/>
</linearGradient>
<linearGradient id="paint14_linear_1_236" x1="62.367" y1="57.8143" x2="72.6262" y2="65.9599" gradientUnits="userSpaceOnUse">
<stop stop-color="#39325B"/>
<stop offset="1" stop-color="#39325B" stop-opacity="0"/>
</linearGradient>
<linearGradient id="paint15_linear_1_236" x1="105.082" y1="65.9022" x2="132.358" y2="34.2678" gradientUnits="userSpaceOnUse">
<stop stop-color="#473862"/>
<stop offset="1" stop-color="#62568F"/>
</linearGradient>
<radialGradient id="paint16_radial_1_236" cx="0" cy="0" r="1" gradientUnits="userSpaceOnUse" gradientTransform="translate(118.203 93.7151) rotate(-90) scale(77.3604 61.7985)">
<stop offset="0.935" stop-color="#A49EC8" stop-opacity="0"/>
<stop offset="0.983" stop-color="#A49EC8"/>
</radialGradient>
<linearGradient id="paint17_linear_1_236" x1="140.761" y1="17.7023" x2="127.68" y2="32.3885" gradientUnits="userSpaceOnUse">
<stop offset="0.302" stop-color="#A7A7D7"/>
<stop offset="1" stop-color="#A7A7D7" stop-opacity="0"/>
</linearGradient>
<radialGradient id="paint18_radial_1_236" cx="0" cy="0" r="1" gradientUnits="userSpaceOnUse" gradientTransform="translate(31.2824 63.3807) rotate(125.218) scale(37.6868 38.3793)">
<stop stop-color="#716AA3"/>
<stop offset="1" stop-color="#423C69"/>
</radialGradient>
<radialGradient id="paint19_radial_1_236" cx="0" cy="0" r="1" gradientUnits="userSpaceOnUse" gradientTransform="translate(12.8818 82.9402) rotate(-146.826) scale(8.13013 17.1546)">
<stop stop-color="#21233C"/>
<stop offset="1" stop-color="#21233C" stop-opacity="0"/>
</radialGradient>
<radialGradient id="paint20_radial_1_236" cx="0" cy="0" r="1" gradientUnits="userSpaceOnUse" gradientTransform="translate(19.0732 55.8316) rotate(104.394) scale(15.5664 14.0833)">
<stop stop-color="#68667C"/>
<stop offset="1" stop-color="#68667C" stop-opacity="0"/>
</radialGradient>
<linearGradient id="paint21_linear_1_236" x1="71.7061" y1="85.684" x2="76.6529" y2="77.6697" gradientUnits="userSpaceOnUse">
<stop stop-color="#29B465"/>
<stop offset="1" stop-color="#4FCF84"/>
</linearGradient>
<linearGradient id="paint22_linear_1_236" x1="74.3623" y1="86.4951" x2="74.3623" y2="82.5594" gradientUnits="userSpaceOnUse">
<stop stop-color="#01A13E"/>
<stop offset="1" stop-color="#01A13E" stop-opacity="0"/>
</linearGradient>
<linearGradient id="paint23_linear_1_236" x1="78.6522" y1="79.0635" x2="76.6929" y2="79.9432" gradientUnits="userSpaceOnUse">
<stop offset="0.122" stop-color="#5FDA8D"/>
<stop offset="1" stop-color="#5FDA8D" stop-opacity="0"/>
</linearGradient>
<linearGradient id="paint24_linear_1_236" x1="13.0007" y1="87.2829" x2="21.0721" y2="74.219" gradientUnits="userSpaceOnUse">
<stop stop-color="#269B69"/>
<stop offset="1" stop-color="#58BE94"/>
</linearGradient>
<linearGradient id="paint25_linear_1_236" x1="17.3249" y1="88.6082" x2="17.3249" y2="82.1876" gradientUnits="userSpaceOnUse">
<stop stop-color="#01542B"/>
<stop offset="1" stop-color="#01542B" stop-opacity="0"/>
</linearGradient>
<linearGradient id="paint26_linear_1_236" x1="24.3166" y1="76.4811" x2="21.1235" y2="77.9148" gradientUnits="userSpaceOnUse">
<stop offset="0.122" stop-color="#65D1A1"/>
<stop offset="1" stop-color="#65D1A1" stop-opacity="0"/>
</linearGradient>
<linearGradient id="paint27_linear_1_236" x1="139.093" y1="86.5403" x2="146.13" y2="75.1729" gradientUnits="userSpaceOnUse">
<stop stop-color="#29B465"/>
<stop offset="1" stop-color="#4FCF84"/>
</linearGradient>
<linearGradient id="paint28_linear_1_236" x1="142.857" y1="87.6942" x2="142.857" y2="82.1019" gradientUnits="userSpaceOnUse">
<stop stop-color="#01A13E"/>
<stop offset="1" stop-color="#01A13E" stop-opacity="0"/>
</linearGradient>
<linearGradient id="paint29_linear_1_236" x1="148.935" y1="77.1379" x2="146.159" y2="78.3775" gradientUnits="userSpaceOnUse">
<stop offset="0.122" stop-color="#5FDA8D"/>
<stop offset="1" stop-color="#5FDA8D" stop-opacity="0"/>
</linearGradient>
<radialGradient id="paint30_radial_1_236" cx="0" cy="0" r="1" gradientUnits="userSpaceOnUse" gradientTransform="translate(122.459 120.352) rotate(-95.0131) scale(40.856 127.21)">
<stop offset="0.117" stop-color="#33CE7A"/>
<stop offset="1" stop-color="#3B9F86"/>
</radialGradient>
<linearGradient id="paint31_linear_1_236" x1="80.0571" y1="84.5586" x2="80.0571" y2="88.8428" gradientUnits="userSpaceOnUse">
<stop stop-color="#45C978"/>
<stop offset="1" stop-color="#45C978" stop-opacity="0"/>
</linearGradient>
<radialGradient id="paint32_radial_1_236" cx="0" cy="0" r="1" gradientUnits="userSpaceOnUse" gradientTransform="translate(147.668 136.96) rotate(-168.326) scale(191.736 209.444)">
<stop stop-color="#60DCFF"/>
<stop offset="0.889" stop-color="#3974FF"/>
</radialGradient>
<radialGradient id="paint33_radial_1_236" cx="0" cy="0" r="1" gradientUnits="userSpaceOnUse" gradientTransform="translate(67.4789 177.114) rotate(-95.6849) scale(79.2905 222.026)">
<stop offset="0.911" stop-color="#287CD6" stop-opacity="0"/>
<stop offset="1" stop-color="#287CD6"/>
</radialGradient>
<radialGradient id="paint34_radial_1_236" cx="0" cy="0" r="1" gradientUnits="userSpaceOnUse" gradientTransform="translate(78.1894 184.968) rotate(-88.7586) scale(86.4183 241.984)">
<stop offset="0.911" stop-color="#51EBFF" stop-opacity="0"/>
<stop offset="1" stop-color="#51EBFF"/>
</radialGradient>
</defs>
</svg>
