<svg width="160" height="160" viewBox="0 0 160 160" fill="none" xmlns="http://www.w3.org/2000/svg">
<path d="M150.002 160H9.99834C4.48064 160 0 155.519 0 150.002V9.99834C0 4.48064 4.48064 0 9.99834 0H150.002C155.519 0 160 4.48064 160 9.99834V150.002C160.013 155.519 155.533 160 150.002 160Z" fill="url(#paint0_radial_1_385)"/>
<path d="M156.224 77.7396H130.962V106.804H74.9742V19.837H33.0397V106.804H27.0833V60.1096H11.3545V116.816H23.9854V150.64H153.126V135.868H156.224V77.7396Z" fill="#6BA3AE"/>
<path d="M122.905 18.5346C122.387 18.6409 124.727 23.7864 124.58 30.74C124.381 40.0735 117.082 46.0433 108.4 45.8173C101.871 45.6444 97.5371 42.7992 97.1515 43.4639C96.992 43.7431 98.2551 49.7262 104.411 52.9836C114.024 58.0626 123.45 55.1109 128.649 49.6065C133.701 44.2617 135.496 35.5397 132.465 28.1473C129.274 20.396 123.517 18.4149 122.905 18.5346Z" fill="#FEF7B0"/>
<path d="M139.804 50.8161C140.176 51.2548 144.803 50.7363 144.803 50.7363C144.803 50.7363 147.302 54.3394 147.821 54.3394C148.698 54.3394 149.589 49.7125 149.589 49.7125C149.589 49.7125 153.777 49.4732 153.924 48.9015C154.123 48.1037 150.32 45.3781 150.32 45.3781C150.32 45.3781 151.038 40.964 150.4 40.5917C149.709 40.1928 146.212 43.0913 146.212 43.0913C146.212 43.0913 141.718 40.6715 141.2 41.323C140.801 41.8282 142.37 46.4019 142.37 46.4019C142.37 46.4019 139.538 50.497 139.804 50.8161ZM82.5126 28.24C82.7652 28.825 87.6181 29.3569 87.6181 29.3569C87.6181 29.3569 89.3865 34.1433 89.9449 34.263C90.8889 34.489 92.8832 29.8488 92.8832 29.8488C92.8832 29.8488 97.7494 29.7823 98.0286 29.184C98.5206 28.1337 94.9042 24.9693 94.9042 24.9693C94.9042 24.9693 97.1378 20.4089 96.1938 19.8505C95.2366 19.292 91.0617 21.4858 91.0617 21.4858C91.0617 21.4858 86.9135 17.8428 86.129 18.3215C85.0521 18.9862 86.3551 23.9721 86.3551 23.9721C86.3551 23.9721 82.0872 27.2163 82.5126 28.24ZM7.88406 14.2663C8.0702 14.7715 12.4445 15.1438 12.4445 15.1438C12.4445 15.1438 14.3989 19.3319 14.8776 19.4117C15.4759 19.5048 17.5234 15.5826 17.5234 15.5826C17.5234 15.5826 22.0174 15.197 22.1902 14.6784C22.4428 13.9605 19.2784 11.1019 19.2784 11.1019C19.2784 11.1019 20.3155 6.14263 19.9432 5.87672C19.4646 5.54433 15.3828 7.71152 15.3828 7.71152C15.3828 7.71152 11.6334 5.06568 11.0218 5.54433C10.4501 5.98308 11.4074 10.5834 11.4074 10.5834C11.4074 10.5834 7.56497 13.4021 7.88406 14.2663ZM16.1806 30.9656C16.3135 31.4044 19.8103 31.8564 19.8103 31.8564C19.8103 31.8564 21.0867 35.5925 21.4855 35.6989C22.1636 35.885 23.7591 32.4016 23.7591 32.4016C23.7591 32.4016 27.309 32.6276 27.5483 32.2154C27.8276 31.7368 25.5939 28.958 25.5939 28.958C25.5939 28.958 26.7107 25.5942 26.365 25.2884C25.9928 24.9826 22.6422 26.352 22.6422 26.352C22.6422 26.352 19.9831 23.786 19.3715 24.0519C18.8397 24.2779 19.0391 28.1071 19.0391 28.1071C19.0391 28.1071 15.9944 30.3407 16.1806 30.9656Z" fill="#FFD420"/>
<path d="M38.0386 28.2H41.1896V38.2915H38.0386V28.2ZM44.7529 28.2H48.0369V38.2915H44.7529V28.2ZM55.1368 28.2H51.9192V38.2915L55.057 38.2649L55.1368 28.2ZM62.0107 28.2L58.5538 28.2133L58.6468 38.2915H61.9841L62.0107 28.2Z" fill="#3F737B"/>
<path d="M38.0386 28.2H41.1896V38.2915H38.0386V28.2ZM44.7529 28.2H48.0369V38.2915H44.7529V28.2ZM55.19 28.2H51.9192V38.2915L55.1501 38.2649L55.19 28.2ZM62.0107 44.1548L58.5538 44.1681L58.6468 54.2462H61.9841L62.0107 44.1548ZM38.0386 44.1548H41.1896V54.2462H38.0386V44.1548ZM44.7529 44.1548H48.0369V54.2462H44.7529V44.1548ZM55.19 44.1548H51.9192V54.2462L55.1501 54.2197L55.19 44.1548ZM38.0386 60.1096H41.1896V70.201H38.0386V60.1096ZM44.7529 60.1096H48.0369V70.201H44.7529V60.1096ZM55.19 60.1096H51.9192V70.201L55.1501 70.1744L55.19 60.1096ZM65.893 28.2L65.8797 38.2915H69.2834V28.2H65.893ZM135.283 102.749H139.112V107.987H135.283V102.749ZM142.928 102.749H146.757V107.987H142.928V102.749Z" fill="#3F737B"/>
<path d="M135.283 92.9502H139.112V98.1887H135.283V92.9502Z" fill="#FDE064"/>
<path d="M142.928 92.9502H146.757V98.1887H142.928V92.9502ZM135.283 83.6432H139.112V88.8817H135.283V83.6432Z" fill="#3F737B"/>
<path d="M142.928 83.6432H146.757V88.8817H142.928V83.6432Z" fill="#FDE064"/>
<path d="M147.848 60.4687C147.369 61.4392 147.848 117.241 147.848 117.241H126.748V85.3315H119.953V75.1338H113.931V66.4783H103.081V75.5725H96.1808V85.1055H89.0543V131.574H82.3533V79.7208H85.4778V69.8288H82.3533V49.3402H78.83L74.0302 34.5022H64.577L59.8305 49.3402H56.121V69.8288H52.8237V79.7208H56.121V131.574H46.5747V84.9726H17.8029V32.6408C17.8029 32.6408 0.0531826 32.5212 0 32.5744V150.002C0 155.519 4.48064 160 9.99834 160H150.002C155.519 160 160 155.519 160 150.002V60.4687H147.848Z" fill="url(#paint1_radial_1_385)"/>
<path d="M2.53955 149.297H42.3867V152.422H2.53955V149.297ZM2.53955 138.195H42.3867V141.32H2.53955V138.195ZM2.53955 126.694H42.3867V129.819H2.53955V126.694ZM2.53955 115.593H42.3867V118.717H2.53955V115.593ZM2.53955 102.762H42.3867V105.887H2.53955V102.762Z" fill="#3F737B"/>
<path d="M2.53955 91.6602H42.3867V94.7847H2.53955V91.6602Z" fill="#FDE064"/>
<path d="M2.53955 78.9761H4.87959V83.8955H2.53955V78.9761ZM10.5169 78.9761H12.857V83.8955H10.5169V78.9761Z" fill="#3F737B"/>
<path d="M2.53955 69.0978H4.87959V74.0172H2.53955V69.0978Z" fill="#FDE064"/>
<path d="M10.5166 69.0978H12.8566V74.0172H10.5166V69.0978Z" fill="#3F737B"/>
<path d="M2.53955 59.2189H4.87959V64.1383H2.53955V59.2189Z" fill="#FDE064"/>
<path d="M10.5169 59.2187H12.857V64.1381H10.5169V59.2187ZM2.53955 49.34H4.87959V54.2594H2.53955V49.34Z" fill="#3F737B"/>
<path d="M10.5169 49.3401H12.857V54.2595H10.5169V49.3401ZM2.53955 39.4481H4.87959V44.3675H2.53955V39.4481Z" fill="#FDE064"/>
<path d="M10.5166 39.4481H12.8566V44.3675H10.5166V39.4481Z" fill="#3F737B"/>
<path d="M61.1602 80.5582H64.1783V86.8869H61.1602V80.5582Z" fill="#FDE064"/>
<path d="M68.3132 80.5582H71.3313V86.8869H68.3132V80.5582ZM75.2004 80.5582H78.2185V86.8869H75.2004V80.5582ZM61.1602 92.5243H64.1783V98.853H61.1602V92.5243ZM61.1602 124.686H64.1783V131.015H61.1602V124.686ZM68.3132 124.686H71.3313V131.015H68.3132V124.686ZM75.2004 124.686H78.2185V131.015H75.2004V124.686ZM68.3132 92.5243H71.3313V98.853H68.3132V92.5243Z" fill="#3F737B"/>
<path d="M75.2002 92.5243H78.2183V98.853H75.2002V92.5243Z" fill="#FDE064"/>
<path d="M61.1602 104.49H64.1783V110.819H61.1602V104.49Z" fill="#3F737B"/>
<path d="M68.313 104.49H71.3311V110.819H68.313V104.49Z" fill="#FDE064"/>
<path d="M75.2006 104.491H78.2187V110.819H75.2006V104.491ZM66.7578 66.5315H72.9536V57.3309C72.9536 57.3309 73.1797 53.874 69.8291 53.7942C66.6781 53.7145 66.6382 57.2511 66.6382 57.2511C66.6382 57.2511 66.8376 66.5315 66.7578 66.5315Z" fill="#3F737B"/>
<path d="M101.113 80.0934H104.131V92.9769H101.113V80.0934ZM112.428 80.0934H115.446V92.9769H112.428V80.0934ZM106.83 80.0934H109.848V92.9769H106.83V80.0934ZM96.4863 97.9362H99.5044V102.045H96.4863V97.9362ZM106.884 97.9362H109.902V102.045H106.884V97.9362ZM117.281 97.9362H120.299V102.045H117.281V97.9362Z" fill="#FDE064"/>
<path d="M96.4863 111.232H99.5044V115.34H96.4863V111.232Z" fill="#3F737B"/>
<path d="M106.884 111.232H109.902V115.34H106.884V111.232ZM117.281 111.232H120.299V115.34H117.281V111.232Z" fill="#FDE064"/>
<path d="M96.4863 123.796H99.5044V127.904H96.4863V123.796ZM106.884 123.796H109.902V127.904H106.884V123.796Z" fill="#3F737B"/>
<path d="M117.281 123.796H120.299V127.904H117.281V123.796Z" fill="#FDE064"/>
<path d="M96.4863 137.091H99.5044V141.2H96.4863V137.091Z" fill="#3F737B"/>
<path d="M106.884 137.091H109.902V141.2H106.884V137.091Z" fill="#FDE064"/>
<path d="M117.281 137.091H120.299V141.2H117.281V137.091ZM96.4863 149.682H99.5044V153.791H96.4863V149.682ZM106.884 149.682H109.902V153.791H106.884V149.682ZM117.281 149.682H120.299V153.791H117.281V149.682Z" fill="#3F737B"/>
<defs>
<radialGradient id="paint0_radial_1_385" cx="0" cy="0" r="1" gradientUnits="userSpaceOnUse" gradientTransform="translate(83.393 180.481) scale(179.333 179.333)">
<stop offset="0.422" stop-color="#A8D793"/>
<stop offset="0.561" stop-color="#7DAD8B"/>
<stop offset="0.705" stop-color="#4C7D82"/>
<stop offset="0.781" stop-color="#457986"/>
<stop offset="0.89" stop-color="#326C8F"/>
<stop offset="1" stop-color="#185B9D"/>
</radialGradient>
<radialGradient id="paint1_radial_1_385" cx="0" cy="0" r="1" gradientUnits="userSpaceOnUse" gradientTransform="translate(82.8173 -72.948) scale(230.076 230.076)">
<stop offset="0.039" stop-color="#163387"/>
<stop offset="0.378" stop-color="#163284"/>
<stop offset="0.622" stop-color="#17317B"/>
<stop offset="0.835" stop-color="#182E6B"/>
<stop offset="1" stop-color="#1A2B59"/>
</radialGradient>
</defs>
</svg>
