<svg width="162" height="160" viewBox="0 0 162 160" fill="none" xmlns="http://www.w3.org/2000/svg">
<path d="M0 143.818C0 152.76 7.25273 160 16.1822 160H143.092C152.034 160 159.274 152.747 159.274 143.818V95.8042C159.274 87.1867 152.294 80.207 143.677 80.207H15.5973C6.97978 80.207 0 87.1867 0 95.8042V143.818Z" fill="#BCCF38"/>
<path d="M123.348 94.2964C122.633 90.527 122.555 86.6927 122.178 82.8844C122.126 82.3905 122.061 81.8836 122.048 81.3766C122.022 80.3238 121.49 79.6089 120.502 79.232C119.982 79.024 119.332 79.063 118.786 78.9721C118.201 78.8681 117.642 78.8421 117.057 78.8551C117.005 78.8551 116.953 78.8551 116.901 78.8681C116.862 78.8551 116.81 78.8551 116.758 78.8551C116.16 78.8421 115.602 78.8811 115.017 78.9721C114.471 79.063 113.821 79.037 113.301 79.232C112.313 79.6219 111.78 80.3238 111.754 81.3766C111.741 81.8836 111.676 82.3775 111.637 82.8844C111.247 86.6927 111.182 90.527 110.467 94.2964C109.87 97.3768 106.191 102.355 111.143 103.486C114.822 104.318 118.994 104.318 122.672 103.486C127.624 102.355 123.946 97.3768 123.348 94.2964Z" fill="#855C52"/>
<path d="M156.843 72.3173C151.254 70.7446 146.861 68.6519 143.742 66.8712C143.521 66.6763 143.209 66.5203 143.313 66.1954C143.378 65.9874 143.651 65.9094 143.846 65.8704C145.717 65.6235 147.316 65.3505 148.486 65.0646C155.024 63.5048 155.063 59.3326 155.063 59.3326C155.063 59.3326 156.024 54.3414 150.163 52.7037C145.002 51.248 140.843 49.3633 137.776 47.6606C137.568 47.5306 137.36 47.3746 137.451 47.1277C137.503 46.9977 137.607 46.9197 137.724 46.8937C138.686 46.7768 139.556 46.6598 140.284 46.5298C145.951 45.49 146.172 41.9026 146.172 41.9026C146.172 41.9026 147.121 37.9253 142.273 36.0146C137.763 34.234 133.239 31.5824 130.263 29.6847C130.107 29.5158 129.899 29.3078 130.003 29.0869C130.094 28.8789 130.341 28.8659 130.549 28.8399H130.575L131.446 28.9439C131.446 28.9439 136.463 29.9057 138.01 25.6035C139.556 21.3012 134.786 19.0396 134.786 19.0396C125.389 14.5944 119.176 2.06459 119.176 2.06459C117.863 -0.443975 116.901 0.0369411 116.901 0.0369411C116.901 0.0369411 115.953 -0.443975 114.64 2.06459C114.64 2.06459 108.427 14.6074 98.9905 19.0266C98.9905 19.0266 94.2203 21.2882 95.7671 25.5905C97.3268 29.8927 102.344 28.9309 102.344 28.9309L103.215 28.8269H103.228C103.423 28.8529 103.683 28.8659 103.774 29.0739C103.878 29.2948 103.67 29.5028 103.514 29.6718C100.537 31.5694 96.014 34.221 91.5038 36.0016C86.6427 37.9123 87.6045 41.8896 87.6045 41.8896C87.6045 41.8896 87.8384 45.464 93.4925 46.5168C94.2203 46.6468 95.1042 46.7638 96.066 46.8807C96.183 46.9197 96.3 46.9847 96.339 47.1147C96.4299 47.3616 96.235 47.5176 96.027 47.6476C92.1043 49.7963 87.9482 51.4884 83.6402 52.6907C77.7782 54.3284 78.74 59.3196 78.74 59.3196C78.74 59.3196 78.792 63.4918 85.3169 65.0516C86.4867 65.3375 88.0854 65.5975 89.9571 65.8574C90.152 65.8964 90.425 65.9874 90.49 66.1824C90.594 66.4943 90.282 66.6633 90.0611 66.8582C86.9546 68.6519 82.5484 70.7446 76.9593 72.3043C71.0974 73.942 72.0592 78.9331 72.0592 78.9331C72.0592 78.9331 72.1632 82.9104 78.649 84.6781C81.3266 85.406 85.0829 85.419 89.2552 85.029C89.8401 85.055 90.464 84.9901 90.9839 85.302C91.6208 85.6919 91.6468 86.5108 91.8287 87.1477C91.9977 87.7586 92.2317 88.3565 92.5306 88.9154C95.2991 93.8675 102.084 92.0478 106.984 88.7464C107.465 88.4734 108.024 88.2655 108.596 88.1745C109.376 88.0445 110.169 88.1355 110.857 88.5124C110.909 88.5384 110.987 88.5904 111.039 88.6294C111.572 89.0843 112.131 89.5003 112.755 89.8642C113.86 90.5011 115.251 90.826 116.485 91.112C118.773 91.6579 121.698 91.242 123.842 89.9032C123.933 89.8512 124.024 89.7862 124.076 89.7602C124.128 89.7342 124.18 89.6822 124.232 89.6432C124.297 89.5912 124.362 89.5522 124.427 89.5133C124.648 89.3443 124.856 89.1753 125.09 89.0323C125.545 88.7464 126.078 88.5514 126.611 88.5124C126.858 88.4994 127.092 88.5124 127.326 88.5514C127.689 88.6294 128.053 88.7724 128.378 88.9544C128.443 88.9933 128.547 89.0583 128.638 89.0973C133.499 92.2168 139.959 93.8025 142.65 88.9804C142.962 88.4215 143.183 87.8236 143.352 87.2257C143.534 86.5888 143.573 85.7699 144.197 85.38C144.612 85.12 145.119 85.12 145.6 85.12C149.357 85.419 152.71 85.341 155.167 84.6781C161.652 82.9104 161.756 78.9331 161.756 78.9331C161.756 78.9331 162.705 73.955 156.843 72.3173Z" fill="#757F3F"/>
<path d="M106.854 23.9919C107.777 24.3428 108.375 25.0577 109.688 24.5378C110.533 24.1998 111.3 22.9391 111.416 22.0682C111.598 20.7165 110.676 21.0414 109.792 20.6125C109.532 19.9236 110.299 18.8448 109.909 18.0779C109.35 16.9861 107.621 18.1429 107.114 18.7278C106.308 19.6506 105.62 20.3265 104.502 20.9244C103.748 21.3273 100.55 23.0041 102.11 24.1608C102.435 24.3948 102.76 24.4338 103.163 24.4338C104.19 24.4208 105.217 23.7319 106.204 23.8359C106.438 23.8489 106.659 23.9139 106.854 23.9919ZM97.4439 38.2634C96.2741 38.6793 93.8046 40.213 95.3643 41.6298C96.4561 42.6306 98.7827 42.0587 100.056 41.7338C100.589 41.6038 101.291 41.2269 101.85 41.2529C102.448 41.2789 102.461 41.7208 102.656 42.2147C103.059 43.2155 103.8 43.4105 104.827 43.4105C105.451 43.4105 105.944 43.4365 106.503 43.1765C107.842 42.5396 107.751 42.8646 108.986 43.3065C110.429 43.8264 111.65 43.1115 112.495 41.9547C112.768 41.5778 112.989 41.0059 112.963 40.551C112.924 39.6801 112.313 39.2252 111.403 39.3552C110.494 39.4852 109.857 39.6801 109.376 38.7573C108.726 37.5355 106.88 39.0562 106.425 38.1854C106.217 37.7955 106.659 36.9766 106.581 36.5087C106.49 35.9368 106.152 35.5079 105.555 35.4169C104.619 35.2609 103.839 35.5079 103.085 35.9238C101.668 36.6907 100.446 37.3145 98.8997 37.7955C98.5097 37.9254 97.9898 38.0684 97.4439 38.2634ZM99.4586 52.041C98.6787 51.937 97.7559 52.2619 97.106 52.5739C94.4285 53.8736 91.7899 55.2514 89.0994 56.5252C88.1506 56.9671 86.6428 57.422 86.6818 58.7478C86.7598 61.1524 90.9191 60.1255 92.3098 59.9696C93.5316 59.8266 95.5463 59.3457 96.5601 60.3335C97.145 60.9054 97.4179 61.2434 98.2758 61.3343C99.7185 61.4903 101.59 60.0346 102.89 60.7364C103.423 61.0224 103.722 61.4123 104.333 61.6203C105.788 62.1272 107.556 61.5293 108.752 60.6325C109.766 59.8786 110.494 57.682 109.103 56.9411C108.193 56.4472 107.478 57.344 106.633 57.1881C105.373 56.9541 105.671 56.0053 104.775 55.3034C103.696 54.4585 102.006 55.8753 101.226 55.0434C100.563 54.3546 101.005 53.1978 100.42 52.5479C100.147 52.2359 99.8225 52.093 99.4586 52.041ZM96.6771 71.0176C94.4545 70.5887 92.2059 72.2654 90.2952 73.1103C88.1896 74.0461 85.85 74.1891 83.7703 75.1899C82.3926 75.8528 82.5226 77.9584 83.8743 78.5563C85.1091 79.1022 86.6948 78.9592 87.9946 78.8813C89.9313 78.7773 91.7639 77.9324 93.7006 77.7635C96.3391 77.5295 96.4691 78.2444 96.924 80.506C97.249 82.1567 99.0037 83.0535 100.589 82.7026C101.421 82.5206 102.149 81.8057 102.916 81.4678C103.891 81.0389 103.852 81.1559 104.788 81.4678C105.464 81.7018 106.334 81.6758 106.997 81.4288C108.102 81.0129 108.622 80.142 108.648 79.0372C108.687 77.3085 108.661 75.0339 106.269 75.6968C103.657 76.4247 104.502 75.0079 102.604 74.2931C101.252 73.7862 100.004 75.0859 98.7567 73.9811C97.7949 73.1103 98.3668 71.3946 96.6771 71.0176Z" fill="#99A95A"/>
<path d="M2.18376 119.135C2.18376 119.135 -1.27364 122.58 1.72884 125.92C3.0936 127.441 6.22605 129.234 11.0482 131.223C30.5318 139.269 52.6799 149.42 56.7612 148.77C60.8425 148.12 115.433 128.195 118.591 126.245C121.75 124.295 122.621 119.486 118.149 117.251C111.43 113.897 53.7327 133.394 53.7327 133.394C53.7327 133.394 3.69149 116.172 2.18376 119.135Z" fill="#A3A30D"/>
<path d="M4.17241 124.724C2.23575 123.944 1.27392 121.773 1.9498 119.811C23.1101 58.4616 57.58 62.5688 57.58 62.5688C96.9501 63.4787 114.094 106.618 118.396 119.655C119.059 121.682 117.967 123.866 115.94 124.555L56.2803 144.74C55.3964 145.039 54.4346 145.013 53.5768 144.662L4.17241 124.724Z" fill="#FCC21B"/>
<path d="M57.6319 62.2697C57.6319 62.2697 51.12 65.8181 50.1452 94.0882C49.4043 115.521 56.2801 144.714 56.2801 144.714L116.239 124.451C118.149 123.801 119.254 121.825 118.786 119.876C115.888 107.476 102.864 65.7011 57.6319 62.2697Z" fill="#E89F0F"/>
<path d="M63.0651 39.9269C64.1699 40.0439 65.2227 40.3949 66.3795 40.5898C72.3844 41.5906 96.4172 45.009 97.873 45.5809C98.5098 45.8279 99.3937 46.2568 99.5887 46.9847C99.8876 48.0895 98.4968 48.5834 97.73 48.9734C94.4416 50.6371 69.6289 58.9036 66.0675 60.0734C64.9107 60.4633 63.9229 61.0092 62.6881 61.0612C61.5573 61.1002 60.2445 61.8281 59.2047 61.1002C58.1909 60.4113 58.1389 59.4365 58.1389 58.3187C58.1389 57.1489 57.944 55.9531 57.827 54.8093C57.723 53.6655 57.827 52.4567 57.827 51.2999C57.827 50.0392 57.9829 48.8694 57.9829 47.6086C57.9829 46.2178 58.0089 44.8791 58.1389 43.5273C58.2299 42.5655 58.4249 41.4477 58.9448 40.6678C59.3607 40.0569 59.8286 39.602 60.5695 39.459C61.4923 39.2771 62.1942 39.823 63.0651 39.9269Z" fill="#ED6C30"/>
<path d="M57.2288 66.4555C55.955 66.4555 54.9282 65.1948 54.9282 63.635V39.2903C54.9282 37.7306 55.955 36.4698 57.2288 36.4698C58.5026 36.4698 59.5294 37.7306 59.5294 39.2903V63.635C59.5294 65.1948 58.5026 66.4555 57.2288 66.4555ZM102.89 128.936C102.89 128.936 95.5721 92.568 81.0406 96.5583C68.6538 99.9507 75.3087 138.255 75.3087 138.255L102.89 128.936Z" fill="#855C52"/>
</svg>
