<svg width="160" height="160" viewBox="0 0 160 160" fill="none" xmlns="http://www.w3.org/2000/svg">
<path d="M0 19C0 8.50659 8.50659 0 19 0H141C151.493 0 160 8.50659 160 19V141C160 151.493 151.493 160 141 160H19C8.50659 160 0 151.493 0 141V19Z" fill="#D6EEF0"/>
<path d="M69.9998 94.9999C68.7498 91.75 66.7498 88.75 64.7498 86.75L17.4999 42.7501C13.5 39.0001 6.99998 39.0001 2.99999 42.7501L0 45.5001V94.9999H69.9998Z" fill="#D0D0D0"/>
<path d="M125.5 86.2497C117.5 82.7497 108.5 80.7498 99.4997 80.7498C90.4997 80.7498 82.4997 82.7498 75.9998 85.9997C61.9998 92.2497 43.4999 91.9997 26.4999 85.7497C20.8397 83.2734 14.4285 81.4228 7.97487 80.5521C3.59626 79.9614 0 83.5815 0 87.9998V152C0 156.418 3.58172 160 8 160H152C156.418 160 160 156.418 160 152V99.7103C160 94.9342 155.831 91.2516 151.055 91.1638C142.663 91.0095 133.947 89.3714 125.5 86.2497Z" fill="#83BF4F"/>
<path d="M0 137C0 133.134 3.13401 130 7 130H32.9999C36.8659 130 39.9999 133.134 39.9999 137V153C39.9999 156.865 36.8659 160 32.9999 160H7C3.13401 160 0 156.866 0 153V137ZM120 137C120 133.134 123.134 130 127 130H153C156.866 130 160 133.134 160 137V153C160 156.865 156.866 160 153 160H127C123.134 160 120 156.866 120 153V137Z" fill="#F9F3D9"/>
<path d="M0 120H44.9999V130H0V120ZM115 120H160V130H115V120ZM4.99998 137.5H15V142.5H4.99998V137.5ZM24.9999 142.5H34.9999V147.5H24.9999V142.5ZM135 150H145V155H135V150ZM145 135H155V140H145V135Z" fill="#D0D0D0"/>
<path d="M74.2497 114.5C49.2498 105.75 53.2497 93.7502 54.9997 90.5002H49.4998C44.9998 94.2502 34.4998 103.75 60.7497 119.5C90.2496 137.25 61.7497 160 61.7497 160H104.25C104.25 160 116.25 129 74.2497 114.5Z" fill="#F9F3D9"/>
<path d="M35 69.9998H40V120H35V69.9998ZM120 69.9998H125V120H120V69.9998Z" fill="#3E4347"/>
<path d="M9.99998 107.5C12.7614 107.5 15 105.261 15 102.5C15 99.7384 12.7614 97.4999 9.99998 97.4999C7.23857 97.4999 5 99.7384 5 102.5C5 105.261 7.23857 107.5 9.99998 107.5Z" fill="#699635"/>
<path d="M9.99999 99.9999C11.3807 99.9999 12.5 98.8806 12.5 97.4999C12.5 96.1192 11.3807 94.9999 9.99999 94.9999C8.61928 94.9999 7.5 96.1192 7.5 97.4999C7.5 98.8806 8.61928 99.9999 9.99999 99.9999Z" fill="#699635"/>
<path d="M25 107.5C27.7614 107.5 30 105.261 30 102.5C30 99.7384 27.7614 97.4999 25 97.4999C22.2386 97.4999 20 99.7384 20 102.5C20 105.261 22.2386 107.5 25 107.5Z" fill="#699635"/>
<path d="M17.5 107.5C21.6421 107.5 25 104.142 25 99.9999C25 95.8578 21.6421 92.4999 17.5 92.4999C13.3579 92.4999 10 95.8578 10 99.9999C10 104.142 13.3579 107.5 17.5 107.5Z" fill="#699635"/>
<path d="M140 94.9997H144.999V110H140V94.9997Z" fill="#89664C"/>
<path d="M146.5 72.9993C144.25 68.7493 140.75 68.7493 138.5 72.9993L130.75 87.4992C128.5 91.7492 130.75 94.9992 135.75 94.9992H149.25C154.25 94.9992 156.5 91.4992 154.25 87.4992L146.5 72.9993Z" fill="#699635"/>
<path d="M145.749 64.9996C143.999 61.7496 140.999 61.7496 139.249 64.9996L133.249 76.4995C131.499 79.7495 133.249 82.4995 137.249 82.4995H147.999C151.999 82.4995 153.749 79.7495 151.999 76.4995L145.749 64.9996Z" fill="#75A843"/>
<path d="M145 56.7503C143.75 54.2503 141.5 54.2503 140.25 56.7503L135.75 65.5003C134.5 68.0003 135.75 70.0003 138.75 70.0003H146.75C149.75 70.0003 151 68.0003 149.75 65.5003L145 56.7503Z" fill="#83BF4F"/>
<path d="M129.999 47.4999C139.664 47.4999 147.499 39.6649 147.499 29.9999C147.499 20.335 139.664 12.5 129.999 12.5C120.335 12.5 112.5 20.335 112.5 29.9999C112.5 39.6649 120.335 47.4999 129.999 47.4999Z" fill="#FFE62E"/>
<path d="M54.9999 17.5C54.9999 20.2499 52.7499 22.4999 49.9999 22.4999H25C22.25 22.4999 20 20.2499 20 17.5C20 14.75 22.25 12.5 25 12.5H49.9999C52.7499 12.5 54.9999 14.75 54.9999 17.5Z" fill="white"/>
<path d="M64.9999 22.4999C64.9999 25.2499 62.7499 27.4999 60 27.4999H50C47.25 27.4999 45 25.2499 45 22.4999C45 19.7499 47.25 17.4999 50 17.4999H60C62.7499 17.4999 64.9999 19.7499 64.9999 22.4999ZM99.9998 29.9999C99.9998 32.7499 97.7498 34.9999 94.9998 34.9999H84.9999C82.2499 34.9999 79.9999 32.7499 79.9999 29.9999C79.9999 27.2499 82.2499 24.9999 84.9999 24.9999H94.9998C97.7498 24.9999 99.9998 27.2499 99.9998 29.9999Z" fill="white"/>
<path d="M122.5 54.9998H37.5C32 54.9998 27.5 59.4998 27.5 64.9998C27.5 70.4998 32 74.9998 37.5 74.9998H122.5C128 74.9998 132.5 70.4998 132.5 64.9998C132.5 59.4998 128 54.9998 122.5 54.9998Z" fill="#89664C"/>
<path d="M37.5 67.4998C38.8807 67.4998 40 66.3805 40 64.9998C40 63.6191 38.8807 62.4998 37.5 62.4998C36.1193 62.4998 35 63.6191 35 64.9998C35 66.3805 36.1193 67.4998 37.5 67.4998Z" fill="#F9F3D9"/>
<path d="M122.5 67.4996C123.881 67.4996 125 66.3803 125 64.9996C125 63.6189 123.881 62.4996 122.5 62.4996C121.119 62.4996 120 63.6189 120 64.9996C120 66.3803 121.119 67.4996 122.5 67.4996Z" fill="#F9F3D9"/>
</svg>
