<svg width="161" height="160" viewBox="0 0 161 160" fill="none" xmlns="http://www.w3.org/2000/svg">
<path d="M150.028 160H10.0247C4.507 160 0.0263672 155.519 0.0263672 150.001V9.99832C0.0263672 4.48063 4.507 0 10.0247 0H150.028C155.545 0 160.026 4.48063 160.026 9.99832V150.001C160.039 155.519 155.559 160 150.028 160Z" fill="url(#paint0_radial_1_358)"/>
<path d="M16.9251 155.745L0.0263672 139.086V124.394C0.0263672 124.394 13.0827 124.301 21.2063 126.375C31.4706 128.995 41.2163 134.326 41.2163 134.326C41.2163 134.326 55.0836 127.692 70.7326 125.538C83.4033 123.796 107.389 120.233 127.917 123.291C141.492 125.312 152.168 133.608 152.168 133.608C152.168 133.608 155.439 132.651 157.354 132.265C159.268 131.88 160.039 131.587 160.039 131.587L160.013 138.873L147.435 154.363L16.9251 155.745Z" fill="#2D2D2D"/>
<path d="M55.7829 103.619L56.1179 39.3741L58.1123 39.3847L57.7772 103.629L55.7829 103.619ZM41.9209 54.8582H43.9152V101.938H41.9209V54.8582ZM28.6119 67.1832H30.6063V101.18H28.6119V67.1832ZM15.9545 76.211H17.9488V101.739H15.9545V76.211ZM1.54199 82.4599H3.53634V100.848H1.54199V82.4599ZM99.7968 58.3017H101.791V102.59H99.7968V58.3017ZM112.417 69.853L114.411 69.837L114.681 102.584L112.687 102.6L112.417 69.853ZM125.896 81.1702H127.89V101.459H125.896V81.1702ZM139.258 89.8656H141.253V102.111H139.258V89.8656Z" fill="#F86E49"/>
<path d="M0 80.957C6.42179 77.7528 19.6111 70.4668 34.1964 58.381C57.2776 39.2486 68.8182 21.4723 68.9645 21.2197C68.9778 21.2064 70.9455 21.4723 71.8496 21.5255C72.7537 21.5388 74.7747 20.3289 75.2134 21.1266C75.3464 21.3793 88.2964 43.7824 115.034 67.4221C132.797 83.1242 152.647 91.1814 160.013 93.8139L160.04 99.1721C154.083 97.2043 131.893 89.0674 111.683 71.198C90.0115 52.0257 77.0482 32.2817 72.1554 24.3974C67.5552 31.2313 55.7087 47.093 37.4272 62.2634C20.3689 76.4099 5.45121 84.0283 0 86.5811V80.957Z" fill="#A42718"/>
<path d="M160.039 138.873V150.002C160.039 155.519 155.559 160 150.041 160H10.0247C4.507 160 0.0263672 155.519 0.0263672 150.002V139.086L160.039 138.873Z" fill="#024FAC"/>
<path d="M53.4751 160H109.091C109.091 160 110.061 159.721 109.968 158.006C109.835 155.32 105.74 155.014 105.74 155.014C105.74 155.014 115.326 154.655 117.786 152.275C119.621 150.494 119.023 147.529 117.813 147.249C116.603 146.97 44.1283 145.853 44.1283 145.853C44.1283 145.853 42.0408 146.146 42.4131 149.403C42.6923 151.81 46.1492 153.618 49.4864 153.937C51.7334 154.15 55.6556 154.416 55.6556 154.416C55.6556 154.416 52.9034 155.134 52.6508 157.673C52.5178 159.229 53.4751 160 53.4751 160Z" fill="#1A1A1D"/>
<path d="M75.067 130.404L88.7881 115.898M74.9341 116.47L88.0702 130.696" stroke="#FE5317" stroke-width="2.3" stroke-miterlimit="10"/>
<path d="M0.0136719 100.555H160.027V112.587H0.0136719V100.555Z" fill="#FF5117"/>
<path d="M3.81543 98.5609H5.80977V113.053H3.81543V98.5609ZM18.7863 91.1553H20.7807V113.545H18.7863V91.1553ZM31.6698 82.779H33.6641V113.705H31.6698V82.779ZM45.5239 71.3448H47.5182V113.226H45.5239V71.3448ZM59.0588 58.3017H61.0532V113.386H59.0588V58.3017ZM102.868 35.2737H104.862V113.545H102.868V35.2737ZM115.419 49.6064H117.413V113.066H115.419V49.6064ZM128.475 62.3303H130.47V112.747H128.475V62.3303ZM142.648 72.3153H144.643V112.255H142.648V72.3153ZM155.532 81.0107H157.526V112.734H155.532V81.0107Z" fill="#F86E49"/>
<path d="M160.04 77.4474C154.07 74.9345 141.014 68.7254 126.974 57.4906C104.065 39.1692 95.1438 21.3797 95.064 21.2068L90.5967 23.4804C90.9557 24.2515 99.9169 42.3203 123.822 61.4394C140.269 74.5888 155.054 80.984 160.04 82.9252V77.4474Z" fill="#A42718"/>
<path d="M66.2124 129.872L66.824 50.59H68.9513V21.2199L70.7329 21.1667C70.7329 21.1667 70.7329 19.6909 70.7462 18.3348C70.7595 16.9254 71.4376 15.9681 72.4746 15.9282C74.9476 15.8352 74.9609 20.3424 74.9609 20.3424C74.9609 20.3424 77.6998 22.5495 82.699 22.483C87.6982 22.4165 88.9878 20.5817 88.9878 20.5817C88.9878 20.5817 88.9612 15.6623 90.8359 15.6756C92.1788 15.6756 93.0031 16.5132 93.0563 18.0157C93.0962 19.5314 93.1228 21.2066 93.1228 21.2066L95.0772 21.2199L94.798 50.7894L96.4334 50.7761L95.9149 130.523L87.738 130.031L87.645 114.236L87.6184 109.157L87.0999 29.3701H76.3304L75.5991 108.825L75.5459 114.741L75.413 129.792L66.2124 129.872Z" fill="#FE5314"/>
<path d="M73.4985 78.7236H92.8437L88.0041 69.3236C88.0041 69.3236 84.6004 70.9324 81.3696 70.9324C78.1387 70.9324 74.1101 67.5287 74.1101 67.5287L73.4985 78.7236ZM75.1073 55.2568C75.1073 55.2568 76.5166 53.8874 77.7 53.2891C79.3087 52.478 84.1483 52.478 85.9433 53.2891C87.0069 53.7677 89.1741 56.5997 89.1741 56.5997L88.2833 40.6848C88.2833 40.6848 87.1 45.9632 82.0077 46.4684C79.6943 46.6944 75.2004 43.6896 75.2004 43.6896L75.1073 55.2568Z" fill="#FE5314"/>
<path d="M73.405 21.6587C75.1334 23.2275 78.6435 24.238 81.5685 24.1582C85.5838 24.0652 89.3997 22.8819 90.7026 22.0708C90.9553 21.9113 90.8489 15.6756 90.8489 15.6756C90.8489 15.6756 89.7852 15.5028 89.2268 16.5664C88.6418 17.6833 88.8014 20.3557 88.8014 20.3557C88.8014 20.3557 86.5943 22.3367 81.5685 22.257C77.2474 22.1772 75.3063 20.5551 75.3063 20.5551C75.3063 20.5551 74.934 17.5237 74.349 16.6595C73.6842 15.6889 72.5674 15.9149 72.5674 15.9149C72.5674 15.9149 72.9663 21.2598 73.405 21.6587ZM76.0508 43.0381C75.2531 42.7721 75.3595 44.1948 76.4364 45.4844C77.9255 47.2927 84.4138 47.0932 86.0359 45.7637C87.1793 44.8197 87.2192 43.8491 87.1527 43.0912C87.1128 42.5993 84.3473 44.3277 81.4888 44.2612C78.6169 44.2081 76.8486 43.304 76.0508 43.0381ZM76.0508 68.4992C75.2797 68.7252 75.7583 70.3739 77.181 71.5572C79.1354 73.1793 84.4138 72.9798 85.9428 71.7832C87.4053 70.6531 87.7776 69.0177 87.3255 68.6322C86.8868 68.2466 84.108 69.9085 81.8876 69.9351C78.4839 69.975 76.7555 68.2865 76.0508 68.4992Z" fill="#F86E49"/>
<path d="M160.053 118.278L0.0136719 118.265V112.401L160.027 112.348L160.053 118.278Z" fill="#A42718"/>
<path d="M71.0649 44.208H73.0593V112.375H71.0649V44.208Z" fill="#F86E49"/>
<path d="M0 97.9227C6.52816 95.0509 24.6634 86.0497 47.6117 65.9866C76.3702 40.8578 85.6771 22.3902 86.9136 21.4063C86.9668 21.3531 88.8016 20.2895 88.8016 20.2895L90.2375 20.9144C90.171 21.0739 90.0381 23.5469 90.0115 23.5868C86.4881 29.5964 75.599 48.2502 50.9489 69.7892C24.3975 92.9768 4.48063 101.632 0 103.414V97.9227Z" fill="#A42718"/>
<path d="M63.3004 143.5C63.3004 143.5 50.603 143.5 47.5185 143.846C45.4576 144.072 42.732 145.056 42.5326 146.97C42.28 149.337 44.8327 150.986 51.2944 150.986C57.7561 150.986 107.562 151.092 112.149 150.892C116.736 150.693 118.81 149.696 118.65 147.356C118.464 144.803 113.664 144.404 110.58 144.005C107.867 143.66 98.2413 143.447 98.2413 143.447C98.2413 143.447 98.5604 132.239 98.0286 131.109C97.4968 129.978 79.8269 130.085 79.8269 130.085C79.8269 130.085 63.6727 129.912 63.5131 130.909C63.3403 131.959 63.3004 143.5 63.3004 143.5Z" fill="#4F838F"/>
<path d="M64.3242 129.101C63.1409 129.473 63.3802 131.76 63.3802 131.76L98.1749 131.826C98.1749 131.826 98.268 129.433 96.7921 129.207C94.7978 128.888 65.7601 128.649 64.3242 129.101Z" fill="#79AEC0"/>
<path d="M84.1346 8.36297C85.2434 8.36297 86.1422 7.46412 86.1422 6.35533C86.1422 5.24654 85.2434 4.34769 84.1346 4.34769C83.0258 4.34769 82.127 5.24654 82.127 6.35533C82.127 7.46412 83.0258 8.36297 84.1346 8.36297Z" fill="#FFBB23"/>
<path d="M26.0692 22.2709C26.5781 21.051 26.0897 19.6863 24.9782 19.2226C23.8668 18.759 22.5533 19.372 22.0444 20.5919C21.5356 21.8117 22.024 23.1765 23.1355 23.6401C24.2469 24.1037 25.5604 23.4907 26.0692 22.2709Z" fill="#FAC018"/>
<path d="M43.8758 22.5626C44.8891 22.5626 45.7106 21.7232 45.7106 20.6879C45.7106 19.6525 44.8891 18.8132 43.8758 18.8132C42.8625 18.8132 42.041 19.6525 42.041 20.6879C42.041 21.7232 42.8625 22.5626 43.8758 22.5626Z" fill="#FFBB23"/>
<path d="M112.773 27.7215C113.699 27.7215 114.449 26.9715 114.449 26.0463C114.449 25.121 113.699 24.371 112.773 24.371C111.848 24.371 111.098 25.121 111.098 26.0463C111.098 26.9715 111.848 27.7215 112.773 27.7215Z" fill="#FFBB23"/>
<path d="M125.764 42.0411C125.857 43.4105 124.873 44.0221 123.862 44.0886C122.852 44.1418 121.974 43.3042 121.908 42.2006C121.841 41.0971 122.612 40.1531 123.623 40.0866C124.647 40.0201 125.657 40.5387 125.764 42.0411Z" fill="#FFBB23"/>
<path d="M152.143 31.3212C153.211 31.0238 153.826 29.8824 153.517 28.7718C153.208 27.6612 152.091 27.0019 151.023 27.2993C149.955 27.5967 149.34 28.7381 149.649 29.8487C149.958 30.9593 151.074 31.6186 152.143 31.3212Z" fill="#FFBB23"/>
<path d="M12.0596 41.0967C12.8021 40.3542 12.7684 39.1167 11.9844 38.3327C11.2003 37.5486 9.96284 37.515 9.22036 38.2575C8.47788 39 8.51157 40.2375 9.29562 41.0215C10.0797 41.8055 11.3172 41.8392 12.0596 41.0967Z" fill="#FFBB23"/>
<path d="M35.3 38.664C35.3 38.664 33.2791 35.247 32.6542 35.3799C32.0027 35.5262 32.1755 39.7276 32.1755 39.7276C32.1755 39.7276 28.4395 40.5785 28.3464 41.1369C28.2666 41.6954 32.2686 43.0515 32.2686 43.0515C32.2686 43.0515 32.1356 47.2264 32.6143 47.2662C33.0929 47.3061 35.5925 44.1551 35.5925 44.1551C35.5925 44.1551 39.1292 45.3118 39.4748 44.9262C39.6743 44.7002 37.5603 41.2566 37.5603 41.2566C37.5603 41.2566 39.6876 38.3582 39.3951 37.8529C39.1026 37.3477 35.3 38.664 35.3 38.664ZM127.598 17.2048C127.598 17.2048 130.164 14.1335 130.523 14.3063C130.882 14.4925 130.59 18.2153 130.59 18.2153C130.59 18.2153 134.313 18.1754 134.353 18.6806C134.392 19.1991 131.414 20.9941 131.414 20.9941C131.414 20.9941 132.824 24.2914 132.717 24.411C132.398 24.7567 129.141 23.1612 129.141 23.1612C129.141 23.1612 127.612 26.3123 127.08 26.3123C126.548 26.3123 126.096 22.4965 126.096 22.4965C126.096 22.4965 122.719 22.5895 122.612 22.1907C122.506 21.7918 125.245 19.4784 125.245 19.4784C125.245 19.4784 123.184 16.1943 123.65 15.7157C124.128 15.2503 127.598 17.2048 127.598 17.2048Z" fill="#FFBB23"/>
<defs>
<radialGradient id="paint0_radial_1_358" cx="0" cy="0" r="1" gradientUnits="userSpaceOnUse" gradientTransform="translate(83.4208 180.481) rotate(-90.1845) scale(179.334 230.39)">
<stop offset="0.283" stop-color="#89AF7C"/>
<stop offset="0.394" stop-color="#649E6E"/>
<stop offset="0.451" stop-color="#588F6E"/>
<stop offset="0.561" stop-color="#3A676D"/>
<stop offset="0.562" stop-color="#3A676D"/>
<stop offset="0.777" stop-color="#245379"/>
<stop offset="0.967" stop-color="#0C3D86"/>
</radialGradient>
</defs>
</svg>
