<svg width="161" height="161" viewBox="0 0 161 161" fill="none" xmlns="http://www.w3.org/2000/svg">
<path d="M150.01 159.969H10.3084C4.80253 159.969 0.331543 155.498 0.331543 149.992L0.331543 10.2903C0.331543 4.78447 4.80253 0.313477 10.3084 0.313477L150.01 0.313477C155.516 0.313477 159.987 4.78447 159.987 10.2903V149.992C160 155.498 155.529 159.969 150.01 159.969Z" fill="url(#paint0_radial_1_201)"/>
<path d="M159.999 96.0085V150.337C159.999 155.843 155.528 160.314 150.022 160.314H10.3069C4.80107 160.314 0.330078 155.843 0.330078 150.337L0.330078 95.4778C0.330078 95.4778 50.8642 94.1511 85.3718 93.6204C119.866 93.0897 159.999 96.0085 159.999 96.0085Z" fill="#B4D218"/>
<path d="M136.052 160.274H10.3074C5.23936 160.274 1.06024 156.493 0.410156 151.611C0.410156 151.611 7.22941 148.201 13.8895 146.331C20.5363 144.46 39.455 139.472 38.8315 130.742C38.2079 122.012 20.4566 122.516 21.5843 112.871C22.0885 108.533 29.6374 103.73 38.2345 100.838C49.3788 97.0833 62.3937 95.8893 62.5132 96.0883C62.6458 96.3271 58.2412 102.43 60.1118 109.289C61.9825 116.148 70.5662 120.486 86.5663 124.015C102.566 127.544 118.447 130.954 127.8 142.802C136.901 154.331 136.052 160.274 136.052 160.274Z" fill="#00C1ED"/>
<path d="M5.54443 159.067C6.96401 159.836 8.58258 160.274 10.3073 160.274H127.376C127.376 160.274 125.93 151.823 112.41 141.13C103.468 134.058 94.6459 132.148 84.868 129.866C68.9211 126.138 57.9094 123.83 54.3671 112.407C52.2709 105.614 55.2428 101.859 54.8315 101.236C54.4202 100.612 28.5893 106.118 28.3637 112.844C28.1382 119.836 45.3721 118.496 45.3057 130.649C45.2394 142.085 29.4251 147.631 23.6539 149.647C11.1829 154.025 5.54443 159.067 5.54443 159.067Z" fill="url(#paint1_radial_1_201)"/>
<path d="M0.330566 95.133L65.684 95.1861L58.7321 84.6388C58.7321 84.6388 55.5082 83.5243 50.2942 77.6868C45.0803 71.8493 31.3091 51.0201 27.5943 45.0632C23.8796 39.1063 18.2941 32.6585 13.0802 32.9106C7.86624 33.1626 0.330566 36.2539 0.330566 36.2539L0.330566 95.133Z" fill="#79A5AB"/>
<path d="M0.317383 30.0443C0.317383 30.0443 3.43514 29.2085 6.81823 29.3942C11.528 29.6463 16.8481 33.7856 16.8481 33.7856C16.8481 33.7856 10.732 33.7326 6.93763 37.2085C3.74028 40.1405 0.33065 45.1289 0.33065 45.1289L0.317383 30.0443Z" fill="#E0E0E0"/>
<path d="M80.3046 51.8293L63.084 88.9637L65.6711 94.244L90.0691 92.3601L105.499 41.879L93.6512 38.6949L80.3046 51.8293Z" fill="#86B4BB"/>
<path d="M94.1426 59.8953L90.0564 71.9418L88.1592 86.3763L133.267 90.2636C133.267 90.2636 152.478 46.363 152.385 46.0578C152.279 45.7527 131.582 15.8886 131.582 15.8886L115.648 21.5138L102.607 38.1374L94.1426 59.8953Z" fill="#3E727B"/>
<path d="M159.986 22.4165C159.986 22.4165 153.074 16.2871 149.094 14.8941C145.114 13.5011 129.684 12.7979 129.684 12.7979L116.152 17.6934L104.503 31.2391L97.525 46.8544L93.9429 60.2939C93.9429 60.2939 96.2646 62.9738 97.379 58.0252C98.2547 54.1778 99.4089 49.2425 104.291 38.4962C109.173 27.7499 119.243 17.9455 127.588 18.9804C134.115 19.7896 137.193 29.3154 138.679 36.1877C140.178 43.06 140.921 56.5128 140.921 56.5128L131.263 61.6869L125.492 78.2177C125.492 78.2177 125.187 80.5129 124.696 83.7898C124.192 87.08 124.192 90.6621 124.192 90.6621L150.978 91.5643L159.986 85.1033V22.4165Z" fill="#79A5AB"/>
<path d="M63.1895 85.6335L67.3686 86.2305C67.3686 86.2305 70.6588 77.9652 72.1447 74.1841C73.6439 70.403 74.8379 67.4179 75.9258 66.2238C77.027 65.0298 80.0121 64.7247 80.8081 63.4378C81.6041 62.1376 84.5892 52.4925 86.7782 48.8971C88.9673 45.315 91.6605 42.1309 93.9424 41.2287C96.2376 40.3266 98.0287 40.9236 98.0287 40.9236C98.0287 40.9236 95.2426 48.5919 93.8496 54.6683C92.4565 60.7446 90.0685 71.9419 90.0685 71.9419C90.0685 71.9419 92.4565 70.801 93.4516 69.4079C94.4466 68.0149 94.6854 65.8789 94.964 63.9419C96.304 54.5489 97.9889 49.8391 99.1564 45.8987C100.695 40.7113 104.463 33.0961 106.268 30.164C110.354 23.5305 113.286 21.0496 116.868 18.5686C120.45 16.0744 126.871 13.3945 134.248 13.7925C141.611 14.1905 152.888 16.9501 152.888 16.9501C152.888 16.9501 144.649 10.5554 133.399 10.6615C122.148 10.7676 114.652 15.2652 108.682 22.1375C102.712 29.0098 99.4217 38.4692 99.4217 38.4692C99.4217 38.4692 95.9325 36.174 91.5544 37.169C87.1763 38.1641 83.09 39.7561 78.7119 47.2254C74.3338 54.6948 68.8545 70.7214 68.8545 70.7214L63.1895 85.6335ZM143.429 62.8407C143.429 62.8407 137.259 61.2487 133.969 63.6368C131.621 65.3482 129.697 68.8507 127.694 75.4842C125.876 81.4942 124.961 82.2504 124.908 82.078C124.669 81.3615 125.69 70.7612 126.898 65.932C127.8 62.3499 130.268 56.7246 135.76 55.4775C141.929 54.0712 143.229 59.3515 143.429 62.8407Z" fill="#E0E0DF"/>
<path d="M119.627 30.4818C117.942 30.3491 117.518 32.1667 117.452 37.1684C117.372 42.6477 116.947 47.3177 116.947 47.3177C116.947 47.3177 112.861 53.1817 111.574 56.9628C110.274 60.7439 109.08 64.4322 108.39 68.0143C107.873 70.6677 107.17 74.263 108.788 74.8866C110.884 75.6826 112.967 66.2232 114.864 60.3459C116.881 54.0706 121.233 48.6975 121.233 48.6975C121.233 48.6975 121.352 42.714 121.233 37.8318C121.18 36.1468 121.392 30.6145 119.627 30.4818ZM109.77 35.855C108.271 36.0407 107.793 38.4288 107.674 41.4271C107.554 44.4122 107.568 46.5084 107.568 46.5084C107.568 46.5084 105.471 50.9927 104.981 52.9827C104.49 54.9728 106.082 55.8749 107.475 54.1767C108.868 52.4786 111.853 46.9064 111.853 46.9064C111.853 46.9064 111.959 42.9263 111.959 41.3343C111.959 39.7422 112.264 35.5631 109.77 35.855Z" fill="#79A5AB"/>
<path d="M14.1412 49.9857C14.0085 49.9857 14.6984 51.5778 15.0832 53.6607C15.5608 56.2212 16.0517 62.0985 16.2109 71.4385C16.3701 80.7785 16.8344 90.8084 16.8344 90.8084L23.6271 88.8051C23.6271 88.8051 23.4016 74.6757 22.6188 67.3523C21.8361 60.0289 20.7349 56.2743 18.7581 53.0902C17.8162 51.5778 15.3618 49.9592 14.1412 49.9857Z" fill="#ACE4FE"/>
<path d="M17.5514 62.2697C18.7852 62.1105 18.7719 64.5782 18.8648 68.6777C18.9444 72.2333 19.0903 74.3825 18.2412 74.4621C17.087 74.5683 17.2462 73.4671 17.0074 67.8286C16.8482 64.2067 16.6492 62.3891 17.5514 62.2697ZM20.3109 64.7241C19.5414 64.8966 20.0058 67.4173 20.1517 71.7424C20.3109 76.3726 19.9925 79.3046 21.4651 79.3046C22.8582 79.3046 22.2346 76.5318 22.0887 71.4372C21.9427 66.9662 21.6907 64.419 20.3109 64.7241ZM15.9858 91.1255C15.9858 91.1255 17.4585 88.963 19.3026 88.5782C21.16 88.1935 21.8499 88.4191 21.8499 88.4191C21.8499 88.4191 22.9245 85.3278 27.024 85.4074C31.1103 85.487 32.5033 91.1919 32.5033 91.1919L16.0654 93.3544L15.9858 91.1255Z" fill="#FCFDFE"/>
<path d="M18.1612 96.2199C18.1612 96.2199 51.09 95.3576 71.1896 95.53C91.2891 95.7025 112.609 95.7025 112.609 95.7025C112.609 95.7025 101.173 72.8301 100.297 73.0026C99.4351 73.1751 92.6689 84.9562 92.6689 84.9562C92.6689 84.9562 85.3057 72.1668 84.6158 71.8218C83.9259 71.4769 76.1912 89.1619 76.1912 89.1619L72.8347 83.9612L68.8811 90.263L63.7335 79.0789L54.5527 91.9081C54.5527 91.9081 52.7351 91.3377 50.4797 91.2315C47.0834 91.0723 43.1165 92.943 43.1165 92.943C43.1165 92.943 35.8329 90.5151 30.8047 90.5151C25.7765 90.5151 11.395 94.4952 11.395 94.4952L18.1612 96.2199Z" fill="#0A7E1D"/>
<path d="M62.2742 76.7321C63.0437 76.9178 64.3704 80.4734 64.3704 80.4734L59.1167 93.2893L54.5396 91.9494C54.5528 91.9494 61.4251 76.5198 62.2742 76.7321ZM68.8679 90.3043L70.2212 92.9179L73.9625 85.7139C73.9625 85.7139 72.8348 83.6309 72.5827 83.6442C72.052 83.684 68.8679 90.3043 68.8679 90.3043ZM84.669 71.6906C83.2229 71.7569 76.1914 89.1235 76.1914 89.1235C76.1914 89.1235 78.0487 91.83 78.2079 91.8565C79.2162 92.0024 86.1018 73.9062 86.1018 73.9062C86.1018 73.9062 85.0272 71.6641 84.669 71.6906Z" fill="#02AB47"/>
<path d="M104.928 99.6037C104.928 99.6037 104.317 101.182 105.299 101.435C106.281 101.687 113.591 102.775 125.399 102.284C137.22 101.793 159.986 101.315 159.986 101.315L159.999 85.1028C159.999 85.1028 150.248 62.5621 149.027 62.8009C147.807 63.0397 139.356 82.8872 139.356 82.8872C139.356 82.8872 135.933 76.6252 135.336 76.3864C134.725 76.1476 125.147 88.0348 125.147 88.0348C125.147 88.0348 118.938 70.3631 117.956 70.2437C116.987 70.1243 104.928 99.6037 104.928 99.6037Z" fill="#0A7E1D"/>
<path d="M116.563 67.0866C115.475 67.0866 107.475 85.8462 106.374 88.5262C105.273 91.2061 101.531 99.896 102.022 100.626C102.513 101.355 107.064 101.714 107.064 101.714C107.064 101.714 112.225 86.6953 114.414 81.813C116.603 76.944 119.07 72.1148 119.07 72.1148C119.07 72.1148 117.691 67.0866 116.563 67.0866ZM133.439 74.3968C134.089 74.0651 136.238 77.5676 136.238 77.5676C136.238 77.5676 128.079 91.697 127.468 91.9491C126.858 92.1879 125.147 88.0486 125.147 88.0486C125.147 88.0486 131.966 75.1265 133.439 74.3968Z" fill="#02AB47"/>
<path d="M0.344727 144.751C0.344727 144.751 5.67808 145.507 9.73779 142.695C15.5886 138.635 15.9202 134.283 15.9202 134.283C15.9202 134.283 17.4725 136.459 23.5222 136.579C29.572 136.698 32.1724 131.55 32.0397 130.847C31.9733 130.502 26.0164 123.245 26.0164 123.245L19.038 109.195L19.8473 105.786L9.63165 92.134L5.59847 68.386C5.59847 68.386 4.52384 66.1306 3.82069 66.7276C3.11754 67.3246 0.371261 72.6712 0.371261 72.6712L0.344727 144.751Z" fill="#0A7E1D"/>
<path d="M10.5723 111.133C8.21081 110.894 5.94215 107.564 5.46453 99.259C4.98692 90.9405 5.94215 77.4082 5.34513 73.7332C4.74811 70.0582 3.80615 66.7282 3.80615 66.7282C3.80615 66.7282 4.28377 65.5342 5.22572 66.8476C6.16768 68.161 11.1694 76.8244 13.5442 82.7548C15.919 88.6984 23.9455 102.96 25.1793 105.083C27.3286 108.771 28.987 111.889 26.1346 112.009C23.2822 112.128 19.3551 109.594 19.3551 109.594C19.3551 109.594 24.1047 119.451 25.5243 121.468C26.9439 123.485 30.9903 129.428 30.9903 129.428C30.9903 129.428 30.2739 131.803 26.4795 130.728C22.6851 129.654 18.2407 119.876 17.2191 117.249C16.2241 114.689 16.0914 112.407 16.2241 111.319C16.4629 109.302 18.1744 108.878 18.1744 108.878C18.1744 108.878 16.2772 106.861 15.3219 105.309C14.3667 103.77 13.3054 101.634 13.3054 101.634C13.3054 101.634 14.1412 111.491 10.5723 111.133Z" fill="#00AA48"/>
<path d="M151.044 97.1225C151.044 97.1225 126.58 104.366 125.638 105.441C124.682 106.516 124.563 108.532 126.832 109.474C129.1 110.416 130.255 109.739 132.417 111.132C133.279 111.69 131.289 117.527 131.289 117.527C131.289 117.527 121.007 120.884 120.835 122.37C120.623 124.227 121.963 125.978 124.337 127.159C126.46 128.22 129.525 128.38 129.525 128.38C129.525 128.38 117.571 137.454 118.155 139.71C118.752 141.965 121.313 145.72 127.057 145.574C132.284 145.441 133.107 143.557 135.959 145.693C138.812 147.829 138.706 152.738 146.414 152.22C151.76 151.862 153.074 148.479 155.794 147.113C157.983 146.025 160.026 145.879 160.026 145.879L159.986 101.302L151.044 97.1225Z" fill="#0A7E1D"/>
<path d="M148.311 78.1248C145.578 78.284 144.159 85.1298 138.693 91.7765C133.227 98.4233 125.585 105.495 125.585 105.495C125.585 105.495 126.222 107.113 128.132 107.1C130.865 107.073 133.001 104.606 135.137 105.442C137.273 106.277 136.915 109.952 140.245 110.191C143.575 110.43 148.086 106.039 151.044 105.919C154.016 105.8 154.016 108.891 156.869 108.772C159.721 108.652 160 107.339 160 107.339V98.2906C160 98.2906 155.569 92.493 153.777 87.3852C152 82.2773 150.341 78.0054 148.311 78.1248ZM140.365 115.06C144.398 115.166 148.086 111.385 153.074 111.85C158.063 112.327 158.302 117.899 157.705 120.168C157.108 122.423 155.688 126.337 152 126.337C148.325 126.337 148.205 124.201 145.95 124.44C143.695 124.679 142.156 126.934 139.303 126.576C136.451 126.218 135.151 123.485 133.015 123.127C130.879 122.768 127.429 124.785 124.696 124.666C121.963 124.546 120.809 122.264 120.809 122.264C120.809 122.264 121.366 120.274 123.263 119.213C125.16 118.151 126.713 117.435 129.207 115.06C131.701 112.685 132.404 111.146 132.404 111.146C132.404 111.146 135.973 114.941 140.365 115.06ZM134.66 139.273C138.786 139.273 137.99 145.216 143.084 146.158C148.192 147.113 155.078 136.778 151.403 131.432C147.728 126.085 143.084 132.506 138.229 131.312C133.36 130.118 133.36 127.863 129.685 127.982C126.01 128.102 118.368 135.2 118.169 139.14C118.049 141.515 121.844 142.669 125.532 142.112C129.194 141.568 132.763 139.273 134.66 139.273Z" fill="#02AB47"/>
<path d="M22.2745 16.4857C22.3674 21.169 29.8234 22.3099 42.1485 22.4161C54.4736 22.5089 62.2083 21.4608 62.0225 16.8704C61.8368 12.28 47.787 11.431 40.5299 11.1391C33.2729 10.8472 22.1816 11.7096 22.2745 16.4857ZM51.5947 34.6881C52.2049 38.2834 57.326 37.8191 64.6892 37.9518C72.9015 38.111 79.283 38.7743 79.8004 34.3962C80.3178 30.0048 69.598 30.4559 65.2995 30.5089C60.9877 30.5753 50.865 30.363 51.5947 34.6881Z" fill="#FFFFFE"/>
<defs>
<radialGradient id="paint0_radial_1_201" cx="0" cy="0" r="1" gradientUnits="userSpaceOnUse" gradientTransform="translate(59.4733 110.251) scale(107.467 107.467)">
<stop offset="0.283" stop-color="#AFE4FE"/>
<stop offset="0.702" stop-color="#84D4F9"/>
<stop offset="0.965" stop-color="#67C9F6"/>
</radialGradient>
<radialGradient id="paint1_radial_1_201" cx="0" cy="0" r="1" gradientUnits="userSpaceOnUse" gradientTransform="translate(68.6239 83.6477) scale(151.644 151.644)">
<stop offset="0.307" stop-color="#8CDBFC"/>
<stop offset="0.412" stop-color="#54D1F5"/>
<stop offset="0.514" stop-color="#23C7EE"/>
<stop offset="0.564" stop-color="#10C4EC"/>
</radialGradient>
</defs>
</svg>
