<svg width="260" height="260" viewBox="0 0 260 260" fill="none" xmlns="http://www.w3.org/2000/svg">
<g opacity="0.32" filter="url(#filter0_d_143_5)">
<rect x="50" y="46" width="160" height="160" rx="17" fill="#DDD8B1"/>
</g>
<path opacity="0.5" d="M190.364 115.694C187.981 106.367 185.91 102.265 181.662 101.474C177.579 100.712 171.778 103.359 170.332 104.14L170.313 104.072C170.313 104.072 170.645 102.265 170.176 100.448C169.707 98.6317 167.832 97.8992 167.295 98.0359L94.7974 108.701L94.309 111.582L93.391 116.202C91.0274 115.772 84.7866 114.942 81.4171 117.423C77.2077 120.519 75.5083 126.213 74.473 133.665C73.4377 141.117 74.1019 145.013 76.4654 147.543C79.3661 150.659 83.9173 151.538 86.2906 151.791L84.9233 158.628C84.9233 158.628 83.2434 159.234 82.2375 162.046C81.2315 164.859 82.5695 167.545 82.5695 167.545C82.5695 167.545 85.3726 162.603 106.996 166.422C128.941 170.299 129.957 175.056 129.957 175.056C129.957 175.056 131.168 173.844 132.106 170.963C133.043 168.082 131.305 165.064 131.305 165.064L135.524 146.43L139.743 157.954C139.743 157.954 138.181 159.849 138.874 162.584C139.704 165.875 147.508 172.575 166.846 165.289C186.018 158.052 186.623 147.856 185.52 144.691C184.768 142.523 182.238 141.947 182.238 141.947L181.125 138.401C182.209 137.776 183.879 136.682 186.399 134.768C192.298 130.295 192.776 125.148 190.364 115.694ZM80.6748 141.263C79.2001 136.761 81.7101 125.431 83.849 123.761C87.0134 121.29 90.3633 122.492 91.965 123.322L87.6189 145.131C85.9293 145.15 81.837 144.818 80.6748 141.263ZM185.002 124.552C184.514 128.381 180.226 129.846 178.566 130.276L172.305 110.4C173.8 109.385 176.72 107.91 179.152 108.183C181.691 108.476 185.607 119.796 185.002 124.552Z" fill="white"/>
<path opacity="0.7" d="M190.364 115.694C187.981 106.367 185.861 102.49 181.662 101.474C175.831 100.058 170.313 104.072 170.313 104.072C170.313 104.072 170.645 102.265 170.176 100.448C169.707 98.6317 167.832 97.8992 167.295 98.0359L94.7974 108.701L94.309 111.582L93.391 116.202C91.0274 115.772 84.7866 114.942 81.4171 117.423C77.2077 120.519 75.5083 126.213 74.473 133.665C73.4377 141.117 74.1019 145.013 76.4654 147.543C79.3661 150.659 83.9173 151.538 86.2906 151.791L84.9233 158.628C84.9233 158.628 83.2434 159.234 82.2375 162.046C81.2315 164.859 82.5695 167.545 82.5695 167.545C82.5695 167.545 84.0736 165.074 92.7952 165.035C96.2721 165.015 100.843 165.318 106.996 166.422C128.453 170.27 129.957 175.056 129.957 175.056C129.957 175.056 131.168 173.844 132.106 170.963C133.043 168.082 131.305 165.064 131.305 165.064L135.524 146.43L139.743 157.954C139.743 157.954 138.181 159.849 138.874 162.584C139.704 165.875 147.508 172.575 166.846 165.289C186.018 158.052 186.623 147.856 185.52 144.691C184.768 142.523 182.238 141.947 182.238 141.947L181.125 138.401C182.209 137.776 183.879 136.682 186.399 134.768C192.298 130.295 192.776 125.148 190.364 115.694ZM80.6748 141.263C79.2001 136.761 81.7101 125.431 83.849 123.761C87.0134 121.29 90.3633 122.492 91.965 123.322L87.6189 145.131C85.9293 145.15 81.837 144.818 80.6748 141.263ZM185.002 124.552C184.514 128.381 180.226 129.846 178.566 130.276L172.305 110.4C173.8 109.385 176.72 107.91 179.152 108.183C181.691 108.476 185.607 119.796 185.002 124.552Z" fill="#E0E0E0"/>
<path opacity="0.7" d="M105.287 177.009C84.2594 173.864 82.5698 167.545 82.5698 167.545C82.5698 167.545 85.1775 162.662 106.996 166.422C128.268 170.085 129.958 175.056 129.958 175.056C129.958 175.056 128.219 180.447 105.287 177.009Z" fill="#BCBCBC"/>
<path d="M98.2938 114.297C98.2938 114.297 90.7149 152.045 90.5001 153.745C90.2852 155.444 90.2852 157.075 92.1995 157.573C94.1137 158.071 101.976 158.208 109.975 159.702C117.974 161.196 123.433 163.599 124.703 164.019C125.972 164.439 127.398 163.667 128.17 161.118C128.951 158.569 137.302 122.032 137.302 122.032L118.618 109.414L98.2938 114.297Z" fill="url(#paint0_radial_143_5)"/>
<path d="M137.517 138.705L141.189 119.806L165.303 105.439C165.303 105.439 176.29 139.457 176.759 140.922C177.345 142.758 174.571 148.95 163.457 153.648C152.342 158.345 144.861 156.314 143.924 154.517C142.996 152.729 137.517 138.705 137.517 138.705Z" fill="url(#paint1_radial_143_5)"/>
<path d="M142.556 110.108L163.554 100.068L165.791 106.875C165.791 106.875 164.062 111.456 154.335 115.841C145.867 119.659 140.974 118.741 140.974 118.741L142.556 110.108ZM99.6512 108.115L96.7505 121.476C96.7505 121.476 101.067 118.741 112.104 119.073C123.14 119.406 136.354 126.32 136.354 126.32L137.009 123.361L139.411 112.442L99.6512 108.115Z" fill="#F4D097"/>
<path d="M92.6585 104.589C91.8576 111.045 95.0513 115.499 102.786 116.309C109.643 117.022 113.549 113.604 117.378 117.11C122.242 121.573 115.62 136.077 115.141 138.313C114.663 140.55 114.34 143.334 116.655 143.968C118.97 144.603 120.63 141.712 121.275 139.183C122.867 132.961 125.816 123.4 129.567 122.443C134.821 121.105 134.001 125.089 139.45 124.201C144.314 123.4 146.062 118.702 146.385 116.632C146.707 114.561 145.584 111.533 145.584 111.533C145.584 111.533 148.377 110.576 151.483 108.74C154.589 106.904 155.292 105.429 157.704 104.121C161.21 102.206 166.397 102.734 168.867 98.4656C171.573 93.7581 171.338 83.6008 161.249 82.5949C158.066 82.2726 156.347 83.425 154.198 83.2394C151.747 83.0246 150.877 81.374 146.629 82.1651C142.371 82.9562 141.365 86.1108 138.894 86.7457C136.159 87.4489 132.116 86.8238 128.209 89.6952C124.302 92.5666 123.345 96.3072 123.345 96.3072C123.345 96.3072 120.347 95.0668 116.255 95.3501C111.801 95.6528 109.955 97.4987 106.771 97.2643C103.587 97.0299 93.9574 94.0609 92.6585 104.589Z" fill="#FFEBC9"/>
<path d="M155.516 121.398C154.374 121.173 153.358 122.121 153.28 123.635C153.202 125.148 153.807 126.018 154.569 126.057C155.331 126.096 156.161 125.529 156.464 124.094C156.767 122.648 156.464 121.584 155.516 121.398ZM153.612 134.222C153.143 135.022 153.729 135.882 154.364 136.341C154.999 136.8 156.024 136.683 156.259 136.155C156.483 135.628 156.562 134.642 155.809 134.036C155.057 133.43 154.11 133.391 153.612 134.222ZM159.443 136.868C158.417 136.751 157.587 137.591 157.587 139.329C157.587 141.068 158.232 141.722 159.179 141.791C160.273 141.869 160.878 140.091 160.917 139.027C160.956 137.972 160.732 137.025 159.443 136.868ZM161.367 146.625C160.644 145.834 159.404 146.205 158.827 147.153C158.359 147.924 158.261 149.116 158.945 149.614C159.628 150.102 160.663 149.809 161.103 149.047C161.669 148.071 161.748 147.045 161.367 146.625ZM112.914 126.994C112.407 127.385 112.348 128.508 112.914 129.338C113.481 130.168 114.467 130.325 114.809 129.787C115.151 129.26 114.995 128.274 114.692 127.668C114.389 127.072 113.706 126.389 112.914 126.994ZM110.072 136.341C110.951 137.181 112.338 136.487 112.944 135.618C113.549 134.749 113.696 133.763 113.09 133.157C112.485 132.551 111.332 132.669 110.483 133.274C109.467 133.997 109.203 135.511 110.072 136.341ZM106.634 138.04C105.541 137.894 104.554 138.968 104.554 140.501C104.554 142.201 105.58 143.637 106.595 143.529C107.65 143.412 108.295 142.093 108.334 140.765C108.373 139.447 107.767 138.197 106.634 138.04ZM105.795 150.053C105.013 150.19 104.583 151.04 104.73 152.163C104.867 153.227 105.502 154.116 106.595 153.921C107.416 153.784 107.689 152.661 107.582 151.596C107.484 150.532 106.683 149.897 105.795 150.053Z" fill="#FFE267"/>
<path d="M80.577 122.824C81.7685 123.693 82.8526 121.359 84.5325 120.441C86.1928 119.533 87.7262 118.927 87.023 117.726C86.3198 116.534 83.9856 116.7 82.3643 117.833C80.743 118.976 79.0729 121.73 80.577 122.824ZM97.9225 115.987C96.6236 115.714 96.0278 116.534 95.8129 117.56C95.5981 118.605 95.9204 119.728 96.9556 120.002C97.9909 120.275 99.0652 119.455 99.2899 118.322C99.495 117.208 99.0945 116.232 97.9225 115.987ZM96.9263 121.427C95.0023 121.056 94.3186 123.762 93.4104 128.684C92.5802 133.157 89.7674 148.364 89.7674 149.555C89.7674 150.747 89.7674 152.046 91.0175 152.368C92.2677 152.69 93.342 151.567 93.801 149.38C94.2112 147.436 97.9518 125.696 98.1667 124.231C98.3816 122.766 97.9616 121.623 96.9263 121.427Z" fill="white"/>
<path d="M82.2572 126.721C82.3158 126.808 84.0152 123.957 87.9414 124.211C90.2561 124.357 91.2425 125.129 91.5746 124.963C91.9067 124.797 92.5805 122.326 92.3657 121.788C92.1606 121.241 89.7971 120.431 87.3261 120.841C83.0288 121.574 81.8373 126.115 82.2572 126.721ZM75.0006 145.287C74.8346 145.648 76.573 149.867 80.0793 151.635C83.185 153.198 86.0662 153.169 86.2225 152.68C86.3494 152.299 86.6424 151.088 86.6815 149.838C86.7108 149.018 85.0407 149.574 81.2903 148.412C76.5633 146.967 75.1666 144.906 75.0006 145.287Z" fill="#B0B0B0"/>
<path d="M108.529 100.868C107.142 101.249 104.398 99.9796 101.732 100.233C99.2509 100.468 96.8092 102.118 96.526 105.595C96.0475 111.475 101.624 111.856 104.271 111.748C106.927 111.641 114.516 109.893 118.179 112.647C121.87 115.43 122.163 120.343 121.626 123C121.089 125.656 118.042 135.794 117.641 137.112C116.899 139.603 118.169 139.876 119.077 138.382C119.976 136.897 123.16 125.383 124.546 122.833C125.933 120.284 127.408 118.38 129.908 118.106C133.893 117.686 133.835 119.435 138.19 119.435C142.009 119.435 143.552 115.753 141.746 112.061C139.353 107.178 131.979 106.758 131.08 106.279C130.182 105.8 127.574 100.331 121.265 99.1103C114.956 97.8895 111.762 99.9698 108.529 100.868ZM127.008 97.3035C127.008 97.3035 128.6 98.4657 130.045 99.9796C130.963 100.937 132.047 102.9 133.327 103.271C134.606 103.642 136.237 103.447 138.972 104.658C141.706 105.869 143.103 107.51 143.103 107.51C143.103 107.51 146.023 107.08 148.631 105.136C151.239 103.193 153.729 100.038 157.079 99.3057C160.419 98.5732 168.36 97.3523 165.947 90.9845C163.33 84.0893 156.708 87.5759 154.764 87.4001C152.821 87.2243 151.473 84.9683 146.56 86.2477C143.25 87.1071 142.566 90.2032 139.284 90.5645C136.003 90.9259 133.629 90.252 130.778 92.3811C127.926 94.5102 127.008 97.3035 127.008 97.3035Z" fill="white"/>
<path d="M127.018 85.5542C126.969 85.5542 126.92 85.5542 126.861 85.5445C125.973 85.4566 125.328 84.6752 125.406 83.7865L126.383 73.4631C126.461 72.5744 127.252 71.92 128.141 72.0079C129.03 72.0958 129.674 72.8771 129.596 73.7659L128.619 84.0892C128.541 84.9292 127.838 85.5542 127.018 85.5542ZM122.515 88.0447C121.998 88.0447 121.48 87.7908 121.167 87.322L114.057 76.6275C113.569 75.8853 113.764 74.8891 114.507 74.391C115.249 73.9026 116.245 74.098 116.743 74.8402L123.853 85.5347C124.342 86.277 124.146 87.2732 123.404 87.7713C123.131 87.9568 122.828 88.0447 122.515 88.0447ZM118.443 91.8049C118.247 91.8049 118.052 91.7658 117.857 91.6974L107.289 87.5662C106.89 87.4105 106.57 87.1029 106.398 86.7111C106.225 86.3192 106.216 85.875 106.371 85.4761C106.693 84.6459 107.631 84.2357 108.461 84.558L119.038 88.6991C119.868 89.0214 120.279 89.959 119.956 90.7891C119.702 91.424 119.087 91.8049 118.443 91.8049Z" fill="#FF2A23"/>
<path d="M140.867 132.044C139.353 132.678 139.646 135.267 140.867 138.489C142.088 141.712 144.92 149.965 145.555 151.333C146.19 152.7 147.02 153.725 148.582 153.237C150.145 152.749 149.51 150.844 148.973 148.94C148.436 147.035 144.822 136.78 144.236 135.169C143.65 133.557 142.957 131.165 140.867 132.044Z" fill="#FEFFFF"/>
<path d="M87.7461 165.377C87.7461 165.377 89.4357 170.026 105.932 172.39C122.427 174.753 126.334 172.077 126.334 172.077C126.334 172.077 120.63 168.6 106.811 166.325C92.2387 163.922 87.7461 165.377 87.7461 165.377Z" fill="#BCBCBC"/>
<path d="M86.1638 159.829C84.7183 159.644 83.8589 160.933 83.517 161.656C83.185 162.378 82.8431 164.302 84.0933 164.498C85.3434 164.693 86.3982 163.492 86.7889 162.476C87.1698 161.46 87.2674 159.976 86.1638 159.829Z" fill="white"/>
<path d="M87.9899 160.982C87.8337 162.427 89.5331 162.574 91.838 162.613C94.1429 162.652 102.064 163.326 107.23 164.293C118.003 166.314 124.839 169.098 127.047 170.211C129.264 171.315 129.479 170.133 129.498 169.83C129.547 168.961 128.053 167.574 126.08 166.607C124.556 165.865 119.253 162.759 108.041 161.031C97.1803 159.351 91.5938 159.829 90.4316 159.878C89.2889 159.927 88.0876 160.122 87.9899 160.982Z" fill="#D4D4D4"/>
<path d="M144.011 157.202C143.797 157.905 144.959 158.892 147.606 159.38C151.082 160.015 157.499 159.497 164.424 156.743C171.309 154.008 175.411 150.385 177.697 147.621C179.122 145.892 179.113 143.89 178.566 143.451C177.872 142.894 177.491 144.623 175.919 146.508C174.395 148.334 170.811 151.645 163.681 154.829C156.61 157.984 151.161 157.954 148.006 157.554C145.808 157.28 144.314 156.206 144.011 157.202Z" fill="#9E9E9E"/>
<path d="M141.433 160.328C141.189 161.666 143.396 162.936 144.431 163.395C147.429 164.703 155.321 165.387 165.586 161.412C178.907 156.245 181.72 150.317 182.609 148.647C183.517 146.928 183.127 146.137 182.707 145.912C182.052 145.561 181.271 146.049 180.372 147.231C177.589 150.874 173.741 154.673 164.57 158.423C155.399 162.174 149.061 162.017 144.812 160.65C143.64 160.269 141.687 158.961 141.433 160.328Z" fill="#D5D5D5"/>
<path d="M180.734 137.19C180.275 138.323 181.134 139.622 181.291 139.671L181.447 139.72C181.447 139.72 186.223 137.444 189.231 133.83C192.317 130.129 192.219 125.011 191.76 124.953C191.409 124.904 190.53 129.113 186.213 133.186C182.629 136.565 181.32 135.715 180.734 137.19ZM171.69 108.691L172.628 111.572C172.628 111.572 175.147 108.965 178.468 109.219C181.789 109.473 182.482 113.115 182.619 113.115C183.381 113.125 183.39 108.134 180.167 106.845C176.251 105.263 171.69 108.691 171.69 108.691Z" fill="#B0B0B0"/>
<defs>
<filter id="filter0_d_143_5" x="0" y="0" width="260" height="260" filterUnits="userSpaceOnUse" color-interpolation-filters="sRGB">
<feFlood flood-opacity="0" result="BackgroundImageFix"/>
<feColorMatrix in="SourceAlpha" type="matrix" values="0 0 0 0 0 0 0 0 0 0 0 0 0 0 0 0 0 0 127 0" result="hardAlpha"/>
<feOffset dy="4"/>
<feGaussianBlur stdDeviation="25"/>
<feComposite in2="hardAlpha" operator="out"/>
<feColorMatrix type="matrix" values="0 0 0 0 0 0 0 0 0 0 0 0 0 0 0 0 0 0 0.1 0"/>
<feBlend mode="normal" in2="BackgroundImageFix" result="effect1_dropShadow_143_5"/>
<feBlend mode="normal" in="SourceGraphic" in2="effect1_dropShadow_143_5" result="shape"/>
</filter>
<radialGradient id="paint0_radial_143_5" cx="0" cy="0" r="1" gradientUnits="userSpaceOnUse" gradientTransform="translate(107.101 170.477) scale(58.6886)">
<stop offset="0.331" stop-color="#FDB408"/>
<stop offset="0.502" stop-color="#F1A20D"/>
<stop offset="0.745" stop-color="#DB8116"/>
</radialGradient>
<radialGradient id="paint1_radial_143_5" cx="0" cy="0" r="1" gradientUnits="userSpaceOnUse" gradientTransform="translate(144.674 102.383) scale(43.9616)">
<stop offset="0.628" stop-color="#DB8116"/>
<stop offset="0.786" stop-color="#EE9D0E"/>
<stop offset="0.939" stop-color="#FDB408"/>
</radialGradient>
</defs>
</svg>
