<svg width="260" height="260" viewBox="0 0 260 260" fill="none" xmlns="http://www.w3.org/2000/svg">
<g filter="url(#filter0_d_143_3)">
<rect x="50" y="46" width="160" height="160" rx="17" fill="#D6EEF0"/>
</g>
<path d="M166.954 128.908C167.167 124.308 166.877 106.721 161.741 97.1853C160.474 94.8452 155.92 90.087 153.884 87.974C151.344 84.937 150.185 84.4614 148.85 84.3316C143.757 83.8464 140.556 83.1574 136.485 80.733C136.372 80.6655 136.27 80.595 136.165 80.532C136.055 80.4766 135.949 80.4136 135.835 80.3462C131.764 77.9218 129.634 75.4352 126.781 71.1886C126.031 70.0769 125.06 69.2841 121.18 68.4979C118.352 67.7142 111.999 65.9772 109.338 65.9785C98.5123 65.9976 82.9066 74.1283 78.963 76.5068C78.4108 76.8327 77.8221 77.0653 77.7171 77.6883C77.2397 80.586 78.7398 85.6437 83.4009 94.1901C83.727 94.7935 84.3315 95.2046 85.0081 95.1165C87.7824 94.753 95.7391 91.8382 95.7391 91.8382C95.7391 91.8382 91.0841 107.094 82.859 117.779C74.6264 128.458 66.9368 135.993 66.9368 135.993C66.5315 136.519 66.4977 137.246 66.878 137.81C68.4992 140.259 77.9952 149.26 90.7159 156.866C103.459 164.435 115.901 168.488 118.827 168.747C119.504 168.813 120.131 168.429 120.396 167.83C120.396 167.83 123.346 157.482 128.826 145.153C134.294 132.827 145.498 121.471 145.498 121.471C145.498 121.471 146.725 129.855 147.727 132.468C147.972 133.104 148.622 133.44 149.308 133.439C159.038 133.474 164.207 132.388 166.524 130.575C167.019 130.174 166.931 129.549 166.954 128.908Z" fill="#CFB0EA"/>
<path d="M153.398 83.1723C153.16 82.3348 152.524 80.5338 149.992 79.8547C147.252 79.1129 143.403 77.4657 139.323 75.0564C135.269 72.6214 131.983 70.0301 130.03 67.9666C128.229 66.0759 126.343 66.3746 125.49 66.5523C124.128 66.8463 120.174 67.3357 119.683 68.159C117.97 71.0366 114.22 80.6314 121.443 86.8356C125.017 89.9054 129.545 88.0391 131.583 86.9198C131.809 86.7984 132.056 86.8127 132.257 86.9221C132.444 87.0541 132.579 87.2572 132.58 87.5135C132.562 89.8458 133.083 94.7092 137.485 96.3892C146.376 99.7913 153.033 91.9282 154.747 89.0506C155.242 88.2197 153.788 84.5098 153.398 83.1723Z" fill="#EEEEEE"/>
<path d="M119.762 68.2165C118.748 70.6923 118.099 73.2936 118.079 75.8702C117.997 78.4304 118.542 80.9343 119.828 82.9487C120.463 83.9612 121.289 84.842 122.194 85.626C123.057 86.3754 124.004 86.796 125.058 86.9327C126.108 87.077 127.236 86.9512 128.354 86.6037C128.914 86.436 129.467 86.2126 130.006 85.9606C130.275 85.8345 130.542 85.6965 130.805 85.5464L131.023 85.4205C131.286 85.2704 131.597 85.1789 131.918 85.1552C132.471 85.1163 133.017 85.2907 133.445 85.6427C133.873 85.9947 134.15 86.4973 134.219 87.0472L134.237 87.2733L134.241 87.3366L134.251 87.8341C134.255 88.1537 134.271 88.4703 134.285 88.7748C134.318 89.3882 134.385 89.9805 134.497 90.5485C134.721 91.6845 135.163 92.6947 135.808 93.5187C136.448 94.3503 137.352 94.9806 138.416 95.4097C139.517 95.8297 140.715 96.1545 141.891 96.241C144.269 96.4397 146.7 95.7081 148.833 94.308C149.919 93.635 150.942 92.8115 151.896 91.8963C152.843 90.9765 153.732 89.9816 154.661 88.9895L154.803 89.0946C153.259 91.2752 151.567 93.4291 149.401 95.0554C147.266 96.6997 144.592 97.7367 141.859 97.6342C140.501 97.613 139.163 97.3174 137.88 96.8603C136.601 96.3957 135.403 95.6413 134.531 94.5798C133.643 93.5289 133.1 92.2236 132.816 90.8978C132.672 90.2289 132.591 89.5568 132.542 88.883C132.52 88.5424 132.505 88.2062 132.491 87.8701L132.472 87.3681C132.476 87.3071 132.468 87.2459 132.448 87.1882C132.428 87.1304 132.396 87.0774 132.355 87.0323C132.314 86.991 132.264 86.959 132.209 86.9387C132.154 86.9183 132.095 86.91 132.037 86.9142C131.981 86.9219 131.921 86.9372 131.868 86.957L131.65 87.0828C131.35 87.2421 131.051 87.4014 130.741 87.5442C130.125 87.8221 129.483 88.0745 128.831 88.259C127.53 88.6402 126.142 88.8061 124.783 88.5799C123.427 88.3658 122.146 87.7157 121.154 86.7873C120.149 85.8815 119.26 84.8306 118.599 83.6387C117.24 81.2642 116.856 78.4568 117.132 75.7768C117.419 73.0848 118.256 70.4804 119.591 68.1251L119.757 68.224L119.762 68.2165Z" fill="#B881CF"/>
<path d="M153.398 83.1721C153.096 82.3574 152.524 80.5336 149.992 79.8545C147.252 79.1127 143.404 77.4655 139.324 75.0562C135.269 72.6212 131.983 70.0299 130.03 67.9663C128.23 66.0757 126.343 66.3744 125.49 66.5521C124.172 66.8414 120.424 67.3105 119.744 68.0922C120.086 68.4288 124.573 67.3361 125.483 67.9904C126.187 68.4916 125.766 71.5354 127.177 73.2042C128.587 74.873 146.486 85.0718 146.486 85.0718C146.486 85.0718 148.938 84.7517 150.586 84.0452C151.576 83.6213 152.225 83.6297 152.774 84.4782C153.307 85.3177 154.375 89.4013 154.768 88.9809C155.178 88.069 153.935 84.607 153.398 83.1721Z" fill="#B7D5E5"/>
<path d="M83.6258 95.5822C80.3856 89.5292 78.2297 83.5797 76.6636 77.7564C76.626 77.621 76.637 77.4766 76.6947 77.3483C76.7524 77.2201 76.8531 77.1161 76.9794 77.0544L78.8413 76.1271C78.9205 76.0861 79.0079 76.0633 79.097 76.0605C79.1862 76.0577 79.2748 76.0748 79.3564 76.1107C79.4381 76.1466 79.5107 76.2003 79.5689 76.2678C79.6271 76.3354 79.6694 76.4151 79.6928 76.5012C81.2141 82.0216 83.817 88.6465 86.8708 94.394C87.0468 94.7342 86.8703 95.1509 86.4997 95.2576L84.3248 95.8859C84.0627 95.9652 83.7608 95.8365 83.6258 95.5822ZM147.992 133.914C154.857 133.879 161.123 132.945 166.989 131.548C167.274 131.482 167.47 131.22 167.456 130.935L167.384 128.857C167.382 128.768 167.361 128.68 167.321 128.6C167.281 128.52 167.224 128.451 167.153 128.396C167.083 128.341 167.001 128.303 166.914 128.284C166.827 128.265 166.736 128.266 166.65 128.286C161.071 129.579 154.006 130.446 147.498 130.499C147.408 130.501 147.32 130.522 147.239 130.562C147.158 130.602 147.087 130.659 147.032 130.73C146.976 130.8 146.937 130.882 146.916 130.97C146.896 131.058 146.896 131.149 146.915 131.237L147.399 133.448C147.447 133.712 147.704 133.916 147.992 133.914Z" fill="#B881CF"/>
<path d="M149.332 81.2725C147.863 80.8175 142.991 79.4813 138.58 76.8544L138.263 76.6655C133.852 74.0387 130.344 70.3943 129.256 69.3169C128.157 68.2426 127.469 68.263 127.107 69.4386C126.541 72.8462 127.364 78.8001 134.633 83.1392C141.911 87.4631 147.538 85.3505 150.264 83.2294C151.114 82.334 150.8 81.7275 149.332 81.2725Z" fill="url(#paint0_linear_143_3)"/>
<path d="M130.018 78.9968L165.148 89.2313C165.148 89.2313 159.662 97.1611 145.024 92.8968C130.387 88.6324 130.018 78.9968 130.018 78.9968Z" fill="#553788"/>
<path d="M172.561 135.293L190.529 122.033C180.524 112.767 165.148 89.2311 165.148 89.2311C165.148 89.2311 155.882 99.2357 144.171 95.8242C132.461 92.4127 130.017 78.9967 130.017 78.9967C130.017 78.9967 104.407 90.592 90.991 93.0357L99.0194 113.872L113.928 112.422C113.928 112.422 101.014 159.476 88.9405 165.487C88.9405 165.487 102.725 172.679 120.291 177.796C137.856 182.914 153.347 184.25 153.347 184.25C146.391 172.696 160.769 126.068 160.769 126.068L172.561 135.293Z" fill="#AA8DD8"/>
<path d="M100.512 114.866C100.072 114.739 99.6672 114.514 99.3266 114.209C98.9861 113.903 98.719 113.525 98.5452 113.102L91.0992 95.0523C90.9329 94.6799 90.8431 94.278 90.8348 93.8703C90.8266 93.4626 90.9003 93.0574 91.0515 92.6787C91.2026 92.2999 91.4282 91.9554 91.7149 91.6654C92.0015 91.3754 92.3435 91.1458 92.7204 90.9902C93.0974 90.8347 93.5017 90.7563 93.9095 90.7598C94.3172 90.7633 94.7202 90.8485 95.0944 91.0105C95.4687 91.1724 95.8066 91.4078 96.0883 91.7026C96.37 91.9975 96.5897 92.3458 96.7344 92.7271L104.18 110.776C104.399 111.307 104.463 111.888 104.366 112.454C104.268 113.019 104.013 113.546 103.63 113.973C103.247 114.4 102.751 114.71 102.2 114.868C101.648 115.026 101.063 115.025 100.512 114.866ZM170.771 135.334C170.22 135.172 169.726 134.859 169.345 134.43C168.965 134 168.713 133.472 168.619 132.906C168.526 132.34 168.593 131.759 168.815 131.23C169.037 130.7 169.403 130.244 169.872 129.914L185.847 118.688C186.509 118.228 187.325 118.05 188.118 118.191C188.911 118.331 189.616 118.78 190.08 119.439C190.543 120.098 190.727 120.913 190.591 121.707C190.455 122.501 190.01 123.209 189.354 123.676L173.38 134.903C173.005 135.166 172.576 135.342 172.125 135.416C171.673 135.491 171.21 135.463 170.771 135.334ZM165.148 89.2312C165.148 89.2312 153.807 95.4553 145.024 92.8967C136.242 90.3381 130.017 78.9967 130.017 78.9967L129.902 101.196L140.604 97.1671L118.216 174.016C117.99 174.792 118.082 175.627 118.471 176.336C118.86 177.045 119.515 177.57 120.291 177.796C121.067 178.023 121.902 177.931 122.611 177.542C123.32 177.153 123.845 176.498 124.071 175.722L146.459 98.8728L153.323 108.018L165.148 89.2312Z" fill="#9266CC"/>
<defs>
<filter id="filter0_d_143_3" x="0" y="0" width="260" height="260" filterUnits="userSpaceOnUse" color-interpolation-filters="sRGB">
<feFlood flood-opacity="0" result="BackgroundImageFix"/>
<feColorMatrix in="SourceAlpha" type="matrix" values="0 0 0 0 0 0 0 0 0 0 0 0 0 0 0 0 0 0 127 0" result="hardAlpha"/>
<feOffset dy="4"/>
<feGaussianBlur stdDeviation="25"/>
<feComposite in2="hardAlpha" operator="out"/>
<feColorMatrix type="matrix" values="0 0 0 0 0 0 0 0 0 0 0 0 0 0 0 0 0 0 0.1 0"/>
<feBlend mode="normal" in2="BackgroundImageFix" result="effect1_dropShadow_143_3"/>
<feBlend mode="normal" in="SourceGraphic" in2="effect1_dropShadow_143_3" result="shape"/>
</filter>
<linearGradient id="paint0_linear_143_3" x1="139.443" y1="75.0325" x2="133.374" y2="85.2237" gradientUnits="userSpaceOnUse">
<stop offset="0.181" stop-color="#B881CF"/>
<stop offset="1" stop-color="#754CA5"/>
</linearGradient>
</defs>
</svg>
