<svg width="160" height="160" viewBox="0 0 160 160" fill="none" xmlns="http://www.w3.org/2000/svg">
<path d="M160 111.169V17.787C160 17.787 160 0 142.222 0H17.7778C17.7778 0 0 0 0 17.787V110.822L160 111.169Z" fill="#88C9F9"/>
<path d="M119.645 44.2379H97.2249L74.8052 107.013H160V21.8182C155.516 21.8182 135.702 23.6969 128.612 30.7861C124.128 35.27 124.128 39.7539 119.645 44.2379Z" fill="#292F33"/>
<path d="M106.686 48.8064C111.167 44.3622 117.874 46.5932 120.128 44.3622C122.413 42.0956 123.533 39.8334 124.675 37.5669C107.932 37.0291 94.0741 37.8113 88.7649 39.9179C66.3629 48.8064 70.8433 88.8049 39.4805 111.026C39.4805 111.026 61.8825 119.91 79.8041 102.138C91.5472 90.4848 94.1862 61.206 106.686 48.8064Z" fill="#66757F"/>
<path d="M17.7778 160H142.222C160 160 160 142.418 160 142.418V102.857H0V142.418C0 160 17.7778 160 17.7778 160Z" fill="#5C913B"/>
<path d="M125.053 102.857C125.053 107.253 80.1889 107.253 80.1889 116.044C80.1889 124.835 98.1346 124.835 98.1346 129.231C98.1346 133.626 35.6971 142.418 35.3247 160H111.594C111.594 151.209 134.026 146.813 134.026 133.626C134.026 120.44 102.621 120.44 102.621 116.044C102.621 111.648 134.026 107.253 134.026 102.857H125.053Z" fill="#55ACEE"/>
<path d="M124.675 102.857V80.4795C124.675 49.1508 133.68 44.6753 133.68 44.6753H138.182C138.182 44.6753 133.68 49.1508 133.68 76.004V102.857H124.675Z" fill="#226699"/>
<path d="M50.9089 126.53C50.9089 131.288 46.9579 132.987 42.0778 132.987C37.202 132.987 33.2466 131.283 33.2466 126.53L35.4544 107.169C35.4544 102.416 37.202 102.869 42.0778 102.869C46.9579 102.869 48.7011 102.42 48.7011 107.169L50.9089 126.53Z" fill="#662113"/>
<path d="M71.3926 113.363C70.2878 112.405 69.2445 111.412 68.2318 110.406C67.7768 109.548 67.174 108.779 66.4519 108.136C65.6713 107.408 64.9097 106.66 64.1679 105.892C68.6395 105.245 70.5684 102.912 66.4519 99.3476C65.1061 98.1815 63.8347 96.9533 62.616 95.6985C63.1508 94.8162 62.8089 93.6235 61.1079 92.147C60.5506 91.6643 60.0054 91.1676 59.4728 90.6572C62.8615 90.1251 64.2775 88.3072 61.1079 85.5627C60.1391 84.7202 59.2229 83.8379 58.3373 82.9378C59.1571 82.2107 59.0607 81.1155 57.4342 79.71C57.0923 79.4129 56.7942 79.0892 56.4654 78.7833C58.9291 78.2822 59.8717 76.8634 57.4342 74.7485C55.9363 73.4228 54.5302 71.9947 53.2257 70.4742C54.8872 70.0707 55.4834 69.0642 53.9096 67.601C55.0626 67.0823 55.2861 66.1246 53.7649 64.8077C48.1535 59.9482 45.0015 52.987 42.0774 52.987C39.1534 52.987 36.0014 59.9482 30.3944 64.8077C28.8731 66.129 29.0967 67.0867 30.2497 67.601C28.6759 69.0642 29.2721 70.0707 30.9336 70.4742C29.6291 71.9947 28.223 73.4228 26.725 74.7485C24.2876 76.8634 25.2301 78.2778 27.6939 78.7833C27.3651 79.0892 27.067 79.4129 26.725 79.71C25.0986 81.1199 25.0022 82.2107 25.822 82.9378C24.9364 83.8379 24.0246 84.7202 23.0513 85.5627C19.8818 88.3072 21.2978 90.1251 24.6865 90.6572C24.155 91.1688 23.6097 91.6655 23.0513 92.147C21.3504 93.6235 21.0041 94.8162 21.5433 95.6985C20.3245 96.9533 19.0532 98.1815 17.7074 99.3476C13.5909 102.912 15.5198 105.249 19.9914 105.892C19.2496 106.66 18.488 107.408 17.7074 108.136C16.9855 108.778 16.3828 109.545 15.9275 110.401C14.9148 111.412 13.8671 112.405 12.7623 113.363C6.36622 118.91 9.40864 122.12 18.1808 121.477C26.0017 120.905 33.314 119.109 42.0774 119.109C50.8409 119.109 58.1532 120.905 65.9741 121.477C74.7419 122.12 77.7931 118.91 71.3926 113.363Z" fill="#3E721D"/>
<path d="M49.7558 17.0373C48.5671 17.0373 47.4173 17.2144 46.3414 17.5391C45.6994 15.7547 44.5029 14.2083 42.9173 13.1136C41.3318 12.0189 39.4355 11.4301 37.4907 11.4286C33.0957 11.4286 29.4209 14.3679 28.397 18.3319C27.2785 17.499 25.9099 17.0457 24.5009 17.0415C23.4361 17.0432 22.388 17.2994 21.449 17.7874C20.5099 18.2755 19.7088 18.9805 19.116 19.8403C18.5233 20.7002 18.1571 21.6885 18.0498 22.7183C17.9425 23.748 18.0973 24.7876 18.5007 25.7455C17.8721 25.5648 17.2211 25.4683 16.5657 25.4588C15.6184 25.4585 14.6805 25.6396 13.8052 25.9916C12.93 26.3437 12.1347 26.8599 11.4647 27.5107C10.7947 28.1615 10.2632 28.9343 9.90047 29.7847C9.53772 30.6352 9.35087 31.5469 9.35059 32.4675C9.3503 33.3882 9.53659 34.2999 9.89881 35.1506C10.261 36.0014 10.7921 36.7744 11.4617 37.4256C12.1312 38.0768 12.9262 38.5935 13.8012 38.946C14.6762 39.2986 15.6141 39.4802 16.5613 39.4805H49.7515C52.8134 39.4811 55.7502 38.2993 57.9157 36.1953C60.0812 34.0912 61.2981 31.2372 61.2986 28.261C61.2992 25.2848 60.0834 22.4304 57.9187 20.3255C55.754 18.2206 52.8178 17.0378 49.7558 17.0373Z" fill="#F5F8FA"/>
</svg>
