<svg width="161" height="161" viewBox="0 0 161 161" fill="none" xmlns="http://www.w3.org/2000/svg">
<path d="M160.033 142.476C160.033 152.158 152.049 160.253 142.484 160.253H17.2608C7.73098 160.253 0.0161133 153.353 0.0161133 143.671V16.1781C0.0161133 6.50325 7.72848 0.255859 17.2608 0.255859H142.484C152.029 0.255859 160.033 7.87573 160.033 15.4956V142.476Z" fill="#81D4EA"/>
<path d="M105.337 77.8797C105.337 105.862 82.8125 128.556 55.0379 128.556C27.2634 128.556 4.73877 105.857 4.73877 77.8797C4.73877 49.8801 27.2634 27.198 55.0379 27.198C82.8125 27.1955 105.337 49.8726 105.337 77.8797Z" fill="#E9C61C"/>
<path d="M90.3621 77.9043C90.3621 97.5864 74.5199 113.541 54.9877 113.541C35.4605 113.541 19.6133 97.5839 19.6133 77.9043C19.6133 58.2246 35.453 42.2649 54.9877 42.2649C74.5099 42.2649 90.3621 58.2221 90.3621 77.9043Z" fill="white"/>
<path d="M32.7632 101.861C32.3932 100.169 30.0832 99.1012 29.0982 99.2187C28.9182 98.2238 28.2983 97.3688 27.2983 97.3038C26.8008 96.4788 25.8908 95.9613 24.6858 96.4163C24.1452 96.6071 23.6257 96.8534 23.1358 97.1513C23.1008 97.1738 23.0833 97.2038 23.0533 97.2238C22.9958 95.5913 21.4259 94.6363 20.0459 94.8863C18.6034 94.7388 17.1059 95.7563 17.2734 97.3863C17.001 97.3363 16.7285 97.2688 16.436 97.2488C16.1391 97.2425 15.8445 97.3023 15.5735 97.4238C15.496 97.3938 15.446 97.3463 15.3585 97.3263C13.531 96.9363 12.0435 95.9913 10.1461 95.7988C8.3736 95.6188 6.90612 98.1538 8.0361 99.5787C8.2661 99.8662 8.49609 100.164 8.72359 100.466C8.0211 101.001 7.73611 101.909 7.8211 102.766C7.55361 102.829 7.29111 102.899 7.00862 102.956C5.23365 103.326 4.92115 104.986 5.51614 106.274C5.49114 106.294 5.47614 106.321 5.45864 106.339C4.07867 107.736 4.89615 109.556 6.25113 110.246C6.78362 111.699 8.92109 112.381 10.3211 111.209C10.9861 112.304 12.486 112.579 13.606 112.061C14.346 112.599 15.396 112.661 16.2435 112.296C16.551 112.604 16.8835 112.881 17.2909 113.166C18.6359 114.083 19.9084 113.411 20.4934 112.281C21.7659 113.354 23.2808 112.741 24.0108 111.614C24.2933 111.721 24.6008 111.804 24.9633 111.804H25.3808C25.7558 111.818 26.1284 111.737 26.4631 111.567C26.7978 111.397 27.0836 111.145 27.2933 110.834C27.6258 110.921 27.9508 111.019 28.2858 111.106C30.7407 111.756 31.9532 108.914 30.8382 107.274C31.3457 106.659 31.3857 105.996 31.2432 105.384C31.6007 104.896 31.6732 104.349 31.6282 103.801C31.8082 103.769 32.7632 103.259 32.7632 101.856" fill="#C17C2A"/>
<path d="M0.068535 142.729L0.068535 110.204C0.068535 110.204 19.9132 104.344 28.4731 101.702C49.3827 95.2145 53.1551 83.7797 112.872 94.052C130.834 97.1444 150.646 99.8444 150.646 99.8444H159.993V137.569L0.0610352 142.716" fill="#E8B872"/>
<path d="M58.1128 124.311C58.1128 124.311 77.63 92.624 160.001 108.846V142.553L74.8525 144.793L58.1228 124.311" fill="#E8A436"/>
<path d="M149.786 80.4547C149.906 74.0023 139.924 74.1523 139.806 80.5722C139.761 82.9596 139.274 84.3771 138.086 85.6221V71.0998C138.086 64.6424 128.107 64.7849 128.107 71.2073V94.3244C126.082 94.0869 124.352 93.477 123.082 92.2595C121.772 91.012 121.379 88.4395 121.459 85.8621C121.654 79.4097 111.669 79.5647 111.482 85.9746C111.327 91.0395 112.704 95.7469 116.199 99.4869C119.237 102.734 123.794 103.954 128.122 104.297V118.622C128.122 125.076 138.101 124.934 138.101 118.504V96.9419C140.704 95.8794 143.151 94.5494 145.264 92.587C148.599 89.5095 149.719 84.8196 149.794 80.4522" fill="#00A79D"/>
<path d="M71.1201 130.954C72.0551 130.954 131.219 108.547 160.006 116.277V142.559L125.012 150.279L75.1475 140.624L71.1226 132.469" fill="#E8B872"/>
<path d="M17.2859 160.253H142.509C152.054 160.253 160.059 152.158 160.059 142.476V139.351C157.361 140.336 126.957 150.486 84.3848 126.516C41.5855 102.414 3.10116 131.311 0.0537109 133.689L0.0537109 143.671C0.0537109 153.353 7.76858 160.253 17.2984 160.253" fill="#D8A861"/>
<path d="M109.215 145.604C109.215 145.604 55.8304 135.219 47.0031 133.519C20.761 128.469 0.0688477 143.284 0.0688477 143.284L0.0688477 143.674C0.0688477 153.356 7.78372 160.256 17.3136 160.256H142.536C151.719 160.256 159.439 152.761 160.011 143.574V141.271C157.859 147.754 109.225 145.604 109.225 145.604" fill="#E8B872"/>
<path d="M49.9603 135.131C49.4153 132.634 46.0079 131.066 44.5604 131.234C44.2979 129.774 43.3804 128.501 41.908 128.416C41.178 127.187 39.833 126.439 38.058 127.104C37.2456 127.402 36.5081 127.727 35.7681 128.186C35.7181 128.219 35.7006 128.264 35.6456 128.294C35.5631 125.884 33.2556 124.484 31.2157 124.852C29.0957 124.642 26.8882 126.134 27.1357 128.546C26.7207 128.484 26.3282 128.381 25.8982 128.356C25.3958 128.321 25.0158 128.464 24.6258 128.604C24.5083 128.569 24.4308 128.494 24.3033 128.464C21.6133 127.897 19.4209 126.494 16.6284 126.212C14.0109 125.947 11.846 129.686 13.5134 131.781C13.8559 132.211 14.1909 132.654 14.5259 133.089C13.4934 133.879 13.0735 135.224 13.201 136.486C12.806 136.574 12.421 136.676 12.0035 136.759C9.39102 137.306 8.92853 139.756 9.80101 141.651C9.77101 141.681 9.74851 141.716 9.71351 141.749C7.68105 143.811 8.88353 146.491 10.8885 147.511C11.671 149.664 14.8259 150.669 16.8909 148.931C17.8684 150.546 20.0833 150.949 21.7283 150.191C22.8233 150.976 24.3658 151.074 25.6182 150.529C26.0682 150.991 26.5582 151.391 27.1632 151.809C29.1457 153.164 31.0182 152.171 31.8806 150.509C33.7531 152.086 35.9956 151.176 37.0681 149.524C37.4805 149.686 37.9405 149.804 38.473 149.804H39.0905C40.4205 149.804 41.3305 149.201 41.903 148.374C42.3905 148.511 42.878 148.646 43.3654 148.774C46.9854 149.739 48.7754 145.551 47.1379 143.129C47.8854 142.221 47.9379 141.249 47.7329 140.341C48.2529 139.624 48.3654 138.816 48.3029 138.016C48.5454 137.954 49.9603 137.201 49.9603 135.131Z" fill="#C1813D"/>
</svg>
