<svg width="160" height="160" viewBox="0 0 160 160" fill="none" xmlns="http://www.w3.org/2000/svg">
<path d="M160 145.395C160 147.313 159.622 149.213 158.888 150.985C158.154 152.758 157.077 154.368 155.721 155.724C154.364 157.08 152.753 158.156 150.981 158.89C149.208 159.623 147.308 160.001 145.39 160H14.595C10.723 159.998 7.01039 158.458 4.27344 155.719C1.53649 152.981 -0.000663303 149.267 2.14718e-07 145.395V14.6C0.000662563 10.7289 1.5384 7.01649 4.27521 4.27874C7.01202 1.541 10.7239 0.00199045 14.595 1.92699e-06H145.39C147.308 -0.000983401 149.208 0.375912 150.98 1.10916C152.752 1.84241 154.363 2.91764 155.719 4.27344C157.076 5.62924 158.153 7.23905 158.887 9.01091C159.621 10.7828 160 12.682 160 14.6V145.395Z" fill="#9FDBF0"/>
<path d="M92.1309 73.1629C92.1309 96.537 73.1802 115.498 49.7986 115.498C26.4196 115.498 7.46387 96.537 7.46387 73.1629C7.46387 49.7814 26.4196 30.8232 49.7986 30.8232C73.1802 30.8232 92.1309 49.7814 92.1309 73.1629Z" fill="#E9C61C"/>
<path d="M79.8462 73.1632C79.8462 89.756 66.3939 103.218 49.791 103.218C33.1882 103.218 19.7358 89.761 19.7358 73.1632C19.7358 56.5678 33.1832 43.108 49.791 43.108C66.3814 43.108 79.8462 56.5603 79.8462 73.1632Z" fill="#EFE3AF"/>
<path d="M2.14718e-07 83.1442V145.395C-0.000663303 149.267 1.53649 152.981 4.27344 155.719C7.01039 158.458 10.723 159.998 14.595 160H145.39C147.308 160.001 149.208 159.623 150.981 158.89C152.753 158.156 154.364 157.08 155.721 155.724C157.077 154.368 158.154 152.757 158.888 150.985C159.622 149.213 160 147.313 160 145.395V83.1442H2.14718e-07Z" fill="#DDD8B1"/>
<path d="M119.63 84.1396C119.63 87.0201 121.246 86.9001 123.246 86.9001C125.239 86.9001 126.854 87.0226 126.854 84.1396C126.854 81.2541 125.239 59.4328 123.246 59.4328C121.243 59.4353 119.63 81.2566 119.63 84.1396Z" fill="#DDB185"/>
<path d="M143.95 75.1376C137.504 63.9631 131.053 52.7962 124.604 41.6168C124.019 40.6016 122.484 40.6016 121.904 41.6168L102.548 75.1376C101.96 76.1652 102.708 77.493 103.901 77.493H142.602C142.876 77.4894 143.145 77.4143 143.381 77.2753C143.617 77.1362 143.813 76.938 143.949 76.7002C144.085 76.4623 144.157 76.1931 144.157 75.919C144.157 75.645 144.086 75.3756 143.95 75.1376Z" fill="#0B7D70"/>
<path d="M143.95 68.5465C137.504 58.8899 131.053 49.2357 124.604 39.5791C124.019 38.7039 122.484 38.7039 121.904 39.5791C115.451 49.2343 108.999 58.8901 102.548 68.5465C101.96 69.4317 102.708 70.5794 103.901 70.5794H142.602C143.795 70.5819 144.55 69.4342 143.95 68.5465Z" fill="#2BB573"/>
<path d="M139.184 58.3694L124.106 31.6323C123.999 31.4482 123.845 31.2954 123.66 31.1892C123.475 31.083 123.266 31.0271 123.052 31.0271C122.839 31.0271 122.629 31.083 122.445 31.1892C122.26 31.2954 122.106 31.4482 121.998 31.6323L106.921 58.3694C106.451 59.1921 107.043 60.2523 107.971 60.2523H138.126C139.054 60.2523 139.639 59.1921 139.181 58.3694" fill="#0B7D70"/>
<path d="M139.974 51.1786C134.758 43.6973 129.55 36.211 124.334 28.7247C123.862 28.0471 122.624 28.0471 122.149 28.7247C116.933 36.2135 111.722 43.6973 106.506 51.1786C106.023 51.8687 106.639 52.7589 107.601 52.7589H138.887C139.844 52.7539 140.459 51.8687 139.974 51.1786Z" fill="#04A69C"/>
<path d="M5.26317 156.552C10.344 154.411 15.2524 151.861 20.6208 150.08C30.5075 146.8 40.7493 144.787 50.626 141.559C61.2528 138.083 105.81 122.073 78.6708 105.96C71.247 101.55 52.2187 97.9265 52.2187 86.4671C52.2187 85.2469 52.4188 84.1667 52.7188 83.1565H0.00976562V145.407C0.00976562 149.898 2.08512 153.866 5.27317 156.552" fill="#29B473"/>
<path d="M66.014 83.1394C65.8289 87.3501 75.8457 92.0184 81.3841 93.4637C87.6027 95.079 94.4464 96.2067 100.087 99.4397C109.009 104.543 116.828 112.647 117.333 123.521C118.038 138.649 110.844 150.759 100.367 159.998H145.375C147.293 159.998 149.193 159.621 150.966 158.887C152.738 158.154 154.349 157.078 155.706 155.722C157.062 154.365 158.139 152.755 158.873 150.983C159.607 149.211 159.985 147.311 159.985 145.393V83.1394H66.0015" fill="#29B473"/>
</svg>
