<svg width="161" height="160" viewBox="0 0 161 160" fill="none" xmlns="http://www.w3.org/2000/svg">
<path d="M0 21C0 9.40202 9.40202 0 21 0H139C150.598 0 160 9.40202 160 21V139C160 150.598 150.598 160 139 160H21C9.40202 160 0 150.598 0 139V21Z" fill="#D6EEF0"/>
<path d="M0 37.5L10 27.5L26.25 17.5L55 40L95 92.5H0V37.5Z" fill="#B2C1C0"/>
<path opacity="0.5" d="M95 92.5L55 40L26.25 17.5L22.5 35L32.5 45L30 60L40 70L35 92.5H95Z" fill="#B2C1C0"/>
<path d="M26.25 17.5L10 27.5L5 32.5H12.5L8.75 42.75L20 37.5L22.5 50L32.5 45L42.25 50V41.25L55 40L26.25 17.5Z" fill="white"/>
<path opacity="0.5" d="M95 92.5L55 40L26.25 17.5L25 30L32.5 45L30 60L40 70L35 92.5H95Z" fill="#B2C1C0"/>
<path d="M125.5 86.25C117.5 82.75 109 80 100 80C91 80 83 84.25 76 86C59.1519 90.4175 43.317 90.1913 30.5076 88.3918C15.9338 86.3445 0 97.0268 0 111.744V140C0 151.046 8.95431 160 20 160H140C151.046 160 160 151.046 160 140V113.151C160 101.211 149.422 92.0364 137.712 89.7053C133.623 88.8914 129.531 87.7396 125.5 86.25Z" fill="#83BF4F"/>
<path d="M12.5 122.5C18.0228 122.5 22.5 118.023 22.5 112.5C22.5 106.977 18.0228 102.5 12.5 102.5C6.97715 102.5 2.5 106.977 2.5 112.5C2.5 118.023 6.97715 122.5 12.5 122.5Z" fill="#699635"/>
<path d="M15 107.5C19.1421 107.5 22.5 104.142 22.5 100C22.5 95.8579 19.1421 92.5 15 92.5C10.8579 92.5 7.5 95.8579 7.5 100C7.5 104.142 10.8579 107.5 15 107.5Z" fill="#699635"/>
<path d="M30.5 122.5C38.7843 122.5 45.5 115.784 45.5 107.5C45.5 99.2157 38.7843 92.5 30.5 92.5C22.2157 92.5 15.5 99.2157 15.5 107.5C15.5 115.784 22.2157 122.5 30.5 122.5Z" fill="#699635"/>
<path d="M139.5 84.5H146.25V105H139.5V84.5Z" fill="#89664C"/>
<path d="M148.5 57.25C145.5 51.5 140.5 51.5 137.5 57.25L127 76.75C124 82.5 127 87 133.75 87C133.75 87 140.5 84.5 143 84.5C145.5 84.5 152.25 87 152.25 87C159 87 162 82.5 159 76.75L148.5 57.25Z" fill="#699635"/>
<path d="M147.25 46C144.75 41.5 141 41.5 138.5 46L130.25 61.75C127.75 66.25 130.25 70 135.75 70C135.75 70 141.25 67.5 143 67.5C144.75 67.5 150.25 70 150.25 70C155.5 70 158 66.25 155.75 61.75L147.25 46Z" fill="#75A843"/>
<path d="M146.25 35C144.5 31.5 141.5 31.5 139.75 35L133.5 46.75C131.75 50.25 133.5 53 137.5 53C137.5 53 141.5 50.5 143 50.5C144.5 50.5 148.5 53 148.5 53C152.5 53 154.25 50.25 152.5 46.75L146.25 35Z" fill="#83BF4F"/>
<path d="M85 17.5C85 20.25 82.75 22.5 80 22.5H55C52.25 22.5 50 20.25 50 17.5C50 14.75 52.25 12.5 55 12.5H80C82.75 12.5 85 14.75 85 17.5Z" fill="white"/>
<path d="M95 22.5C95 25.25 92.75 27.5 90 27.5H80C77.25 27.5 75 25.25 75 22.5C75 19.75 77.25 17.5 80 17.5H90C92.75 17.5 95 19.75 95 22.5ZM105 42.5C105 45.25 102.75 47.5 100 47.5H90C87.25 47.5 85 45.25 85 42.5C85 39.75 87.25 37.5 90 37.5H100C102.75 37.5 105 39.75 105 42.5ZM130 30C130 32.75 127.75 35 125 35H115C112.25 35 110 32.75 110 30C110 27.25 112.25 25 115 25H125C127.75 25 130 27.25 130 30Z" fill="white"/>
<path d="M77 90H122L140.5 123.5L134.25 139L95.75 145.5L77 90Z" fill="#FFDD7D"/>
<path d="M61 137.5L57.75 123.25L77 90L98.75 131.5L95.75 148L61 137.5Z" fill="#DBB471"/>
<path d="M77 90L67.5 139.5L82.75 144L77 90Z" fill="#89664C"/>
<path d="M77 90C77 90 80.5 120.25 86.25 131.5L82.75 144L77 90ZM67.5 139.5L64 129.75C64 129.75 75.25 100.75 77 90L67.5 139.5Z" fill="#FFDD7D"/>
<path d="M47.5 122.5C53.0228 122.5 57.5 118.023 57.5 112.5C57.5 106.977 53.0228 102.5 47.5 102.5C41.9772 102.5 37.5 106.977 37.5 112.5C37.5 118.023 41.9772 122.5 47.5 122.5Z" fill="#699635"/>
<path d="M96.25 129L140.5 123.5L136.75 141.5L95.75 148L96.25 129Z" fill="#DBB471"/>
</svg>
