<svg width="161" height="161" viewBox="0 0 161 161" fill="none" xmlns="http://www.w3.org/2000/svg">
<path d="M160.019 142.529C159.999 152.211 151.996 160.289 142.45 160.269L17.2484 160.017C7.71944 159.998 0.06852 152.166 0.0880196 142.485L0.344792 14.9985C0.364276 5.32452 8.03916 0.0155433 17.5706 0.0347408L142.772 0.286911C152.318 0.306139 160.29 7.94139 160.274 15.5606L160.019 142.529Z" fill="#FCEB97"/>
<path d="M50.5552 92.8863C73.449 92.9324 92.0458 74.2663 92.0923 51.1944C92.1388 28.1225 73.6173 9.38159 50.7235 9.33547C27.8296 9.28936 9.23284 27.9555 9.18637 51.0274C9.1399 74.0993 27.6614 92.8402 50.5552 92.8863Z" fill="#E9C61C"/>
<path d="M79.7569 50.9098C79.7242 67.133 66.6417 80.2628 50.5534 80.2304C34.4602 80.198 21.4306 67.0156 21.4633 50.7924C21.496 34.5667 34.581 21.4419 50.6718 21.4743C66.7625 21.5067 79.7896 34.6841 79.7569 50.9098Z" fill="white"/>
<path d="M0.121094 100.039L160.104 100.361L160.006 148.768L0.0235959 148.446L0.121094 100.039Z" fill="#7AD8F9"/>
<path d="M40.3774 45.1759C40.3774 45.1759 50.1881 48.0404 55.7071 58.1879C55.7071 58.1879 72.303 55.6341 78.8477 65.3713C78.8477 65.3713 91.532 60.0849 101.718 68.8895C101.718 68.8895 115.932 65.1735 122.763 74.0488C122.763 74.0488 135.293 71.0519 145.993 75.1905C147.087 75.6202 154.297 68.058 159.932 72.5039C159.932 72.5039 158.756 69.5918 158.002 68.8029C157.237 68.0239 138.325 52.4699 138.325 52.4699L95.8312 39.1657L49.2175 39.7368L40.3724 45.1759" fill="#324449"/>
<path d="M39.6473 45.2994C39.6473 45.2994 56.7519 42.1142 73.6184 55.4168C73.6184 55.4168 83.118 30.2885 106.85 30.3363C106.85 30.3363 66.8512 19.6044 39.6473 45.2994Z" fill="#2780FF"/>
<path d="M71.3403 136.353C72.2677 136.355 131.306 114.131 160.005 121.888L159.952 148.096L125.038 155.732L75.3304 146.003L71.3373 137.861" fill="#F4C484"/>
<path d="M84.331 126.381C40.5531 101.608 1.1773 132.587 0.0530969 133.49L0.0349617 142.494C0.0154621 152.176 7.66388 160.008 17.1953 160.027L142.407 160.279C151.946 160.298 159.946 152.22 159.966 142.539L159.972 139.254C159.972 139.247 128.758 151.522 84.331 126.381Z" fill="#E8B872"/>
<path d="M158.43 149.152C150.416 152.696 108.907 148.01 108.907 148.01C108.907 148.01 55.5304 139.264 46.6967 137.836C22.2473 133.87 2.60843 144.264 0.0408076 145.699C1.32051 153.225 7.2806 159.074 14.8004 160.029L144.234 160.29C150.64 159.493 156.073 155.074 158.43 149.16" fill="#F4C484"/>
<path d="M104.353 32.9554L77.2249 132.64L83.5417 132.653L106.846 33.7953L104.353 32.9554Z" fill="#7A7A7A"/>
<path d="M129.284 53.2791C129.205 51.8866 123.985 43.4595 123.986 42.9695C123.987 42.4796 119.091 36.5778 118.935 36.1676C118.778 35.7623 112.98 31.6636 112.98 31.6636L107.143 30.2794L107.09 30.3593C105.473 30.1636 85.8264 28.4117 73.3181 55.5636C73.3181 55.5636 98.8156 46.7809 124.639 67.3808C124.669 67.4583 124.738 67.581 124.953 67.6239C125.113 67.7492 125.265 67.8445 125.425 67.9848L125.463 67.5324C125.769 67.4356 126.154 67.2338 126.715 66.765C128.603 65.214 129.366 54.6691 129.284 53.2791Z" fill="#FF0100"/>
<path d="M160.16 72.3863C160.16 72.3863 146.234 62.2343 125.19 68.1088C125.19 68.1088 127.836 39.9371 106.525 30.1752C106.525 30.1752 147.176 36.3439 160.16 72.3938" fill="#2780FF"/>
</svg>
