<svg width="260" height="260" viewBox="0 0 260 260" fill="none" xmlns="http://www.w3.org/2000/svg">
<g filter="url(#filter0_d_143_2)">
<rect x="50" y="46" width="160" height="160" rx="17" fill="#7AD8F9"/>
</g>
<path d="M184.554 133.167C182.684 133.168 181.284 133.991 180.209 135.251C178.432 154.618 169.749 174.331 133.947 175.124C98.664 175.905 87.8427 155.761 84.6374 137.313C83.5154 136.133 82.0949 135.395 80.2544 135.476C70.7753 135.893 70.0704 119.871 79.5495 119.454C84.4619 119.345 89.8562 106.891 101.044 102.158L96.2803 122.202L94.8473 123.186L169.432 121.535L167.957 120.616L162.31 100.802C173.697 105.035 179.637 117.238 184.549 117.13C194.037 117.127 194.042 133.164 184.554 133.167Z" fill="#2B3B47"/>
<path d="M180.567 121.288C180.897 136.197 159.409 148.764 132.571 149.358C105.733 149.952 83.7101 138.348 83.3802 123.439C83.0502 108.531 104.539 95.9635 131.376 95.3696C158.214 94.7756 180.237 106.38 180.567 121.288Z" fill="#597B91"/>
<path d="M174.701 124.924C174.966 136.881 156.085 146.997 132.531 147.518C108.976 148.04 89.6662 138.769 89.4016 126.812C89.1369 114.854 108.017 104.738 131.572 104.217C155.126 103.696 174.436 112.966 174.701 124.924Z" fill="#F9E7C0"/>
<path d="M133.405 102.869C135.096 97.353 131.518 97.9731 128.669 103.846C128.63 103.842 128.592 103.838 128.554 103.835C130.122 98.351 126.189 99.3814 123.335 105.958C125.025 100.957 121.98 101.156 118.989 104.974C119.555 101.107 116.187 102.388 113.605 108.128C112.358 107.938 111.854 108.687 112.634 110.255C112.427 110.337 112.221 110.425 112.018 110.517C108.019 107.448 105.474 108.427 108.652 112.497L108.597 112.537C103.878 108.003 100.243 108.484 103.308 112.715C103.255 112.732 103.201 112.752 103.145 112.773C98.6841 108.703 95.3691 109.211 98.1604 113.186C97.4182 113.257 96.5418 113.404 95.505 113.649C87.8818 115.448 90.7628 118.713 98.32 117.245C94.929 121.912 98.514 122.488 103.117 117.859C103.153 117.876 103.187 117.892 103.222 117.908C99.9572 122.584 104.012 122.888 108.847 117.595C105.624 121.776 108.569 122.577 112.638 119.938C110.648 123.796 115.312 123.225 120.205 117.015C121.65 116.965 123.472 116.654 125.559 115.961C125.559 115.961 126.031 115.05 125.722 114.292C128.186 114.316 128.42 112.649 124.645 110.385C130.935 113.516 134.568 111.875 130.16 108.774C130.204 108.74 130.249 108.704 130.295 108.666C135.836 111.066 138.806 109.508 134.875 106.656C135.554 106.348 136.335 105.924 137.236 105.356C143.861 101.177 140.075 99.0248 133.405 102.869ZM105.427 115.17L105.44 115.153L105.5 115.211L105.479 115.232L105.427 115.17ZM110.889 115.063C110.908 115.036 110.928 115.01 110.947 114.982L110.947 114.979C111.006 115.035 111.065 115.088 111.124 115.14C111.09 115.17 111.056 115.2 111.022 115.231C110.978 115.175 110.934 115.119 110.889 115.063ZM122.046 108.9C122.107 108.939 122.167 108.977 122.227 109.015C122.217 109.047 122.207 109.079 122.198 109.111L122.199 109.114C122.125 109.081 122.052 109.05 121.98 109.019C122.002 108.98 122.024 108.94 122.046 108.9ZM127.289 107.098L127.358 107.14L127.351 107.16C127.325 107.148 127.301 107.137 127.275 107.125L127.289 107.098ZM121.402 113.497C121.032 113.214 120.591 112.916 120.077 112.608C120.67 112.904 121.278 113.174 121.896 113.414C121.738 113.438 121.573 113.466 121.402 113.497Z" fill="#2ABA34"/>
<path d="M150.588 108.721C160.478 108.502 160.7 118.544 150.811 118.763C140.921 118.982 140.698 108.94 150.588 108.721ZM158.487 130.306C168.377 130.087 168.155 120.046 158.265 120.265C148.375 120.483 148.597 130.525 158.487 130.306ZM153.641 140.226C163.531 140.007 163.309 129.965 153.419 130.184C143.529 130.403 143.752 140.445 153.641 140.226Z" fill="#F9F9F7"/>
<path d="M147.313 127.828C147.134 128.078 146.87 128.255 146.57 128.324C146.271 128.394 145.956 128.352 145.685 128.206L145.582 128.15L145 127.837C144.809 127.744 144.569 127.642 144.301 127.518C144.021 127.412 143.708 127.287 143.358 127.174C143.003 127.07 142.626 126.946 142.21 126.865C141.803 126.757 141.359 126.706 140.91 126.631L140.219 126.57C139.987 126.542 139.75 126.543 139.513 126.542L139.157 126.538L138.979 126.536L138.8 126.549L138.088 126.596C137.852 126.62 137.62 126.666 137.388 126.697L137.042 126.749L136.705 126.832C136.482 126.888 136.26 126.934 136.044 126.994L135.42 127.208C135.318 127.243 135.216 127.274 135.117 127.312L134.831 127.442L134.28 127.689C133.932 127.871 133.618 128.068 133.32 128.23C133.062 128.412 132.841 128.579 132.636 128.718L132.488 128.819L132.318 128.965L132.017 129.222L131.445 129.71C130.454 130.556 128.964 130.438 128.118 129.446C127.272 128.455 127.39 126.965 128.381 126.119C128.453 126.058 128.528 126.001 128.605 125.95L128.618 125.941L129.246 125.529C129.419 125.415 129.591 125.302 129.764 125.188L130.028 125.039C130.393 124.837 130.807 124.604 131.256 124.377C131.7 124.195 132.173 123.983 132.685 123.797L133.489 123.551L133.904 123.427C134.045 123.393 134.19 123.366 134.335 123.335L135.217 123.157C135.516 123.113 135.822 123.085 136.128 123.05L136.588 123L137.051 122.988C137.361 122.983 137.671 122.967 137.979 122.975L138.9 123.029L139.129 123.043L139.355 123.073L139.804 123.135C140.102 123.175 140.397 123.214 140.682 123.282C140.969 123.344 141.252 123.401 141.528 123.467C141.592 123.486 141.655 123.503 141.718 123.521C141.439 123.258 141.119 123.014 140.803 122.751L140.235 122.352C140.049 122.211 139.844 122.093 139.639 121.973L139.333 121.79L139.18 121.699L139.02 121.621L138.38 121.304C138.164 121.206 137.94 121.128 137.724 121.039L137.399 120.91L137.066 120.812C136.845 120.749 136.629 120.677 136.413 120.621L135.766 120.492C135.66 120.472 135.556 120.447 135.452 120.43L135.139 120.399L134.538 120.336C134.146 120.318 133.775 120.33 133.437 120.321C133.121 120.349 132.847 120.382 132.6 120.399L132.421 120.413L132.2 120.453L131.811 120.524L131.072 120.658C129.79 120.892 128.561 120.041 128.327 118.759C128.094 117.477 128.944 116.248 130.227 116.015C130.32 115.998 130.413 115.987 130.505 115.981L130.521 115.98L131.27 115.939L131.666 115.917L131.89 115.904L132.193 115.908C132.61 115.917 133.085 115.923 133.587 115.953C134.063 116.018 134.578 116.073 135.114 116.169L135.933 116.361L136.354 116.461C136.493 116.503 136.632 116.552 136.773 116.598L137.625 116.888C137.906 117 138.184 117.13 138.466 117.253L138.889 117.441L139.296 117.663C139.566 117.815 139.842 117.956 140.105 118.119L140.874 118.628L141.065 118.755L141.245 118.895L141.603 119.174C141.84 119.358 142.075 119.54 142.288 119.742C142.504 119.94 142.721 120.132 142.926 120.327C143.318 120.738 143.706 121.121 144.027 121.529C144.367 121.917 144.649 122.319 144.913 122.683C145.17 123.053 145.384 123.41 145.575 123.721C145.751 124.047 145.907 124.326 146.025 124.564L146.371 125.331C146.42 125.441 146.452 125.555 146.468 125.668L147.02 126.063C147.155 126.16 147.27 126.282 147.358 126.423C147.446 126.564 147.505 126.721 147.532 126.885C147.56 127.049 147.554 127.216 147.517 127.378C147.479 127.54 147.41 127.693 147.313 127.828Z" fill="#FF473E"/>
<path d="M127.168 142.646C119.668 140.758 124.06 124.665 132.343 125.359C140.625 126.053 155.784 149.85 127.168 142.646ZM120.205 127.58C123.517 119.957 104.786 114.315 100.594 120.814C84.5978 145.611 116.892 135.203 120.205 127.58Z" fill="#E2AF8D"/>
<path d="M113.919 143.904C106.419 142.016 110.811 125.922 119.094 126.616C127.376 127.311 142.535 151.107 113.919 143.904Z" fill="#D19878"/>
<path d="M125.605 64.9335L126.01 64.9653C126.279 65.0037 126.642 64.9709 127.193 65.1832C127.459 65.2739 127.783 65.3532 128.058 65.5337C128.343 65.7034 128.687 65.8569 128.964 66.1354L129.42 66.5406C129.575 66.6832 129.691 66.8647 129.833 67.0359C130.134 67.3739 130.327 67.7972 130.551 68.2351C130.92 69.1302 131.197 70.1904 131.099 71.3304C131.015 72.4586 130.663 73.6804 129.878 74.7322C129.123 75.8002 127.896 76.6163 126.594 76.9455L126.102 77.0779C126.042 77.1028 125.853 77.1381 125.734 77.1681L125.328 77.2614L125.03 77.3655C124.638 77.4852 124.2 77.7139 123.822 77.9362C123.062 78.4141 122.404 79.0577 121.953 79.8442C121.508 80.6272 121.179 81.4963 121.076 82.3898C120.965 83.2771 120.99 84.168 121.177 84.9804C121.365 85.7912 121.669 86.5317 122.059 87.1526C122.423 87.722 122.873 88.2317 123.393 88.6636C123.864 89.0598 124.35 89.3166 124.756 89.5272C125.175 89.7071 125.515 89.8553 125.759 89.9182L126.129 90.0401L126.162 90.0509C126.238 90.0762 126.303 90.1281 126.344 90.197C126.385 90.2658 126.399 90.3471 126.385 90.426C126.371 90.5048 126.329 90.576 126.267 90.6264C126.205 90.6769 126.126 90.7032 126.046 90.7006L125.623 90.6853C125.345 90.6801 124.938 90.6366 124.419 90.5298C123.911 90.3976 123.27 90.2311 122.612 89.8489C121.949 89.4862 121.239 88.9622 120.624 88.2334C119.376 86.8039 118.507 84.5728 118.687 82.159C118.768 80.9595 119.079 79.7047 119.724 78.5685C120.35 77.4265 121.307 76.4205 122.435 75.6961C123.027 75.3614 123.594 75.0779 124.273 74.8775L124.773 74.7296L125.181 74.6447C125.332 74.6112 125.417 74.6001 125.623 74.5479L125.933 74.4657C126.755 74.2616 127.497 73.8857 127.994 73.2516C128.498 72.6368 128.837 71.8804 128.98 71.1024C129.125 70.3189 129.033 69.5475 128.872 68.8608C128.756 68.5298 128.661 68.1962 128.488 67.9237C128.408 67.7845 128.352 67.6268 128.258 67.5063L127.979 67.1525C127.818 66.896 127.574 66.7584 127.391 66.5711C127.205 66.3715 127.001 66.2881 126.824 66.1719C126.498 65.9268 126.079 65.8169 125.84 65.7253L125.459 65.5834C125.418 65.568 125.38 65.5446 125.348 65.5145C125.316 65.4845 125.289 65.4483 125.271 65.4082C125.253 65.368 125.242 65.3246 125.241 65.2805C125.239 65.2364 125.246 65.1924 125.262 65.151C125.288 65.0825 125.335 65.0243 125.397 64.9851C125.459 64.9458 125.532 64.9278 125.605 64.9335ZM106.459 77.8008C106.383 77.6879 106.266 77.6096 106.133 77.5832C105.999 77.5567 105.861 77.5842 105.748 77.6596L105.481 77.838C105.307 77.9747 105.055 78.0767 104.726 78.3949L104.191 78.8987L103.648 79.539C103.293 80.0237 102.942 80.6122 102.636 81.3029C102.37 82.0035 102.133 82.798 102.05 83.6696C101.928 84.5407 102.019 85.4761 102.197 86.4277C102.382 87.3846 102.789 88.3275 103.324 89.2166C103.616 89.646 103.909 90.0838 104.278 90.4648C104.453 90.6633 104.629 90.863 104.834 91.0311L105.369 91.4865C105.678 91.7609 106.119 92.0895 106.25 92.2939C106.453 92.4915 106.652 92.7879 106.854 93.0662C107.205 93.6552 107.51 94.2626 107.695 94.9026C107.865 95.5406 108.002 96.1821 108.008 96.8054C108.044 97.4284 107.991 98.0256 107.892 98.5765C107.817 98.8418 107.789 99.1192 107.708 99.3641C107.621 99.6061 107.553 99.8479 107.465 100.066L107.203 100.682C107.101 100.861 107.006 101.029 106.925 101.188C106.768 101.513 106.577 101.719 106.48 101.896L106.314 102.156L106.271 102.223C106.21 102.318 106.182 102.432 106.193 102.545C106.203 102.658 106.251 102.765 106.328 102.848C106.406 102.93 106.509 102.985 106.621 103.003C106.734 103.021 106.849 103.001 106.948 102.946C106.948 102.946 107.054 102.888 107.252 102.78C107.442 102.66 107.763 102.52 108.084 102.234C108.252 102.099 108.443 101.949 108.636 101.768L109.215 101.134C109.596 100.652 109.971 100.056 110.293 99.3505C110.565 98.6339 110.836 97.8217 110.906 96.9259C111.019 96.0336 110.932 95.0717 110.718 94.1063C110.498 93.138 110.063 92.185 109.486 91.3094C109.173 90.8877 108.871 90.4645 108.438 90.0505C108 89.5796 107.706 89.4037 107.351 89.0992L106.868 88.7094C106.72 88.6116 106.598 88.4854 106.474 88.3619C106.207 88.1315 105.998 87.8494 105.776 87.5792C105.383 87.0034 105.05 86.3857 104.83 85.7343C104.624 85.0827 104.49 84.415 104.476 83.7704C104.427 83.1227 104.514 82.508 104.618 81.9415C104.741 81.3781 104.913 80.8692 105.111 80.4313L105.41 79.8223L105.705 79.3545C105.854 79.0616 106.114 78.8179 106.227 78.6581L106.429 78.4098C106.499 78.3248 106.539 78.2198 106.544 78.1101C106.55 78.0005 106.52 77.8921 106.459 77.8008ZM152.497 76.7819C152.422 76.669 152.304 76.5907 152.171 76.5642C152.038 76.5377 151.9 76.5652 151.787 76.6407L151.52 76.819C151.345 76.9558 151.093 77.0577 150.764 77.376L150.229 77.8797L149.687 78.52C149.332 79.0047 148.981 79.5932 148.675 80.2839C148.409 80.9845 148.171 81.779 148.088 82.6506C147.967 83.5217 148.057 84.4571 148.235 85.4087C148.42 86.3656 148.827 87.3086 149.362 88.1976C149.654 88.627 149.948 89.0648 150.317 89.4459C150.492 89.6444 150.667 89.844 150.873 90.0122L151.407 90.4675C151.716 90.742 152.157 91.0705 152.288 91.2749C152.491 91.4726 152.691 91.769 152.893 92.0472C153.243 92.6362 153.549 93.2436 153.733 93.8836C153.904 94.5216 154.04 95.1632 154.046 95.7864C154.082 96.4094 154.029 97.0066 153.93 97.5575C153.856 97.8228 153.827 98.1002 153.746 98.3452C153.66 98.5871 153.591 98.829 153.504 99.0474L153.241 99.6631C153.14 99.8421 153.045 100.01 152.963 100.169C152.807 100.494 152.615 100.7 152.518 100.877L152.352 101.137L152.309 101.204C152.248 101.3 152.221 101.413 152.231 101.526C152.241 101.639 152.289 101.746 152.367 101.829C152.445 101.912 152.548 101.966 152.66 101.984C152.772 102.002 152.887 101.982 152.987 101.927C152.987 101.927 153.092 101.869 153.29 101.761C153.48 101.641 153.801 101.501 154.122 101.215C154.291 101.08 154.482 100.93 154.675 100.749L155.253 100.115C155.635 99.633 156.009 99.0367 156.331 98.3315C156.604 97.615 156.875 96.8028 156.945 95.9069C157.058 95.0146 156.971 94.0528 156.757 93.0873C156.537 92.119 156.101 91.166 155.524 90.2904C155.212 89.8688 154.91 89.4455 154.476 89.0315C154.038 88.5606 153.745 88.3848 153.39 88.0802L152.906 87.6904C152.758 87.5926 152.637 87.4665 152.513 87.3429C152.245 87.1126 152.037 86.8305 151.815 86.5602C151.422 85.9844 151.088 85.3668 150.868 84.7153C150.662 84.0637 150.528 83.396 150.515 82.7515C150.465 82.1038 150.552 81.4891 150.657 80.9225C150.779 80.3591 150.951 79.8502 151.149 79.4123L151.448 78.8033L151.744 78.3355C151.892 78.0427 152.152 77.799 152.265 77.6391L152.468 77.3908C152.537 77.3058 152.577 77.2008 152.583 77.0912C152.588 76.9816 152.558 76.8732 152.497 76.7819ZM136.101 100.462C136.169 100.411 136.214 100.335 136.226 100.251C136.238 100.167 136.216 100.082 136.165 100.014L136.045 99.8536C135.975 99.7508 135.828 99.5917 135.734 99.4056C135.614 99.2308 135.497 98.9938 135.37 98.721C135.263 98.444 135.152 98.1331 135.117 97.789C135.053 97.4511 135.082 97.0827 135.157 96.7185C135.232 96.3524 135.393 95.9865 135.623 95.6457C135.866 95.2866 136.164 94.9683 136.506 94.7026C136.593 94.6303 136.68 94.5589 136.781 94.4987L137.13 94.2638C137.363 94.0895 137.554 93.9934 137.843 93.6904C138.397 93.1641 138.711 92.6356 139.008 92.0502C139.295 91.4746 139.442 90.8664 139.542 90.2823C139.643 89.696 139.627 89.1201 139.577 88.5848C139.521 88.0479 139.39 87.5514 139.229 87.1097C139.079 86.7081 138.882 86.3258 138.641 85.9709C138.42 85.6573 138.203 85.4067 137.993 85.2276C137.809 85.0309 137.606 84.9308 137.493 84.8476L137.31 84.7289C137.25 84.69 137.18 84.6722 137.109 84.6783C137.038 84.6844 136.971 84.7141 136.919 84.7625C136.868 84.811 136.833 84.8755 136.822 84.9457C136.811 85.0159 136.824 85.0878 136.859 85.1497L136.888 85.2009L136.98 85.3673C137.03 85.4836 137.142 85.6128 137.221 85.824C137.313 86.0241 137.42 86.2604 137.5 86.5505C137.586 86.8346 137.668 87.1572 137.707 87.5184C137.773 87.872 137.772 88.2676 137.772 88.6758C137.773 89.0872 137.702 89.5145 137.626 89.947C137.54 90.3789 137.395 90.8069 137.217 91.2139C137.041 91.6006 136.772 92.0304 136.526 92.2686C136.454 92.3875 136.171 92.586 135.976 92.7557L135.966 92.7639C135.952 92.7741 136.072 92.6895 136.018 92.7274L136.012 92.732L135.988 92.75L135.941 92.7859L135.846 92.858L135.659 93.0026C135.531 93.0942 135.414 93.2019 135.299 93.3118C134.827 93.7322 134.424 94.2396 134.147 94.7999C133.868 95.354 133.675 95.947 133.652 96.5264C133.628 97.0999 133.688 97.6453 133.855 98.1041C134.008 98.5683 134.236 98.9431 134.444 99.2579C134.676 99.5546 134.893 99.7981 135.099 99.982C135.298 100.181 135.452 100.259 135.558 100.346L135.72 100.464C135.775 100.505 135.842 100.526 135.911 100.526C135.98 100.526 136.046 100.503 136.101 100.462Z" fill="#D7F4F7"/>
<defs>
<filter id="filter0_d_143_2" x="0" y="0" width="260" height="260" filterUnits="userSpaceOnUse" color-interpolation-filters="sRGB">
<feFlood flood-opacity="0" result="BackgroundImageFix"/>
<feColorMatrix in="SourceAlpha" type="matrix" values="0 0 0 0 0 0 0 0 0 0 0 0 0 0 0 0 0 0 127 0" result="hardAlpha"/>
<feOffset dy="4"/>
<feGaussianBlur stdDeviation="25"/>
<feComposite in2="hardAlpha" operator="out"/>
<feColorMatrix type="matrix" values="0 0 0 0 0 0 0 0 0 0 0 0 0 0 0 0 0 0 0.1 0"/>
<feBlend mode="normal" in2="BackgroundImageFix" result="effect1_dropShadow_143_2"/>
<feBlend mode="normal" in="SourceGraphic" in2="effect1_dropShadow_143_2" result="shape"/>
</filter>
</defs>
</svg>
