<svg width="335" height="271" viewBox="0 0 335 271" fill="none" xmlns="http://www.w3.org/2000/svg">
<path d="M334.925 55.5892C334.925 59.3003 334.561 62.9273 333.866 66.4342C333.65 67.534 333.4 68.6218 333.118 69.6975C332.562 71.8284 331.881 73.9079 331.085 75.9307C330.977 76.2087 330.866 76.4849 330.751 76.7611C330.468 77.4491 330.171 78.1303 329.86 78.8028C329.695 79.1631 329.526 79.5217 329.351 79.8786C328.697 81.2254 327.988 82.5431 327.228 83.8264C326.365 85.2882 325.437 86.7089 324.445 88.0797C322.671 90.54 320.7 92.8494 318.555 94.982C308.503 104.993 294.642 111.178 279.336 111.178C263.96 111.178 250.04 104.935 239.977 94.8448C237.903 92.7653 235.992 90.5229 234.267 88.1363C232.279 85.3895 230.536 82.4522 229.07 79.357C228.829 78.8492 228.595 78.3362 228.37 77.8197C228.341 77.7562 228.316 77.6945 228.288 77.631C227.943 76.8366 227.619 76.0319 227.312 75.2187C227.037 74.4912 226.777 73.7552 226.533 73.0123C226.173 71.9211 225.845 70.8162 225.553 69.6958C225.316 68.7933 225.102 67.8806 224.912 66.961C224.218 63.6308 223.824 60.1925 223.759 56.6735C223.75 56.3132 223.747 55.9512 223.747 55.5892C223.747 53.9644 223.817 52.3568 223.952 50.768C224.001 50.2156 224.055 49.6648 224.119 49.1175C224.821 43.0645 226.495 37.3082 228.981 32.0084C229.621 30.6444 230.314 29.3113 231.059 28.0108C233.814 23.1982 237.268 18.8368 241.283 15.0674C241.844 14.539 242.415 14.0243 242.999 13.5216C252.742 5.09568 265.444 0 279.336 0C310.037 0 334.925 24.8882 334.925 55.5892Z" fill="#F2F2F2"/>
<path d="M307.731 39.9844H305.653V54.7369H307.731V39.9844Z" fill="#3F3D56"/>
<path d="M307.736 39.7976L307.66 39.9846L306.953 41.7226L305.653 41.1942L303.783 40.4359C292.176 36.7103 277.506 34.8038 271.919 27.5028L271.555 27.3552C269.217 29.2954 267.593 29.4089 267.466 25.6944L267.103 25.5469C257.566 27.5077 249.318 21.9085 241.283 15.0673C241.844 14.5388 242.415 14.0241 242.998 13.5214C254.296 13.8381 263.929 15.7982 267.703 23.5481L268.068 23.6973L272.459 25.4782L272.826 25.6275C282.579 23.5709 293.536 30.9841 304.503 38.4851L307.736 39.7976Z" fill="#3F3D56"/>
<path d="M324.445 88.0797C322.671 90.54 320.7 92.8493 318.555 94.982C293.84 95.4641 264.057 95.4041 239.977 94.8447C237.903 92.7653 235.991 90.5228 234.267 88.1363C239.268 87.9973 244.58 87.8875 250.089 87.8017C252.27 87.7657 254.483 87.7365 256.721 87.7091C258.943 87.685 261.188 87.6627 263.451 87.6439H263.453C284.016 87.4774 306.011 87.6301 324.445 88.0797Z" fill="#D0CDE1"/>
<path d="M333.119 69.6974C332.563 71.8284 331.882 73.9078 331.086 75.9306C330.977 76.2086 330.866 76.4848 330.751 76.761H328.093V69.6974H333.119Z" fill="#3F3D56"/>
<path d="M331.085 75.9308C330.977 76.2087 330.866 76.485 330.751 76.7612C330.467 77.4492 330.171 78.1303 329.86 78.8029C329.695 79.1632 329.526 79.5218 329.351 79.8787C328.697 81.2255 327.988 82.5432 327.228 83.8265C300.672 86.9207 276.096 87.6622 255.371 83.8265V75.9308H331.085Z" fill="#3F3D56"/>
<path d="M329.86 66.5423V78.8028C329.696 79.1631 329.526 79.5217 329.351 79.8786C321.808 76.1961 314.913 76.6354 308.458 79.8786V52.971C313.684 49.847 318.999 49.3328 324.458 52.971L329.473 65.5661L329.86 66.5423Z" fill="#D0CDE1"/>
<path d="M311.783 54.6328H320.925V63.7751C317.911 65.3853 314.863 65.3509 311.783 63.7751C310.195 60.7277 310.195 57.6802 311.783 54.6328Z" fill="white"/>
<path d="M327.782 63.8791C326.58 65.2318 324.377 64.7477 321.964 63.8791V54.7368H324.457L327.782 63.8791Z" fill="white"/>
<path d="M314.276 68.9698H312.198V72.9176H314.276V68.9698Z" fill="#3F3D56"/>
<path d="M323.73 60.5548H323.834C324.924 60.5548 325.808 61.4385 325.808 62.5287V62.5287C325.808 63.6189 324.924 64.5026 323.834 64.5026H323.73V60.5548Z" fill="#3F3D56"/>
<path d="M246.436 75.9305H246.539C247.63 75.9305 248.513 76.8142 248.513 77.9044V77.9044C248.513 78.9945 247.63 79.8783 246.539 79.8783H246.436V75.9305Z" fill="#3F3D56"/>
<path d="M333.866 66.4344C333.65 67.5341 333.4 68.6219 333.118 69.6976C332.562 71.8286 331.881 73.908 331.085 75.9308C330.977 76.2088 330.865 76.485 330.75 76.7612C330.467 77.4492 330.171 78.1304 329.86 78.8029C329.695 79.1632 329.525 79.5218 329.35 79.8787H328.405L328.294 76.7612L328.264 75.9308L328.093 71.0942L327.885 65.2539L329.472 65.5662L333.866 66.4344Z" fill="#D0CDE1"/>
<path d="M256.72 91.4101C261.081 91.4101 264.616 87.8751 264.616 83.5145C264.616 79.1538 261.081 75.6188 256.72 75.6188C252.36 75.6188 248.825 79.1538 248.825 83.5145C248.825 87.8751 252.36 91.4101 256.72 91.4101Z" fill="#3F3D56"/>
<path d="M256.721 87.67C259.016 87.67 260.876 85.8095 260.876 83.5144C260.876 81.2193 259.016 79.3588 256.721 79.3588C254.425 79.3588 252.565 81.2193 252.565 83.5144C252.565 85.8095 254.425 87.67 256.721 87.67Z" fill="#D0CDE1"/>
<path d="M309.081 74.9953H309.081V49.2304H304.718C303.852 50.8621 303.413 53.3434 303.256 56.3888C302.721 66.797 294.2 74.9953 283.778 74.9953H246.332V76.8653H304.347C304.47 78.1451 304.595 79.4292 304.718 80.7093L309.081 80.7093V76.8653H309.081V74.9953Z" fill="#3F3D56"/>
<path d="M275.341 66.3702L276.513 65.5089L283.712 75.3051L282.54 76.1664C277.133 75.4991 274.759 72.2119 275.341 66.3702Z" fill="#3F3D56"/>
<path d="M287.337 33.2475L288.666 33.8386L274.289 76.1724L272.96 75.5813C274.742 63.9807 280.217 42.7562 287.337 33.2475Z" fill="#3F3D56"/>
<path d="M324.977 64.2948H322.899V65.1259H324.977V64.2948Z" fill="#3F3D56"/>
<path d="M306.315 52.0934C306.316 52.0779 306.317 52.0641 306.314 52.0497C306.302 51.9341 306.199 51.8531 306.086 51.8658L304.746 52.0164L257.703 53.7171L257.287 53.7629C257.196 53.7728 257.123 53.8416 257.106 53.9328C257.086 54.0459 257.161 54.1534 257.274 54.1737L305.309 60.1613C305.424 60.1731 305.525 60.0883 305.536 59.9736L306.315 52.0934ZM258.754 54.0169L304.67 52.442L305.876 52.3076L305.144 59.7099L258.754 54.0169Z" fill="#3F3D56"/>
<path d="M272.46 25.4786L271.555 27.3555L259.302 52.7584L267.467 25.6947L268.069 23.6976L267.704 23.5484L267.103 25.5472L258.679 53.6575L258.59 54.0658C258.569 54.155 258.61 54.246 258.693 54.2906C258.792 54.3472 258.919 54.3112 258.974 54.2099L271.919 27.5031L272.827 25.6278L272.46 25.4786Z" fill="#3F3D56"/>
<path d="M232.459 54.2388L231.856 48.5546L231.692 46.9882L230.841 38.9449L230.324 34.0568C230.314 33.9522 230.225 33.8715 230.118 33.8715C230.012 33.8715 229.923 33.9504 229.911 34.0551L229.35 38.9449L228.32 47.9352L228.13 49.5978L227.579 54.4018L226.812 61.0982C226.811 61.1051 226.811 61.1119 226.811 61.1205C226.809 61.2338 226.902 61.3281 227.016 61.3298L229.515 61.3539L232.982 61.3865H232.984C232.991 61.3865 232.997 61.3847 233.004 61.3847C233.119 61.3727 233.202 61.2698 233.19 61.1566L232.459 54.2388H232.459ZM230.403 60.9455L229.41 60.9369L227.251 60.9163L227.876 55.4638V55.4621L228.562 49.4777L228.753 47.8134L229.77 38.9449L230.11 35.9767L230.424 38.9449L231.287 47.1014L231.452 48.6679L232.052 54.352L232.752 60.9678L230.403 60.9455H230.403Z" fill="#3F3D56"/>
<path d="M263.215 62.4471L262.096 63.0578L258.9 63.9517L256.22 64.7032L250.4 66.3314L247.72 67.0812C239.391 65.7148 235.185 68.591 231.208 71.7033L228.528 72.4531L226.533 73.0124C226.173 71.9212 225.845 70.8163 225.553 69.696C225.316 68.7935 225.102 67.8807 224.912 66.9611C224.218 63.6309 223.824 60.1926 223.759 56.6737C223.75 56.3134 223.747 55.9514 223.747 55.5893C223.747 53.9646 223.817 52.3569 223.952 50.7682C224.001 50.2157 224.055 49.665 224.119 49.1177L228.321 47.9355L228.753 47.8137L231.287 47.1017L231.692 46.9885L238.124 45.1784C243.069 44.8291 246.837 46.9767 250.045 50.3084C250.045 50.3084 254.612 48.9444 257.973 51.3515C259.037 52.115 259.979 53.256 260.617 54.9391L261.168 56.5261L263.215 62.4471H263.215Z" fill="#FB8C00"/>
<path d="M253.169 70.8378C256.388 70.8378 258.997 68.2286 258.997 65.0101C258.997 61.7915 256.388 59.1824 253.169 59.1824C249.95 59.1824 247.341 61.7915 247.341 65.0101C247.341 68.2286 249.95 70.8378 253.169 70.8378Z" fill="#3F3D56"/>
<path d="M253.169 68.0773C254.863 68.0773 256.236 66.7041 256.236 65.0101C256.236 63.3161 254.863 61.9429 253.169 61.9429C251.475 61.9429 250.102 63.3161 250.102 65.0101C250.102 66.7041 251.475 68.0773 253.169 68.0773Z" fill="#D0CDE1"/>
<path d="M231.304 72.7617C231.304 74.6902 230.368 76.399 228.923 77.4594C228.746 77.5898 228.561 77.7099 228.37 77.8197C228.341 77.7562 228.316 77.6944 228.288 77.6309C227.943 76.8365 227.619 76.0319 227.312 75.2186C227.037 74.4912 226.777 73.7551 226.533 73.0122C226.173 71.921 225.845 70.8161 225.553 69.6957C225.317 68.7933 225.102 67.8805 224.912 66.9609C225.097 66.942 225.286 66.9334 225.476 66.9334C228.333 66.9334 230.711 68.9889 231.208 71.7031C231.272 72.0463 231.304 72.3997 231.304 72.7617Z" fill="#3F3D56"/>
<path d="M228.544 72.7617C228.544 73.7671 228.06 74.6593 227.312 75.2186C227.037 74.4911 226.777 73.7551 226.533 73.0122C226.173 71.921 225.845 70.8161 225.553 69.6957C227.109 69.7335 228.376 70.9276 228.528 72.4529C228.539 72.5541 228.544 72.657 228.544 72.7617H228.544Z" fill="#D0CDE1"/>
<path d="M245.924 50.4702L227.892 55.5175L226.373 50.0895C228.643 48.3163 233.111 47.5272 237.873 46.8705L245.924 50.4702V50.4702Z" fill="white"/>
<path d="M225.684 56.1347L223.759 56.6734C223.75 56.3131 223.747 55.9511 223.747 55.5891C223.747 53.9643 223.817 52.3567 223.952 50.7679L224.165 50.7079C226.046 51.9418 226.521 53.7636 225.684 56.1347Z" fill="white"/>
<path d="M229.945 59.308L229.025 59.5655L229.515 61.3135L230.435 61.056L229.945 59.308Z" fill="#3F3D56"/>
<path d="M261.167 56.5263C259.585 57.1596 257.789 56.3902 257.155 54.8078C256.671 53.5987 256.998 52.2159 257.973 51.3518C259.037 52.1146 259.98 53.2554 260.618 54.939L261.167 56.5263H261.167Z" fill="#3F3D56"/>
<path d="M228.981 32.0084C229.621 30.6444 230.315 29.3113 231.059 28.0108V38.9451H228.981V32.0084Z" fill="#3F3D56"/>
<path d="M306.692 43.3089C308.299 43.3089 309.601 42.0066 309.601 40.4C309.601 38.7934 308.299 37.4911 306.692 37.4911C305.086 37.4911 303.783 38.7934 303.783 40.4C303.783 42.0066 305.086 43.3089 306.692 43.3089Z" fill="#3F3D56"/>
<path d="M114.268 82.5687C123.252 90.0866 133.268 83.7924 142.867 83.3115C147.318 83.0885 151.761 84.1618 156.148 84.9624C160.313 85.7223 164.462 86.8277 168.269 88.7127C172.418 90.6953 175.948 93.7732 178.477 97.6144C178.979 98.3995 179.737 97.8197 179.731 96.8812C179.671 86.9152 175.362 87.7223 170.863 88.4573C166.586 89.156 162.95 84.9116 158.73 83.9981C154.313 83.1094 149.85 82.4733 145.361 82.0929C140.494 81.6097 135.616 81.2818 130.725 81.1094C125.241 80.916 119.756 80.9182 114.268 81.1161C113.336 81.1492 113.332 82.602 114.268 82.5687L114.268 82.5687Z" fill="#3F3D56"/>
<path d="M83.965 162.743C84.0933 162.881 84.1631 163.063 84.1598 163.251C84.1565 163.439 84.0803 163.618 83.9472 163.752C83.8141 163.885 83.6346 163.961 83.4464 163.964C83.2583 163.967 83.0762 163.898 82.9385 163.769C77.0022 158.68 71.0659 153.595 65.1296 148.512C65.1228 148.504 65.1146 148.498 65.1054 148.493C64.6932 148.183 64.3032 147.845 63.9385 147.481C58.4138 146.837 52.3419 144.706 46.5897 143.782C41.5104 144.537 36.4457 145.438 31.3519 146.106C26.9139 146.723 22.4396 147.043 17.959 147.064C14.3129 147.045 15.3678 137.698 12.0607 135.974C8.62289 134.183 1.7286 139.981 0.847349 136.359C0.411944 134.505 0.128555 132.618 0 130.718V118.908C0.469673 113.766 8.65677 115.352 12.5449 111.764C18.3795 106.38 20.3606 93.7493 27.8269 93.5992C36.7246 93.4115 45.6251 93.8013 54.4724 94.7661C61.687 95.5602 69.2744 96.3301 75.9466 99.4048C78.8082 100.727 81.5052 108.372 83.4759 110.856C85.725 113.758 86.9979 117.297 87.1123 120.966C87.4657 128.757 83.9214 135.884 81.9797 143.239C80.2948 149.607 79.3457 157.325 83.965 162.743Z" fill="#F2F2F2"/>
<path d="M65.8043 149.258C71.8226 154.417 77.8419 159.574 83.8619 164.731C83.9997 164.859 84.1819 164.929 84.3702 164.926C84.5585 164.923 84.7382 164.846 84.8714 164.713C85.0045 164.58 85.0808 164.4 85.0841 164.212C85.0874 164.024 85.0175 163.842 84.889 163.704C80.2701 158.29 81.2192 150.571 82.903 144.2C84.847 136.845 88.3912 129.72 88.0364 121.931C87.9239 118.261 86.6504 114.721 84.3991 111.82C82.3639 109.378 79.7862 107.447 76.8717 106.18C70.1998 103.105 62.6138 102.332 55.396 101.54C46.5498 100.574 37.6503 100.184 28.7536 100.371C21.2851 100.525 12.5485 100.661 6.7143 106.047C1.40101 110.952 0.675295 118.665 0.726533 125.475C0.756214 129.421 0.831912 133.473 1.76986 137.324C2.65157 140.944 4.56361 144.469 8.00251 146.26C11.3102 147.983 15.2399 148.01 18.8825 148.028C23.3632 148.009 27.8374 147.688 32.2748 147.066C41.1561 145.905 49.9525 144.028 58.9055 143.461C61.0964 143.322 63.2939 143.261 65.489 143.307C66.4241 143.326 66.424 141.874 65.489 141.854C56.7838 141.672 48.168 143.167 39.603 144.528C31.3185 145.845 22.8496 147.087 14.4405 146.42C12.5971 146.334 10.7845 145.915 9.09052 145.183C7.45444 144.405 6.07009 143.183 5.09573 141.656C2.90655 138.247 2.49177 133.976 2.30266 129.999C2.08693 126.556 2.11889 123.103 2.39827 119.666C2.7209 116.332 3.49788 112.952 5.27273 110.074C9.32126 103.51 17.5068 100.779 24.4928 101.958C32.3598 103.286 38.3774 109.574 50.3819 102.508C54.1501 100.289 59.0881 103.376 63.412 104.029C66.6433 104.474 69.8307 105.196 72.939 106.185C75.9297 107.098 78.7163 108.579 81.1459 110.547C83.6889 112.698 85.4592 115.621 86.1871 118.871C87.8544 126.355 84.5496 133.825 82.3657 140.829C80.419 147.073 78.7582 154.405 81.3794 160.705C81.9907 162.169 82.8284 163.527 83.8619 164.731L84.889 163.704C78.8706 158.545 72.8514 153.388 66.8314 148.231C66.1251 147.626 65.093 148.649 65.8042 149.258H65.8043Z" fill="#E6E6E6"/>
<path d="M40.1597 115.461H18.2639C18.063 115.461 17.8703 115.382 17.7282 115.24C17.5861 115.097 17.5063 114.905 17.5063 114.704C17.5063 114.503 17.5861 114.31 17.7282 114.168C17.8703 114.026 18.063 113.946 18.2639 113.946H40.1597C40.3606 113.946 40.5533 114.026 40.6953 114.168C40.8374 114.31 40.9172 114.503 40.9172 114.704C40.9172 114.905 40.8374 115.097 40.6953 115.24C40.5533 115.382 40.3606 115.461 40.1597 115.461Z" fill="white"/>
<path d="M40.1597 131.616H18.2639C18.1644 131.616 18.0659 131.596 17.974 131.558C17.8821 131.52 17.7986 131.464 17.7282 131.394C17.6579 131.324 17.6021 131.24 17.564 131.148C17.5259 131.056 17.5063 130.958 17.5063 130.858C17.5063 130.759 17.5259 130.66 17.564 130.568C17.6021 130.477 17.6579 130.393 17.7282 130.323C17.7986 130.252 17.8821 130.196 17.974 130.158C18.0659 130.12 18.1644 130.101 18.2639 130.101H40.1597C40.3606 130.101 40.5533 130.181 40.6953 130.323C40.8374 130.465 40.9172 130.657 40.9172 130.858C40.9172 131.059 40.8374 131.252 40.6953 131.394C40.5533 131.536 40.3606 131.616 40.1597 131.616Z" fill="white"/>
<path d="M57.9425 123.544H18.2639C18.063 123.544 17.8703 123.464 17.7282 123.322C17.5861 123.18 17.5063 122.987 17.5063 122.786C17.5063 122.586 17.5861 122.393 17.7282 122.251C17.8703 122.109 18.063 122.029 18.2639 122.029H57.9425C58.1434 122.029 58.3361 122.109 58.4782 122.251C58.6203 122.393 58.7001 122.586 58.7001 122.786C58.7001 122.987 58.6203 123.18 58.4782 123.322C58.3361 123.464 58.1434 123.544 57.9425 123.544Z" fill="white"/>
<path d="M108.175 199.542C108.303 199.68 108.373 199.862 108.37 200.05C108.366 200.238 108.29 200.418 108.157 200.551C108.024 200.684 107.844 200.76 107.656 200.763C107.468 200.767 107.286 200.697 107.148 200.568C101.212 195.479 95.2758 190.394 89.3395 185.311C89.3326 185.303 89.3244 185.297 89.3152 185.292C88.903 184.982 88.513 184.644 88.1483 184.28C82.6236 183.636 76.5518 181.505 70.7995 180.581C65.7202 181.336 59.6871 187.079 54.5933 187.747C50.1553 188.364 45.681 188.684 41.2004 188.706C37.5544 188.686 38.6092 176.918 35.3021 175.194C31.8643 173.403 25.9384 176.78 25.0572 173.158C24.6069 171.313 22.3835 169.42 22.2383 167.517V155.707C22.708 150.565 26.1127 145.471 30.0009 141.883C35.8355 136.499 44.5704 136.359 52.0367 136.209C60.9345 136.021 69.835 136.411 78.6822 137.376C85.8968 138.17 93.4842 138.94 100.156 142.014C103.071 143.283 105.649 145.214 107.686 147.655C109.935 150.557 111.208 154.096 111.322 157.765C111.676 165.556 108.131 172.683 106.19 180.038C104.505 186.406 103.556 194.124 108.175 199.542Z" fill="#F2F2F2"/>
<path d="M90.0142 186.057C96.0326 191.216 102.052 196.373 108.072 201.53C108.21 201.658 108.392 201.728 108.58 201.725C108.768 201.722 108.948 201.646 109.081 201.512C109.215 201.379 109.291 201.2 109.294 201.011C109.297 200.823 109.227 200.641 109.099 200.503C104.48 195.089 105.429 187.37 107.113 181C109.057 173.644 112.601 166.519 112.246 158.73C112.134 155.06 110.86 151.52 108.609 148.619C106.574 146.178 103.996 144.246 101.082 142.979C94.4097 139.904 86.8237 139.131 79.6059 138.339C70.7598 137.373 61.8603 136.983 52.9636 137.17C45.4951 137.324 36.7585 137.46 30.9243 142.846C25.611 147.751 24.8853 155.464 24.9365 162.274C24.9662 166.22 25.0419 170.273 25.9798 174.123C26.8615 177.743 28.7736 181.268 32.2125 183.059C35.5202 184.782 39.4499 184.809 43.0925 184.827C47.5731 184.808 52.0474 184.487 56.4848 183.865C65.366 182.704 74.1624 180.827 83.1155 180.26C85.3064 180.122 87.5039 180.06 89.699 180.106C90.6341 180.125 90.634 178.673 89.699 178.653C80.9937 178.471 72.378 179.966 63.8129 181.328C55.5284 182.644 47.0595 183.886 38.6505 183.219C36.8071 183.133 34.9945 182.714 33.3005 181.982C31.6644 181.204 30.2801 179.982 29.3057 178.455C27.1165 175.046 26.7017 170.775 26.5126 166.798C26.2969 163.356 26.3288 159.902 26.6082 156.465C26.9309 153.132 27.7078 149.751 29.4827 146.873C33.5312 140.309 42.7611 134.898 48.7028 138.757C55.4912 143.166 64.1734 143.357 74.5918 139.307C78.6674 137.722 83.2981 140.175 87.6219 140.828C90.8533 141.273 94.0406 141.995 97.1489 142.984C100.14 143.897 102.926 145.378 105.356 147.346C107.899 149.497 109.669 152.42 110.397 155.67C112.064 163.154 108.76 170.625 106.576 177.628C104.629 183.872 102.968 191.204 105.589 197.504C106.201 198.968 107.038 200.326 108.072 201.53L109.099 200.503C103.081 195.344 97.0614 190.187 91.0414 185.03C90.3351 184.425 89.303 185.448 90.0142 186.057H90.0142Z" fill="#E6E6E6"/>
<path d="M64.3696 152.26H42.4739C42.2729 152.26 42.0802 152.181 41.9382 152.039C41.7961 151.897 41.7163 151.704 41.7163 151.503C41.7163 151.302 41.7961 151.109 41.9382 150.967C42.0802 150.825 42.2729 150.745 42.4739 150.745H64.3696C64.5706 150.745 64.7632 150.825 64.9053 150.967C65.0474 151.109 65.1272 151.302 65.1272 151.503C65.1272 151.704 65.0474 151.897 64.9053 152.039C64.7632 152.181 64.5706 152.26 64.3696 152.26Z" fill="white"/>
<path d="M64.3696 168.415H42.4739C42.2729 168.415 42.0802 168.336 41.9382 168.193C41.7961 168.051 41.7163 167.859 41.7163 167.658C41.7163 167.457 41.7961 167.264 41.9382 167.122C42.0802 166.98 42.2729 166.9 42.4739 166.9H64.3696C64.5706 166.9 64.7632 166.98 64.9053 167.122C65.0474 167.264 65.1272 167.457 65.1272 167.658C65.1272 167.859 65.0474 168.051 64.9053 168.193C64.7632 168.336 64.5706 168.415 64.3696 168.415Z" fill="white"/>
<path d="M82.1525 160.343H42.4739C42.2729 160.343 42.0802 160.263 41.9382 160.121C41.7961 159.979 41.7163 159.787 41.7163 159.586C41.7163 159.385 41.7961 159.192 41.9382 159.05C42.0802 158.908 42.2729 158.828 42.4739 158.828H82.1525C82.3534 158.828 82.5461 158.908 82.6881 159.05C82.8302 159.192 82.91 159.385 82.91 159.586C82.91 159.787 82.8302 159.979 82.6881 160.121C82.5461 160.263 82.3534 160.343 82.1525 160.343Z" fill="white"/>
<path d="M227.526 226.404H166.336C165.774 226.404 165.236 226.181 164.839 225.784C164.442 225.387 164.219 224.848 164.219 224.287C164.219 223.725 164.442 223.187 164.839 222.79C165.236 222.393 165.774 222.17 166.336 222.17H227.526C228.087 222.17 228.626 222.393 229.023 222.79C229.42 223.187 229.643 223.725 229.643 224.287C229.643 224.848 229.42 225.387 229.023 225.784C228.626 226.181 228.087 226.404 227.526 226.404Z" fill="#F2F2F2"/>
<path d="M277.222 248.992H166.336C166.057 248.992 165.782 248.938 165.524 248.831C165.267 248.725 165.033 248.569 164.837 248.373C164.64 248.176 164.483 247.942 164.377 247.685C164.27 247.428 164.215 247.153 164.215 246.874C164.215 246.596 164.27 246.321 164.377 246.064C164.483 245.807 164.64 245.573 164.837 245.376C165.033 245.18 165.267 245.024 165.524 244.918C165.782 244.811 166.057 244.757 166.336 244.757H277.222C277.783 244.758 278.32 244.982 278.717 245.379C279.113 245.776 279.335 246.314 279.335 246.874C279.335 247.435 279.113 247.973 278.717 248.37C278.32 248.767 277.783 248.991 277.222 248.992Z" fill="#F2F2F2"/>
<path d="M131.798 246.614L135.275 249.886L149.83 237.737L144.699 232.908L131.798 246.614Z" fill="#FFB6B6"/>
<path d="M138.128 260.762L136.196 251.755L138.538 249.267L137.277 248.213L133.364 244.951L132.407 244.15L123.405 252.246L126.014 254.699L128.796 252.676L127.667 256.257L134.578 262.763C134.909 263.075 135.332 263.273 135.783 263.327C136.235 263.382 136.692 263.291 137.089 263.068C137.485 262.844 137.8 262.5 137.987 262.085C138.174 261.671 138.223 261.207 138.128 260.762V260.762Z" fill="#2F2E41"/>
<path d="M114.853 259.266L119.572 259.984L124.646 241.715L117.681 240.657L114.853 259.266Z" fill="#FFB6B6"/>
<path d="M128.099 267.312L121.392 260.997L121.905 257.62L120.269 257.468L115.196 257.008L113.952 256.892L111.145 268.67L114.686 269.205L115.825 265.96L116.932 269.549L126.315 270.976C126.765 271.044 127.225 270.967 127.628 270.755C128.03 270.544 128.355 270.209 128.554 269.8C128.754 269.391 128.817 268.929 128.735 268.481C128.653 268.034 128.43 267.624 128.099 267.312L128.099 267.312Z" fill="#2F2E41"/>
<path d="M160.256 129.492L173.791 153.733C173.791 153.733 173.226 203.588 175.025 205.437C176.824 207.287 178.452 208.945 176.824 208.93C175.195 208.915 175.72 220.709 175.72 220.709L145.7 243.951L138.437 238.14L156.658 215.65L146.595 169.613C146.595 169.613 139.366 213.149 138.063 214.452C136.76 215.755 135.974 215.746 137.344 217.053C138.714 218.361 137.344 221.318 137.344 221.318L123.062 250.961L115.314 249.984C115.314 249.984 116.658 225.784 121.334 215.395V166.3C120.982 170.51 137.46 127.905 127.384 131.103C130.572 130.091 160.256 129.492 160.256 129.492Z" fill="#2F2E41"/>
<path d="M154.047 71.7228H142.858L141.274 78.0594L132.671 80.4384C132.671 80.4384 128.415 108.657 131.989 110.934C135.563 113.21 133.071 120.33 133.071 120.33C133.071 120.33 124.171 129.942 125.239 131.366C126.307 132.79 128.474 130.623 125.966 133.131C123.459 135.638 122.035 135.282 122.747 135.994C123.187 136.446 123.528 136.984 123.749 137.575L120.678 145.57C120.678 145.57 136.987 148.81 145.175 144.182C153.363 139.554 171.519 148.454 171.519 148.454C171.519 148.454 170.585 143.781 169.806 143.092C169.027 142.402 167.211 144.146 168.475 141.85C169.739 139.554 170.807 140.622 169.739 139.554C168.671 138.486 164.043 124.246 164.043 124.246C164.043 124.246 160.483 116.414 164.399 113.21C168.315 110.006 169.806 99.4967 169.806 99.4967L165.112 80.4384L157.279 78.6776L154.047 71.7228Z" fill="#E6E6E6"/>
<path d="M109.755 144.482L112.443 133.71L106.503 131.316L104.067 142.806C103.512 143.217 103.082 143.775 102.826 144.417C102.57 145.06 102.498 145.76 102.618 146.441C102.739 147.122 103.047 147.756 103.508 148.271C103.969 148.786 104.564 149.163 105.228 149.358C105.891 149.553 106.595 149.56 107.262 149.377C107.929 149.194 108.531 148.828 109.001 148.322C109.472 147.815 109.792 147.187 109.925 146.509C110.058 145.831 109.999 145.128 109.755 144.482V144.482Z" fill="#FFB6B6"/>
<path d="M135.859 79.7184L135.682 79.6879C134.033 79.4047 132.34 79.5275 130.75 80.0459C129.159 80.5643 127.718 81.4626 126.553 82.663C123.511 85.7928 109.931 109.069 110.42 112.959C110.876 116.587 111.051 115.78 109.392 117.632C107.733 119.484 107.102 116.663 107.076 120.52C107.051 124.376 108.524 124.343 106.958 125.285C105.392 126.228 104.356 125.572 104.642 128.173C104.929 130.775 104.491 131.466 104.398 132.375C104.305 133.284 102.057 139.119 102.057 139.119C102.057 139.119 108.675 140.896 111.344 143.557C111.344 143.557 111.647 136.973 112.994 136.375C114.342 135.777 115.596 136.089 115.218 134.397C114.839 132.704 112.894 131.955 115.277 132.014C117.659 132.073 121.34 119.401 121.34 119.401L137.255 90.3641L135.859 79.7184Z" fill="#E6E6E6"/>
<path d="M171.775 149.817L172.253 138.726L178.627 138.115L177.705 149.824C178.121 150.376 178.375 151.033 178.438 151.721C178.502 152.41 178.371 153.102 178.063 153.721C177.754 154.339 177.279 154.86 176.691 155.223C176.103 155.587 175.425 155.779 174.733 155.778C174.042 155.777 173.365 155.584 172.777 155.219C172.19 154.854 171.716 154.333 171.409 153.714C171.101 153.095 170.973 152.402 171.037 151.714C171.102 151.025 171.358 150.369 171.775 149.817Z" fill="#FFB6B6"/>
<path d="M165.112 80.3101L165.29 80.3311C166.952 80.5271 168.54 81.1251 169.919 82.0734C171.297 83.0217 172.424 84.2916 173.2 85.7732C175.23 89.6374 181.65 115.809 180.078 119.401C178.612 122.75 178.673 121.927 179.738 124.173C180.804 126.42 182.209 123.894 181.14 127.6C180.071 131.305 178.667 130.855 179.902 132.203C181.136 133.552 182.315 133.215 181.303 135.629C180.291 138.043 180.515 138.829 180.346 139.728C180.177 140.626 180.678 146.859 180.678 146.859C180.678 146.859 173.828 146.686 170.514 148.481C170.514 148.481 172.09 142.081 170.968 141.125C169.845 140.17 168.554 140.113 169.397 138.597C170.24 137.082 172.318 136.915 170.016 136.296C167.715 135.676 167.779 122.481 167.779 122.481L160.754 90.1226L165.112 80.3101Z" fill="#E6E6E6"/>
<path d="M123.029 64.2466C122.94 68.0659 124.367 71.764 126.418 75.0123C127.103 73.1262 128.062 71.3513 129.265 69.7449C128.689 73.304 129.302 76.9536 131.01 80.129C131.07 80.1721 131.132 80.2121 131.196 80.2488C132.868 81.2542 134.987 81.6614 136.795 80.9353C133.059 76.9084 132.584 70.2365 135.716 65.7198C136.602 64.4382 137.749 63.3046 138.298 61.8461C139.165 59.5189 138.332 56.9567 137.806 54.5303C137.314 52.2722 137.228 49.5849 138.743 47.93C138.581 47.6987 138.361 47.5146 138.105 47.3965C137.848 47.2785 137.565 47.2307 137.284 47.2581C136.35 47.3901 135.67 48.202 135.237 49.0382C134.804 49.8744 134.518 50.8012 133.915 51.5234C132.797 52.8752 130.894 53.1948 129.29 53.9073C125.406 55.6374 123.122 59.9968 123.029 64.2466Z" fill="#2F2E41"/>
<path d="M155.725 62.0628C155.503 61.286 157.033 66.0349 156.294 66.1206C152.932 66.5064 148.316 68.5145 145.974 69.4513C145.869 69.4391 145.763 69.4268 145.661 69.4115C145.41 69.384 145.165 69.3442 144.923 69.2983C139.47 68.2665 137.373 59.8899 137.373 59.8133C137.373 59.4368 138.276 49.094 139.7 48.9409C140.074 48.9003 140.45 48.8799 140.826 48.8797H144.359C145.09 48.7221 145.831 48.6147 146.577 48.5582H146.583C153.696 48.0163 159.304 52.3515 158.78 57.6266C158.777 57.6327 158.77 57.6388 158.767 57.645C158.615 57.8715 158.482 58.0858 158.364 58.291C158.249 58.4838 158.153 58.6675 158.069 58.842C157.421 60.1892 159.088 61.8842 157.983 62.2006C156.513 62.6214 161.848 76.4523 156.031 76.4523C158.86 77.2568 156.337 64.206 155.725 62.0628Z" fill="#2F2E41"/>
<path d="M149.375 70.1784C153.995 70.1784 157.74 66.4333 157.74 61.8135C157.74 57.1937 153.995 53.4486 149.375 53.4486C144.755 53.4486 141.01 57.1937 141.01 61.8135C141.01 66.4333 144.755 70.1784 149.375 70.1784Z" fill="#FFB6B6"/>
<path d="M158.78 58.0827C158.64 58.1562 158.504 58.2235 158.364 58.2909C158.218 58.3613 158.073 58.4317 157.927 58.496C155.126 59.7666 152.846 59.9074 151.463 58.0827C151.425 57.1226 151.21 56.1778 150.827 55.2967C150.894 56.2813 150.635 57.2608 150.088 58.0827H147.303C144.434 59.987 142.96 60.186 144.952 66.4378C145.507 68.1798 147.715 78.3168 146.846 79.82C146.595 79.7924 143.922 68.6894 143.68 68.6435C138.227 67.6117 134.762 58.6277 135.206 58.1195C135.203 56.6742 135.536 55.2481 136.176 53.9526C136.987 52.3114 138.251 50.9367 139.818 49.991C140.752 49.538 141.726 49.1721 142.728 48.898C142.752 48.8918 142.774 48.8857 142.799 48.8796C143.106 48.7969 143.419 48.7204 143.733 48.6561C144.38 48.5194 145.034 48.4203 145.693 48.3591C145.74 48.3561 145.786 48.353 145.83 48.353C146.093 48.3536 146.351 48.4244 146.577 48.5581C146.58 48.5581 146.58 48.5612 146.583 48.5612C146.745 48.6557 146.886 48.7817 146.999 48.9316C147.197 49.1839 147.304 49.4957 147.303 49.8164H150.405C150.52 49.8164 150.634 49.8195 150.749 49.8256C152.819 49.8964 154.789 50.7371 156.272 52.1833C157.755 53.6295 158.645 55.5771 158.767 57.6449C158.777 57.7919 158.78 57.9357 158.78 58.0827Z" fill="#2F2E41"/>
<path d="M192.854 215.936C193.079 215.946 193.302 215.887 193.492 215.767C193.682 215.646 193.831 215.47 193.918 215.262C194.005 215.054 194.026 214.825 193.978 214.605C193.93 214.385 193.816 214.184 193.65 214.031L193.575 213.732C193.585 213.708 193.595 213.684 193.605 213.66C193.831 213.125 194.211 212.668 194.697 212.348C195.182 212.027 195.751 211.858 196.333 211.86C196.915 211.862 197.483 212.036 197.966 212.36C198.449 212.684 198.825 213.143 199.048 213.681C199.938 215.825 201.071 217.972 201.351 220.239C201.473 221.242 201.422 222.257 201.197 223.242C203.288 218.681 204.374 213.723 204.381 208.706C204.381 207.447 204.312 206.188 204.171 204.937C204.056 203.911 203.895 202.893 203.69 201.882C202.569 196.395 200.163 191.253 196.669 186.877C194.978 185.954 193.61 184.535 192.75 182.811C192.439 182.191 192.219 181.53 192.097 180.847C192.287 180.872 192.816 177.967 192.672 177.788C192.938 177.385 193.414 177.184 193.704 176.791C195.148 174.833 197.138 175.175 198.176 177.835C200.395 178.955 200.416 180.812 199.055 182.598C198.189 183.735 198.07 185.272 197.31 186.489C197.388 186.589 197.47 186.686 197.548 186.786C198.977 188.624 200.223 190.597 201.267 192.678C201.013 190.347 201.316 187.989 202.151 185.798C202.998 183.756 204.584 182.036 205.981 180.27C206.351 179.796 206.853 179.442 207.423 179.253C207.994 179.064 208.608 179.049 209.188 179.208C209.767 179.368 210.286 179.696 210.68 180.151C211.073 180.606 211.322 181.167 211.397 181.763C211.4 181.789 211.402 181.815 211.405 181.841C211.198 181.959 210.994 182.083 210.796 182.214C210.546 182.381 210.352 182.619 210.241 182.898C210.129 183.177 210.104 183.483 210.169 183.776C210.233 184.069 210.385 184.336 210.605 184.541C210.824 184.747 211.1 184.881 211.397 184.927L211.427 184.931C211.353 185.679 211.222 186.421 211.036 187.149C212.828 194.08 208.959 196.605 203.433 196.718C203.311 196.781 203.193 196.844 203.071 196.903C204.12 199.876 204.778 202.973 205.028 206.116C205.17 207.97 205.162 209.833 205.003 211.686L205.013 211.62C205.413 209.56 206.512 207.701 208.124 206.357C210.519 204.39 213.902 203.665 216.486 202.084C216.76 201.908 217.08 201.814 217.406 201.813C217.732 201.812 218.052 201.905 218.327 202.08C218.603 202.255 218.822 202.505 218.96 202.8C219.098 203.096 219.149 203.425 219.106 203.749L219.095 203.818C218.71 203.974 218.335 204.155 217.973 204.359C217.765 204.476 217.562 204.6 217.363 204.731C217.113 204.898 216.92 205.137 216.808 205.415C216.696 205.694 216.671 206 216.736 206.293C216.801 206.586 216.953 206.853 217.172 207.058C217.391 207.264 217.667 207.398 217.964 207.444L217.995 207.448C218.016 207.452 218.035 207.455 218.057 207.458C217.399 209.029 216.475 210.475 215.327 211.733C214.206 217.784 209.392 218.358 204.243 216.596H204.24C203.675 219.051 202.857 221.441 201.798 223.726H193.072C193.041 223.63 193.013 223.529 192.985 223.432C193.792 223.483 194.603 223.435 195.399 223.289C194.752 222.494 194.104 221.694 193.457 220.899C193.443 220.884 193.429 220.869 193.416 220.852C193.088 220.446 192.757 220.042 192.428 219.636L192.428 219.635C192.41 218.389 192.553 217.146 192.853 215.936L192.854 215.936Z" fill="#F2F2F2"/>
<path d="M173.513 147.25C174.187 147.961 173.166 148.884 172.38 148.275C165.826 143.194 159.273 138.117 152.719 133.042C152.712 133.034 152.702 133.028 152.693 133.023C152.24 132.716 151.81 132.379 151.404 132.013C145.305 131.37 138.602 129.243 132.251 128.319C126.644 129.073 121.052 129.972 115.429 130.64C110.524 131.256 105.587 131.575 100.643 131.597C96.6182 131.577 92.283 131.553 88.632 129.832C84.8367 128.044 82.7253 124.524 81.7524 120.908C81.2726 119.063 80.9595 117.178 80.8169 115.276V103.485C81.3354 98.3514 82.9177 93.2657 87.2101 89.6835C93.6514 84.3078 103.295 84.1676 111.537 84.0177C121.357 83.8302 131.18 84.2192 140.954 85.1828C148.919 85.9756 157.295 86.7443 164.661 89.814C167.82 91.1338 170.798 92.966 172.973 95.446C175.422 98.2555 176.838 101.816 176.988 105.54C177.378 113.318 173.465 120.434 171.322 127.778C169.461 134.135 168.414 141.841 173.513 147.25Z" fill="#FB8C00"/>
<path d="M124.895 97.0618H102.999C102.899 97.0618 102.801 97.0422 102.709 97.0042C102.617 96.9661 102.533 96.9103 102.463 96.8399C102.393 96.7696 102.337 96.6861 102.299 96.5942C102.261 96.5023 102.241 96.4038 102.241 96.3043C102.241 96.2048 102.261 96.1063 102.299 96.0144C102.337 95.9225 102.393 95.8389 102.463 95.7686C102.533 95.6982 102.617 95.6425 102.709 95.6044C102.801 95.5663 102.899 95.5467 102.999 95.5467H124.895C125.095 95.5467 125.288 95.6265 125.43 95.7686C125.572 95.9107 125.652 96.1034 125.652 96.3043C125.652 96.5052 125.572 96.6979 125.43 96.8399C125.288 96.982 125.095 97.0618 124.895 97.0618Z" fill="white"/>
<path d="M124.895 113.217H102.999C102.798 113.217 102.605 113.137 102.463 112.995C102.321 112.853 102.241 112.66 102.241 112.459C102.241 112.258 102.321 112.066 102.463 111.923C102.605 111.781 102.798 111.702 102.999 111.702H124.895C125.095 111.702 125.288 111.781 125.43 111.923C125.572 112.066 125.652 112.258 125.652 112.459C125.652 112.66 125.572 112.853 125.43 112.995C125.288 113.137 125.095 113.217 124.895 113.217Z" fill="white"/>
<path d="M142.677 105.144H102.999C102.798 105.144 102.605 105.065 102.463 104.923C102.321 104.781 102.241 104.588 102.241 104.387C102.241 104.186 102.321 103.993 102.463 103.851C102.605 103.709 102.798 103.629 102.999 103.629H142.677C142.878 103.629 143.071 103.709 143.213 103.851C143.355 103.993 143.435 104.186 143.435 104.387C143.435 104.588 143.355 104.781 143.213 104.923C143.071 105.065 142.878 105.144 142.677 105.144Z" fill="white"/>
<path d="M178.477 97.6145C180.507 100.853 181.655 104.58 181.303 108.422C181 111.737 179.64 114.854 178.153 117.792C176.613 120.837 174.888 123.793 173.628 126.972C172.245 130.437 171.734 134.189 172.14 137.897C172.389 140.305 172.875 142.68 173.332 145.055L174.73 152.303L175.943 151.597L155.86 134.234C155.156 133.626 154.124 134.649 154.833 135.261L174.916 152.624C175.031 152.732 175.178 152.8 175.335 152.818C175.492 152.836 175.65 152.803 175.787 152.723C175.923 152.644 176.03 152.522 176.092 152.377C176.154 152.232 176.167 152.071 176.13 151.917C175.309 147.658 174.34 143.397 173.738 139.101C173.393 136.934 173.344 134.731 173.594 132.551C173.84 130.89 174.277 129.262 174.895 127.701C177.304 121.407 181.816 115.9 182.685 109.057C183.23 104.77 182.005 100.509 179.731 96.8814C179.236 96.0911 177.979 96.8194 178.477 97.6146V97.6145Z" fill="#3F3D56"/>
<path d="M157.129 127.88L127.428 131.394L112.577 133.151C108.052 133.686 103.337 134.437 98.8167 133.49C91.2058 131.896 86.4801 124.999 84.9934 117.731C84.0731 113.232 84.3989 108.525 85.1731 104.03C85.5859 101.634 86.1306 99.263 86.7193 96.9045C87.2439 94.8027 87.6352 92.5394 88.5417 90.5609C89.265 88.9521 90.3413 87.5269 91.6907 86.391C93.0402 85.2551 94.6281 84.4376 96.3366 83.9993C97.4038 83.7806 98.4851 83.6374 99.5724 83.5706C100.794 83.448 102.016 83.3352 103.24 83.2321C105.687 83.026 108.136 82.859 110.589 82.7313C111.815 82.6674 113.041 82.6133 114.268 82.569C115.2 82.5349 115.205 81.0822 114.268 81.1164C109.163 81.3033 104.067 81.6572 98.9814 82.1781C96.9095 82.3916 94.994 82.7001 93.1237 83.6705C91.5076 84.5158 90.0883 85.6929 88.9586 87.1247C87.8011 88.6018 86.952 90.2964 86.4616 92.1079C85.7932 94.5149 85.1865 96.9457 84.633 99.3815C83.5174 104.292 82.7155 109.352 83.088 114.4C83.639 121.866 87.2134 129.831 94.1501 133.386C98.2464 135.485 102.921 135.579 107.409 135.178C112.415 134.731 117.407 134.032 122.397 133.441L153.297 129.786L157.129 129.332C158.047 129.224 158.057 127.77 157.129 127.88H157.129Z" fill="#3F3D56"/>
</svg>
