<svg width="353" height="208" viewBox="0 0 353 208" fill="none" xmlns="http://www.w3.org/2000/svg">
<path d="M38.3132 146.138C36.7895 146.302 35.1273 146.548 33.3592 146.908C25.8622 148.436 25.7066 153.53 25.7723 154.698L25.7214 154.667C24.9676 155.877 24.4955 157.101 24.2101 158.257L23.8668 142.644C24.0888 142.181 24.2908 141.655 24.4592 141.117C25.0204 142.847 25.9403 144.48 26.7333 144.372C27.7644 144.231 28.2139 141.195 28.0216 139.037C29.3328 140.727 31.5396 142.535 32.3721 141.977C33.0373 141.532 32.6429 139.699 31.9166 138.032C33.4299 138.944 35.1058 139.544 35.6259 138.965C36.3356 138.174 34.635 135.477 33.0667 133.971C35.166 134.167 37.8359 133.832 38.011 132.876C38.1552 132.088 36.5662 131.094 34.8654 130.454C36.5737 130.003 38.1712 129.218 38.1182 128.441C38.0553 127.518 35.6836 126.9 33.6375 126.806C35.1808 125.597 36.5988 123.927 36.1651 123.172C35.7665 122.477 33.9119 122.746 32.2008 123.358C33.2134 121.909 33.9253 120.277 33.3831 119.718C32.7078 119.022 30.3108 120.223 28.675 121.551C28.9934 119.482 28.8324 116.872 27.9054 116.635C27.1298 116.438 26.0306 117.956 25.2769 119.611C24.9438 117.875 24.2696 116.226 23.4913 116.226C22.3827 116.226 21.484 119.571 21.484 121.75C21.484 121.874 21.4873 121.99 21.4929 122.1C21.3816 121.971 21.2541 121.836 21.1087 121.695C19.5465 120.177 16.5226 118.492 15.7502 119.288C15.2081 119.846 15.92 121.479 16.9326 122.927C15.2215 122.316 13.3669 122.047 12.9682 122.741C12.4325 123.674 14.7223 126.004 16.5835 127.133C16.4716 127.12 16.3541 127.109 16.229 127.1C14.0564 126.952 10.6605 127.621 10.585 128.728C10.532 129.505 12.1295 130.29 13.8378 130.741C12.1371 131.381 10.548 132.375 10.6923 133.163C10.8673 134.119 13.5372 134.454 15.6365 134.258C14.0682 135.764 12.3676 138.461 13.0773 139.252C13.5974 139.831 15.2734 139.231 16.7866 138.319C16.0604 139.986 15.6659 141.819 16.3312 142.264C17.2103 142.853 19.6213 140.805 20.8925 139.042C20.763 141.198 21.2785 144.16 22.3014 144.277C22.7292 144.326 23.1825 143.87 23.5915 143.167L22.4329 159.949C22.1621 161.903 23.8945 163.179 24.0493 163.984L24.2992 175.349C24.0172 174.539 23.6373 173.711 23.1252 172.889L23.0743 172.921C23.14 171.752 22.9842 166.658 15.4874 165.131C13.7193 164.77 12.0571 164.524 10.5334 164.36C8.73481 164.166 8.03322 166.63 9.65802 167.426C12.0111 168.579 14.2245 170.031 15.3783 171.75C18.3279 176.147 22.4034 173.605 22.9829 173.211C23.6301 174.289 24.0545 175.375 24.3225 176.409L24.4552 182.444C24.4227 182.587 24.4002 182.667 24.3985 182.673L24.4606 182.691L24.7818 197.297L27.7611 197.273L26.6955 182.344C26.8745 181.538 27.4255 178.794 26.6955 175.945L25.6298 164.215C25.6272 164.206 25.6903 164.523 25.6298 164.215L24.2398 159.605C24.4419 158.179 24.911 156.575 25.8637 154.988C26.4432 155.383 30.5187 157.924 33.4683 153.528C34.622 151.808 36.8355 150.356 39.1886 149.204C40.8134 148.408 40.1118 145.944 38.3132 146.138L38.3132 146.138ZM24.7035 180.696L24.6474 178.141C24.7606 179.107 24.7549 179.979 24.7035 180.696Z" fill="#F2F2F2"/>
<path d="M0 197.994C0 198.312 0.255497 198.568 0.573659 198.568H352.122C352.44 198.568 352.696 198.312 352.696 197.994C352.696 197.676 352.44 197.42 352.122 197.42H0.573659C0.255497 197.42 0 197.676 0 197.994Z" fill="#3F3D56"/>
<path d="M213.342 198.503C227.718 198.503 239.372 186.841 239.372 172.454C239.372 158.068 227.718 146.405 213.342 146.405C198.966 146.405 187.312 158.068 187.312 172.454C187.312 186.841 198.966 198.503 213.342 198.503Z" fill="#3F3D56"/>
<path d="M213.342 189.82C222.926 189.82 230.695 182.045 230.695 172.454C230.695 162.863 222.926 155.088 213.342 155.088C203.758 155.088 195.988 162.863 195.988 172.454C195.988 182.045 203.758 189.82 213.342 189.82Z" fill="white"/>
<path d="M213.342 182.343C218.799 182.343 223.224 177.916 223.224 172.454C223.224 166.993 218.799 162.565 213.342 162.565C207.884 162.565 203.46 166.993 203.46 172.454C203.46 177.916 207.884 182.343 213.342 182.343Z" fill="#3F3D56"/>
<path d="M62.9448 198.503C77.321 198.503 88.9751 186.841 88.9751 172.454C88.9751 158.068 77.321 146.405 62.9448 146.405C48.5687 146.405 36.9146 158.068 36.9146 172.454C36.9146 186.841 48.5687 198.503 62.9448 198.503Z" fill="#3F3D56"/>
<path d="M62.9448 189.82C72.5289 189.82 80.2984 182.045 80.2984 172.454C80.2984 162.863 72.5289 155.088 62.9448 155.088C53.3607 155.088 45.5913 162.863 45.5913 172.454C45.5913 182.045 53.3607 189.82 62.9448 189.82Z" fill="white"/>
<path d="M248.951 160.065C245.56 151.514 233.712 125.383 212.612 116.735C212.45 116.668 212.279 116.623 212.106 116.598L144.424 106.896C143.309 106.736 142.271 107.5 142.091 108.613L140.904 115.944C140.823 116.448 140.929 116.963 141.205 117.392C144.642 122.728 166.671 158.947 131.395 158.947C96.6732 158.947 86.3967 133.683 84.8536 129.225C84.7079 128.804 84.702 128.35 84.8361 127.925L95.5299 94.0373C95.7201 93.4344 95.6149 92.8171 95.3078 92.3237L100.009 83.5865L108.619 88.4645L113.077 88.5186L128.296 96.478L131.395 91.413L100.009 75.7467C100.009 75.7467 100.062 72.1174 89.9393 69.2231L74.0319 61.9872L72.1037 64.3992L76.9241 68.2583L77.4062 71.1526L80.7805 72.1174L87.529 85.1419L85.6009 88.8738L87.9413 90.0157L87.2691 89.8628C86.3012 89.6427 85.3136 90.1421 84.9166 91.0525L74.2813 115.443C74.1186 115.816 73.8494 116.133 73.5076 116.353L69.7191 118.799C69.3651 119.028 69.0893 119.359 68.9288 119.749L64.6018 130.252C64.4669 130.579 64.4284 130.922 64.4633 131.254C59.0693 132.277 43.2128 136.694 34.5044 154.124L44.6273 162.324C44.6273 162.324 60.4951 152.05 86.72 162.749C91.278 169.849 97.928 175.741 107.529 176.296C132.841 177.761 174.779 179.208 179.599 173.419C183.128 169.181 185.583 166.535 186.645 165.422C187.019 165.03 187.53 164.803 188.072 164.785L247.097 162.899C248.53 162.853 249.48 161.399 248.951 160.065Z" fill="#FB8C00"/>
<path d="M86.0828 84.1769C90.3424 84.1769 93.7955 80.7213 93.7955 76.4587C93.7955 72.196 90.3424 68.7404 86.0828 68.7404C81.8232 68.7404 78.3701 72.196 78.3701 76.4587C78.3701 80.7213 81.8232 84.1769 86.0828 84.1769Z" fill="#3F3D56"/>
<path d="M209.599 116.764C209.507 116.764 209.415 116.762 209.323 116.759L144.836 114.261C141.983 114.15 139.539 112.332 138.61 109.629L137.727 107.059C137.007 104.963 137.32 102.718 138.586 100.899C139.852 99.0809 141.847 98.0087 144.061 97.9576L210.687 96.4249C212.751 96.3776 214.737 97.2616 216.084 98.8526C217.43 100.443 217.979 102.53 217.589 104.578L216.333 111.179C215.709 114.454 212.901 116.764 209.599 116.764H209.599Z" fill="#3F3D56"/>
<path d="M62.9449 182.343C68.4025 182.343 72.8267 177.916 72.8267 172.454C72.8267 166.993 68.4025 162.565 62.9449 162.565C57.4873 162.565 53.063 166.993 53.063 172.454C53.063 177.916 57.4873 182.343 62.9449 182.343Z" fill="#3F3D56"/>
<path d="M235.505 144.3C233.962 144.3 232.492 143.473 231.709 142.055L226.824 133.208C226.05 131.806 226.094 130.159 226.942 128.802C227.79 127.443 229.254 126.677 230.847 126.765L239.71 127.219C241.361 127.304 242.843 128.343 243.488 129.867L246.078 135.992C246.551 137.113 246.54 138.343 246.045 139.455C245.55 140.567 244.644 141.398 243.494 141.795L236.926 144.061C236.457 144.223 235.978 144.3 235.505 144.3Z" fill="#3F3D56"/>
<path d="M123.407 203.098C123.334 203.098 123.26 203.094 123.186 203.086L121.217 202.867C120.574 202.795 120.018 202.434 119.69 201.875C119.363 201.317 119.319 200.654 119.57 200.058L129.807 175.727L130.029 175.82L129.807 175.727C130.088 175.059 130.709 174.588 131.427 174.498C132.126 174.409 132.808 174.684 133.253 175.23C133.698 175.775 133.829 176.498 133.605 177.165L125.335 201.715C125.057 202.544 124.267 203.098 123.407 203.098Z" fill="#3F3D56"/>
<path d="M176.56 33.3041C176.56 33.3041 172.815 25.8081 173.564 19.0618L161.099 25.5274L161.579 37.8016L176.56 33.3041Z" fill="#A0616A"/>
<path d="M168.825 28.9896C175.035 28.9896 180.069 23.9517 180.069 17.7372C180.069 11.5226 175.035 6.48468 168.825 6.48468C162.615 6.48468 157.581 11.5226 157.581 17.7372C157.581 23.9517 162.615 28.9896 168.825 28.9896Z" fill="#A0616A"/>
<path d="M180.311 194.444L173.449 194.443L170.185 167.958L180.312 167.959L180.311 194.444Z" fill="#A0616A"/>
<path d="M156.802 194.288C156.589 194.648 156.476 195.81 156.476 196.229C156.476 197.516 157.519 198.56 158.805 198.56H180.054C180.932 198.56 181.643 197.848 181.643 196.97V196.084C181.643 196.084 182.694 193.424 180.53 190.144C180.53 190.144 177.84 192.712 173.821 188.69L172.636 186.541L164.056 192.82L159.301 193.406C158.26 193.534 157.338 193.386 156.803 194.288H156.802Z" fill="#2F2E41"/>
<path d="M160.081 33.3038L176.56 31.055L189.294 37.0518L190.043 83.5265C190.043 83.5265 158.719 87.2745 153.782 82.4021C148.845 77.5298 152.591 38.551 152.591 38.551L160.081 33.3038Z" fill="#E6E6E6"/>
<path d="M166.012 20.6038H162.989C162.989 20.6038 160.366 17.373 160.719 19.3415C161.072 21.31 159.661 23.4286 159.661 23.4286L157.544 22.7224C157.544 22.7224 153.309 4.90592 166.012 3.92724C178.715 2.94856 181.537 12.8355 181.537 12.8355C181.537 12.8355 180.832 17.7789 179.42 16.3665C178.009 14.9541 170.246 14.2479 170.246 14.2479L166.012 20.6038V20.6038Z" fill="#2F2E41"/>
<path d="M152.452 142.007L146.177 144.784L132.486 121.883L141.748 117.785L152.452 142.007Z" fill="#A0616A"/>
<path d="M130.89 151.381C130.84 151.796 131.207 152.905 131.376 153.288C131.896 154.465 133.271 154.997 134.448 154.476L153.881 145.875C154.683 145.52 155.046 144.581 154.691 143.778L154.333 142.968C154.333 142.968 154.219 140.109 150.914 137.986C150.914 137.986 149.492 141.423 144.191 139.372L142.238 137.886L136.93 147.102L132.818 149.563C131.918 150.101 131.015 150.339 130.89 151.38L130.89 151.381H130.89Z" fill="#2F2E41"/>
<path d="M187.796 79.0291L190.043 85.8286V109.202L182.703 130.376L183.302 179.746H170.132L168.645 129.388L169.819 104.515L160.83 100.767L137.22 102.226L148.262 129.388L136.112 137.497C136.112 137.497 117.94 96.0543 120.659 92.0393C123.378 88.0242 155.212 80.9415 155.212 80.9415C155.212 80.9415 187.796 79.7787 187.796 79.0291V79.0291Z" fill="#2F2E41"/>
<path d="M194.537 52.044L198.159 57.9795C198.159 57.9795 203.278 78.1159 198.159 78.1978C193.039 78.2797 182.703 67.9359 182.703 67.9359L184.05 62.5383L187.796 64.0375L187.047 52.044H194.537V52.044Z" fill="#A0616A"/>
<path d="M183.302 36.9577C183.302 36.9577 195.287 34.8447 196.41 42.6948C197.534 50.5449 198.159 57.9795 198.159 57.9795L185.174 59.056L183.302 36.9577V36.9577Z" fill="#E6E6E6"/>
<path d="M185.903 67.2757C186.986 65.7533 185.398 62.7614 182.356 60.5929C179.313 58.4244 175.969 57.9006 174.885 59.423C173.802 60.9453 175.39 63.9373 178.432 66.1057C181.475 68.2742 184.819 68.798 185.903 67.2757Z" fill="#A0616A"/>
<path d="M284.636 146.138C283.113 146.302 281.451 146.548 279.682 146.908C272.185 148.436 272.03 153.53 272.096 154.698L272.045 154.667C271.291 155.877 270.819 157.101 270.533 158.257L270.19 142.644C270.412 142.181 270.614 141.655 270.782 141.117C271.344 142.847 272.264 144.48 273.057 144.372C274.088 144.231 274.537 141.195 274.345 139.037C275.656 140.727 277.863 142.535 278.695 141.977C279.361 141.532 278.966 139.699 278.24 138.032C279.753 138.944 281.429 139.544 281.949 138.965C282.659 138.174 280.958 135.477 279.39 133.971C281.489 134.167 284.159 133.832 284.334 132.876C284.478 132.088 282.889 131.094 281.189 130.454C282.897 130.003 284.494 129.218 284.441 128.441C284.379 127.518 282.007 126.9 279.961 126.806C281.504 125.597 282.922 123.927 282.488 123.172C282.09 122.477 280.235 122.746 278.524 123.358C279.537 121.909 280.249 120.277 279.706 119.718C279.031 119.022 276.634 120.223 274.998 121.551C275.317 119.482 275.156 116.872 274.229 116.635C273.453 116.438 272.354 117.956 271.6 119.611C271.267 117.875 270.593 116.226 269.815 116.226C268.706 116.226 267.807 119.571 267.807 121.75C267.807 121.874 267.811 121.99 267.816 122.1C267.705 121.971 267.577 121.836 267.432 121.695C265.87 120.177 262.846 118.492 262.073 119.288C261.531 119.846 262.243 121.479 263.256 122.927C261.545 122.316 259.69 122.047 259.291 122.741C258.756 123.674 261.046 126.004 262.907 127.133C262.795 127.12 262.677 127.109 262.552 127.1C260.38 126.952 256.984 127.621 256.908 128.728C256.855 129.505 258.453 130.29 260.161 130.741C258.46 131.381 256.871 132.375 257.016 133.163C257.191 134.119 259.86 134.454 261.96 134.258C260.391 135.764 258.691 138.461 259.401 139.252C259.921 139.831 261.597 139.231 263.11 138.319C262.384 139.986 261.989 141.819 262.654 142.264C263.534 142.853 265.945 140.805 267.216 139.042C267.086 141.198 267.602 144.16 268.625 144.277C269.052 144.326 269.506 143.87 269.915 143.167L268.756 159.949C268.485 161.903 270.218 163.179 270.373 163.984L270.622 175.349C270.34 174.539 269.961 173.711 269.448 172.889L269.398 172.921C269.463 171.752 269.307 166.658 261.811 165.131C260.043 164.77 258.38 164.524 256.857 164.36C255.058 164.166 254.356 166.63 255.981 167.426C258.334 168.579 260.548 170.031 261.702 171.75C264.651 176.147 268.727 173.605 269.306 173.211C269.953 174.289 270.378 175.375 270.646 176.409L270.778 182.444C270.746 182.587 270.723 182.667 270.722 182.673L270.784 182.691L271.105 197.297L274.084 197.273L273.019 182.344C273.198 181.538 273.749 178.794 273.019 175.945L271.953 164.215C271.95 164.206 272.014 164.523 271.953 164.215L270.563 159.605C270.765 158.179 271.234 156.575 272.187 154.988C272.766 155.383 276.842 157.924 279.792 153.528C280.945 151.808 283.159 150.356 285.512 149.204C287.137 148.408 286.435 145.944 284.636 146.138V146.138ZM271.027 180.696L270.971 178.141C271.084 179.107 271.078 179.979 271.027 180.696Z" fill="#F2F2F2"/>
<path d="M199.771 11.4405C202.344 10.4664 202.19 8.99103 205.664 7.09525C207.153 6.28229 208.342 5.6334 210.006 5.54339C212.941 5.38459 215.178 7.0833 216.829 8.33674C219.232 10.1617 220.505 12.2094 221.171 13.3027C222.287 15.1365 222.803 16.6668 223.342 18.2686C224.135 20.6249 224.439 22.389 224.893 25.0968C225.57 29.1382 225.908 31.1588 225.513 32.8561C224.78 36.0032 223.167 36.2216 223.342 38.1325C223.638 41.3603 228.325 41.66 228.925 44.9607C229.422 47.6984 226.834 50.9937 223.962 52.0992C222.219 52.7701 220.615 52.5411 216.209 51.1681C204.521 47.5259 202.645 45.0338 198.84 46.2021C196.676 46.8666 195.493 48.2224 192.327 48.3747C190.303 48.4721 187.86 48.0585 187.675 47.1333C187.439 45.9563 191.119 45.266 191.397 43.0984C191.688 40.8238 187.852 39.9025 187.675 37.2013C187.502 34.5551 191.102 34.1886 192.947 30.0628C193.876 27.9876 193.773 25.1618 193.568 19.5101C193.409 15.1488 192.987 13.4616 194.188 12.3716C195.539 11.1451 196.909 12.5238 199.771 11.4404L199.771 11.4405Z" fill="#2F2E41"/>
<path d="M249.945 195.479L255.124 194.359L253.271 173.835L245.628 175.489L249.945 195.479Z" fill="#A0616A"/>
<path d="M267.663 191.525C267.883 191.762 268.158 192.621 268.226 192.937C268.436 193.908 267.819 194.866 266.848 195.076L250.809 198.544C250.147 198.687 249.494 198.266 249.351 197.603L249.207 196.935C249.207 196.935 247.98 195.098 249.079 192.269C249.079 192.269 251.528 193.769 253.906 190.077L254.45 188.262L261.949 191.601L265.634 191.267C266.44 191.194 267.112 190.931 267.663 191.525L267.663 191.525Z" fill="#2F2E41"/>
<path d="M259.208 193.909L263.529 190.84L253.756 172.702L247.379 177.231L259.208 193.909Z" fill="#A0616A"/>
<path d="M273.943 183.297C274.238 183.428 274.828 184.11 275.015 184.374C275.59 185.184 275.399 186.307 274.589 186.883L261.208 196.386C260.655 196.779 259.889 196.648 259.497 196.096L259.102 195.538C259.102 195.538 257.252 194.333 257.15 191.299C257.15 191.299 259.991 191.714 260.725 187.383L260.512 185.5L268.719 185.617L271.975 183.859C272.688 183.474 273.203 182.969 273.943 183.297L273.943 183.297Z" fill="#2F2E41"/>
<path d="M196.965 92.4409C196.965 92.4409 188.908 103.403 205.022 115.727L237.922 105.207L226.172 80.6826L215.765 74.9714L196.965 92.4409L196.965 92.4409Z" fill="#2F2E41"/>
<path d="M237.922 105.207L250.679 130.068L258.736 181.805L248.664 182.477L238.593 133.427L220.8 106.887L233.222 101.176" fill="#2F2E41"/>
<path d="M205.022 107.918V115.727L227.85 140.818C227.85 140.818 227.85 159.631 236.579 168.366L246.65 183.82L255.379 179.117L242.622 134.099L219.793 104.535L205.022 107.918Z" fill="#2F2E41"/>
<path d="M221.244 30.5008L216.943 46.9081L200.548 43.6804C200.548 43.6804 206.999 31.8457 205.386 26.4663L221.244 30.5008V30.5008Z" fill="#A0616A"/>
<path d="M214.23 33.5993C221.129 33.5993 226.723 28.0019 226.723 21.0971C226.723 14.1922 221.129 8.59479 214.23 8.59479C207.33 8.59479 201.736 14.1922 201.736 21.0971C201.736 28.0019 207.33 33.5993 214.23 33.5993Z" fill="#A0616A"/>
<path d="M208.715 32.9774L218.786 37.6807C218.786 37.6807 223.967 40.8498 224.062 42.9607C224.157 45.0717 223.486 55.1503 223.486 55.1503C223.486 55.1503 227.514 59.1817 224.829 67.2446L226.172 80.6827L195.958 96.8084L198.643 68.5884L197.3 42.3841L208.715 32.9774L208.715 32.9774Z" fill="#3F3D56"/>
<path d="M199.674 109.442C200.853 112.149 203.205 113.735 204.927 112.984C206.649 112.233 207.088 109.429 205.908 106.721C205.452 105.632 204.741 104.669 203.836 103.912L198.695 92.5034L193.397 95.0319L199.028 106.01C198.966 107.189 199.188 108.366 199.674 109.442H199.674Z" fill="#A0616A"/>
<path d="M205.022 44.0638C205.022 44.0638 197.636 39.3605 194.951 44.7357C192.265 50.111 186.222 77.6591 186.222 77.6591L194.951 103.863L203.008 100.504L195.958 72.3024L205.022 44.0638V44.0638Z" fill="#3F3D56"/>
<path d="M242.875 105.212C244.968 107.294 247.739 107.901 249.063 106.568C250.387 105.235 249.763 102.466 247.669 100.384C246.844 99.5401 245.829 98.9067 244.709 98.5362L235.73 89.8253L231.735 94.1293L241.011 102.26C241.388 103.379 242.027 104.391 242.875 105.211V105.212Z" fill="#A0616A"/>
<path d="M223.779 42.461C223.779 42.461 210.902 41.934 210.384 47.9213C209.866 53.9086 218.669 80.6243 218.669 80.6243L236.43 101.768L242.684 95.674L225.748 72.0551L223.779 42.461Z" fill="#3F3D56"/>
<path d="M209.578 32.127C208.975 31.5029 206.387 30.8316 207.173 29.2622C207.431 28.7469 208.097 28.3951 208.64 28.4631C209.669 28.592 209.943 30.1905 210.399 30.1297C211.001 30.0494 211.172 27.177 211.245 24.0909C211.364 19.0754 211.105 18.5503 211.747 17.7805C212.337 17.0719 212.766 17.2654 219.373 16.2505C221.604 15.9078 222.331 15.7666 223.414 16.0837C225.472 16.6865 226.245 18.1925 227.057 17.8392C227.839 17.4989 228.027 15.7089 227.58 14.3392C226.94 12.3827 225.042 11.3983 223.717 10.7344C220.334 9.03944 217.882 9.5906 217.5 8.34656C217.214 7.41437 218.55 6.97431 218.675 5.08171C218.809 3.05235 217.402 1.58346 217.313 1.49278C216.429 0.597446 215.415 0.321577 214.974 0.207497C214.357 0.0477492 213.633 -0.139563 212.782 0.155071C212.611 0.214 211.562 0.594861 211.08 1.60717C210.619 2.57327 211.033 3.36393 210.683 3.52954C210.285 3.71752 209.776 2.68708 208.344 2.24426C208.042 2.15081 207.618 2.02421 207.076 2.08221C205.939 2.20394 205.222 3.03816 205.029 3.26264C204.529 3.84509 204.371 4.41882 204.053 5.5663C203.89 6.15691 203.701 6.8558 203.693 7.79688C203.687 8.42869 203.682 9.00348 203.912 9.64616C203.912 9.64619 204.286 10.6915 206.433 12.4725C206.433 12.4725 205.534 11.5801 205.091 11.694C204.334 11.889 201.394 12.8819 199.949 15.7421C199.296 17.0356 198.871 16.8357 198.357 18.1189C198.236 18.4209 197.35 20.731 198.325 23.1234C199.071 24.9532 200.053 24.7413 200.611 26.6027C200.878 27.4924 200.651 27.5327 201.013 29.993C201.221 31.4073 203.057 30.2819 203.375 30.8855C203.59 31.2934 200.36 43.2769 202.114 44.9366C203.834 46.5626 211.361 33.9713 209.578 32.127V32.127Z" fill="#2F2E41"/>
<path d="M211.107 81.416L200.351 48.7446C191.656 41.077 182.224 59.5382 156.902 49.0734L164.866 86.0298C184.011 75.6728 200.491 71.6163 211.107 81.416Z" fill="white"/>
<path d="M164.866 86.5122C164.798 86.5122 164.729 86.4976 164.665 86.4679C164.527 86.4045 164.427 86.2799 164.395 86.1315L156.431 49.175C156.393 48.9998 156.455 48.818 156.593 48.703C156.731 48.5881 156.92 48.5591 157.086 48.6274C171.471 54.5725 180.756 51.033 187.534 48.4484C192.688 46.4833 196.758 44.9327 200.67 48.3824C200.735 48.4392 200.783 48.512 200.81 48.5935L211.565 81.265C211.634 81.4737 211.553 81.7026 211.368 81.8216C211.183 81.9401 210.941 81.9193 210.781 81.7705C201.447 73.1546 186.93 74.642 165.096 86.4542C165.024 86.4928 164.946 86.5121 164.866 86.5121L164.866 86.5122ZM157.565 49.8607L165.203 85.301C186.153 74.0734 200.501 72.3431 210.111 79.9299L199.936 49.0215C196.488 46.0673 192.87 47.4471 187.878 49.35C181.081 51.9412 171.822 55.4715 157.565 49.8607V49.8607Z" fill="#3F3D56"/>
<path d="M143.932 52.5268L140.311 58.4623C140.311 58.4623 135.191 78.5988 140.311 78.6807C145.431 78.7626 155.767 68.4188 155.767 68.4188L154.419 63.0211L150.674 64.5203L151.423 52.5268H143.932V52.5268Z" fill="#A0616A"/>
<path d="M155.168 37.4402C155.168 37.4402 143.183 35.3272 142.06 43.1772C140.936 51.0273 140.311 58.462 140.311 58.462L153.296 59.5384L155.168 37.4402V37.4402Z" fill="#E6E6E6"/>
<path d="M160.037 66.5886C163.08 64.4201 164.668 61.4281 163.584 59.9058C162.501 58.3835 159.156 58.9073 156.114 61.0757C153.071 63.2442 151.483 66.2362 152.567 67.7585C153.65 69.2808 156.995 68.757 160.037 66.5886Z" fill="#A0616A"/>
<path d="M282.297 201.683C284.544 201.683 286.365 199.861 286.365 197.613C286.365 195.365 284.544 193.542 282.297 193.542C280.051 193.542 278.23 195.365 278.23 197.613C278.23 199.861 280.051 201.683 282.297 201.683Z" fill="#3F3D56"/>
<path d="M287.72 208C289.967 208 291.788 206.178 291.788 203.93C291.788 201.682 289.967 199.859 287.72 199.859C285.474 199.859 283.653 201.682 283.653 203.93C283.653 206.178 285.474 208 287.72 208Z" fill="#3F3D56"/>
<path d="M328.396 208C330.642 208 332.463 206.178 332.463 203.93C332.463 201.682 330.642 199.859 328.396 199.859C326.149 199.859 324.328 201.682 324.328 203.93C324.328 206.178 326.149 208 328.396 208Z" fill="#3F3D56"/>
<path d="M293.678 143.001V98.7912C293.678 93.8417 297.814 92.6189 302.76 92.6189C305.184 92.6189 306.363 92.3369 308.063 94.066C309.762 95.7951 311.656 96.5132 311.617 98.9386L310.905 142.32L293.678 143.001ZM303.242 95.5132C298.828 95.5132 294.642 94.3736 294.642 98.7912V141.998L309.956 141.392L310.653 98.9226C310.688 96.7582 307.17 97.0565 305.653 95.5132C304.135 93.9699 305.406 95.5132 303.242 95.5132Z" fill="#3F3D56"/>
<path d="M281.572 142.469L280.953 190.771C280.945 191.393 281.094 192.007 281.384 192.556L285.944 201.175C286.615 202.443 287.955 203.211 289.388 203.148L329.428 201.38C331.478 201.29 333.065 199.552 332.972 197.501L330.462 142.348C330.372 140.365 328.739 138.803 326.755 138.803H285.283C283.252 138.803 281.598 140.437 281.572 142.469Z" fill="#E6E6E6"/>
<path d="M297.354 164.267L296.391 164.219L296.748 157.07C296.941 153.219 300.108 150.133 303.96 150.043L321.012 149.647C324.456 149.586 327.306 152.201 327.497 155.645L327.86 162.181L326.897 162.235L326.535 155.698C326.373 152.778 323.938 150.541 321.034 150.612L303.983 151.008C300.633 151.086 297.878 153.77 297.711 157.118L297.354 164.267Z" fill="#3F3D56"/>
<path d="M296.674 198.891L295.715 198.793L297.794 178.502C298.179 174.75 301.308 171.793 305.073 171.624L321.704 170.878C323.799 170.783 325.79 171.526 327.312 172.968C328.835 174.41 329.686 176.359 329.708 178.456L329.894 196.123L328.93 196.133L328.744 178.467C328.725 176.633 327.981 174.929 326.65 173.669C325.319 172.409 323.572 171.759 321.747 171.842L305.116 172.588C301.825 172.736 299.09 175.32 298.753 178.6L296.674 198.891Z" fill="#3F3D56"/>
<path d="M289.219 197.491L288.255 197.479L288.865 151.112C288.907 147.941 291.42 145.384 294.587 145.291L327.364 144.325L327.393 145.29L294.616 146.256C291.966 146.334 289.864 148.472 289.829 151.124L289.219 197.491Z" fill="#3F3D56"/>
<path d="M289.306 190.884H288.635V148.655C288.635 147.319 287.551 146.229 286.211 146.229H282.465V145.264H286.211C287.98 145.264 289.436 146.629 289.585 148.356C289.595 148.453 289.6 148.554 289.6 148.655V168.65L289.306 190.884Z" fill="#3F3D56"/>
</svg>
