<svg width="309" height="224" viewBox="0 0 309 224" fill="none" xmlns="http://www.w3.org/2000/svg">
<path d="M194.637 222.59C194.637 222.59 189.865 210.845 204.18 202.036L194.637 222.59Z" fill="#E6E6E6"/>
<path d="M188.769 222.376C188.769 222.376 187.313 214.005 176.047 214.076L188.769 222.376Z" fill="#E6E6E6"/>
<path d="M296.392 222.59C296.392 222.59 290.088 207.073 309 195.435L296.392 222.59Z" fill="#E6E6E6"/>
<path d="M288.64 222.308C288.64 222.308 286.717 211.248 271.833 211.343L288.64 222.308Z" fill="#E6E6E6"/>
<path d="M180.8 67.188L174.575 63.8811L175.041 63.6334L181.266 66.9406L180.8 67.188Z" fill="#CBCBCB"/>
<path d="M175.37 67.188L174.904 66.9406L181.13 63.6334L181.595 63.8811L175.37 67.188Z" fill="#CBCBCB"/>
<path d="M129.034 41.5552L128.733 42.1415L130.492 43.0428L130.793 42.4564L129.034 41.5552Z" fill="#CBCBCB"/>
<path d="M165.497 60.9801L161.996 59.1864L162.297 58.6001L165.797 60.3938L165.497 60.9801ZM158.496 57.3926L154.995 55.5987L155.296 55.0124L158.796 56.8063L158.496 57.3926ZM151.495 53.805L147.994 52.0113L148.295 51.4249L151.795 53.2187L151.495 53.805ZM144.494 50.2175L140.993 48.4238L141.294 47.8374L144.794 49.6312L144.494 50.2175ZM137.493 46.63L133.992 44.8363L134.293 44.2499L137.793 46.0437L137.493 46.63Z" fill="#CBCBCB"/>
<path d="M169.298 62.1882L168.998 62.7745L170.756 63.6757L171.057 63.0894L169.298 62.1882Z" fill="#CBCBCB"/>
<path d="M36.5074 85.6536C36.5074 85.8593 36.5008 86.0634 36.4874 86.2657C36.4127 87.4325 36.1179 88.5747 35.6186 89.632C35.6148 89.641 35.6102 89.6494 35.6064 89.6578C35.5831 89.7068 35.5593 89.7558 35.5348 89.8042C35.3863 90.1032 35.2215 90.3939 35.0413 90.675C34.2181 91.9651 33.0898 93.0327 31.756 93.7833C30.4223 94.5338 28.9242 94.9443 27.3941 94.9785L27.4864 100.283L28.6893 99.6496L28.9041 100.058L27.4954 100.8L27.6676 110.651L27.6695 110.783L26.7394 110.99L26.7414 110.858L27.0342 94.9791C25.8027 94.9614 24.5869 94.6993 23.4575 94.2079C22.3281 93.7165 21.3075 93.0056 20.4551 92.1166C20.3964 92.0559 20.3384 91.9934 20.2816 91.9315L20.2752 91.9243C19.565 91.1498 18.9906 90.261 18.5762 89.2953C18.5853 89.3056 18.5949 89.3153 18.604 89.3256C17.6675 87.1358 17.604 84.6708 18.4264 82.4356C19.2489 80.2005 20.895 78.3645 23.0274 77.3039C23.0597 77.2878 23.0926 77.2723 23.1248 77.2562C25.2342 76.2402 27.6483 76.0538 29.8887 76.7339C32.129 77.414 34.0321 78.911 35.2206 80.9282C35.2774 81.0237 35.3323 81.1211 35.3851 81.2191C36.1234 82.5805 36.5093 84.1049 36.5074 85.6536Z" fill="#E5E5E5"/>
<path d="M35.2518 89.6629C42.0037 89.6629 47.4772 84.1894 47.4772 77.4375C47.4772 70.6855 42.0037 65.212 35.2518 65.212C28.4999 65.212 23.0264 70.6855 23.0264 77.4375C23.0264 84.1894 28.4999 89.6629 35.2518 89.6629Z" fill="#E5E5E5"/>
<path opacity="0.2" d="M26.2252 69.2718C25.0848 71.9393 24.9301 74.9254 25.7888 77.6965C26.6474 80.4675 28.4633 82.843 30.9122 84.3984C33.361 85.9538 36.2831 86.5878 39.1563 86.187C42.0295 85.7863 44.6666 84.377 46.5964 82.2109C45.8998 83.8406 44.8572 85.2994 43.5408 86.4862C42.2244 87.6729 40.6658 88.5593 38.9728 89.0839C37.2799 89.6085 35.4931 89.7588 33.7363 89.5243C31.9795 89.2898 30.2947 88.6762 28.7986 87.7259C27.3026 86.7756 26.031 85.5115 25.0719 84.021C24.1129 82.5305 23.4894 80.8493 23.2446 79.0939C22.9998 77.3386 23.1396 75.551 23.6543 73.855C24.1689 72.159 25.0462 70.5951 26.2252 69.2718Z" fill="black"/>
<path d="M35.9131 111.495L34.6646 111.145L34.6672 111.011L35.0413 90.6752L35.06 89.6612L35.0604 89.6316L35.1259 86.0786L35.2206 80.929V80.9283L35.2849 77.4377H35.3193L35.3852 81.2194L35.4709 86.1415L35.5322 89.6339V89.6597L35.5348 89.8037V89.8045L35.6535 96.6124L35.6658 97.2889L35.9109 111.36L35.9131 111.495Z" fill="#3F3D56"/>
<path d="M37.2299 95.7818L35.209 96.8458L35.4906 97.3807L37.5115 96.3167L37.2299 95.7818Z" fill="#3F3D56"/>
<path d="M193.729 37.8713C178.299 36.9591 162.822 37.197 147.426 38.5831C140.006 39.2538 132.468 39.9783 125.185 41.5969C119.319 42.9006 112.51 45.1041 108.855 50.2364C108.089 51.2705 107.574 52.4677 107.348 53.7343C107.122 55.0009 107.192 56.3026 107.553 57.5376C108.424 60.4633 110.592 62.8987 112.901 64.8061C118.215 69.1962 124.809 71.7509 130.698 75.2387C141.452 81.6068 151.293 90.1901 157.61 101.094C160.39 105.892 163.034 112.271 159.939 117.558C156.907 122.738 150.137 124.522 144.617 125.363C137.698 126.418 130.571 126.132 123.623 125.541C116.005 124.831 108.43 123.722 100.929 122.218C86.2342 119.396 71.6728 115.807 56.7735 114.174C49.3028 113.296 41.7692 113.078 34.2603 113.523C27.4789 113.981 20.6393 115.053 14.2687 117.499C9.35956 119.383 4.12667 122.234 1.47495 126.988C-1.08119 131.571 -0.0842154 136.856 2.69911 141.085C6.04801 146.172 11.2701 149.659 16.6995 152.207C22.8812 155.108 29.4932 156.989 36.1136 158.588C39.4713 159.399 42.8471 160.133 46.2233 160.862C46.9276 161.014 47.2285 159.932 46.5217 159.78C39.7134 158.309 32.8854 156.833 26.2461 154.703C20.1022 152.732 13.8147 150.208 8.78343 146.069C4.71309 142.722 0.843035 137.832 1.08328 132.272C1.32548 126.667 6.02797 122.754 10.6371 120.345C16.3971 117.335 22.9414 115.869 29.3539 115.102C36.6965 114.284 44.1013 114.183 51.4633 114.802C66.3276 115.933 80.8596 119.319 95.4335 122.272C109.592 125.141 124.192 127.798 138.701 127.062C144.452 126.77 150.614 125.946 155.692 123.043C158.017 121.714 160.113 119.84 161.295 117.401C162.359 115.08 162.696 112.491 162.26 109.976C161.437 104.449 158.154 99.325 154.879 94.9232C151.289 90.1488 147.125 85.8349 142.48 82.0789C137.382 77.9763 131.886 74.3957 126.073 71.3908C122.991 69.7679 119.864 68.2074 116.927 66.3277C114.11 64.5254 111.332 62.3568 109.612 59.431C108.124 56.9004 107.851 54.0123 109.401 51.4457C110.968 48.8499 113.668 47.0394 116.331 45.7164C122.746 42.5288 130.205 41.6755 137.224 40.8012C152.295 38.9304 167.483 38.1731 182.666 38.5355C186.356 38.6223 190.044 38.7751 193.729 38.9938C194.451 39.0362 194.449 37.9136 193.729 37.8713V37.8713Z" fill="black"/>
<path d="M183.94 1.89025L186.271 0.0260468C184.461 -0.173726 183.717 0.813798 183.412 1.59543C181.997 1.00803 180.458 1.77784 180.458 1.77784L185.121 3.47087C184.886 2.84247 184.476 2.29417 183.94 1.89025Z" fill="#3F3D56"/>
<path d="M172.629 7.79241L174.96 5.92821C173.149 5.72844 172.405 6.71595 172.101 7.49758C170.686 6.91019 169.146 7.68001 169.146 7.68001L173.81 9.37303C173.574 8.74463 173.165 8.19633 172.629 7.79241Z" fill="#3F3D56"/>
<path d="M183.94 17.1369L186.271 15.2727C184.461 15.0729 183.717 16.0604 183.412 16.842C181.997 16.2546 180.458 17.0245 180.458 17.0245L185.121 18.7175C184.886 18.0891 184.476 17.5408 183.94 17.1369Z" fill="#3F3D56"/>
<path d="M148.999 19.8982C152.877 19.8982 156.021 16.7542 156.021 12.8758C156.021 8.99739 152.877 5.85333 148.999 5.85333C145.12 5.85333 141.976 8.99739 141.976 12.8758C141.976 16.7542 145.12 19.8982 148.999 19.8982Z" fill="#FF6583"/>
<path d="M171.019 34.5157H136.569C136.526 34.5162 136.483 34.5128 136.44 34.5055L152.734 6.28461C152.834 6.10881 152.978 5.96256 153.152 5.8608C153.327 5.75903 153.525 5.70541 153.727 5.70541C153.929 5.70541 154.127 5.75903 154.302 5.8608C154.476 5.96256 154.62 6.10881 154.72 6.28461L165.654 25.2223L166.178 26.1284L171.019 34.5157Z" fill="#FB8C00"/>
<path d="M190.2 34.5157H160.404L166.177 26.1291L166.593 25.5247L174.116 14.5955C174.249 14.4283 174.416 14.2909 174.606 14.1924C174.795 14.0939 175.004 14.0364 175.217 14.0236C175.43 14.0109 175.644 14.0432 175.844 14.1185C176.044 14.1937 176.226 14.3103 176.378 14.4605C176.417 14.5031 176.453 14.5482 176.486 14.5955L190.2 34.5157Z" fill="#FB8C00"/>
<path d="M141.049 99.2408C144.315 100.873 146.303 103.028 146.303 105.393C146.303 110.486 137.086 114.615 125.718 114.615C120.775 114.615 116.241 113.833 112.692 112.533C116.461 114.416 121.932 115.603 128.023 115.603C139.392 115.603 148.608 111.474 148.608 106.381C148.608 103.502 145.662 100.932 141.049 99.2408Z" fill="#F1F1F1"/>
<path d="M148.313 102.74C151.997 104.581 154.241 107.013 154.241 109.681C154.241 115.428 143.841 120.087 131.013 120.087C125.436 120.087 120.319 119.206 116.315 117.738C120.568 119.863 126.742 121.202 133.615 121.202C146.443 121.202 156.842 116.543 156.842 110.796C156.842 107.548 153.518 104.648 148.313 102.74Z" fill="#F1F1F1"/>
<path d="M138.27 100.782C140.57 101.932 141.971 103.451 141.971 105.116C141.971 108.704 135.478 111.613 127.468 111.613C124.348 111.654 121.244 111.157 118.292 110.146C120.947 111.474 124.801 112.309 129.093 112.309C137.102 112.309 143.595 109.401 143.595 105.812C143.595 103.784 141.52 101.974 138.27 100.782Z" fill="#F1F1F1"/>
<path d="M105.946 100.123C105.946 100.123 106.451 107.512 120.943 107.512C135.434 107.512 139.761 100.123 139.761 100.123H105.946Z" fill="#3F3D56"/>
<path d="M126.515 80.7356C124.423 79.1463 121.797 78.428 119.187 78.7312C121.519 79.2934 123.579 80.6592 125.005 82.5886C126.43 84.5181 127.131 86.888 126.983 89.2825C126.836 91.677 125.85 93.943 124.198 95.6829C122.546 97.4228 120.335 98.5254 117.951 98.7971C120.231 99.3475 122.631 99.0961 124.747 98.0852C126.864 97.0744 128.568 95.3656 129.573 93.2463C130.577 91.127 130.822 88.7264 130.265 86.448C129.708 84.1696 128.384 82.1524 126.515 80.7356Z" fill="#3F3D56"/>
<path d="M121.766 77.3975H120.778V100.917H121.766V77.3975Z" fill="#3F3D56"/>
<path d="M186.7 59.9234L186.695 59.9144L186.682 59.3399L189.777 54.8457L186.685 58.9099L186.674 59.0313L186.568 54.4377L189.242 49.7783L186.561 53.6307L186.589 44.114L186.589 44.0823L186.588 44.1135L186.41 51.6139L183.974 48.5673L186.402 52.2601L186.349 56.369L184.107 52.3589L186.341 56.973L186.311 59.2578L186.229 65.5876L186.223 66.0606C186.43 66.0621 186.634 66.0587 186.837 66.0502L186.696 59.9704L186.7 59.9234Z" fill="#CBCBCB"/>
<path d="M171.88 61.8994L171.874 61.8903L171.861 61.3158L174.956 56.8217L171.865 60.8858L171.853 61.0073L171.748 56.4137L174.421 51.7543L171.74 55.6067L171.768 46.0899L171.768 46.0583L171.767 46.0894L171.59 53.5899L169.153 50.5432L171.582 54.2361L171.528 58.3449L169.286 54.3348L171.52 58.949L171.49 61.2337L171.409 67.5635L171.403 68.0365C171.609 68.0381 171.814 68.0346 172.016 68.0262L171.876 61.9463L171.88 61.8994Z" fill="#CBCBCB"/>
<path d="M179.126 55.6413L179.12 55.6322L179.107 55.0577L182.202 50.5635L179.111 54.6277L179.1 54.7491L178.994 50.1555L181.667 45.4961L178.986 49.3486L179.014 39.8318L179.014 39.8001L179.013 39.8313L178.836 47.3318L176.399 44.2851L178.828 47.9779L178.775 52.0868L176.532 48.0767L178.766 52.6909L178.737 54.9756L178.655 61.3054L178.649 61.7784C178.855 61.7799 179.06 61.7765 179.262 61.7681L179.122 55.6882L179.126 55.6413Z" fill="#CBCBCB"/>
<path d="M56.7188 165.006C58.9016 165.006 60.671 163.236 60.671 161.053C60.671 158.871 58.9016 157.101 56.7188 157.101C54.5361 157.101 52.7666 158.871 52.7666 161.053C52.7666 163.236 54.5361 165.006 56.7188 165.006Z" fill="#FB8C00"/>
<path d="M265.362 215.504L261.703 216.863L254.718 203.397L260.118 201.391L265.362 215.504Z" fill="#FFB7B7"/>
<path d="M267.613 218.704L255.815 223.087L255.759 222.938C255.307 221.72 255.357 220.372 255.898 219.191C256.439 218.01 257.427 217.092 258.645 216.64L258.645 216.64L265.851 213.962L267.613 218.704Z" fill="#2F2E41"/>
<path d="M229.353 219.304L225.45 219.304L223.593 204.248L229.354 204.248L229.353 219.304Z" fill="#FFB7B7"/>
<path d="M230.031 223.087L217.445 223.087V222.928C217.445 221.628 217.961 220.382 218.88 219.464C219.798 218.545 221.044 218.029 222.344 218.029H222.344L230.031 218.029L230.031 223.087Z" fill="#2F2E41"/>
<path d="M247.225 114.886L245.951 112.339L235.126 117.752L235.444 119.981L233.375 122.687C233.375 122.687 229.873 124.597 230.509 130.965L231.146 137.014L231.942 144.814L226.37 164.076L223.505 189.547L221.436 210.083L231.465 209.605L240.698 176.175L256.935 212.152L268.079 209.287L252.796 173.628L250.886 158.664C250.886 158.664 252.159 150.704 246.11 145.292L247.065 142.426V138.895L250.249 122.05L247.225 114.886Z" fill="#2F2E41"/>
<path opacity="0.2" d="M247.522 151.291L240.518 176.124L240.878 176.226L247.882 151.392L247.522 151.291Z" fill="black"/>
<path d="M246.906 144.815H231.305V146.407H246.906V144.815Z" fill="#3F3D56"/>
<path d="M231.305 147.361C231.657 147.361 231.942 146.649 231.942 145.77C231.942 144.89 231.657 144.178 231.305 144.178C230.954 144.178 230.668 144.89 230.668 145.77C230.668 146.649 230.954 147.361 231.305 147.361Z" fill="#3F3D56"/>
<path d="M242.411 110.769C246.524 108.52 248.035 103.364 245.787 99.2513C243.539 95.1386 238.382 93.6272 234.27 95.8754C230.157 98.1235 228.646 103.28 230.894 107.393C233.142 111.505 238.299 113.017 242.411 110.769Z" fill="#FFB7B7"/>
<path d="M251.327 100.293C255.474 100.293 258.835 96.9316 258.835 92.7851C258.835 88.6387 255.474 85.2773 251.327 85.2773C247.181 85.2773 243.819 88.6387 243.819 92.7851C243.819 96.9316 247.181 100.293 251.327 100.293Z" fill="#2F2E41"/>
<path d="M260.855 91.9808C261.151 92.9755 261.238 94.0209 261.109 95.0508C260.981 96.0808 260.641 97.073 260.11 97.9647C259.578 98.8565 258.868 99.6284 258.024 100.232C257.179 100.835 256.219 101.257 255.203 101.471C254.188 101.684 253.139 101.685 252.123 101.472C251.107 101.26 250.146 100.839 249.301 100.237C248.455 99.6346 247.744 98.8635 247.212 97.9724C246.68 97.0812 246.338 96.0895 246.209 95.0597C246.747 96.8658 247.944 98.4037 249.564 99.3678C251.183 100.332 253.105 100.652 254.95 100.264C256.794 99.8766 258.425 98.8095 259.519 97.275C260.613 95.7404 261.09 93.8506 260.855 91.9808Z" fill="#2F2E41"/>
<path d="M231.194 100.966C230.974 102.907 231.4 104.866 232.406 106.54C233.412 108.214 234.942 109.509 236.759 110.226C238.576 110.942 240.579 111.039 242.457 110.501C244.334 109.964 245.983 108.822 247.146 107.253C248.309 105.684 248.922 103.775 248.89 101.822C248.858 99.8694 248.183 97.9816 246.969 96.4513C245.755 94.921 244.071 93.8338 242.177 93.358C240.282 92.8822 238.284 93.0445 236.491 93.8196C235.009 92.6239 233.17 92.9945 231.676 94.2565C229.986 95.6833 229.484 96.6635 228.174 99.01C229.463 99.191 229.905 100.785 231.194 100.966Z" fill="#2F2E41"/>
<path d="M262.39 126.488C262.295 129.003 262.106 133.954 262.106 134.206C262.106 134.472 258.353 142.243 256.732 145.588V145.589C256.617 145.825 256.513 146.039 256.422 146.227C256.296 146.487 256.099 146.705 255.853 146.856C255.608 147.007 255.324 147.084 255.036 147.078L247.95 146.951C247.561 146.945 247.189 146.788 246.912 146.513C246.636 146.239 246.476 145.869 246.466 145.479L245.676 114.306C245.673 114.203 245.691 114.101 245.729 114.005C245.766 113.909 245.823 113.822 245.894 113.749C245.966 113.675 246.052 113.616 246.147 113.576C246.241 113.536 246.343 113.516 246.446 113.516H255.584C255.97 113.516 256.348 113.625 256.675 113.83C257.002 114.035 257.264 114.328 257.432 114.676L261.818 123.749C262.229 124.602 262.425 125.542 262.39 126.488V126.488Z" fill="#FB8C00"/>
<path d="M246.343 143.34C244.525 142.239 242.891 140.858 241.501 139.249C238.273 135.618 236.309 131.037 235.906 126.195C235.545 122.052 236.367 118.973 238.349 117.042C240.868 114.588 244.296 114.945 244.441 114.961L244.594 114.978L246.917 116.944L246.26 117.72L244.181 115.962C243.545 115.93 240.948 115.923 239.051 117.779C237.305 119.487 236.587 122.289 236.919 126.107C237.303 130.717 239.168 135.08 242.235 138.543C243.559 140.073 245.11 141.391 246.834 142.449L246.343 143.34Z" fill="#FB8C00"/>
<path d="M259.529 131.497L247.148 134.04L247.216 134.372L259.597 131.829L259.529 131.497Z" fill="#3F3D56"/>
<path d="M251.368 113.509L251.029 113.522L251.833 133.222L252.172 133.208L251.368 113.509Z" fill="#3F3D56"/>
<path d="M262.39 126.488C262.295 129.003 262.106 133.953 262.106 134.206C262.106 134.472 258.353 142.243 256.732 145.587L259.754 128.039C259.871 127.364 260.165 126.732 260.606 126.208C261.048 125.684 261.62 125.286 262.266 125.056C262.367 125.526 262.409 126.007 262.39 126.488Z" fill="#3F3D56"/>
<path d="M243.821 163.263C244.089 162.918 244.278 162.519 244.374 162.093C244.471 161.668 244.473 161.226 244.38 160.8C244.288 160.373 244.103 159.972 243.838 159.625C243.574 159.277 243.237 158.992 242.85 158.789L243.465 151.995L239.427 150.615L238.694 160.222C238.396 160.894 238.355 161.651 238.579 162.351C238.802 163.051 239.275 163.645 239.907 164.02C240.539 164.395 241.287 164.525 242.008 164.385C242.729 164.246 243.375 163.847 243.821 163.263Z" fill="#FFB7B7"/>
<path d="M244.349 156.689L237.194 156.429L237.497 121.923C237.491 120.947 237.793 119.993 238.36 119.198C238.926 118.402 239.728 117.805 240.652 117.49C241.516 117.203 242.449 117.202 243.313 117.488C244.293 117.82 245.135 118.468 245.706 119.332C246.276 120.195 246.543 121.224 246.464 122.255L244.349 156.689Z" fill="#CBCBCB"/>
<path d="M307.119 223.205H164.563C164.464 223.205 164.369 223.165 164.299 223.095C164.228 223.025 164.189 222.93 164.189 222.831C164.189 222.731 164.228 222.636 164.299 222.566C164.369 222.496 164.464 222.456 164.563 222.456H307.119C307.218 222.456 307.313 222.496 307.383 222.566C307.453 222.636 307.493 222.731 307.493 222.831C307.493 222.93 307.453 223.025 307.383 223.095C307.313 223.165 307.218 223.205 307.119 223.205Z" fill="#CBCBCB"/>
</svg>
