<svg width="328" height="251" viewBox="0 0 328 251" fill="none" xmlns="http://www.w3.org/2000/svg">
<path d="M65.4726 187.943C65.209 187.498 64.0682 187.974 63.8584 187.571C63.6495 187.169 64.7094 186.556 65.3149 185.157C65.4241 184.904 66.1123 183.314 65.6028 182.823C64.6372 181.893 60.2185 185.732 58.6721 184.475C58.3327 184.2 58.0956 183.649 57.0685 182.756C56.6599 182.4 56.4128 182.24 56.1737 182.3C55.8344 182.384 55.8075 182.838 55.4437 183.731C54.8981 185.07 54.5753 184.989 54.2574 186.058C54.0214 186.851 54.0753 187.312 53.7976 187.402C53.4046 187.529 53.0429 186.688 52.5449 186.763C52.0367 186.84 51.7294 187.819 51.6324 188.553C51.4503 189.929 51.9556 190.837 52.2357 191.792C52.5401 192.829 52.7208 194.407 52.0178 196.641L45.0601 216.245C46.5961 212.222 51.0437 201.195 52.9126 197.098C53.4521 195.915 54.0478 194.715 55.271 194.241C56.4486 193.785 58.0659 194.058 60.1278 193.561C60.3686 193.503 61.0368 193.333 61.1209 192.94C61.1904 192.615 60.7974 192.433 60.8578 192.129C60.9388 191.721 61.7117 191.716 62.6616 191.245C63.3313 190.913 63.7486 190.518 64.1074 190.178C64.2156 190.076 65.8237 188.535 65.4727 187.943H65.4726Z" fill="#F2F2F2"/>
<path d="M38.0985 198.263C37.8042 198.264 37.7087 198.961 37.4502 198.948C37.1925 198.934 37.1977 198.237 36.6855 197.536C36.5931 197.41 36.0111 196.613 35.6232 196.722C34.8881 196.927 35.4972 200.203 34.4345 200.6C34.2012 200.687 33.8627 200.645 33.1278 200.891C32.8354 200.989 32.6853 201.064 32.6457 201.198C32.5893 201.389 32.8045 201.534 33.1377 201.97C33.6375 202.624 33.5047 202.759 33.9373 203.223C34.2585 203.568 34.5003 203.675 34.4643 203.837C34.4133 204.066 33.896 204.001 33.7893 204.267C33.6804 204.539 34.0725 204.972 34.4044 205.232C35.0273 205.718 35.6187 205.732 36.1682 205.87C36.7653 206.02 37.592 206.387 38.4856 207.376L46.0996 216.447C44.5685 214.533 40.4396 209.168 38.9677 207.069C38.5428 206.463 38.1258 205.824 38.2463 205.087C38.3623 204.378 38.9625 203.662 39.3136 202.507C39.3546 202.372 39.464 201.995 39.2954 201.84C39.1559 201.712 38.9535 201.853 38.8216 201.736C38.6446 201.578 38.8652 201.197 38.9081 200.595C38.9383 200.171 38.8649 199.852 38.8017 199.578C38.7827 199.495 38.4903 198.261 38.0985 198.263V198.263Z" fill="#F2F2F2"/>
<path d="M43.9703 199.581L43.793 197.998L43.874 197.878C44.2489 197.323 44.44 196.781 44.4423 196.267C44.4426 196.185 44.4388 196.103 44.435 196.02C44.4197 195.69 44.4006 195.279 44.6146 194.801C44.7346 194.534 45.0717 193.917 45.5784 193.993C45.7149 194.012 45.8181 194.075 45.8964 194.148C45.9079 194.13 45.9197 194.111 45.9323 194.092C46.0902 193.851 46.2151 193.748 46.3355 193.648C46.428 193.572 46.5235 193.493 46.6733 193.307C46.7391 193.225 46.7903 193.153 46.8335 193.093C46.9645 192.91 47.1358 192.692 47.4377 192.696C47.7602 192.711 47.9291 192.978 48.0411 193.154C48.241 193.469 48.3316 193.696 48.3916 193.847C48.4133 193.902 48.4382 193.964 48.4508 193.983C48.5547 194.136 49.3997 193.993 49.718 193.941C50.4331 193.822 51.0518 193.719 51.3067 194.17C51.4894 194.492 51.3537 194.919 50.8913 195.471C50.7472 195.643 50.594 195.774 50.4579 195.876C50.5706 195.944 50.6715 196.047 50.7124 196.209C50.8087 196.592 50.4789 196.977 49.7326 197.353C49.5472 197.447 49.2977 197.572 48.948 197.633C48.7833 197.661 48.635 197.668 48.5081 197.672C48.5054 197.745 48.4882 197.825 48.4435 197.906C48.3124 198.147 48.0396 198.262 47.6284 198.234C47.1759 198.211 46.8033 198.124 46.4746 198.048C46.1876 197.983 45.9403 197.927 45.7462 197.94C45.3862 197.969 45.1088 198.257 44.7832 198.631L43.9703 199.581Z" fill="#F2F2F2"/>
<path d="M44.7927 190.156L43.3065 190.729L43.1699 190.681C42.5381 190.459 41.9654 190.412 41.4673 190.54C41.3881 190.561 41.3099 190.585 41.2303 190.61C40.9148 190.708 40.5226 190.831 40.0055 190.745C39.7171 190.697 39.0342 190.528 38.9796 190.018C38.9635 189.881 38.9979 189.766 39.049 189.671C39.0284 189.665 39.0076 189.658 38.9852 189.651C38.7123 189.559 38.5808 189.464 38.4541 189.373C38.3567 189.303 38.2563 189.231 38.0379 189.133C37.9422 189.09 37.8597 189.059 37.7903 189.032C37.5804 188.952 37.3262 188.842 37.2533 188.549C37.1863 188.233 37.4015 188.002 37.5439 187.849C37.7978 187.575 37.9944 187.43 38.1248 187.334C38.1725 187.299 38.2261 187.259 38.2414 187.242C38.3629 187.103 38.0103 186.322 37.8793 186.027C37.5826 185.366 37.3258 184.793 37.6974 184.432C37.963 184.174 38.41 184.197 39.0618 184.504C39.2647 184.6 39.43 184.715 39.5636 184.82C39.6001 184.694 39.6743 184.571 39.8207 184.49C40.1674 184.299 40.6229 184.521 41.176 185.148C41.3139 185.303 41.4985 185.513 41.6456 185.836C41.7147 185.988 41.759 186.129 41.7949 186.251C41.8665 186.235 41.9478 186.232 42.0382 186.254C42.3044 186.32 42.4845 186.555 42.5622 186.959C42.654 187.403 42.665 187.785 42.6752 188.123C42.6844 188.417 42.6931 188.67 42.7549 188.855C42.8743 189.196 43.2234 189.391 43.6676 189.611L44.7927 190.156L44.7927 190.156Z" fill="#F2F2F2"/>
<path d="M43.9703 185.493L43.793 183.91L43.874 183.79C44.2489 183.235 44.44 182.693 44.4423 182.179C44.4426 182.097 44.4388 182.015 44.435 181.932C44.4197 181.602 44.4006 181.191 44.6146 180.713C44.7346 180.446 45.0717 179.828 45.5784 179.905C45.7149 179.924 45.8181 179.987 45.8964 180.06C45.9079 180.042 45.9197 180.023 45.9323 180.004C46.0902 179.763 46.2151 179.66 46.3355 179.56C46.428 179.484 46.5235 179.405 46.6733 179.219C46.7391 179.137 46.7903 179.065 46.8335 179.005C46.9645 178.822 47.1358 178.604 47.4377 178.608C47.7602 178.623 47.9291 178.89 48.0411 179.066C48.241 179.381 48.3316 179.608 48.3916 179.759C48.4133 179.814 48.4382 179.876 48.4508 179.895C48.5547 180.048 49.3997 179.905 49.718 179.853C50.4331 179.734 51.0518 179.631 51.3067 180.081C51.4894 180.404 51.3537 180.831 50.8913 181.383C50.7472 181.555 50.594 181.686 50.4579 181.788C50.5706 181.855 50.6715 181.959 50.7124 182.121C50.8087 182.504 50.4789 182.889 49.7326 183.265C49.5472 183.359 49.2977 183.484 48.948 183.545C48.7833 183.573 48.635 183.58 48.5081 183.584C48.5054 183.657 48.4882 183.737 48.4435 183.818C48.3124 184.059 48.0396 184.174 47.6284 184.146C47.1759 184.123 46.8033 184.036 46.4746 183.96C46.1876 183.895 45.9403 183.839 45.7462 183.852C45.3862 183.881 45.1088 184.169 44.7832 184.543L43.9703 185.493Z" fill="#F2F2F2"/>
<path d="M45.5898 216.219L45.2581 216.011L45.1778 215.628L45.2581 216.011L44.8713 216.055C44.8652 216.019 44.8442 215.937 44.8125 215.808C44.6394 215.1 44.1116 212.946 43.6713 209.554C43.3641 207.186 43.1902 204.752 43.1543 202.317C43.1184 199.879 43.2338 198.033 43.3262 196.55C43.3962 195.431 43.481 194.365 43.5643 193.327C43.786 190.554 43.995 187.935 43.8395 185.035C43.8051 184.388 43.7329 183.04 42.9456 181.606C42.4889 180.775 41.8599 180.036 41.0757 179.413L41.5633 178.8C42.4289 179.489 43.1248 180.307 43.632 181.23C44.5048 182.82 44.5836 184.288 44.6214 184.994C44.7796 187.945 44.5683 190.589 44.3443 193.389C44.2618 194.423 44.1769 195.484 44.1074 196.598C44.0157 198.068 43.9014 199.898 43.9369 202.305C43.9721 204.71 44.1441 207.115 44.4471 209.453C44.882 212.802 45.4022 214.924 45.573 215.621C45.6639 215.993 45.6831 216.071 45.5898 216.219H45.5898Z" fill="#F2F2F2"/>
<path d="M39.6401 180.656C39.608 180.656 39.5755 180.655 39.5426 180.653C38.8761 180.617 38.259 180.218 37.7079 179.468C37.4495 179.115 37.3173 178.712 37.0536 177.908C37.0127 177.785 36.814 177.156 36.6932 176.292C36.6141 175.727 36.6241 175.491 36.736 175.282C36.8602 175.05 37.0612 174.888 37.2875 174.779C37.2776 174.704 37.2856 174.626 37.3181 174.548C37.4514 174.221 37.8061 174.264 37.9979 174.285C38.095 174.297 38.2161 174.313 38.3468 174.306C38.5524 174.296 38.6629 174.235 38.8303 174.143C38.9904 174.055 39.1895 173.946 39.4849 173.886C40.0674 173.764 40.5554 173.929 40.7163 173.984C41.5628 174.266 41.9801 174.924 42.4631 175.686C42.5594 175.839 42.89 176.395 43.1082 177.158C43.2657 177.708 43.2435 177.953 43.1961 178.135C43.0998 178.508 42.8724 178.722 42.295 179.195C41.6919 179.689 41.3893 179.937 41.1294 180.088C40.5244 180.437 40.1445 180.656 39.6401 180.656Z" fill="#F2F2F2"/>
<path d="M288.415 188.444C288.151 187.999 287.01 188.475 286.8 188.072C286.591 187.67 287.651 187.057 288.257 185.658C288.366 185.405 289.054 183.815 288.545 183.324C287.579 182.394 283.16 186.233 281.614 184.976C281.275 184.701 281.038 184.15 280.01 183.257C279.602 182.901 279.355 182.741 279.116 182.801C278.776 182.885 278.749 183.339 278.386 184.232C277.84 185.571 277.517 185.49 277.199 186.559C276.963 187.352 277.017 187.813 276.739 187.903C276.347 188.03 275.985 187.189 275.487 187.264C274.979 187.341 274.671 188.32 274.574 189.054C274.392 190.43 274.897 191.338 275.178 192.293C275.482 193.33 275.663 194.908 274.96 197.142L268.002 216.746C269.538 212.723 273.986 201.696 275.855 197.599C276.394 196.416 276.99 195.216 278.213 194.742C279.39 194.286 281.008 194.559 283.07 194.062C283.31 194.004 283.979 193.834 284.063 193.441C284.132 193.116 283.739 192.934 283.8 192.63C283.881 192.222 284.654 192.217 285.603 191.746C286.273 191.414 286.69 191.019 287.049 190.679C287.157 190.577 288.766 189.036 288.415 188.444Z" fill="#F2F2F2"/>
<path d="M261.04 198.764C260.746 198.765 260.651 199.462 260.392 199.449C260.134 199.435 260.14 198.738 259.627 198.037C259.535 197.911 258.953 197.114 258.565 197.223C257.83 197.428 258.439 200.704 257.376 201.101C257.143 201.188 256.805 201.146 256.07 201.392C255.777 201.49 255.627 201.565 255.588 201.699C255.531 201.89 255.746 202.035 256.08 202.471C256.579 203.125 256.447 203.26 256.879 203.724C257.2 204.069 257.442 204.176 257.406 204.338C257.355 204.567 256.838 204.502 256.731 204.768C256.622 205.04 257.014 205.473 257.346 205.733C257.969 206.219 258.561 206.233 259.11 206.371C259.707 206.521 260.534 206.888 261.427 207.877L269.041 216.948C267.51 215.034 263.382 209.669 261.91 207.57C261.485 206.964 261.068 206.325 261.188 205.588C261.304 204.879 261.904 204.163 262.256 203.008C262.297 202.873 262.406 202.496 262.237 202.341C262.098 202.213 261.895 202.354 261.763 202.237C261.586 202.079 261.807 201.698 261.85 201.096C261.88 200.672 261.807 200.353 261.744 200.079C261.725 199.996 261.432 198.762 261.04 198.764V198.764Z" fill="#F2F2F2"/>
<path d="M266.912 200.082L266.735 198.499L266.816 198.379C267.191 197.824 267.382 197.282 267.384 196.768C267.385 196.686 267.381 196.604 267.377 196.521C267.362 196.191 267.342 195.78 267.556 195.302C267.676 195.035 268.014 194.418 268.52 194.494C268.657 194.513 268.76 194.576 268.838 194.649C268.85 194.631 268.862 194.612 268.874 194.593C269.032 194.352 269.157 194.249 269.277 194.149C269.37 194.073 269.465 193.994 269.615 193.808C269.681 193.726 269.732 193.654 269.775 193.594C269.906 193.411 270.078 193.193 270.38 193.197C270.702 193.212 270.871 193.479 270.983 193.656C271.183 193.97 271.273 194.197 271.333 194.348C271.355 194.403 271.38 194.465 271.393 194.484C271.497 194.637 272.342 194.494 272.66 194.442C273.375 194.323 273.994 194.22 274.249 194.671C274.431 194.993 274.296 195.42 273.833 195.972C273.689 196.144 273.536 196.275 273.4 196.377C273.513 196.445 273.613 196.548 273.654 196.71C273.751 197.093 273.421 197.478 272.674 197.854C272.489 197.948 272.24 198.073 271.89 198.134C271.725 198.162 271.577 198.169 271.45 198.173C271.447 198.246 271.43 198.326 271.385 198.407C271.254 198.648 270.981 198.763 270.57 198.735C270.118 198.712 269.745 198.625 269.417 198.549C269.13 198.484 268.882 198.428 268.688 198.441C268.328 198.47 268.051 198.758 267.725 199.132L266.912 200.082Z" fill="#F2F2F2"/>
<path d="M267.735 190.657L266.248 191.23L266.112 191.182C265.48 190.96 264.907 190.913 264.409 191.041C264.33 191.062 264.252 191.086 264.172 191.111C263.857 191.21 263.465 191.332 262.947 191.246C262.659 191.198 261.976 191.029 261.921 190.519C261.905 190.382 261.94 190.267 261.991 190.172C261.97 190.166 261.95 190.159 261.927 190.152C261.654 190.06 261.523 189.965 261.396 189.874C261.299 189.804 261.198 189.732 260.98 189.634C260.884 189.591 260.802 189.56 260.732 189.533C260.522 189.453 260.268 189.343 260.195 189.05C260.128 188.734 260.343 188.503 260.486 188.35C260.74 188.076 260.936 187.931 261.067 187.835C261.114 187.8 261.168 187.76 261.183 187.743C261.305 187.604 260.952 186.823 260.821 186.528C260.524 185.867 260.268 185.294 260.639 184.933C260.905 184.675 261.352 184.698 262.004 185.005C262.207 185.101 262.372 185.216 262.506 185.321C262.542 185.195 262.616 185.072 262.763 184.991C263.109 184.8 263.565 185.022 264.118 185.649C264.256 185.804 264.44 186.014 264.587 186.337C264.657 186.489 264.701 186.63 264.737 186.752C264.808 186.736 264.89 186.733 264.98 186.755C265.246 186.821 265.426 187.056 265.504 187.46C265.596 187.904 265.607 188.286 265.617 188.624C265.626 188.918 265.635 189.171 265.697 189.356C265.816 189.697 266.165 189.892 266.609 190.112L267.735 190.657L267.735 190.657Z" fill="#F2F2F2"/>
<path d="M266.912 185.994L266.735 184.411L266.816 184.291C267.191 183.736 267.382 183.194 267.384 182.68C267.385 182.598 267.381 182.516 267.377 182.433C267.362 182.103 267.342 181.692 267.556 181.214C267.676 180.947 268.014 180.33 268.52 180.406C268.657 180.425 268.76 180.488 268.838 180.561C268.85 180.543 268.862 180.524 268.874 180.505C269.032 180.264 269.157 180.161 269.277 180.061C269.37 179.985 269.465 179.906 269.615 179.72C269.681 179.638 269.732 179.566 269.775 179.506C269.906 179.323 270.078 179.105 270.38 179.109C270.702 179.124 270.871 179.391 270.983 179.567C271.183 179.882 271.273 180.109 271.333 180.26C271.355 180.315 271.38 180.377 271.393 180.396C271.497 180.549 272.342 180.406 272.66 180.354C273.375 180.235 273.994 180.132 274.249 180.583C274.431 180.905 274.296 181.332 273.833 181.884C273.689 182.056 273.536 182.187 273.4 182.289C273.513 182.356 273.613 182.46 273.654 182.622C273.751 183.005 273.421 183.39 272.674 183.766C272.489 183.86 272.24 183.985 271.89 184.046C271.725 184.074 271.577 184.081 271.45 184.085C271.447 184.158 271.43 184.238 271.385 184.319C271.254 184.56 270.981 184.675 270.57 184.647C270.118 184.624 269.745 184.537 269.417 184.461C269.13 184.396 268.882 184.34 268.688 184.353C268.328 184.382 268.051 184.67 267.725 185.044L266.912 185.994Z" fill="#F2F2F2"/>
<path d="M268.532 216.72L268.2 216.512L268.12 216.129L268.2 216.512L267.813 216.556C267.807 216.521 267.786 216.438 267.754 216.309C267.581 215.601 267.053 213.447 266.613 210.055C266.306 207.687 266.132 205.253 266.096 202.818C266.06 200.38 266.176 198.534 266.268 197.051C266.338 195.932 266.423 194.866 266.506 193.828C266.728 191.055 266.937 188.436 266.781 185.536C266.747 184.889 266.675 183.541 265.888 182.107C265.431 181.276 264.802 180.538 264.018 179.914L264.505 179.301C265.371 179.99 266.067 180.808 266.574 181.731C267.447 183.321 267.525 184.79 267.563 185.495C267.722 188.446 267.51 191.091 267.286 193.89C267.204 194.924 267.119 195.985 267.049 197.1C266.958 198.57 266.843 200.399 266.879 202.806C266.914 205.212 267.086 207.616 267.389 209.954C267.824 213.304 268.344 215.425 268.515 216.122C268.606 216.495 268.625 216.573 268.532 216.72Z" fill="#F2F2F2"/>
<path d="M262.582 181.157C262.55 181.157 262.517 181.156 262.485 181.154C261.818 181.118 261.201 180.719 260.65 179.969C260.391 179.616 260.259 179.213 259.995 178.409C259.955 178.286 259.756 177.657 259.635 176.793C259.556 176.228 259.566 175.992 259.678 175.783C259.802 175.551 260.003 175.389 260.229 175.28C260.219 175.205 260.227 175.127 260.26 175.049C260.393 174.722 260.748 174.765 260.94 174.786C261.037 174.798 261.158 174.814 261.289 174.807C261.494 174.797 261.605 174.736 261.772 174.644C261.932 174.556 262.131 174.447 262.427 174.387C263.009 174.265 263.497 174.43 263.658 174.485C264.505 174.767 264.922 175.425 265.405 176.187C265.501 176.34 265.832 176.896 266.05 177.659C266.208 178.209 266.185 178.454 266.138 178.636C266.042 179.009 265.814 179.223 265.237 179.696C264.634 180.19 264.331 180.438 264.071 180.589C263.466 180.938 263.086 181.157 262.582 181.157Z" fill="#F2F2F2"/>
<path d="M160.476 97.744C179.291 97.744 194.543 82.4914 194.543 63.6764C194.543 44.8615 179.291 29.6089 160.476 29.6089C141.661 29.6089 126.408 44.8615 126.408 63.6764C126.408 82.4914 141.661 97.744 160.476 97.744Z" fill="#FF0000"/>
<path d="M292.099 216.011C292.099 216.243 291.911 216.432 291.678 216.432H0V215.59H291.678C291.911 215.59 292.099 215.778 292.099 216.011V216.011Z" fill="#E6E6E6"/>
<path d="M248.15 215.978C248.15 235.07 250.154 249.044 229.362 250.547C207.037 252.161 210.575 235.07 210.575 215.978C210.575 196.887 207.569 177.903 229.362 181.41C239.607 183.058 248.15 196.887 248.15 215.978Z" fill="#3F3D56"/>
<path d="M216.587 240.026C218.247 240.026 219.593 229.26 219.593 215.978C219.593 202.697 218.247 191.931 216.587 191.931C214.927 191.931 213.581 202.697 213.581 215.978C213.581 229.26 214.927 240.026 216.587 240.026Z" fill="#E6E6E6"/>
<path d="M97.6703 185.234C97.6703 202.083 99.4388 214.414 81.0909 215.741C61.3887 217.165 64.5115 202.083 64.5115 185.234C64.5115 168.386 61.8588 151.634 81.0909 154.728C90.1312 156.183 97.6703 168.386 97.6703 185.234Z" fill="#3F3D56"/>
<path d="M69.8168 206.456C71.2818 206.456 72.4695 196.955 72.4695 185.234C72.4695 173.514 71.2818 164.013 69.8168 164.013C68.3517 164.013 67.1641 173.514 67.1641 185.234C67.1641 196.955 68.3517 206.456 69.8168 206.456Z" fill="#E6E6E6"/>
<path d="M126.158 215.728C126.158 234.82 128.162 248.794 107.371 250.297C85.0448 251.911 88.5834 234.82 88.5834 215.728C88.5834 196.636 85.5775 177.653 107.371 181.16C117.615 182.808 126.158 196.636 126.158 215.728Z" fill="#3F3D56"/>
<path d="M94.5953 239.776C96.2555 239.776 97.6013 229.009 97.6013 215.728C97.6013 202.447 96.2555 191.68 94.5953 191.68C92.9352 191.68 91.5894 202.447 91.5894 215.728C91.5894 229.009 92.9352 239.776 94.5953 239.776Z" fill="#E6E6E6"/>
<path d="M66.7902 144.837V156.688L63.5337 162.122L64.5357 181.159L65.3463 181.66L64.7862 162.372C70.4941 160.247 72.3606 164.161 71.8001 171.891L70.7981 184.917L86.8299 194.937L88.8339 174.396L96.3488 170.889L104.615 205.708H243.114C248.823 205.708 253.385 200.957 253.154 195.253L251.406 152.102L246.69 147.386L242.321 96.8532C241.232 84.2514 230.546 74.6598 217.901 74.9324L131.262 76.7996C126.562 76.9009 121.918 77.8472 117.553 79.5932L96.5993 87.9746L83.0744 101.499L81.0685 134.066L75.9546 133.621C72.276 133.301 68.921 135.733 68.0796 139.328L66.7901 144.837H66.7902Z" fill="#E6E6E6"/>
<path d="M111.629 191.68C114.396 191.68 116.639 189.437 116.639 186.67C116.639 183.903 114.396 181.66 111.629 181.66C108.862 181.66 106.619 183.903 106.619 186.67C106.619 189.437 108.862 191.68 111.629 191.68Z" fill="#3F3D56"/>
<path d="M123.152 191.68C125.919 191.68 128.162 189.437 128.162 186.67C128.162 183.903 125.919 181.66 123.152 181.66C120.385 181.66 118.142 183.903 118.142 186.67C118.142 189.437 120.385 191.68 123.152 191.68Z" fill="#3F3D56"/>
<path d="M235.374 191.68C238.141 191.68 240.384 189.437 240.384 186.67C240.384 183.903 238.141 181.66 235.374 181.66C232.607 181.66 230.364 183.903 230.364 186.67C230.364 189.437 232.607 191.68 235.374 191.68Z" fill="#3F3D56"/>
<path d="M246.897 191.68C249.664 191.68 251.907 189.437 251.907 186.67C251.907 183.903 249.664 181.66 246.897 181.66C244.13 181.66 241.887 183.903 241.887 186.67C241.887 189.437 244.13 191.68 246.897 191.68Z" fill="#3F3D56"/>
<path d="M239.079 139.613H121.299C120.398 139.613 119.56 139.254 118.939 138.602C118.317 137.951 117.998 137.096 118.041 136.197L119.762 99.8124C119.843 98.0922 121.256 96.7272 122.977 96.7052L234.19 95.2736C235.832 95.258 237.256 96.4757 237.467 98.1201L242.314 135.936C242.433 136.865 242.147 137.802 241.528 138.505C240.909 139.209 240.016 139.613 239.079 139.613H239.079Z" fill="white"/>
<path d="M104.854 137.823H97.212C96.3054 137.823 95.4323 137.442 94.8171 136.776C94.2016 136.11 93.8895 135.21 93.9607 134.306L96.1603 106.39C96.2809 104.857 97.4282 103.635 98.9503 103.417L106.847 102.289C107.836 102.149 108.821 102.46 109.547 103.146C110.274 103.833 110.642 104.797 110.558 105.793L108.104 134.837C107.96 136.539 106.563 137.823 104.854 137.823V137.823Z" fill="white"/>
<path d="M87.2794 137.114C87.2004 137.114 87.1209 137.111 87.0414 137.106L86.1441 137.042C85.2579 136.978 84.4543 136.569 83.8818 135.89C83.3094 135.21 83.043 134.349 83.1313 133.464L85.5998 108.778C85.7461 107.317 86.8599 106.128 88.3091 105.886C89.2966 105.72 90.2888 106.012 91.0313 106.683C91.774 107.353 92.1634 108.311 92.1 109.309L90.5286 134.059C90.473 134.934 90.0792 135.733 89.4192 136.309C88.8196 136.833 88.0674 137.114 87.2794 137.114L87.2794 137.114Z" fill="white"/>
<path d="M74.8529 187.479L73.5533 159.116C73.5533 159.116 70.5473 155.108 68.5433 156.11C66.5394 157.112 63.563 162.684 63.563 162.684C63.563 162.684 69.3716 162.303 69.2079 168.475C69.0443 174.646 70.2031 184.631 70.2031 184.631L74.8529 187.479Z" fill="#CCCCCC"/>
<path d="M86.9522 194.889L87.5816 173.729L93.9544 166.203C93.9544 166.203 102.471 164.362 102.291 174.013C102.11 183.664 104.866 205.959 104.866 205.959L98.638 202.047C98.638 202.047 97.1004 178.153 92.5915 175.648C88.0825 173.144 89.5855 175.147 89.5855 175.147L86.9521 194.889H86.9522Z" fill="#CCCCCC"/>
<path d="M80.3148 140.645L75.3772 137.823H75.9163C76.6865 137.823 77.3108 137.199 77.3108 136.429V124.188C77.3108 123.418 76.6865 122.794 75.9163 122.794H70.6894C69.9193 122.794 69.2949 123.418 69.2949 124.188V136.429C69.2949 137.199 69.9193 137.823 70.6894 137.823H73.3578L79.8177 141.515L80.3148 140.645V140.645Z" fill="#3F3D56"/>
<path d="M86.9858 158.987L83.1339 157.879C82.2032 157.611 81.2318 158.149 80.9641 159.079C80.6965 160.01 81.234 160.982 82.1647 161.249L86.0166 162.357C86.9473 162.625 87.9187 162.087 88.1864 161.156C88.454 160.226 87.9165 159.254 86.9858 158.987Z" fill="#3F3D56"/>
<path d="M243.906 123.42L227.436 122.709C226.468 122.667 225.65 123.418 225.608 124.385C225.567 125.353 226.317 126.171 227.285 126.213L243.755 126.924C244.722 126.965 245.54 126.215 245.582 125.247C245.624 124.28 244.873 123.462 243.906 123.42Z" fill="#3F3D56"/>
<path d="M259.437 156.485L242.967 155.775C241.999 155.733 241.181 156.483 241.139 157.451C241.097 158.418 241.848 159.236 242.815 159.278L259.285 159.989C260.253 160.031 261.071 159.28 261.113 158.313C261.155 157.345 260.404 156.527 259.437 156.485Z" fill="#3F3D56"/>
<path d="M192.289 194.686C213.317 194.686 230.364 177.639 230.364 156.611C230.364 135.582 213.317 118.535 192.289 118.535C171.26 118.535 154.213 135.582 154.213 156.611C154.213 177.639 171.26 194.686 192.289 194.686Z" fill="#3F3D56"/>
<path d="M192.289 179.155C204.74 179.155 214.834 169.062 214.834 156.611C214.834 144.16 204.74 134.066 192.289 134.066C179.838 134.066 169.744 144.16 169.744 156.611C169.744 169.062 179.838 179.155 192.289 179.155Z" fill="#E6E6E6"/>
<path d="M242.735 80.9943C242.926 83.2169 244.228 84.9196 245.643 84.7974C247.057 84.6752 248.048 82.7746 247.856 80.5512C247.792 79.6621 247.515 78.8012 247.05 78.0408L246.119 68.6339L241.714 69.1649L243.099 78.382C242.771 79.2112 242.646 80.1069 242.735 80.9943L242.735 80.9943Z" fill="#FFB6B6"/>
<path d="M229.985 26.5398C229.985 26.5398 234.846 25.1707 236.714 27.4887C238.583 29.8067 245.552 52.5703 245.552 52.5703L247.715 77.0695L240.815 74.9815L238.13 55.6605L233.621 45.6406L229.985 26.5398Z" fill="#FB8C00"/>
<path d="M228.398 11.8022H213.585V25.8494H228.398V11.8022Z" fill="#2F2E41"/>
<path d="M220.835 18.959C224.824 18.959 228.058 15.7253 228.058 11.7363C228.058 7.74737 224.824 4.51367 220.835 4.51367C216.846 4.51367 213.612 7.74737 213.612 11.7363C213.612 15.7253 216.846 18.959 220.835 18.959Z" fill="#FFB6B6"/>
<path d="M217.416 0.0538201C212.8 0.768307 213.02 2.48361 211.542 3.37405C208.938 4.94283 207.91 9.47297 209.286 12.4624C209.653 13.2611 210.428 14.3507 210.052 15.5272C209.763 16.4303 208.931 16.9631 208.775 17.0596C207.496 17.8493 208.331 16.9098 207.753 17.5704C207.115 18.2995 208.103 19.3295 207.498 20.6352C206.961 21.7928 205.854 21.6951 205.71 22.4231C205.462 23.6765 208.304 26.1969 211.329 25.9987C214.022 25.8222 216.022 23.5456 216.692 21.4014C217.141 19.9652 217.334 17.4947 216.181 16.2934C216.02 16.1249 215.578 15.7169 215.16 15.0164C214.829 14.462 214.394 13.7323 214.649 13.2286C214.921 12.6919 215.691 12.9744 216.181 12.4624C216.847 11.768 216.056 10.5948 216.181 9.39752C216.393 7.37013 219.266 4.93174 222.311 5.31108C225.766 5.74138 227.033 9.49781 227.164 9.90832C227.435 10.7591 227.43 11.5823 227.419 13.2286C227.404 15.5911 227.394 17.0718 226.653 18.592C225.587 20.7785 224.23 20.5422 223.843 22.1676C223.241 24.7019 226.074 27.2471 226.398 27.5311C228.799 29.6364 232.426 30.2694 233.038 29.3189C233.589 28.4624 231.17 27.1299 231.25 24.4663C231.32 22.1579 233.188 21.4543 232.783 19.869C232.337 18.124 229.957 18.5221 228.952 16.5488C228.013 14.7069 229.742 13.685 229.462 9.90832C229.403 9.10941 229.152 6.81652 227.675 4.54487C227.024 3.54408 226.361 2.52624 225.12 1.99084C223.731 1.39146 219.858 -0.324114 217.416 0.0538151V0.0538201Z" fill="#2F2E41"/>
<path d="M214.351 6.43886C214.538 8.02041 216.913 8.79547 217.927 8.99288C218.356 9.0765 219.806 9.35903 221.247 8.73748C221.779 8.50773 221.973 8.29997 222.524 8.22668C223.269 8.12747 223.645 8.41093 224.822 8.73748C226.132 9.1006 226.787 9.28217 227.121 8.99288C227.667 8.51999 227.248 6.97295 226.61 5.92805C225.432 3.99597 223.275 3.39769 222.268 3.11862C221.119 2.7998 218.786 2.15281 216.65 3.37402C216.364 3.53729 214.161 4.83198 214.351 6.43885V6.43886Z" fill="#2F2E41"/>
<path d="M249.509 148.544L253.196 148.631L255.251 132.069L249.81 131.94L249.509 148.544Z" fill="#FFB6B6"/>
<path d="M262.157 156.235C262.157 156.858 261.715 157.363 261.17 157.363H253.852C253.852 157.363 253.132 154.468 250.197 153.222L249.994 157.363H246.219L246.677 150.705C246.677 150.705 245.667 147.144 247.764 145.323C249.861 143.502 248.162 143.756 248.162 143.756L248.987 139.636L254.691 140.306L254.733 146.774L257.501 153.194L261.561 155.2C261.923 155.378 262.157 155.785 262.157 156.235L262.157 156.235H262.157Z" fill="#2F2E41"/>
<path d="M232.749 116.106L236.354 115.33L234.485 98.7461L229.166 99.8909L232.749 116.106Z" fill="#FFB6B6"/>
<path d="M246.843 120.632C246.988 121.237 246.676 121.831 246.146 121.958L239.031 123.667C239.031 123.667 237.655 121.02 234.509 120.494L235.279 124.567L231.609 125.449L230.499 118.869C230.499 118.869 228.686 115.641 230.3 113.381C231.914 111.121 230.322 111.764 230.322 111.764L230.162 107.565L235.865 106.886L237.416 113.165L241.606 118.762L246.022 119.764C246.415 119.853 246.737 120.194 246.842 120.632H246.843V120.632Z" fill="#2F2E41"/>
<path d="M225.855 19.8395L216.838 20.3405L214.333 25.3504L204.814 30.3603L206.317 55.0648L202.882 67.4905L203.311 70.9408L236.877 69.9388L234.873 32.8653L235.374 26.8534L228.861 24.8494L225.855 19.8395Z" fill="#FB8C00"/>
<path d="M203.561 66.1814C203.561 66.1814 196.046 79.4597 203.561 81.3375C206.904 82.1728 210.446 82.7357 213.347 83.1032C216.821 83.5432 220.019 81.1585 220.595 77.7043L228.611 105.259L236.627 103.255L238.13 88.9115L247.869 98.6513L246.647 137.823L255.664 137.322L265.183 94.738C265.183 94.738 265.684 91.7321 258.169 87.7241C250.655 83.7162 237.128 70.6904 237.128 70.6904L214.082 63.6765L203.561 66.1814Z" fill="#2F2E41"/>
<path d="M219.343 74.949L206.317 66.4321L222.349 49.3983C222.349 49.3983 231.367 45.8914 233.872 59.4182C236.377 72.945 237.879 84.9688 237.879 84.9688L219.343 74.949Z" fill="#2F2E41"/>
<path d="M192.467 49.5226L193.037 45.6408C193.453 42.8118 191.577 40.3429 189.032 39.7352V38.1259C189.032 36.7424 187.911 35.6209 186.527 35.6209C185.144 35.6209 184.022 36.7424 184.022 38.1259V40.2726L174.504 42.2917V39.6289C174.504 38.2454 173.382 37.1239 171.999 37.1239C170.615 37.1239 169.494 38.2454 169.494 39.6289V42.1597L168.547 41.9128C165.721 41.1756 163.489 44.418 165.246 46.7505C165.269 46.7806 165.292 46.8108 165.316 46.841C167.662 49.8577 168.332 52.5393 168.332 52.5393L166.656 61.5897L168.565 80.4058C168.811 82.8309 170.899 84.648 173.335 84.5578L191.868 83.8714C194.302 83.7812 196.25 81.8187 196.317 79.3839C196.553 70.7114 196.58 51.8362 192.467 49.5226V49.5226Z" fill="#3F3D56"/>
<path d="M175.874 82.0347C175.614 82.0347 175.394 81.8343 175.375 81.5711L174.369 68.1632C174.348 67.8872 174.555 67.6468 174.831 67.6262C175.105 67.6047 175.348 67.8124 175.368 68.0883L176.374 81.4963C176.395 81.7722 176.188 82.0127 175.912 82.0332C175.899 82.0342 175.886 82.0347 175.874 82.0347Z" fill="#FFB6B6"/>
<path d="M168.332 53.0403C168.087 53.0403 167.873 52.861 167.837 52.6119C167.797 52.3382 167.986 52.0838 168.26 52.0437L192.472 48.4951C192.746 48.4555 193.001 48.6443 193.041 48.9181C193.081 49.1918 192.891 49.4462 192.618 49.4863L168.405 53.0349C168.38 53.0386 168.356 53.0403 168.332 53.0403Z" fill="#FFB6B6"/>
<path d="M306.262 141.124L306.492 123.222L299.619 121.331L299.827 141.127L298.246 155.755L298.287 155.77C297.624 156.437 297.087 157.501 296.858 158.758C296.44 161.053 297.206 163.114 298.568 163.363C299.931 163.611 301.374 161.951 301.792 159.657C301.963 158.715 301.933 157.814 301.746 157.06L301.807 157.083L306.262 141.124Z" fill="#A0616A"/>
<path d="M293.763 99.0412C293.763 99.0412 296.882 96.6563 299.083 100.142C301.285 103.628 307.339 121.239 307.339 121.239C307.339 121.239 309.09 129.311 308.673 130.504C308.256 131.696 307.706 142.192 307.706 142.192L299.104 140.631L299.312 130.504L291.116 117.421L293.763 99.0412V99.0412Z" fill="#CCCCCC"/>
<path d="M236.156 92.5391L248.21 105.778L254.523 102.467L240.856 88.1445L232.025 76.3763L231.985 76.3931C232.014 75.4536 231.681 74.309 230.989 73.2338C229.728 71.2717 227.761 70.2883 226.596 71.0372C225.431 71.7862 225.509 73.9838 226.771 75.9459C227.288 76.7513 227.925 77.3882 228.577 77.8116L228.516 77.8367L236.156 92.5391H236.156Z" fill="#A0616A"/>
<path d="M274.707 114.757C274.707 114.757 274.057 118.629 270.068 117.585C266.08 116.541 249.633 107.805 249.633 107.805C249.633 107.805 242.843 103.102 242.333 101.946C241.824 100.79 235.061 92.7453 235.061 92.7453L242.411 88.0131L249.173 95.5554L264.094 99.5197L274.707 114.757V114.757Z" fill="#CCCCCC"/>
<path d="M276.992 88.9209C282.279 88.9209 286.565 84.635 286.565 79.3481C286.565 74.0611 282.279 69.7752 276.992 69.7752C271.705 69.7752 267.419 74.0611 267.419 79.3481C267.419 84.635 271.705 88.9209 276.992 88.9209Z" fill="#A0616A"/>
<path d="M293.785 247.048L287.843 247.047L285.017 224.13L293.786 224.131L293.785 247.048Z" fill="#A0616A"/>
<path d="M273.429 246.913C273.244 247.225 273.146 248.23 273.146 248.593C273.146 249.706 274.049 250.609 275.163 250.609H293.563C294.322 250.609 294.938 249.993 294.938 249.233V248.467C294.938 248.467 295.849 246.165 293.975 243.327C293.975 243.327 291.645 245.549 288.165 242.069L287.139 240.21L279.71 245.643L275.592 246.15C274.691 246.261 273.893 246.133 273.429 246.913H273.429Z" fill="#2F2E41"/>
<path d="M276.751 247.048L270.81 247.047L267.983 224.13L276.752 224.131L276.751 247.048Z" fill="#A0616A"/>
<path d="M256.395 246.913C256.21 247.225 256.113 248.23 256.113 248.593C256.113 249.706 257.016 250.609 258.129 250.609H276.529C277.289 250.609 277.905 249.993 277.905 249.233V248.467C277.905 248.467 278.815 246.165 276.941 243.327C276.941 243.327 274.612 245.549 271.132 242.069L270.105 240.21L262.676 245.643L258.558 246.15C257.658 246.261 256.859 246.133 256.395 246.913H256.395Z" fill="#2F2E41"/>
<path d="M297.999 147.593L259.422 149.597L267.939 236.77L276.456 236.269L279.462 183.665L280.715 164.877L285.823 234.827L294.492 234.766L297.999 147.593Z" fill="#2F2E41"/>
<path d="M286.571 91.4816L271.96 90.9807L262.178 100.709V132.577L258.357 152.603C258.357 152.603 284.052 150.098 289.09 155.108C294.128 160.118 303.196 156.611 303.196 156.611L298.662 130.115L296.647 99.4975L286.571 91.4816Z" fill="#CCCCCC"/>
<path d="M281.206 88.7262L273.062 86.8023L271.806 81.8648C271.806 81.8648 271.775 79.5374 270.677 79.2778C269.578 79.0182 267.64 77.4002 267.64 77.4002L269.517 74.3634C269.517 74.3634 264.992 73.8744 266.351 73.0352C267.709 72.196 267.905 72.5741 268.098 70.5478C268.497 66.3551 281.326 66.9671 282.322 69.2675C282.322 69.2675 283.971 69.6569 284.81 71.0153C285.649 72.3737 286.069 73.0529 286.618 73.1827C287.168 73.3125 287.457 74.5411 287.457 74.5411C287.457 74.5411 289.396 76.1591 288.716 76.5787C288.037 76.9983 287.518 79.1959 287.518 79.1959C287.518 79.1959 289.326 81.3633 285.281 86.2085L283.126 89.6754L281.206 88.7262V88.7262Z" fill="#2F2E41"/>
<path d="M291.664 102.805L292.235 98.9233C292.651 96.0944 290.774 93.6255 288.23 93.0177V91.4084C288.23 90.025 287.108 88.9034 285.725 88.9034C284.341 88.9034 283.22 90.025 283.22 91.4084V93.5551L273.701 95.5743V92.9114C273.701 91.5279 272.579 90.4064 271.196 90.4064C269.812 90.4064 268.691 91.5279 268.691 92.9114V95.4422L267.745 95.1953C264.918 94.4581 262.686 97.7005 264.444 100.033C264.466 100.063 264.489 100.093 264.513 100.124C266.859 103.14 267.53 105.822 267.53 105.822L265.854 114.872L267.763 133.688C268.009 136.113 270.096 137.931 272.532 137.84L291.065 137.154C293.499 137.064 295.448 135.101 295.514 132.666C295.75 123.994 295.777 105.119 291.664 102.805V102.805Z" fill="#3F3D56"/>
<path d="M275.071 135.318C274.811 135.318 274.592 135.117 274.572 134.854L273.566 121.446C273.546 121.17 273.753 120.93 274.028 120.909C274.302 120.888 274.545 121.095 274.565 121.371L275.571 134.779C275.592 135.055 275.385 135.296 275.109 135.316C275.096 135.317 275.084 135.318 275.071 135.318Z" fill="#FFB6B6"/>
<path d="M267.529 106.323C267.285 106.323 267.071 106.144 267.034 105.895C266.994 105.621 267.183 105.367 267.457 105.327L291.67 101.778C291.943 101.738 292.198 101.927 292.238 102.201C292.278 102.475 292.089 102.729 291.815 102.769L267.602 106.318C267.578 106.321 267.553 106.323 267.529 106.323Z" fill="#FFB6B6"/>
<path d="M268.634 136.119L259.172 113.275L261.677 114.277L271.754 134.518L268.634 136.119Z" fill="#3F3D56"/>
<path d="M327.67 250.579C327.67 250.812 327.482 251 327.249 251H35.5708V250.158H327.249C327.482 250.158 327.67 250.347 327.67 250.579V250.579Z" fill="#E6E6E6"/>
<path d="M224.282 71.9778C225.907 73.5064 228.013 73.9071 228.986 72.8728C229.958 71.8386 229.429 69.7615 227.804 68.2326C227.163 67.613 226.383 67.1559 225.529 66.8995L218.563 60.5099L215.634 63.8428L222.812 69.788C223.12 70.6249 223.625 71.3758 224.282 71.9778Z" fill="#FFB6B6"/>
<path d="M218.321 38.8733C218.321 38.8733 209.828 28.2929 206.567 29.108C202.559 30.1099 203.561 34.1179 199.415 44.8372C198.377 47.5218 197.287 50.1236 199.382 52.0971L205.16 57.5382L217.476 67.9229L222.431 62.7361L212.587 50.0424L218.321 38.8733L218.321 38.8733Z" fill="#FB8C00"/>
</svg>
