<svg width="657" height="710" viewBox="0 0 657 710" fill="none" xmlns="http://www.w3.org/2000/svg">
<g filter="url(#filter0_d_124_4)">
<g filter="url(#filter1_d_124_4)">
<path d="M418.155 188.306H196.669C192.075 188.306 188.351 195.261 188.351 203.841V464.054C188.351 472.634 192.075 479.589 196.669 479.589H418.155C422.75 479.589 426.474 472.634 426.474 464.054V203.841C426.474 195.261 422.75 188.306 418.155 188.306Z" fill="#F2F2F2"/>
</g>
<rect x="167" y="176" width="325" height="304" rx="50.0856" fill="#F2F2F2"/>
<path d="M250.737 284.714V303.258C267.873 311.878 287.411 319.003 311.083 324.443C301.994 313.997 293.601 304.944 285.507 296.759C287.332 300.378 288.662 304.562 289.634 309.601C274.285 303.944 265.301 295.651 256.103 284.714L250.737 284.714ZM327.461 284.784C321.065 293.8 313.645 302.238 305.759 310.308C310.476 315.501 315.36 321.058 320.482 327.078L325.514 332.993L317.899 331.424C308.304 329.448 299.343 327.21 290.916 324.722C283.395 331.736 275.769 338.549 268.455 345.31L268.552 345.297C269.323 351.015 272.565 357.757 277.372 363.285C282.178 368.812 288.49 373.102 295.146 374.449L296.847 374.793L297.227 376.482C299.726 387.587 308.757 397.277 320.657 403.185C331.724 408.678 345.144 410.824 357.541 408.042C356.89 405.091 355.473 402.097 353.407 399.711C344.49 390.079 337.274 379.005 332.134 367.149C323.975 366.435 318.7 369.612 311.747 374.354L308.724 369.942C315.177 365.541 321.542 361.773 329.949 361.721C329.288 359.95 328.673 358.163 328.103 356.361C320.436 353.594 314.527 355.298 306.601 358.076L304.825 353.034C310.143 351.169 315.332 349.61 320.863 349.681C323.079 349.709 325.283 350.005 327.427 350.565C328.097 349.568 328.788 348.585 329.5 347.616C324.333 343.525 318.583 342.573 312.684 342.433L312.812 337.09C319.231 337.243 326.449 338.446 332.784 343.403C335.153 340.53 337.725 337.749 340.448 335.072C335.919 330.144 331.328 324.557 326.476 318.041L322.287 312.416L329.166 313.83C339.777 316.011 349.136 318.367 357.603 320.932C367.115 314.329 377.259 309.037 386.827 305.583V284.784H327.461ZM335.287 320.638C338.28 324.43 341.179 327.859 344.043 331.007L343.979 330.971L370.719 365.725L367.116 351.312C373.008 355.391 379.347 359.134 386.546 363.04V350.72C374.837 346.878 367.653 343.042 358.229 331.98C364.581 331.863 369.985 332.1 374.781 332.645C363.607 328.126 350.931 324.168 335.287 320.638ZM263.933 349.519C261.622 351.695 259.353 353.869 257.141 356.046C259.654 364.584 266.028 375.576 276.326 381.408L285.513 376.569C280.88 374.155 276.748 370.722 273.326 366.787C268.797 361.579 265.462 355.507 263.933 349.519ZM285.562 376.595L286.453 379.722C291.209 396.427 305.225 409.169 322.225 415.535C331.953 419.179 342.595 420.691 352.903 419.706C355.815 418.967 357.393 416.529 357.824 413.453C344.329 416.254 330.114 413.849 318.271 407.97C305.792 401.775 295.827 391.642 292.422 379.261C290.039 378.636 287.745 377.728 285.562 376.595Z" fill="white" stroke="#001B33" stroke-width="6"/>
<path d="M328.5 284L386 230V249.5H452L386 303V284H328.5Z" fill="#FB8C00"/>
<path d="M333.507 431.925C397.852 431.925 450.014 429.256 450.014 425.963C450.014 422.67 397.852 420 333.507 420C269.162 420 217 422.67 217 425.963C217 429.256 269.162 431.925 333.507 431.925Z" fill="#E6E6E6"/>
</g>
<defs>
<filter id="filter0_d_124_4" x="163" y="176" width="333" height="312" filterUnits="userSpaceOnUse" color-interpolation-filters="sRGB">
<feFlood flood-opacity="0" result="BackgroundImageFix"/>
<feColorMatrix in="SourceAlpha" type="matrix" values="0 0 0 0 0 0 0 0 0 0 0 0 0 0 0 0 0 0 127 0" result="hardAlpha"/>
<feOffset dy="4"/>
<feGaussianBlur stdDeviation="2"/>
<feComposite in2="hardAlpha" operator="out"/>
<feColorMatrix type="matrix" values="0 0 0 0 0 0 0 0 0 0 0 0 0 0 0 0 0 0 0.25 0"/>
<feBlend mode="normal" in2="BackgroundImageFix" result="effect1_dropShadow_124_4"/>
<feBlend mode="normal" in="SourceGraphic" in2="effect1_dropShadow_124_4" result="shape"/>
</filter>
<filter id="filter1_d_124_4" x="0.529543" y="0.485109" width="655.504" height="708.663" filterUnits="userSpaceOnUse" color-interpolation-filters="sRGB">
<feFlood flood-opacity="0" result="BackgroundImageFix"/>
<feColorMatrix in="SourceAlpha" type="matrix" values="0 0 0 0 0 0 0 0 0 0 0 0 0 0 0 0 0 0 127 0" result="hardAlpha"/>
<feOffset dx="20.869" dy="20.869"/>
<feGaussianBlur stdDeviation="104.345"/>
<feComposite in2="hardAlpha" operator="out"/>
<feColorMatrix type="matrix" values="0 0 0 0 0.741667 0 0 0 0 0.741667 0 0 0 0 0.741667 0 0 0 0.35 0"/>
<feBlend mode="normal" in2="BackgroundImageFix" result="effect1_dropShadow_124_4"/>
<feBlend mode="normal" in="SourceGraphic" in2="effect1_dropShadow_124_4" result="shape"/>
</filter>
</defs>
</svg>
