<svg width="438" height="492" viewBox="0 0 438 492" fill="none" xmlns="http://www.w3.org/2000/svg">
<g filter="url(#filter0_d_117_2744)">
<path d="M319.382 90.306H98.5773C93.9971 90.306 90.2842 97.2613 90.2842 105.841V366.054C90.2842 374.634 93.9971 381.589 98.5773 381.589H319.382C323.962 381.589 327.675 374.634 327.675 366.054V105.841C327.675 97.2613 323.962 90.306 319.382 90.306Z" fill="#F2F2F2"/>
</g>
<rect x="69" y="78" width="324" height="304" rx="24" fill="#F2F2F2"/>
<path d="M179.615 349.454C170.312 349.455 155.864 342.089 142.592 329.761C141.118 328.382 139.717 326.927 138.394 325.401C138.297 325.29 138.232 325.155 138.206 325.01C138.18 324.864 138.194 324.715 138.247 324.577C138.298 324.437 138.386 324.313 138.502 324.219C138.618 324.125 138.758 324.064 138.906 324.044L144.711 323.206C144.828 323.189 144.935 323.131 145.013 323.042C145.091 322.954 145.135 322.84 145.137 322.722C145.139 322.604 145.098 322.489 145.023 322.398C144.948 322.307 144.842 322.245 144.726 322.225L134.799 320.48C134.584 320.443 134.393 320.323 134.266 320.145C123.805 305.531 118.099 287.361 116.599 282.14C116.559 282.003 116.556 281.858 116.589 281.72C116.622 281.581 116.69 281.453 116.787 281.348C116.883 281.244 117.006 281.166 117.141 281.123C117.277 281.08 117.422 281.072 117.561 281.102C119.165 281.436 122.502 282.18 126.822 283.403C126.962 283.443 127.089 283.518 127.191 283.623C127.293 283.727 127.365 283.856 127.401 283.997L127.711 285.219C127.74 285.334 127.809 285.434 127.905 285.502C128.001 285.571 128.119 285.602 128.236 285.592C128.354 285.581 128.464 285.529 128.547 285.445C128.629 285.36 128.679 285.249 128.687 285.131L128.696 285.003C128.705 284.879 128.741 284.758 128.803 284.65C128.864 284.541 128.949 284.448 129.052 284.377C129.154 284.307 129.271 284.26 129.394 284.24C129.517 284.221 129.643 284.229 129.762 284.265C134.512 285.705 139.184 287.391 143.758 289.317C143.877 289.368 143.982 289.444 144.066 289.542C144.149 289.64 144.209 289.755 144.241 289.88L145.918 296.497C145.947 296.612 146.016 296.712 146.112 296.781C146.209 296.849 146.326 296.881 146.444 296.87C146.562 296.86 146.672 296.807 146.754 296.723C146.837 296.638 146.887 296.527 146.895 296.409L147.192 292.086C147.201 291.952 147.243 291.821 147.314 291.706C147.385 291.592 147.483 291.496 147.599 291.428C147.715 291.359 147.847 291.32 147.981 291.314C148.116 291.308 148.25 291.336 148.372 291.393C155.941 295.006 162.19 299.079 166.947 303.498C184.806 320.086 193.872 339.473 187.158 346.714C185.433 348.573 182.83 349.454 179.615 349.454Z" fill="#F2F2F2"/>
<path d="M181.819 349.349C172.565 349.351 160.747 333.263 154.506 311.493C153.956 309.55 153.508 307.579 153.164 305.589C153.138 305.444 153.152 305.295 153.205 305.157C153.257 305.019 153.347 304.898 153.463 304.808C153.579 304.714 153.719 304.653 153.867 304.633C154.015 304.613 154.166 304.633 154.303 304.692L159.705 306.978C159.814 307.024 159.935 307.03 160.048 306.994C160.161 306.959 160.257 306.884 160.319 306.784C160.382 306.684 160.407 306.564 160.389 306.447C160.372 306.331 160.314 306.224 160.225 306.146L152.627 299.517C152.463 299.374 152.361 299.172 152.344 298.954C150.937 281.032 155.437 262.526 156.849 257.281C156.886 257.143 156.958 257.017 157.058 256.915C157.158 256.814 157.282 256.739 157.419 256.7C157.556 256.661 157.701 256.657 157.839 256.691C157.978 256.724 158.105 256.792 158.209 256.89C159.411 258.007 161.885 260.372 164.949 263.65C165.048 263.757 165.118 263.887 165.151 264.029C165.184 264.171 165.179 264.319 165.137 264.458L164.771 265.665C164.737 265.778 164.744 265.9 164.791 266.008C164.839 266.116 164.923 266.204 165.029 266.256C165.135 266.308 165.256 266.32 165.37 266.29C165.485 266.261 165.585 266.191 165.653 266.095L165.726 265.99C165.798 265.888 165.891 265.803 166 265.742C166.109 265.681 166.23 265.646 166.354 265.638C166.478 265.63 166.603 265.651 166.718 265.698C166.833 265.745 166.937 265.817 167.02 265.909C170.343 269.599 173.471 273.46 176.392 277.475C176.467 277.579 176.518 277.699 176.539 277.826C176.56 277.953 176.552 278.083 176.515 278.206L174.533 284.739C174.498 284.852 174.505 284.973 174.553 285.082C174.6 285.19 174.684 285.278 174.79 285.33C174.896 285.382 175.017 285.394 175.132 285.364C175.246 285.335 175.346 285.265 175.414 285.169L177.901 281.622C177.978 281.509 178.081 281.418 178.202 281.356C178.323 281.295 178.457 281.264 178.593 281.268C178.727 281.27 178.859 281.305 178.977 281.369C179.095 281.434 179.195 281.527 179.269 281.639C183.882 288.647 187.129 295.367 188.919 301.61C195.639 325.05 193.388 346.336 183.9 349.06C183.223 349.254 182.523 349.351 181.819 349.349Z" fill="#F2F2F2"/>
<path d="M231.277 354.003C295.622 354.003 347.784 351.333 347.784 348.04C347.784 344.747 295.622 342.078 231.277 342.078C166.932 342.078 114.771 344.747 114.771 348.04C114.771 351.333 166.932 354.003 231.277 354.003Z" fill="#E6E6E6"/>
<path d="M299.346 164.441H298.023V128.153C298.023 122.583 295.812 117.241 291.876 113.302C287.941 109.364 282.603 107.151 277.038 107.151H200.22C194.655 107.151 189.317 109.364 185.382 113.302C181.446 117.241 179.235 122.583 179.235 128.153V327.231C179.235 332.801 181.446 338.143 185.382 342.082C189.317 346.02 194.655 348.233 200.22 348.233H277.038C282.603 348.233 287.941 346.02 291.876 342.082C295.812 338.143 298.023 332.801 298.023 327.231V190.271H299.346L299.346 164.441Z" fill="white"/>
<path d="M293.557 128.299V327.084C293.557 331.244 291.906 335.233 288.967 338.175C286.028 341.116 282.042 342.769 277.885 342.769H200.699C196.543 342.769 192.557 341.116 189.618 338.175C186.679 335.233 185.027 331.244 185.027 327.084V128.299C185.027 124.14 186.679 120.15 189.618 117.209C192.557 114.267 196.543 112.615 200.699 112.614H210.063C209.603 113.746 209.428 114.973 209.553 116.189C209.678 117.404 210.099 118.57 210.78 119.584C211.461 120.598 212.381 121.428 213.458 122.003C214.535 122.578 215.737 122.879 216.957 122.88H260.965C262.186 122.879 263.388 122.578 264.465 122.003C265.542 121.428 266.461 120.598 267.142 119.584C267.823 118.57 268.245 117.404 268.37 116.189C268.495 114.973 268.32 113.746 267.86 112.614H277.885C282.042 112.615 286.028 114.267 288.967 117.209C291.906 120.15 293.557 124.14 293.557 128.299Z" fill="white"/>
<path d="M281.964 151.115H196.617C195.169 151.117 193.781 151.693 192.757 152.718C191.733 153.743 191.157 155.132 191.155 156.581V255.958C191.157 257.407 191.733 258.796 192.757 259.821C193.781 260.845 195.169 261.422 196.617 261.424H281.964C282.907 261.423 283.834 261.179 284.654 260.713C285.475 260.247 286.16 259.577 286.645 258.767C286.733 258.625 286.814 258.478 286.886 258.326C287.167 257.743 287.341 257.113 287.399 256.468C287.418 256.299 287.427 256.128 287.426 255.958V156.581C287.424 155.131 286.848 153.742 285.824 152.717C284.801 151.693 283.412 151.116 281.964 151.115Z" fill="#E6E6E6"/>
<path d="M239.292 321.548C249.711 321.548 258.158 313.094 258.158 302.666C258.158 292.238 249.711 283.785 239.292 283.785C228.872 283.785 220.426 292.238 220.426 302.666C220.426 313.094 228.872 321.548 239.292 321.548Z" fill="#E48803"/>
<path d="M239.971 190.406C251.303 190.406 260.489 181.212 260.489 169.871C260.489 158.529 251.303 149.336 239.971 149.336C228.639 149.336 219.453 158.529 219.453 169.871C219.453 181.212 228.639 190.406 239.971 190.406Z" fill="#2F2E41"/>
<path d="M287.399 244.036V256.468C287.341 257.113 287.167 257.743 286.886 258.327C286.814 258.478 286.734 258.625 286.645 258.767L283.305 255.69L264.654 238.481L264.651 238.478L248.145 223.246L259.626 214.342L272.843 228.474L287.399 244.036Z" fill="#FFB8B8"/>
<path d="M250.237 188.101C256.2 182.132 256.2 172.455 250.237 166.486C244.273 160.518 234.604 160.518 228.64 166.486C222.676 172.455 222.676 182.132 228.64 188.101C234.604 194.069 244.273 194.069 250.237 188.101Z" fill="#FFB8B8"/>
<path d="M249.828 261.589H208.388L208.454 261.374C210.439 254.955 211.476 244.667 211.535 230.795C211.553 226.691 211.484 222.281 211.33 217.686C211.057 209.3 210.551 201.743 210.175 196.881C210.112 196.064 210.216 195.244 210.48 194.469C210.743 193.694 211.162 192.98 211.709 192.372C212.256 191.763 212.921 191.272 213.664 190.928C214.406 190.585 215.21 190.395 216.028 190.372C218.945 190.301 221.836 190.922 224.468 192.182C228.269 194.012 232.276 195.38 236.403 196.258C244.114 197.846 251.341 201.236 257.494 206.151L257.959 206.525C264.985 212.184 270.236 219.747 273.083 228.311L273.111 228.394L265.565 238.364C265.463 238.499 265.321 238.599 265.16 238.651C264.999 238.704 264.826 238.705 264.664 238.656L264.563 238.623L257.157 236.341C251.636 247.507 256.125 254 257.085 255.191C257.151 255.276 257.191 255.319 257.193 255.322L257.293 255.43L257.197 255.542C255.109 257.949 252.631 259.985 249.866 261.567L249.828 261.589Z" fill="#E48803"/>
<path d="M287.4 256.359V256.468C287.342 257.113 287.168 257.743 286.887 258.327C286.815 258.478 286.734 258.625 286.645 258.767C286.161 259.577 285.475 260.247 284.655 260.713C283.835 261.179 282.908 261.424 281.965 261.424H224.479L255.205 255.431C255.205 255.431 255.84 255.372 256.956 255.296C261.328 254.984 273.118 254.358 283.305 255.69C284.709 255.875 286.082 256.094 287.4 256.359Z" fill="#2F2E41"/>
<path d="M254.673 167.547C248.71 171.191 241.986 173.408 235.026 174.026L237.097 171.543C235.565 172.02 234.001 172.502 232.396 172.477C230.791 172.452 229.11 171.833 228.199 170.511C227.325 169.242 227.309 167.515 227.879 166.083C228.449 164.652 229.534 163.481 230.732 162.513C232.93 160.772 235.524 159.604 238.283 159.11C241.042 158.617 243.88 158.814 246.544 159.684C248.34 160.291 250.073 161.243 251.267 162.716C252.46 164.19 253.036 166.248 252.425 168.043L254.673 167.547Z" fill="#2F2E41"/>
<path d="M238.039 151.615C242.856 146.727 248.684 142.955 255.115 140.564C259.242 139.034 263.735 138.088 268.05 138.957C272.366 139.826 276.447 142.814 277.651 147.052C278.635 150.517 277.619 154.247 276.091 157.509C274.563 160.771 272.523 163.796 271.288 167.179C270.027 170.632 269.648 174.344 270.185 177.981C270.722 181.617 272.157 185.061 274.362 188.001C276.566 190.941 279.469 193.284 282.807 194.816C286.146 196.349 289.814 197.022 293.478 196.776C289.238 197.345 285.33 199.339 281.185 200.401C277.041 201.462 272.149 201.39 269.069 198.419C265.811 195.275 265.746 190.163 265.903 185.636L266.606 165.446C266.725 162.014 266.827 158.472 265.591 155.268C264.354 152.065 261.415 149.26 257.983 149.289C255.383 149.311 253.081 150.888 250.996 152.443C248.91 153.998 246.703 155.657 244.112 155.888C241.522 156.119 238.564 154.201 238.758 151.605L238.039 151.615Z" fill="#2F2E41"/>
<path d="M216.24 218.698L214.645 232.197L211.186 261.424H200.012L201.581 225.989L202.037 215.651L211.494 217.681L216.24 218.698Z" fill="#FFB8B8"/>
<path d="M227.774 238.627L197.741 223.449C197.414 223.284 197.159 223.003 197.025 222.662C196.892 222.32 196.889 221.941 197.017 221.598L207.405 193.689C207.887 192.393 209.146 191.275 210.95 190.541C213.365 189.558 216.299 189.461 218.085 190.305L218.212 190.365L217.523 192.779L227.774 238.627Z" fill="#E48803"/>
<defs>
<filter id="filter0_d_117_2744" x="0.28418" y="0.30603" width="437.391" height="491.283" filterUnits="userSpaceOnUse" color-interpolation-filters="sRGB">
<feFlood flood-opacity="0" result="BackgroundImageFix"/>
<feColorMatrix in="SourceAlpha" type="matrix" values="0 0 0 0 0 0 0 0 0 0 0 0 0 0 0 0 0 0 127 0" result="hardAlpha"/>
<feOffset dx="10" dy="10"/>
<feGaussianBlur stdDeviation="50"/>
<feComposite in2="hardAlpha" operator="out"/>
<feColorMatrix type="matrix" values="0 0 0 0 0.741667 0 0 0 0 0.741667 0 0 0 0 0.741667 0 0 0 0.35 0"/>
<feBlend mode="normal" in2="BackgroundImageFix" result="effect1_dropShadow_117_2744"/>
<feBlend mode="normal" in="SourceGraphic" in2="effect1_dropShadow_117_2744" result="shape"/>
</filter>
</defs>
</svg>
