<svg width="971" height="931" viewBox="0 0 971 931" fill="none" xmlns="http://www.w3.org/2000/svg">
<g filter="url(#filter0_d_133_18)">
<path d="M721.679 188.657H207.832C197.173 188.657 188.532 200.898 188.532 215.997V673.937C188.532 689.037 197.173 701.277 207.832 701.277H721.679C732.338 701.277 740.979 689.037 740.979 673.937V215.997C740.979 200.898 732.338 188.657 721.679 188.657Z" fill="#F2F2F2"/>
</g>
<rect x="139" y="167" width="754" height="535" rx="50.0856" fill="#F2F2F2"/>
<path d="M608.35 242H423.495C409.414 242 398 253.414 398 267.495V604.064C398 618.144 409.414 629.558 423.495 629.558H608.35C622.431 629.558 633.845 618.144 633.845 604.064V267.495C633.845 253.414 622.431 242 608.35 242Z" fill="white"/>
<path d="M607.301 567.734H424.544C422.759 567.728 421.048 567.016 419.786 565.753C418.525 564.49 417.814 562.779 417.811 560.993V291.451C417.814 289.664 418.526 287.952 419.789 286.689C421.052 285.425 422.765 284.714 424.551 284.71H607.308C609.094 284.716 610.804 285.428 612.066 286.691C613.328 287.954 614.038 289.666 614.042 291.451V560.993C614.096 561.892 613.958 562.792 613.638 563.634C613.318 564.476 612.823 565.24 612.186 565.876C611.549 566.513 610.784 567.007 609.942 567.326C609.1 567.645 608.2 567.788 607.301 567.734Z" fill="#2F2E41"/>
<path d="M508.571 339.551C501.815 339.57 495.341 342.261 490.564 347.039C485.787 351.816 483.095 358.29 483.077 365.046V468.943C483.071 469.319 483.164 469.69 483.347 470.019C483.53 470.348 483.797 470.623 484.119 470.817C484.442 471.011 484.81 471.116 485.186 471.123C485.563 471.129 485.934 471.037 486.264 470.855L518.132 442.811C518.634 442.327 519.238 441.962 519.9 441.741C520.561 441.521 521.264 441.451 521.956 441.536H698.505C705.261 441.518 711.735 438.826 716.513 434.049C721.29 429.272 723.982 422.798 724 416.042V365.053C723.982 358.297 721.29 351.823 716.513 347.046C711.735 342.268 705.261 339.576 698.505 339.558L508.571 339.551Z" fill="#FFF5C5"/>
<path d="M614.035 460.615V560.993C614.089 561.891 613.951 562.791 613.632 563.632C613.312 564.473 612.818 565.237 612.182 565.874C611.545 566.51 610.781 567.004 609.94 567.323C609.099 567.643 608.199 567.78 607.301 567.727H424.544C422.76 567.722 421.051 567.01 419.789 565.749C418.527 564.487 417.816 562.777 417.811 560.993V291.451C417.814 289.664 418.526 287.952 419.789 286.689C421.052 285.425 422.765 284.714 424.551 284.71H607.308C609.094 284.716 610.804 285.428 612.066 286.691C613.328 287.954 614.038 289.666 614.042 291.451V318.484" stroke="#2F2E41" stroke-width="2" stroke-linecap="round" stroke-linejoin="round"/>
<path d="M515.92 610.691C523.362 610.691 529.395 604.659 529.395 597.217C529.395 589.775 523.362 583.742 515.92 583.742C508.479 583.742 502.446 589.775 502.446 597.217C502.446 604.659 508.479 610.691 515.92 610.691Z" fill="#2F2E41"/>
<path d="M482.229 264.502H549.616M633.845 460.615V604.064C633.827 610.819 631.135 617.293 626.358 622.071C621.58 626.848 615.106 629.54 608.35 629.558H423.495C416.739 629.54 410.265 626.848 405.487 622.071C400.71 617.293 398.018 610.819 398 604.064V267.495C398.018 260.739 400.71 254.265 405.487 249.487C410.265 244.71 416.739 242.018 423.495 242H608.35C615.106 242.018 621.58 244.71 626.358 249.487C631.135 254.265 633.827 260.739 633.845 267.495V318.484" stroke="#2F2E41" stroke-width="2" stroke-linecap="round" stroke-linejoin="round"/>
<path d="M508.571 339.551C501.815 339.57 495.341 342.261 490.564 347.039C485.787 351.816 483.095 358.29 483.077 365.046V468.943C483.071 469.319 483.164 469.69 483.347 470.019C483.53 470.348 483.797 470.623 484.119 470.817C484.442 471.011 484.81 471.116 485.186 471.123C485.563 471.129 485.934 471.037 486.264 470.855L518.132 442.811C518.634 442.327 519.238 441.962 519.9 441.741C520.561 441.521 521.264 441.451 521.956 441.536H698.505C705.261 441.518 711.735 438.826 716.513 434.049C721.29 429.272 723.982 422.798 724 416.042V365.053C723.982 358.297 721.29 351.823 716.513 347.046C711.735 342.268 705.261 339.576 698.505 339.558L508.571 339.551Z" stroke="#2F2E41" stroke-width="2" stroke-miterlimit="10"/>
<defs>
<filter id="filter0_d_133_18" x="0.711184" y="0.836428" width="969.826" height="929.999" filterUnits="userSpaceOnUse" color-interpolation-filters="sRGB">
<feFlood flood-opacity="0" result="BackgroundImageFix"/>
<feColorMatrix in="SourceAlpha" type="matrix" values="0 0 0 0 0 0 0 0 0 0 0 0 0 0 0 0 0 0 127 0" result="hardAlpha"/>
<feOffset dx="20.869" dy="20.869"/>
<feGaussianBlur stdDeviation="104.345"/>
<feComposite in2="hardAlpha" operator="out"/>
<feColorMatrix type="matrix" values="0 0 0 0 0.741667 0 0 0 0 0.741667 0 0 0 0 0.741667 0 0 0 0.35 0"/>
<feBlend mode="normal" in2="BackgroundImageFix" result="effect1_dropShadow_133_18"/>
<feBlend mode="normal" in="SourceGraphic" in2="effect1_dropShadow_133_18" result="shape"/>
</filter>
</defs>
</svg>
