<svg width="971" height="931" viewBox="0 0 971 931" fill="none" xmlns="http://www.w3.org/2000/svg">
<g filter="url(#filter0_d_133_19)">
<path d="M721.679 188.657H207.832C197.173 188.657 188.532 200.898 188.532 215.997V673.937C188.532 689.037 197.173 701.277 207.832 701.277H721.679C732.338 701.277 740.979 689.037 740.979 673.937V215.997C740.979 200.898 732.338 188.657 721.679 188.657Z" fill="#F2F2F2"/>
</g>
<rect x="139" y="167" width="754" height="535" rx="50.0856" fill="#F2F2F2"/>
<path d="M430.613 476.198H578.792V556.406H430.613V476.198Z" fill="black"/>
<path d="M410.93 476.322C425.742 476.322 437.749 464.315 437.749 449.504C437.749 434.692 425.742 422.686 410.93 422.686C396.119 422.686 384.112 434.692 384.112 449.504C384.112 464.315 396.119 476.322 410.93 476.322Z" fill="#FFA726"/>
<path d="M598.657 476.322C613.468 476.322 625.475 464.315 625.475 449.504C625.475 434.692 613.468 422.686 598.657 422.686C583.846 422.686 571.839 434.692 571.839 449.504C571.839 464.315 583.846 476.322 598.657 476.322Z" fill="#FFA726"/>
<path d="M605.981 402.955C605.981 318.096 404.783 347.496 404.783 402.955V469.773C404.783 525.232 449.717 570 505.382 570C561.047 570 605.981 525.232 605.981 469.773V402.955Z" fill="#FFB74D"/>
<path d="M545.021 462.913C552.427 462.913 558.43 456.91 558.43 449.504C558.43 442.098 552.427 436.095 545.021 436.095C537.616 436.095 531.612 442.098 531.612 449.504C531.612 456.91 537.616 462.913 545.021 462.913Z" fill="#784719"/>
<path d="M464.567 462.913C471.973 462.913 477.976 456.91 477.976 449.504C477.976 442.098 471.973 436.095 464.567 436.095C457.162 436.095 451.158 442.098 451.158 449.504C451.158 456.91 457.162 462.913 464.567 462.913Z" fill="#784719"/>
<path d="M504.702 288.595C447.751 288.595 364 327.428 364 513.556L431.001 556.406V435.891L543.563 370.277L578.404 415.805V556.406L645.405 501.504C645.405 464.011 639.375 307.342 542.223 307.342L532.843 288.595H504.702Z" fill="#3E4347"/>
<path d="M645.502 435.709C641.482 435.709 638.802 438.384 638.802 442.396V395.587C638.802 336.742 590.561 288.595 531.6 288.595H471.299C467.279 288.595 464.599 291.27 464.599 295.282C464.599 299.294 467.279 301.969 471.299 301.969H531.6C583.191 301.969 625.401 344.097 625.401 395.587V462.457C625.401 466.469 628.081 469.144 632.102 469.144C636.122 469.144 638.802 466.469 638.802 462.457V475.831C638.802 501.91 618.031 522.64 591.901 522.64H504.799C500.779 522.64 498.099 525.315 498.099 529.327C498.099 533.339 500.779 536.014 504.799 536.014H591.901C625.401 536.014 652.202 509.266 652.202 475.831V442.396C652.202 438.384 649.522 435.709 645.502 435.709Z" fill="#757575"/>
<path d="M645.592 422.686H638.887C631.512 422.686 625.478 428.72 625.478 436.095V462.913C625.478 470.288 631.512 476.322 638.887 476.322H645.592C652.967 476.322 659.001 470.288 659.001 462.913V436.095C659.001 428.72 652.967 422.686 645.592 422.686Z" fill="#37474F"/>
<path d="M504.796 543.367C512.201 543.367 518.205 537.364 518.205 529.958C518.205 522.552 512.201 516.549 504.796 516.549C497.39 516.549 491.387 522.552 491.387 529.958C491.387 537.364 497.39 543.367 504.796 543.367Z" fill="#37474F"/>
<defs>
<filter id="filter0_d_133_19" x="0.711184" y="0.836428" width="969.826" height="929.999" filterUnits="userSpaceOnUse" color-interpolation-filters="sRGB">
<feFlood flood-opacity="0" result="BackgroundImageFix"/>
<feColorMatrix in="SourceAlpha" type="matrix" values="0 0 0 0 0 0 0 0 0 0 0 0 0 0 0 0 0 0 127 0" result="hardAlpha"/>
<feOffset dx="20.869" dy="20.869"/>
<feGaussianBlur stdDeviation="104.345"/>
<feComposite in2="hardAlpha" operator="out"/>
<feColorMatrix type="matrix" values="0 0 0 0 0.741667 0 0 0 0 0.741667 0 0 0 0 0.741667 0 0 0 0.35 0"/>
<feBlend mode="normal" in2="BackgroundImageFix" result="effect1_dropShadow_133_19"/>
<feBlend mode="normal" in="SourceGraphic" in2="effect1_dropShadow_133_19" result="shape"/>
</filter>
</defs>
</svg>
