<svg width="102" height="102" viewBox="0 0 102 102" fill="none" xmlns="http://www.w3.org/2000/svg">
<rect width="102" height="102" fill="url(#paint0_linear_1_5)"/>
<rect width="102" height="102" fill="url(#paint1_linear_1_5)"/>
<rect width="102" height="102" fill="url(#paint2_linear_1_5)"/>
<rect width="102" height="102" fill="url(#paint3_linear_1_5)"/>
<path fill-rule="evenodd" clip-rule="evenodd" d="M77.4501 39.5452L77.4059 37.2152H76.757H76.1084L76.1073 35.9909C76.1068 35.3176 76.0647 34.2869 76.0138 33.7004L75.9214 32.6341H75.2897H74.6581V31.0544V29.4747H73.933H73.2079V28.6849V27.895H72.5553H71.9027V27.1052V26.3154H71.1776H70.4525V25.5255V24.7357H69.7274H69.0023V23.9458V23.156H68.3497H67.6971V22.4451V21.7343H66.9799H66.2628L66.2186 20.9839L66.1743 20.2336L64.7604 20.1884L63.3464 20.1432V19.3591V18.5749H61.8962H60.446V17.8892V17.2036L57.2917 17.0998C53.2581 16.9671 48.4799 16.9666 45.6767 17.0989L43.4783 17.2025V17.8887V18.5749H42.4851C41.9388 18.5749 40.9925 18.6209 40.3823 18.6771L39.2727 18.7792V19.467V20.1546H38.5476H37.8225V20.9444V21.7343H36.4448H35.0671V22.5241V23.314H34.3419H33.6168V24.1038V24.8936H32.8917H32.1666V26.3943V27.895H31.4415H30.7164V28.6849V29.4747H30.081H29.4457L29.3424 30.9754L29.239 32.4761H28.6001H27.961V34.758L27.961 37.0398L27.2721 37.088L26.5833 37.1362L26.5458 46.4168L26.5084 55.6974H27.1411H27.774L27.8664 56.7637C27.9173 57.3501 27.9594 58.7364 27.9599 59.8441L27.961 61.8582H28.602H29.243L29.3458 63.4379L29.4486 65.0175H30.077H30.7055L30.7471 66.4787L30.7889 67.9399H32.1666H33.5443L33.5886 67.1896L33.6328 66.4392H34.9945H36.3563L36.4005 65.6889L36.4448 64.9385L37.8587 64.8934L39.2727 64.8482V64.1618V63.4754L40.6504 63.363L42.0281 63.2503V62.5543V61.8582H43.4783H44.9286V61.0683V60.2785H46.2983H47.668L47.7123 59.5281L47.7565 58.7778L48.4454 58.7296L49.1342 58.6814V56.3206V53.9598H48.4816H47.829V49.4577L47.829 44.9556H48.4816L49.1342 44.9556V43.393V41.8303L50.5701 41.7183C51.3597 41.6567 52.625 41.6571 53.3819 41.7188L54.758 41.8311L54.8601 43.3145L54.9622 44.7976H55.6012H56.2403L56.2403 49.4577V54.1177H55.609H54.9776L54.8839 55.3264C54.8323 55.9911 54.7901 57.0218 54.7901 57.6169V58.6988H55.5152H56.2403V59.4887V60.2785H57.6905L59.1408 60.2785V60.9747V61.6707L60.5185 61.7833L61.8962 61.8958V62.5708V63.2458L63.3464 63.3589L64.7966 63.472V64.1658V64.8596H66.1743H67.552V65.6494V66.4392H69.0023H70.4525V67.2291V68.0189H71.8129H73.1734L73.2767 66.5182L73.3801 65.0175H74.019H74.6581V63.4379V61.8582H75.2894H75.9208L76.0145 60.6496C76.0662 59.9848 76.1084 58.5987 76.1084 57.5692L76.1084 55.6974H76.7379H77.3673L77.4626 52.2616C77.5529 49.003 77.5487 44.7305 77.4501 39.5452Z" fill="white"/>
<circle cx="51.9238" cy="40.8973" r="2.65526" fill="#FB8C00"/>
<path fill-rule="evenodd" clip-rule="evenodd" d="M17.2483 73.1294C16.6943 73.1953 16.4571 73.2822 15.5173 73.7644C14.9414 74.0599 13.8201 75.1763 13.8266 75.4478C13.8293 75.5586 13.7676 75.6508 13.6896 75.6527C13.6116 75.6546 13.5508 75.7826 13.5545 75.9373C13.5583 76.092 13.5041 76.2199 13.4343 76.2216C13.2912 76.225 13.1433 77.1395 13.1488 77.9869C13.1537 78.7342 13.3687 79.7401 13.5227 79.7364C13.5904 79.7348 13.6489 79.86 13.6526 80.0147C13.6563 80.1693 13.7232 80.2943 13.8012 80.2925C13.8793 80.2906 13.945 80.3688 13.9473 80.4662C13.9532 80.7099 15.1016 81.8087 15.3442 81.8028C15.4523 81.8002 15.5421 81.8569 15.5438 81.9286C15.5455 82.0004 15.9082 82.1833 16.3496 82.335C17.5937 82.7626 20.5876 82.5948 21.1465 82.0662C21.2191 81.9976 21.3658 81.9393 21.4728 81.9368C21.7315 81.9305 22.0643 81.5734 22.0579 81.3086C22.0509 81.0179 20.406 78.0234 20.2552 78.027C20.1885 78.0286 20.1354 78.0932 20.1373 78.1705C20.1393 78.2531 19.6493 78.3229 18.9501 78.3398C17.704 78.3697 17.5859 78.3122 17.5704 77.6693C17.562 77.3207 18.2025 77.1774 19.35 77.2714C20.2976 77.349 20.6813 77.1835 20.6697 76.7024C20.6669 76.5872 20.712 76.4709 20.7699 76.4436C20.9369 76.3652 21.89 74.3266 21.8836 74.0615C21.8779 73.8251 20.9984 73.3667 20.5704 73.377C20.4562 73.3797 20.3007 73.3276 20.225 73.2611C20.064 73.1199 18.0707 73.0317 17.2483 73.1294ZM32.7319 73.0256C32.5884 73.4248 32.8426 81.6614 33.0073 81.9499C33.1465 82.1932 33.326 82.2144 34.9289 82.1758L36.6971 82.1333L36.5838 77.4232L36.4705 72.7131L34.6416 72.7571C33.1047 72.7941 32.7998 72.837 32.7319 73.0256ZM41.4972 72.9173C41.3359 73.0906 41.0275 73.3632 40.8119 73.5231C40.5963 73.6831 40.2909 73.9453 40.1333 74.106C39.9755 74.2666 39.6252 74.5401 39.3549 74.7137C39.0846 74.8875 38.7136 75.1954 38.5305 75.3981C38.3475 75.6007 38.1444 75.7678 38.0793 75.7694C37.8973 75.7738 37.1311 76.5755 37.1355 76.7569C37.1378 76.8535 37.3939 76.9113 37.7777 76.9021L38.416 76.8867L38.4479 78.2108C38.4819 79.6238 38.8021 80.6269 39.3612 81.072C39.511 81.1912 39.7529 81.382 39.8989 81.4956C40.6636 82.0914 42.4852 82.1575 43.5333 81.6274L44.0592 81.3614L44.0259 79.9797C44.0074 79.2102 43.9289 78.561 43.8487 78.5146C43.7696 78.4686 43.7062 78.4907 43.708 78.5635C43.712 78.7293 43.0683 78.8749 42.7057 78.7902C42.4723 78.7356 42.4312 78.5917 42.4112 77.7589L42.3879 76.7912L42.9979 76.7765C43.3334 76.7685 43.6826 76.6841 43.774 76.589C43.867 76.4924 43.9311 76.0382 43.9196 75.5586C43.908 75.079 43.8221 74.6284 43.7247 74.5363C43.6288 74.4458 43.2759 74.3783 42.9404 74.3863L42.3304 74.401L42.3085 73.4871C42.2897 72.7072 42.25 72.5754 42.0384 72.5878C41.9019 72.5959 41.6584 72.7441 41.4972 72.9173ZM62.6221 74.1881L62.6726 76.2909L63.7021 76.3075L64.7315 76.3241L64.8121 78.6434C64.8566 79.919 64.9003 81.075 64.9094 81.2122C64.9247 81.4413 65.0934 81.4547 66.9465 81.3742L68.967 81.2867L68.944 78.7198L68.9209 76.153L69.9816 76.1274L71.0423 76.1019L70.9915 73.9929L70.9408 71.884L66.7561 71.9846L62.5715 72.0853L62.6221 74.1881ZM22.7043 75.0957C22.5416 75.5479 22.7432 80.6298 22.9363 80.9449C23.226 81.4175 23.9538 82.0711 24.3938 82.2534C25.2942 82.6266 26.6905 82.3207 27.3521 81.6051C27.7133 81.2145 27.7329 81.2091 27.7399 81.499C27.744 81.6669 27.8163 81.9251 27.9006 82.0728C28.0392 82.3151 28.2184 82.3372 29.7463 82.3005C31.2742 82.2637 31.4521 82.233 31.5789 81.9843C31.6643 81.8167 31.6878 80.4075 31.6392 78.3854C31.5744 75.6926 31.5199 75.0249 31.3517 74.8661C31.1949 74.718 30.7273 74.6801 29.4346 74.7112C27.3994 74.7602 27.5837 74.479 27.6071 77.4985L27.6235 79.6083L27.143 79.6654C26.854 79.6998 26.6132 79.6496 26.5388 79.5393C26.4708 79.4385 26.3914 78.4037 26.3622 77.24C26.3257 75.7843 26.2548 75.0727 26.1349 74.9594C26.0201 74.851 25.4186 74.8078 24.3728 74.833C23.0559 74.8647 22.7712 74.9095 22.7043 75.0957ZM44.7613 74.5358C44.5752 74.7695 44.7363 79.5969 44.9539 80.3044C45.4708 81.9854 48.1772 82.4307 49.502 81.0529C49.6931 80.854 49.8844 80.6906 49.9269 80.6896C49.9695 80.6886 50.0103 80.9408 50.0178 81.2501L50.0313 81.8125L51.651 81.7735C52.5418 81.7521 53.3707 81.6938 53.493 81.6438C53.6877 81.5645 53.7047 81.1112 53.6302 78.011C53.5684 75.4435 53.497 74.4236 53.3707 74.3043C53.1303 74.0772 49.9684 74.1533 49.7392 74.3916C49.6236 74.5119 49.5898 75.2612 49.6282 76.8562L49.6833 79.148L49.2477 79.1584C48.476 79.177 48.4136 79.0035 48.3118 76.5568L48.219 74.3297L46.5723 74.3299C45.2781 74.33 44.8903 74.3741 44.7613 74.5358ZM54.9913 74.2139C54.8542 74.3049 54.8425 75.154 54.9398 77.9763L55.0654 81.6211L56.9095 81.5767L58.7536 81.5324L58.7973 79.6321C58.8214 78.587 58.8847 77.5883 58.9379 77.413C59.0579 77.0179 59.4368 76.9918 59.7177 77.3591C59.887 77.5805 60.0917 77.6315 60.7488 77.6157C61.2007 77.6048 61.567 77.5328 61.5652 77.4553C61.5633 77.378 61.6341 77.313 61.7225 77.3109C61.9903 77.3044 62.3877 76.7248 62.4708 76.2196C62.6338 75.2291 62.3096 74.6046 61.3804 74.1186C60.7038 73.7649 59.6408 74.0721 59.1101 74.7749C58.8247 75.1529 58.67 75.1088 58.6589 74.6459C58.6456 74.0942 58.3858 74.0147 56.7357 74.0566C55.8735 74.0786 55.0886 74.1494 54.9913 74.2139ZM73.6124 73.7892C73.458 73.8595 73.1722 73.9259 72.9773 73.9367C72.7824 73.9476 72.3391 74.1058 71.9922 74.2882L71.3615 74.6198L71.3462 75.709C71.3378 76.3082 71.3815 76.7962 71.4433 76.7936C71.5051 76.791 71.8087 76.6914 72.1181 76.5725C72.9576 76.2497 74.3494 76.2394 74.6505 76.5538C74.783 76.6921 74.8925 76.8478 74.8937 76.8996C74.895 76.9515 74.4863 77.0038 73.9857 77.0159C72.9303 77.0413 71.9501 77.4241 71.632 77.9352C71.5162 78.1211 71.35 78.5083 71.2626 78.7956C71.0342 79.5465 71.5145 80.5681 72.287 80.9744C72.9226 81.3087 74.0261 81.3317 74.56 81.0216C74.8506 80.8528 74.9506 80.8519 75.2161 81.0155C75.453 81.1613 75.9406 81.1888 77.2132 81.1281L78.8967 81.0478L78.8748 78.5214C78.8501 75.6676 78.737 75.2044 77.8845 74.4671C77.6138 74.233 77.0332 73.9412 76.5944 73.8186C75.76 73.5858 74.0961 73.5694 73.6124 73.7892ZM80.0958 73.6614C79.9737 73.7884 79.9576 74.9971 80.0352 78.2234C80.0933 80.6375 80.182 82.7118 80.2323 82.833C80.3091 83.0181 80.6158 83.0463 82.1526 83.0094L83.9816 82.9654L83.9541 81.8255C83.9293 80.7934 83.9504 80.6951 84.1775 80.7857C84.3154 80.8407 84.812 80.9044 85.2809 80.9272C86.724 80.9974 88.1213 80.1107 88.6466 78.7914C89.0197 77.8547 88.801 75.3951 88.2894 74.7726C87.8133 74.1936 87.5801 74.0107 86.9214 73.6999C86.022 73.2753 85.2317 73.2638 84.4459 73.6637C83.8811 73.951 83.8766 73.9511 83.7978 73.6793C83.7246 73.4263 83.5873 73.4086 81.9902 73.447C80.8352 73.4748 80.2069 73.5459 80.0958 73.6614ZM84.9048 76.6729C85.0189 76.7806 85.1185 77.1264 85.1261 77.4413L85.1399 78.0137L84.5015 78.029L83.8632 78.0444L83.8495 77.4761C83.8287 76.6121 84.389 76.1856 84.9048 76.6729ZM74.9151 78.9279C74.973 79.5227 74.9718 79.5244 74.4839 79.5361C74.0744 79.546 73.9781 79.4882 73.8925 79.1818C73.7704 78.7438 74.1373 78.2726 74.5728 78.3081C74.7997 78.3267 74.8689 78.4518 74.9151 78.9279Z" fill="white"/>
<defs>
<linearGradient id="paint0_linear_1_5" x1="51" y1="0" x2="51" y2="102" gradientUnits="userSpaceOnUse">
<stop stop-color="#FB8C00"/>
<stop offset="1" stop-color="#FE4820"/>
</linearGradient>
<linearGradient id="paint1_linear_1_5" x1="51" y1="0" x2="51" y2="102" gradientUnits="userSpaceOnUse">
<stop stop-color="#FB8C00"/>
<stop offset="1" stop-color="#FE4820"/>
</linearGradient>
<linearGradient id="paint2_linear_1_5" x1="51" y1="0" x2="51" y2="102" gradientUnits="userSpaceOnUse">
<stop stop-color="#FB8C00"/>
<stop offset="1" stop-color="#FE4820"/>
</linearGradient>
<linearGradient id="paint3_linear_1_5" x1="51" y1="0" x2="51" y2="102" gradientUnits="userSpaceOnUse">
<stop stop-color="#FB8C00"/>
<stop offset="1" stop-color="#FE4820"/>
</linearGradient>
</defs>
</svg>
