<svg width="347" height="348" viewBox="0 0 347 348" fill="none" xmlns="http://www.w3.org/2000/svg">
<mask id="mask0_117_4249" style="mask-type:alpha" maskUnits="userSpaceOnUse" x="0" y="0" width="347" height="348">
<rect width="346.332" height="347.428" rx="19" fill="#D9D9D9"/>
</mask>
<g mask="url(#mask0_117_4249)">
<mask id="mask1_117_4249" style="mask-type:luminance" maskUnits="userSpaceOnUse" x="-25" y="-94" width="372" height="459">
<path d="M327.332 -93.1586H-5.11157C-15.605 -93.1586 -24.1116 -84.652 -24.1116 -74.1586V345.896C-24.1116 356.389 -15.605 364.896 -5.11157 364.896H327.332C337.825 364.896 346.332 356.389 346.332 345.896V-74.1586C346.332 -84.652 337.825 -93.1586 327.332 -93.1586Z" fill="white"/>
</mask>
<g mask="url(#mask1_117_4249)">
<g filter="url(#filter0_d_117_4249)">
<path d="M327.331 -93.1623H-5.11182C-15.6052 -93.1623 -24.1118 -84.6557 -24.1118 -74.1623V345.892C-24.1118 356.386 -15.6052 364.892 -5.11181 364.892H327.331C337.825 364.892 346.331 356.386 346.331 345.892V-74.1623C346.331 -84.6557 337.825 -93.1623 327.331 -93.1623Z" fill="white"/>
<path opacity="0.72" d="M660.589 140.783C660.607 155.587 658.859 170.341 655.383 184.731C652.464 196.841 648.254 208.596 642.826 219.795C641.496 222.54 640.778 225.54 640.656 228.588C640.129 241.766 637.286 254.761 632.244 266.972C626.612 280.614 618.348 293.01 607.924 303.449C597.5 313.888 585.122 322.165 571.498 327.806C557.875 333.448 543.273 336.343 528.531 336.324H-43.8068C-70.2589 336.308 -96.189 328.952 -118.717 315.07C-141.246 301.189 -159.491 281.326 -171.427 257.69C-180.766 239.186 -185.946 218.882 -186.632 198.2C-186.74 194.954 -187.561 191.768 -189.058 188.885C-201.617 164.686 -208.857 136.247 -208.857 105.799C-208.857 17.9556 -148.634 -53.2517 -74.3362 -53.2517C-69.5842 -53.2517 -65.1348 -55.7504 -62.8674 -59.9266C-14.5746 -148.876 88.342 -210.294 207.429 -210.294C277.447 -210.294 341.857 -189.075 392.875 -153.518C399.509 -148.894 408.241 -148.659 415.431 -152.361C431.862 -160.823 449.998 -165.523 469.061 -165.523C543.351 -165.523 603.581 -94.3081 603.581 -6.47237C603.581 -4.2646 603.542 -2.06859 603.464 0.115662C603.239 6.40961 605.794 12.4944 610.357 16.8361C640.994 45.9909 660.589 90.6782 660.589 140.783Z" fill="#9FDBF0"/>
<path d="M213.496 117.91C213.015 120.653 211.387 126.443 206.132 126.299C202.12 126.192 199.03 122.557 199.136 118.393L200.649 61.6789L201.028 47.4665C201.103 44.6465 202.717 42.7557 203.602 45.4343C204.427 47.9323 205.381 52.5737 206.332 61.0066V61.0914L213.524 115.485C213.639 116.289 213.63 117.108 213.496 117.91Z" fill="white"/>
<path d="M209.584 126.703C209.584 124.705 207.965 123.086 205.967 123.086C203.969 123.086 202.349 124.705 202.349 126.703V137.958C202.349 139.956 203.969 141.575 205.967 141.575C207.965 141.575 209.584 139.956 209.584 137.958V126.703Z" fill="white"/>
<path d="M208.781 140.368C208.781 138.814 207.521 137.554 205.967 137.554C204.412 137.554 203.153 138.814 203.153 140.368V141.172C203.153 142.726 204.412 143.986 205.967 143.986C207.521 143.986 208.781 142.726 208.781 141.172V140.368Z" fill="white"/>
<path d="M207.146 61.3102C207.157 61.3452 207.124 61.3787 207.089 61.3693C205.865 61.0444 204.8 60.9566 203.879 61.02C202.453 61.1184 200.797 60.104 200.839 58.6751L201.231 45.4153C201.274 43.9546 202.202 42.2248 203.059 43.4085C204.163 44.9341 205.656 49.4046 207.144 61.3015C207.144 61.3044 207.145 61.3074 207.146 61.3102Z" fill="#F9A826"/>
<path d="M205.81 127.918C208.165 127.795 209.584 130.138 209.584 132.496V137.955C209.584 139.953 207.965 141.572 205.967 141.572C203.969 141.572 202.349 139.953 202.349 137.955V132.475C202.349 130.26 203.598 128.033 205.81 127.918Z" fill="#F9A826"/>
<path d="M228.996 167.266C226.748 165.622 222.284 161.585 224.803 156.764C226.726 153.084 231.403 151.795 235.101 153.713L285.425 179.876L297.919 186.369C300.497 187.709 301.501 190.061 298.619 189.695C295.984 189.361 291.385 188.219 283.438 185.456L283.357 185.431L231.152 168.362C230.381 168.111 229.653 167.742 228.996 167.266Z" fill="white"/>
<path d="M217.537 148.577C215.537 147.601 213.125 148.432 212.15 150.432C211.175 152.431 212.005 154.842 214.004 155.817L222.244 159.837C224.243 160.813 226.655 159.982 227.63 157.982C228.604 155.984 227.775 153.573 225.776 152.598L217.537 148.577Z" fill="white"/>
<path d="M211.654 153.705C213.192 154.455 215.048 153.816 215.798 152.278C216.548 150.74 215.909 148.886 214.372 148.136L213.147 147.538C211.609 146.787 209.753 147.426 209.003 148.965C208.254 150.502 208.892 152.356 210.429 153.107L211.654 153.705Z" fill="white"/>
<path d="M283.621 185.58C283.583 185.566 283.572 185.518 283.6 185.488C284.261 184.764 284.725 184.061 285.04 183.395C285.644 182.119 287.294 181.03 288.552 181.672L300.067 187.542C301.233 188.136 302.298 189.549 301.005 189.752C299.27 190.024 294.779 189.386 283.621 185.58Z" fill="#F9A826"/>
<path d="M223.747 156.201C222.64 158.295 219.913 158.658 217.741 157.713L213.547 155.887C211.418 154.961 210.544 152.406 211.658 150.369C212.639 148.575 214.827 147.826 216.702 148.643L220.954 150.496C223.303 151.519 224.944 153.936 223.747 156.201Z" fill="#F9A826"/>
<path d="M182.987 167.266C185.213 165.622 189.632 161.585 187.137 156.764C185.234 153.084 180.607 151.795 176.947 153.713L127.142 179.876L114.814 186.349C112.237 187.702 111.238 190.067 114.123 189.69C116.738 189.349 121.283 188.205 129.107 185.456L129.187 185.431L180.853 168.367C181.618 168.114 182.338 167.743 182.987 167.266Z" fill="white"/>
<path d="M200.346 150.43C199.371 148.43 196.959 147.599 194.96 148.575L186.719 152.596C184.721 153.571 183.891 155.982 184.866 157.98C185.841 159.98 188.253 160.811 190.252 159.835L198.492 155.814C200.49 154.838 201.32 152.428 200.346 150.43Z" fill="white"/>
<path d="M202.063 153.107C203.6 152.356 204.239 150.502 203.489 148.964C202.739 147.426 200.883 146.787 199.345 147.537L198.12 148.135C196.583 148.885 195.944 150.74 196.694 152.277C197.444 153.816 199.299 154.455 200.837 153.704L202.063 153.107Z" fill="white"/>
<path d="M128.315 185.58C128.352 185.566 128.363 185.519 128.337 185.489C127.722 184.786 127.286 184.103 126.985 183.454C126.385 182.162 124.704 181.082 123.448 181.752L112.571 187.549C111.465 188.138 110.412 189.525 111.646 189.745C113.276 190.035 117.554 189.418 128.315 185.58Z" fill="#F9A826"/>
<path d="M188.864 156.066C189.913 158.239 192.679 158.605 194.871 157.598L198.619 155.876C200.649 154.943 201.488 152.502 200.46 150.517C199.498 148.661 197.248 147.888 195.348 148.761L191.561 150.503C189.336 151.526 187.8 153.859 188.864 156.066Z" fill="#F9A826"/>
<path d="M213.404 328.481C213.513 332.665 210.151 336.115 205.966 336.115C201.781 336.115 198.419 332.665 198.529 328.481L203.108 153.202C203.149 151.653 204.417 150.417 205.967 150.417C207.517 150.417 208.784 151.653 208.825 153.202L213.404 328.481Z" fill="white"/>
<path d="M206.369 152.829C209.476 152.829 211.996 150.489 211.996 147.604C211.996 144.718 209.476 142.378 206.369 142.378C203.26 142.378 200.741 144.718 200.741 147.604C200.741 150.489 203.26 152.829 206.369 152.829Z" fill="#F9A826"/>
<path d="M330.894 108.598C330.55 110.442 329.376 114.337 325.581 114.24C324.184 114.178 322.868 113.584 321.921 112.588C320.975 111.592 320.472 110.275 320.524 108.922L321.621 70.746L321.844 62.8569C321.93 59.8599 323.46 58.4389 324.21 61.3418C324.689 63.1956 325.207 66.0222 325.725 70.2946V70.3498L330.916 106.985C330.996 107.521 330.989 108.065 330.894 108.598Z" fill="white"/>
<path d="M328.56 115.448C328.56 113.894 327.3 112.635 325.746 112.635C324.192 112.635 322.933 113.894 322.933 115.448V120.272C322.933 121.825 324.192 123.085 325.746 123.085C327.3 123.085 328.56 121.825 328.56 120.272V115.448Z" fill="white"/>
<path d="M328.56 123.888C328.56 122.556 327.48 121.477 326.148 121.477H325.344C324.012 121.477 322.933 122.556 322.933 123.888C322.933 125.22 324.012 126.3 325.344 126.3H326.148C327.48 126.3 328.56 125.22 328.56 123.888Z" fill="white"/>
<path d="M326.139 70.3778C326.143 70.4036 326.119 70.4247 326.094 70.4176C325.417 70.2277 324.818 70.16 324.292 70.1758C323.324 70.2047 322.165 69.5105 322.191 68.5429L322.435 59.6689C322.46 58.7684 323.02 57.665 323.545 58.3972C324.241 59.368 325.191 62.3167 326.139 70.3778Z" fill="#F9A826"/>
<path d="M325.643 115.052C327.407 114.985 328.56 116.653 328.56 118.418V120.271C328.56 121.825 327.3 123.085 325.746 123.085C324.192 123.085 322.933 121.825 322.933 120.271V118.4C322.933 116.72 323.965 115.116 325.643 115.052Z" fill="#F9A826"/>
<path d="M341.571 141.171C340.041 140.032 337 137.225 338.716 133.873C339.372 132.65 340.478 131.742 341.79 131.344C343.103 130.947 344.517 131.092 345.724 131.751L379.965 149.94L387.207 153.786C389.788 155.156 390.399 157.126 387.539 156.526C385.651 156.13 382.832 155.318 378.642 153.826C378.624 153.82 378.605 153.816 378.586 153.816C378.568 153.816 378.55 153.813 378.534 153.808L343.035 141.954C342.51 141.773 342.015 141.509 341.571 141.171Z" fill="white"/>
<path d="M333.311 128.949C331.959 128.289 330.328 128.85 329.668 130.203C329.009 131.555 329.571 133.185 330.922 133.845L336.499 136.566C337.852 137.226 339.483 136.664 340.143 135.312C340.802 133.96 340.24 132.329 338.888 131.67L333.311 128.949Z" fill="white"/>
<path d="M329.337 132.417C330.378 132.925 331.634 132.493 332.142 131.452C332.649 130.412 332.217 129.157 331.177 128.649L330.348 128.245C329.307 127.737 328.052 128.169 327.544 129.21C327.037 130.25 327.469 131.505 328.509 132.013L329.337 132.417Z" fill="white"/>
<path d="M337.633 133.416C336.946 135.109 334.863 135.39 333.233 134.567L331.007 133.444C329.645 132.756 329.077 131.109 329.727 129.727C330.402 128.291 332.131 127.695 333.548 128.411L335.784 129.54C337.259 130.285 338.254 131.885 337.633 133.416Z" fill="#F9A826"/>
<path d="M309.973 141.171C311.479 140.032 314.474 137.225 312.783 133.873C312.138 132.65 311.049 131.742 309.757 131.344C308.464 130.947 307.071 131.092 305.882 131.751L272.16 149.94L265.08 153.758C262.504 155.147 261.901 157.13 264.761 156.513C266.62 156.112 269.381 155.302 273.462 153.826C273.48 153.82 273.499 153.816 273.518 153.816C273.535 153.816 273.552 153.813 273.569 153.808L308.529 141.954C309.047 141.773 309.535 141.509 309.973 141.171Z" fill="white"/>
<path d="M321.688 130.203C321.029 128.85 319.398 128.289 318.046 128.949L312.468 131.671C311.116 132.33 310.555 133.96 311.214 135.312C311.874 136.665 313.505 137.226 314.857 136.566L320.435 133.845C321.786 133.185 322.348 131.555 321.688 130.203Z" fill="white"/>
<path d="M322.847 132.011C323.887 131.504 324.319 130.249 323.812 129.209C323.305 128.167 322.049 127.735 321.008 128.243L320.18 128.647C319.14 129.155 318.708 130.409 319.215 131.45C319.722 132.491 320.978 132.923 322.019 132.415L322.847 132.011Z" fill="white"/>
<path d="M273.839 154.026C273.864 154.018 273.872 153.986 273.854 153.967C273.361 153.452 273.026 152.952 272.807 152.481C272.425 151.661 271.38 150.951 270.568 151.347L262.405 155.333C261.591 155.73 260.87 156.687 261.767 156.815C262.989 156.989 266.121 156.554 273.839 154.026Z" fill="#F9A826"/>
<path d="M313.869 133.424C314.561 135.113 316.643 135.39 318.272 134.566L320.486 133.446C321.848 132.757 322.415 131.109 321.765 129.728C321.089 128.291 319.36 127.695 317.942 128.411L315.717 129.535C314.237 130.283 313.24 131.89 313.869 133.424Z" fill="#F9A826"/>
<path d="M330.071 251.483C330.127 253.778 328.519 255.778 326.266 256.217C323.315 256.791 320.59 254.489 320.663 251.483L323.571 132.072C323.595 131.098 324.391 130.321 325.365 130.321C326.339 130.321 327.135 131.098 327.159 132.072L330.071 251.483Z" fill="white"/>
<path d="M325.746 131.927C327.744 131.927 329.364 130.307 329.364 128.309C329.364 126.311 327.744 124.692 325.746 124.692C323.748 124.692 322.128 126.311 322.128 128.309C322.128 130.307 323.748 131.927 325.746 131.927Z" fill="#F9A826"/>
<path d="M87.3156 108.598C86.9718 110.442 85.7967 114.337 82.0008 114.24C80.6038 114.178 79.2877 113.584 78.3411 112.588C77.3946 111.592 76.8936 110.274 76.947 108.922L78.0393 70.746L78.2625 62.8598C78.3474 59.8609 79.8784 58.4393 80.6292 61.3438C81.1083 63.1977 81.6268 66.0238 82.1446 70.2946V70.3498L87.3422 106.985C87.4184 107.521 87.4099 108.065 87.3156 108.598Z" fill="white"/>
<path d="M84.9821 115.449C84.9821 113.895 83.7222 112.635 82.168 112.635C80.6139 112.635 79.354 113.895 79.354 115.449V120.271C79.354 121.825 80.6139 123.085 82.168 123.085C83.7222 123.085 84.9821 121.825 84.9821 120.271V115.449Z" fill="white"/>
<path d="M84.9821 123.888C84.9821 122.556 83.9023 121.477 82.5704 121.477H81.7657C80.4338 121.477 79.354 122.556 79.354 123.888C79.354 125.22 80.4338 126.3 81.7657 126.3H82.5704C83.9023 126.3 84.9821 125.22 84.9821 123.888Z" fill="white"/>
<path d="M82.5616 70.3778C82.5656 70.4036 82.541 70.4246 82.5159 70.4176C81.8404 70.2275 81.2414 70.1599 80.714 70.1758C79.7468 70.205 78.5869 69.5101 78.6135 68.5428L78.8576 59.6675C78.8824 58.7679 79.4418 57.665 79.9663 58.3964C80.6618 59.3662 81.6128 62.3143 82.5616 70.3778Z" fill="#F9A826"/>
<path d="M82.0647 115.052C83.8287 114.985 84.9821 116.654 84.9821 118.419V120.271C84.9821 121.825 83.7222 123.085 82.168 123.085C80.6139 123.085 79.354 121.825 79.354 120.271V118.401C79.354 116.72 80.3858 115.116 82.0647 115.052Z" fill="#F9A826"/>
<path d="M97.9382 141.171C96.4317 140.032 93.4405 137.225 95.1318 133.873C95.7765 132.65 96.864 131.742 98.1563 131.344C99.4486 130.947 100.841 131.093 102.028 131.751L135.751 149.94L142.825 153.753C145.407 155.145 146.009 157.131 143.141 156.511C141.282 156.109 138.524 155.3 134.448 153.826C134.431 153.82 134.411 153.816 134.393 153.816C134.375 153.816 134.358 153.813 134.342 153.808L99.3857 141.954C98.8658 141.773 98.3772 141.509 97.9382 141.171Z" fill="white"/>
<path d="M89.6441 128.949C88.2917 128.289 86.6606 128.85 86.0012 130.203C85.3421 131.555 85.9033 133.185 87.255 133.845L92.8319 136.566C94.1845 137.226 95.8159 136.664 96.4754 135.312C97.1345 133.96 96.573 132.329 95.2212 131.67L89.6441 128.949Z" fill="white"/>
<path d="M85.6681 132.417C86.7091 132.925 87.9648 132.493 88.4723 131.452C88.9794 130.411 88.5474 129.157 87.5073 128.649L86.6787 128.245C85.6377 127.737 84.382 128.169 83.8745 129.21C83.3674 130.251 83.7994 131.505 84.8395 132.013L85.6681 132.417Z" fill="white"/>
<path d="M134.075 154.026C134.05 154.018 134.041 153.986 134.06 153.967C134.553 153.451 134.888 152.951 135.107 152.479C135.489 151.659 136.532 150.95 137.345 151.347L145.506 155.331C146.323 155.73 147.042 156.688 146.142 156.815C144.917 156.988 141.782 156.551 134.075 154.026Z" fill="#F9A826"/>
<path d="M94.0471 133.424C93.3546 135.114 91.2713 135.39 89.6415 134.565L87.43 133.446C86.0674 132.757 85.5007 131.109 86.1515 129.727C86.8284 128.29 88.5576 127.696 89.9753 128.412L92.1976 129.535C93.6778 130.282 94.6758 131.89 94.0471 133.424Z" fill="#F9A826"/>
<path d="M66.3435 141.171C67.8773 140.032 70.9142 137.225 69.1972 133.873C68.5411 132.65 67.4364 131.742 66.124 131.344C64.8112 130.947 63.3971 131.092 62.19 131.751L27.9492 149.94L20.7068 153.786C18.1264 155.156 17.5144 157.126 20.3737 156.526C22.2616 156.13 25.0807 155.319 29.2716 153.826C29.2894 153.82 29.3092 153.816 29.3281 153.816C29.3459 153.816 29.3636 153.813 29.3804 153.808L64.8781 141.954C65.4042 141.773 65.8988 141.509 66.3435 141.171Z" fill="white"/>
<path d="M78.0192 130.203C77.3598 128.85 75.7286 128.289 74.3763 128.949L68.7988 131.671C67.4472 132.33 66.8859 133.96 67.545 135.312C68.2044 136.665 69.8356 137.226 71.1879 136.566L76.7654 133.845C78.117 133.185 78.6783 131.555 78.0192 130.203Z" fill="white"/>
<path d="M79.1836 132.016C80.2237 131.508 80.6556 130.254 80.1486 129.214C79.6411 128.172 78.3854 127.74 77.3444 128.248L76.5158 128.652C75.4757 129.16 75.0437 130.415 75.5508 131.455C76.0582 132.496 77.314 132.929 78.3549 132.421L79.1836 132.016Z" fill="white"/>
<path d="M29.4577 154.026C29.4832 154.018 29.4912 153.986 29.473 153.967C28.9801 153.45 28.6455 152.948 28.4263 152.476C28.0452 151.655 27.0039 150.948 26.1903 151.345L18.0301 155.329C17.2112 155.729 16.4909 156.69 17.3933 156.816C18.6205 156.987 21.7563 156.548 29.4577 154.026Z" fill="#F9A826"/>
<path d="M70.2924 133.424C70.9846 135.113 73.0654 135.39 74.6939 134.566L76.9087 133.445C78.2705 132.757 78.8372 131.11 78.1877 129.729C77.5116 128.291 75.7824 127.695 74.3644 128.412L72.1395 129.535C70.6597 130.282 69.6637 131.89 70.2924 133.424Z" fill="#F9A826"/>
<path d="M86.472 250.905C86.5366 253.549 84.4111 255.727 81.7665 255.727C79.1219 255.727 76.9964 253.549 77.061 250.905L79.9656 132.078C79.9895 131.101 80.7885 130.321 81.766 130.321C82.7435 130.321 83.5426 131.101 83.5664 132.078L86.472 250.905Z" fill="white"/>
<path d="M82.1683 131.927C84.1662 131.927 85.7861 130.307 85.7861 128.309C85.7861 126.311 84.1662 124.692 82.1683 124.692C80.1704 124.692 78.5505 126.311 78.5505 128.309C78.5505 130.307 80.1704 131.927 82.1683 131.927Z" fill="#F9A826"/>
<path d="M442.503 276.674C442.499 276.676 442.497 276.68 442.496 276.684C437.805 293.817 427.626 308.933 413.524 319.708C399.419 330.485 382.171 336.323 364.431 336.325H-48.2678C-67.3419 336.313 -86.0394 331.007 -102.284 320.995C-115.242 313.009 -126.234 302.279 -134.52 289.611C-138.405 283.671 -137.67 276.035 -132.531 271.139C-111.932 251.514 -48.8043 207.776 74.8729 250.88C203.844 295.828 263.332 253.323 279.833 237.592C281.619 235.897 283.73 234.581 286.037 233.724C288.344 232.867 290.801 232.488 293.259 232.608C324.86 234.106 434.317 241.778 442.511 276.654C442.512 276.661 442.509 276.669 442.503 276.674Z" fill="white"/>
<path opacity="0.1" d="M58.4533 340.134C87.3115 340.134 110.706 337.435 110.706 334.105C110.706 330.775 87.3115 328.076 58.4533 328.076C29.595 328.076 6.20068 330.775 6.20068 334.105C6.20068 337.435 29.595 340.134 58.4533 340.134Z" fill="#F9A826"/>
<path d="M86.2017 328.551C85.56 328.563 83.666 328.851 83.0376 328.72C81.8876 328.482 79.9309 327.946 78.4883 326.866C78.3952 326.792 78.3754 326.66 78.4306 326.555C78.4767 326.467 78.5163 326.376 78.549 326.282C78.5925 326.158 78.5717 326.023 78.5192 325.903C78.3426 325.497 78.25 325.059 78.2484 324.615C78.2512 324.412 78.2354 324.21 78.2016 324.012C78.1097 323.471 77.9617 322.934 77.9617 322.386C77.9617 321.392 77.5701 320.403 77.3405 319.436C77.2544 319.074 77.1886 318.634 77.1694 318.109C77.1159 316.64 77.0619 310.851 77.0381 308.039C77.0294 307.009 76.8273 305.971 76.9542 304.949C77.0191 303.933 76.7571 302.922 76.7714 301.904C76.7739 301.73 76.7872 301.555 76.8113 301.381C77.1149 300.182 76.4462 298.869 76.6923 297.656L77.2131 295.09C77.3272 294.528 77.394 293.962 77.4084 293.388C77.5001 289.709 77.7561 275.222 76.2513 270.372C76.2447 270.351 76.2419 270.331 76.2419 270.309C76.2419 270.309 76.2419 270.262 76.2419 270.241C76.3895 266.668 74.2316 260.721 75.4543 256.595C76.4194 253.335 76.1604 249.889 74.9018 246.731C73.2142 242.495 70.9014 236.714 70.0767 234.759C69.1368 232.54 68.1635 230.102 67.2026 228.714C67.1183 228.593 67.034 228.478 66.9497 228.371C66.8696 228.269 66.8573 228.126 66.9171 228.011C67.1473 227.569 67.2877 227.084 67.3293 226.585C67.4046 225.586 67.2616 224.435 67.9864 223.728C68.2626 223.501 68.5606 223.301 68.8759 223.131C69.431 222.764 69.8729 222.248 70.1519 221.643C70.431 221.037 70.5367 220.365 70.4557 219.703C70.1693 217.709 69.394 215.735 68.9425 213.772C68.887 213.531 68.82 213.292 68.7416 213.056C68.3701 211.937 67.7501 210.92 66.9306 210.079C66.7539 209.898 66.6463 209.658 66.6463 209.405C66.6642 208.518 66.4184 207.648 65.9432 206.905C65.9184 206.866 65.9682 206.817 66.0057 206.844C65.8919 206.742 65.7824 206.645 65.6644 206.547C65.4981 206.378 65.3078 206.237 65.0997 206.124C63.5018 205.027 61.6339 204.394 59.7011 204.293C57.7682 204.192 55.845 204.628 54.1426 205.553C53.2902 206.011 52.558 206.665 52.006 207.461C50.8808 209.206 51.1632 211.462 50.5816 213.443C50.0169 215.335 48.6852 216.9 47.581 218.552C46.4769 220.202 45.554 222.158 45.9712 224.087C46.2704 225.489 47.265 226.746 47.2355 228.18C47.186 228.933 46.8769 229.643 46.3614 230.19C45.8459 230.737 45.1563 231.087 44.4119 231.177H44.3841C44.3773 231.177 44.3706 231.178 44.3639 231.179C44.2379 231.198 44.1905 231.369 44.3 231.435C45.4628 232.129 46.8308 232.442 48.1952 232.642C48.4034 232.673 48.5377 232.877 48.4913 233.082C47.7344 235.951 47.0247 239.264 46.5573 241.567C46.1722 243.463 46.1362 245.407 46.1763 247.342C46.2245 249.673 46.0789 253.017 45.1325 255.905C44.269 258.54 43.9156 262.628 43.775 265.929C43.6695 268.406 48.1252 268.02 48.5799 270.457C48.6237 270.692 48.6542 270.901 48.6743 271.087C48.7513 271.799 49.145 272.7 49.8025 272.983C49.8832 273.018 49.9664 273.054 50.0518 273.089C50.3891 273.23 50.6049 273.568 50.5774 273.932L50.3751 276.684C50.2978 277.261 50.3854 277.847 50.628 278.376C50.8161 278.742 50.8255 279.408 50.7836 280.006C50.7278 280.801 50.369 281.685 50.628 282.439C51.152 283.967 50.2958 285.639 50.1706 287.249C50.0515 288.78 49.9157 290.575 49.8862 291.167C49.8618 291.657 49.5742 292.558 49.2626 293.406C48.7982 294.671 49.7765 296.957 48.4492 297.187C47.8784 297.285 47.5429 297.753 47.3475 298.224C47.0746 298.882 46.8525 299.472 46.344 299.97C45.8537 300.451 45.3805 301.182 44.9404 301.709C43.434 303.511 39.9084 308.293 38.2514 315.264C37.7836 317.231 36.0567 319.071 36.3795 321.067C36.3886 321.123 36.3957 321.177 36.4009 321.227C36.4291 321.503 36.4999 322.739 36.4427 323.01C36.2431 324.048 35.7345 326.178 35.6631 326.476C35.6587 326.494 35.673 326.511 35.6919 326.511C35.717 326.511 35.731 326.54 35.7147 326.559C34.5403 327.931 32.8576 330.191 32.5994 332.178C32.5994 332.21 32.5982 332.242 32.5958 332.273C32.5878 332.38 32.5523 332.481 32.5093 332.579C32.1862 333.31 32.5147 334.164 33.2443 334.491L37.2714 336.292C37.4616 336.378 37.6854 336.312 37.7991 336.137C37.9519 335.902 38.2885 335.874 38.4864 336.072C39.2983 336.884 41.2977 338.686 43.4933 339.167C43.9876 339.274 44.4918 339.33 44.9977 339.331C45.8364 339.317 46.6702 339.223 47.488 339.051C48.9442 338.745 49.8723 338.951 50.0445 337.473C50.3024 335.26 45.4485 334.429 44.3014 332.519C43.769 331.633 43.3705 330.73 43.4806 330.138C43.5887 329.489 43.6549 328.835 43.6787 328.178C43.6787 328.1 43.6787 328.023 43.6787 327.946C43.6787 327.846 43.7679 327.769 43.8673 327.783C43.9629 327.797 44.0501 327.726 44.0556 327.63L44.0976 326.901C44.1074 326.729 44.1799 326.569 44.248 326.412C44.3123 326.263 44.3403 326.099 44.3277 325.935C44.3277 325.448 43.9062 325.377 44.3277 325.089C44.7491 324.8 44.7491 325.089 44.7491 324.39C44.7491 323.692 44.4625 323.899 45.1073 323.201C45.9151 322.326 45.8661 320.722 46.3031 319.614C46.4197 319.318 46.4895 318.994 46.4727 318.65C46.4011 317.182 51.2853 307.874 52.2884 307.523C52.5227 307.441 52.7065 307.278 52.8504 307.078C53.4081 306.301 54.3605 305.872 55.1625 305.352C55.3334 305.24 55.6522 304.831 55.9742 304.378C56.6568 303.418 57.1751 302.359 57.5904 301.256C59.0242 297.45 62.4039 288.059 62.4898 283.879C62.491 283.823 62.4992 283.771 62.5153 283.718C62.6546 283.255 63.2421 283.158 63.4915 283.572C64.0774 284.544 64.8265 286.072 64.6445 287.299C64.2857 289.718 66.2375 292.098 66.2375 294.543V295.616C66.2375 296.275 66.3127 296.93 66.4069 297.582C66.5109 298.302 66.5698 299.028 66.5831 299.756C66.5115 300.734 67.4255 301.716 67.0804 302.554C66.4882 303.99 66.9624 305.655 67.0637 307.205C67.0682 307.274 67.0737 307.334 67.0804 307.383C67.142 307.837 66.9171 312.171 67.834 315.284C68.2249 316.611 69.0655 317.839 69.0167 319.222C69.0007 319.674 68.9064 320.138 68.6692 320.538C68.6414 320.585 68.6164 320.632 68.5941 320.679C67.891 322.157 68.3389 324.599 69.3853 325.858C69.9196 326.568 70.1596 327.456 70.0558 328.339C69.6831 329.752 69.4063 331.603 70.0174 332.901C70.0256 332.918 70.03 332.937 70.03 332.957C70.1233 334.063 71.0912 334.886 72.1977 334.801L75.2396 334.567C75.501 334.547 75.7029 334.329 75.7029 334.067C75.7029 333.737 76.0164 333.493 76.3391 333.561C77.5574 333.817 80.333 334.282 82.9641 333.871C83.029 333.861 83.0938 333.85 83.1584 333.839C86.1117 333.332 89.1977 328.496 86.2017 328.551Z" fill="url(#paint0_linear_117_4249)"/>
<path d="M87.2825 330.7C87.1463 331.188 86.8875 331.633 86.5596 332.02C85.4949 333.273 83.9838 333.896 82.4217 334.163C79.964 334.583 77.3631 334.123 76.1641 333.852C75.8223 333.775 75.4862 334.033 75.4862 334.383C75.4862 334.656 75.277 334.884 75.005 334.907L72.3177 335.134C71.1656 335.232 70.1545 334.373 70.0647 333.22C70.0647 333.196 70.0597 333.172 70.0503 333.151C69.4597 331.772 69.7382 329.798 70.1019 328.31C70.4485 326.918 71.2812 325.678 72.5109 324.939C73.9543 324.071 75.9001 323.384 76.7918 325.203C77.1194 325.841 77.5736 326.393 78.1221 326.823C78.6255 327.234 79.1921 327.569 79.7623 327.842C82.0216 328.922 85.246 327.267 87.0395 329.016C87.5001 329.464 87.4301 330.171 87.2825 330.7Z" fill="#65617D"/>
<path opacity="0.1" d="M74.2978 327.043C73.4769 327.318 72.9072 328.095 73.0984 328.939C73.345 330.028 73.9393 331.331 75.3719 331.289C77.8212 331.218 78.1498 329.752 77.3746 328.761C77.2043 328.533 77.0415 328.299 76.8865 328.059C76.3281 327.191 75.2757 326.715 74.2978 327.043Z" fill="black"/>
<path d="M49.5976 337.444C49.4226 338.847 48.5733 338.729 47.195 339.046C46.4387 339.22 45.667 339.316 44.8905 339.331C44.4193 339.327 43.9497 339.272 43.4891 339.164C41.4493 338.665 39.6034 336.822 38.8435 335.977C38.6617 335.775 38.3282 335.802 38.1909 336.037C38.0887 336.212 37.8686 336.278 37.6869 336.189L34.001 334.373C33.2817 334.018 32.9538 333.172 33.2465 332.425C33.2991 332.291 33.3327 332.15 33.3462 332.007L33.3502 331.964C33.5939 329.889 35.1944 327.524 36.2912 326.111C36.9177 325.306 37.9432 324.957 38.9509 325.117L41.7688 325.565C42.8841 325.742 43.718 326.689 43.6923 327.818C43.6708 328.496 43.6085 329.172 43.5053 329.84C43.402 330.462 43.7892 331.416 44.2988 332.347C45.3439 334.256 49.867 335.284 49.5976 337.444Z" fill="#65617D"/>
<path opacity="0.1" d="M43.1095 325.83C43.6101 325.911 43.9737 325.9 43.98 326.407C43.9881 327.055 43.3965 327.975 42.7584 327.861L36.3094 326.718C36.1115 326.683 35.9704 326.546 36.0121 326.349C36.0232 326.297 36.0578 326.19 36.0905 326.148C36.1879 326.023 36.2814 325.905 36.3698 325.796C36.8516 325.198 37.6216 324.935 38.3789 325.058L43.1095 325.83Z" fill="black"/>
<path opacity="0.1" d="M76.4191 325.158C76.991 326.227 77.3681 327.571 76.2702 328.086C74.4255 328.95 71.5268 328.915 70.2943 328.853C69.9741 328.837 69.7535 328.546 69.7479 328.226C69.7469 328.171 69.7524 328.115 69.7665 328.062C69.8273 327.832 69.8927 327.603 69.9627 327.375C70.2154 326.555 70.7244 325.837 71.4346 325.354C72.8625 324.383 75.371 323.098 76.4191 325.158Z" fill="black"/>
<path d="M77.4117 324.111C77.4043 325.091 77.6975 326.204 76.927 326.81C75.82 327.68 73.8555 327.971 72.215 328.049C70.7071 328.12 69.6795 326.59 68.8011 325.362C67.7684 324.1 67.3366 321.685 68.0326 320.21C68.0539 320.165 68.0776 320.12 68.104 320.075C68.3424 319.667 68.4338 319.193 68.4462 318.732C68.4825 317.379 67.6755 316.173 67.2977 314.872C66.3988 311.779 66.621 307.451 66.5587 307.014C66.5519 306.966 66.5463 306.907 66.5417 306.839C66.439 305.298 65.9717 303.642 66.5587 302.213C66.9027 301.376 66.0067 300.403 66.0746 299.431C66.0611 298.704 66.0032 297.979 65.9015 297.259C65.8109 296.618 65.7392 295.974 65.7392 295.327V294.228C65.7392 291.805 63.8445 289.441 64.1895 287.043C64.3641 285.828 63.6413 284.321 63.0721 283.358C62.8295 282.948 62.2488 283.043 62.1143 283.501C62.0994 283.551 62.0917 283.601 62.0905 283.653C61.9976 287.807 58.7132 297.155 57.3234 300.935C56.922 302.027 56.4204 303.077 55.7569 304.032C55.4423 304.485 55.1304 304.895 54.9628 305.007C54.19 305.52 53.2538 305.925 52.7346 306.694C52.5919 306.905 52.4074 307.077 52.1689 307.162C51.1923 307.508 46.4368 316.761 46.5089 318.224C46.5256 318.561 46.4598 318.88 46.3488 319.171C45.9257 320.28 45.985 321.874 45.18 322.746C44.5516 323.426 44.8276 323.232 44.8276 323.929C44.8276 324.627 44.8276 324.352 44.4029 324.622C43.9783 324.892 44.4029 324.973 44.4029 325.468C44.4158 325.629 44.3885 325.79 44.3251 325.937C44.2574 326.093 44.1857 326.252 44.1764 326.423C44.15 326.908 43.7087 327.265 43.2282 327.188L39.4669 326.588C37.5655 326.284 36.3602 324.436 36.7134 322.543C36.761 322.292 36.6876 321.01 36.6606 320.755C36.6557 320.709 36.6493 320.661 36.6412 320.611C36.3232 318.63 38.0221 316.801 38.4762 314.847C40.0891 307.906 43.5235 303.148 44.988 301.358C45.4148 300.836 45.8706 300.111 46.3475 299.635C46.8446 299.138 47.0602 298.557 47.3263 297.906C47.5166 297.442 47.8431 296.98 48.3985 296.883C49.7159 296.654 48.7345 294.383 49.1867 293.124C49.487 292.289 49.7653 291.402 49.7954 290.915C49.8321 290.321 49.9641 288.52 50.0778 286.989C50.1965 285.39 51.0282 283.731 50.5172 282.212C50.2652 281.463 50.6159 280.59 50.6719 279.802C50.7142 279.205 50.7054 278.54 50.5172 278.176C50.283 277.652 50.1978 277.075 50.271 276.506L50.4705 273.767C50.64 271.373 52.4174 269.405 54.7941 269.065C61.201 268.148 73.158 266.769 74.8977 268.94C75.1567 269.31 75.3481 269.722 75.4624 270.157C76.9412 274.94 76.6883 289.398 76.5979 293.063C76.5839 293.634 76.5189 294.196 76.4079 294.756L75.9006 297.315C75.6617 298.52 76.3171 299.82 76.0185 301.012C75.9949 301.184 75.9819 301.356 75.9792 301.529C75.9636 302.543 76.2208 303.551 76.1547 304.563C76.0334 305.578 76.2306 306.607 76.2388 307.63C76.2613 310.424 76.3128 316.18 76.367 317.64C76.3862 318.155 76.4491 318.588 76.5311 318.946C76.7534 319.915 77.1355 320.905 77.1355 321.899C77.1355 322.441 77.2773 322.972 77.3661 323.507C77.3992 323.706 77.4145 323.908 77.4117 324.111Z" fill="#444053"/>
<path opacity="0.1" d="M43.7995 338.337C44.2193 338.703 43.9398 339.291 43.3975 339.166C41.3742 338.677 39.5434 336.867 38.7906 336.039C38.61 335.84 38.2813 335.867 38.1446 336.098C38.0429 336.271 37.826 336.336 37.6462 336.248L33.9883 334.465C33.2773 334.119 32.9524 333.283 33.2424 332.547L33.3129 332.369C33.3181 332.355 33.3215 332.341 33.3229 332.327C33.3333 332.217 33.4525 332.154 33.5493 332.206L38.7189 335.022C38.7449 335.036 38.7687 335.049 38.795 335.063C39.148 335.246 41.9401 336.718 43.7995 338.337Z" fill="black"/>
<path opacity="0.1" d="M77.2525 332.965C78.6697 333.074 78.567 334.152 77.1691 333.895C76.7644 333.82 76.4113 333.742 76.1266 333.673C75.7394 333.58 75.3506 333.87 75.3506 334.269C75.3506 334.573 75.1188 334.827 74.8159 334.855L71.0187 335.205C70.392 335.263 69.8401 334.794 69.7955 334.166C69.7487 333.507 70.2777 332.951 70.9383 332.96C72.5638 332.983 74.4948 332.986 75.4506 332.898C76.0522 332.897 76.6532 332.919 77.2525 332.965Z" fill="black"/>
<path opacity="0.1" d="M38.6551 320.043C38.8372 320.031 39.0199 320.034 39.2 320.053C39.533 320.087 39.8544 320.212 40.1497 320.37C40.5133 320.564 40.8791 320.745 41.2356 320.952C41.2681 320.971 41.3002 320.99 41.332 321.01C41.5889 321.2 41.6961 321.485 41.953 321.676C42.3775 321.994 43.0495 321.96 43.6365 322.074C43.7638 322.099 43.9562 322.088 43.9821 322.216C43.9928 322.269 43.9339 322.314 43.875 322.346C43.72 322.413 43.5448 322.448 43.3664 322.448C43.188 322.448 43.0128 322.413 42.8578 322.346C42.5472 322.213 42.2611 322.049 42.0065 321.858C41.5175 321.529 40.9581 321.266 40.3523 321.079C39.8536 320.93 39.1326 320.846 38.5227 320.668C37.9645 320.506 38.0737 320.052 38.6551 320.043Z" fill="black"/>
<path opacity="0.1" d="M38.4828 320.93C38.5178 320.943 38.5511 320.96 38.582 320.981C38.7501 321.093 38.9123 321.245 39.0662 321.432C39.4507 321.861 39.1685 322.419 38.7033 322.08C38.5161 321.944 38.3339 321.77 38.1592 321.56C38.1405 321.538 38.1219 321.518 38.1004 321.499C37.8146 321.239 37.9654 320.789 38.3395 320.885C38.3874 320.898 38.4352 320.913 38.4828 320.93Z" fill="black"/>
<path opacity="0.1" d="M39.2383 323.293C39.4402 323.289 39.6424 323.298 39.8404 323.318C40.1889 323.379 40.5119 323.472 40.7928 323.593C41.3237 323.808 41.9593 323.944 42.6287 323.99C42.7023 323.995 42.7057 324.057 42.632 324.054H40.6943C40.1903 324.07 39.6876 324.012 39.2492 323.886C38.9208 323.806 37.5633 323.612 37.5523 323.384C37.5414 323.156 38.9098 323.293 39.2383 323.293Z" fill="black"/>
<path opacity="0.1" d="M73.7268 324.019C74.2191 324.057 74.7143 324.066 75.2076 324.047C75.7276 324.037 76.2342 323.928 76.6704 323.733C77.1017 323.503 77.0113 323.268 76.4618 323.252C75.9504 323.269 75.4486 323.354 74.9857 323.503C74.7458 323.57 74.5144 323.651 74.2944 323.745C74.1811 323.78 73.8087 324.021 73.7268 324.019Z" fill="black"/>
<path opacity="0.1" d="M74.6011 325.454C74.8778 325.272 75.2255 325.476 75.0251 325.739C74.8786 325.922 74.7289 326.073 74.5769 326.19C74.2504 326.443 73.7017 326.436 73.7299 326.024C73.7614 325.579 74.1194 325.716 74.2051 325.682C74.3377 325.616 74.4697 325.54 74.6011 325.454Z" fill="black"/>
<path opacity="0.1" d="M70.0715 325.039C70.7709 324.871 71.5553 324.71 72.1902 325.048C72.4311 325.177 72.6646 325.37 72.8846 325.627C72.9007 325.649 72.9122 325.681 72.9188 325.719C72.9217 325.731 72.9236 325.746 72.9236 325.76C72.9236 325.774 72.9217 325.789 72.9188 325.802C72.8636 326.021 72.7789 326.201 72.6751 326.319C72.5712 326.436 72.4532 326.487 72.336 326.463C72.1027 326.406 71.8742 326.286 71.6561 326.105C71.3756 325.914 71.0854 325.798 70.7921 325.76C70.6209 325.738 70.4481 325.771 70.2755 325.771C70.107 325.77 69.9283 325.737 69.8064 325.62C69.5886 325.412 69.757 325.114 70.0715 325.039Z" fill="black"/>
<path opacity="0.1" d="M52.0225 297.528C51.3145 297.027 50.4751 296.75 49.6108 296.731C50.4861 296.675 51.349 296.961 52.0225 297.528Z" fill="black"/>
<path opacity="0.1" d="M51.106 294.343C51.5135 294.346 51.9154 294.468 52.292 294.698C52.4086 294.769 52.329 294.898 52.2038 294.844C51.8291 294.657 51.4435 294.531 51.0527 294.465C50.8275 294.433 50.6022 294.465 50.3769 294.426C50.1516 294.388 49.8648 294.323 49.6108 294.311C50.1065 294.349 50.6063 294.304 51.106 294.343Z" fill="black"/>
<path opacity="0.1" d="M53.1226 296.136C53.3348 296.204 53.5839 296.359 53.6301 296.721C53.6301 296.505 52.1261 295.796 51.9416 295.696C51.1162 295.202 51.1391 295.578 52.068 295.826C52.422 295.921 52.7757 296.016 53.1226 296.136Z" fill="black"/>
<path opacity="0.1" d="M55.3779 290.374C55.9441 290.154 56.4736 289.83 56.9471 289.417C57.197 289.198 57.5625 289.367 57.4172 289.666C57.2711 289.965 57.0634 290.218 56.8124 290.402C56.3046 290.759 55.7431 291.001 55.1575 291.116C54.5726 291.232 54.002 291.43 53.4585 291.706C53.1981 291.859 52.3846 292.749 52.1282 292.704C51.8036 292.647 52.3205 292.054 52.4407 291.947C53.2983 291.172 54.3842 290.829 55.3779 290.374Z" fill="black"/>
<path opacity="0.1" d="M72.9231 298.856C72.6002 298.722 68.6739 299.644 68.9139 298.722C69.0624 298.164 70.3366 298.365 70.6556 298.382C71.426 298.408 72.1898 298.568 72.9231 298.856Z" fill="black"/>
<path d="M68.9033 214.729C68.9033 216.585 68.2615 218.383 67.0862 219.819C65.9112 221.255 64.2755 222.241 62.4568 222.608C60.638 222.976 58.7481 222.702 57.1077 221.836C55.4673 220.968 54.1773 219.561 53.4567 217.851C52.7361 216.141 52.6291 214.234 53.154 212.455C53.679 210.675 54.8034 209.131 56.3366 208.087C57.8698 207.041 59.7174 206.558 61.5658 206.72C63.4143 206.882 65.1498 207.678 66.478 208.974C67.2485 209.721 67.8605 210.616 68.2767 211.604C68.6938 212.594 68.9071 213.656 68.9033 214.729Z" fill="#FBBEBE"/>
<path d="M57.5192 218.992C56.556 214.812 62.7475 222.291 63.3023 226.544C63.3625 227.006 63.4969 227.376 63.7303 227.608V227.608C67.2509 231.096 57.5231 224.307 57.5536 219.351C57.5544 219.217 57.5433 219.097 57.5192 218.992V218.992Z" stroke="#6C63FF" stroke-miterlimit="10"/>
<path opacity="0.1" d="M75.1769 269.724C75.3053 270.057 75.3354 270.416 75.3354 270.772C75.1954 274.4 68.8464 281.72 67.3799 280.51C66.5204 279.802 62.7367 278.677 59.7523 277.868C57.3133 277.207 55.4632 274.538 52.9362 274.538C52.7175 274.518 52.4999 274.49 52.284 274.452C51.1217 274.248 50.4685 273.093 50.5499 271.915C50.6397 270.618 51.5961 269.551 52.8815 269.351C58.4434 268.487 72.8646 266.515 74.7878 268.971C74.9444 269.208 75.0749 269.46 75.1769 269.724Z" fill="black"/>
<path d="M76.3561 270.182C76.2828 271.964 74.6201 274.651 72.7841 276.742C70.948 278.833 68.9596 280.314 68.2092 279.705C67.6597 279.355 67.0638 279.08 66.4381 278.888C64.7872 278.295 62.3779 277.628 60.3443 277.101C57.8795 276.462 55.9668 273.851 53.4205 273.851C52.6641 273.851 51.5769 273.496 50.6525 273.128C49.677 272.739 49.0432 271.4 48.8498 270.368C48.3956 267.945 43.9659 268.331 44.0701 265.869C44.2093 262.581 44.5603 258.509 45.4207 255.884C46.3617 253.013 46.5102 249.687 46.465 247.367C46.4273 245.433 46.4658 243.49 46.8489 241.595C47.3121 239.302 48.0103 236.009 48.7412 233.151C49.5096 230.159 50.3169 227.649 50.9333 227.251C52.2379 226.422 57.899 226.908 60.1867 227.145C60.8322 227.212 61.4752 227.256 62.1237 227.282C63.2824 227.328 65.1754 227.437 66.0822 227.674C66.5041 227.835 66.8638 228.121 67.1109 228.491C67.1934 228.601 67.2802 228.715 67.3626 228.838C68.3178 230.235 69.2901 232.647 70.2233 234.853C71.0469 236.796 73.343 242.531 75.0226 246.744C76.2826 249.905 76.5485 253.324 75.5838 256.587C74.3687 260.696 76.4999 266.631 76.3561 270.182Z" fill="#65617D"/>
<path d="M67.7004 276.179C68.6898 275.087 70.3703 274.983 71.4864 275.946C71.8606 276.269 72.1403 276.685 72.2727 277.161C72.7762 278.971 73.8139 283.526 71.3403 283.019C69.7387 282.69 68.2734 281.453 67.2363 280.342C66.2357 279.27 66.3728 277.645 67.3571 276.558L67.7004 276.179Z" fill="#FBBEBE"/>
<path opacity="0.1" d="M71.4456 240.869C73.3424 246.117 69.2922 248.657 68.2832 243.168C68.2249 242.85 68.2686 242.97 68.2512 242.648C68.1537 240.839 67.771 234.468 67.1533 233.137C66.6158 231.972 67.993 231.58 68.4523 232.777C68.6809 233.373 68.9084 233.977 69.134 234.566C69.5742 235.714 70.4692 238.168 71.4456 240.869Z" fill="black"/>
<path d="M72.1144 240.335C74.4078 245.698 69.8568 248.872 68.6111 243.174C68.5293 242.8 68.5902 242.934 68.5655 242.552C68.4414 240.627 67.9923 234.445 67.274 233.136C66.5928 231.888 68.1676 231.36 68.756 232.654C69.0447 233.29 69.3315 233.935 69.6149 234.564C70.0979 235.637 71.0511 237.848 72.1144 240.335Z" fill="#65617D"/>
<path opacity="0.1" d="M65.6182 231.916C65.4799 230.994 65.2845 230.056 64.737 229.302C64.0063 228.296 62.6907 227.486 60.9448 230.536C58.5019 234.805 58.1705 240.076 58.1266 241.228C58.1207 241.384 58.1173 241.536 58.1118 241.691L57.7526 251.877C57.6852 253.788 58.555 255.644 58.492 257.555C58.4809 257.891 58.666 258.441 58.9152 259.02C59.6063 260.627 60.1595 262.299 60.4713 264.019C60.518 264.277 60.5703 264.54 60.6285 264.803C61.1166 267.004 62.457 269.092 63.146 271.238C63.4184 272.087 63.5534 272.973 63.6693 273.857C63.7971 274.832 64.0675 276.095 64.636 276.775C65.5545 277.872 65.1978 279.511 65.1258 279.798C65.1212 279.817 65.1393 279.833 65.1572 279.826L69.3219 278.29C69.3305 278.287 71.0919 275.995 71.095 275.986C71.7592 274.11 70.7182 271.67 70.6872 271.598C70.6862 271.596 70.6872 271.598 70.6863 271.596C70.6543 271.522 66.8497 262.797 66.3815 261.527C65.9115 260.251 65.2369 258.761 65.5067 257.27C65.7765 255.779 65.5599 239.968 65.9156 237.559C66.1479 235.986 65.8516 233.471 65.6182 231.916Z" fill="black"/>
<path d="M66.5849 231.236C66.4151 230.209 66.1699 229.153 65.4777 228.375C64.6449 227.44 63.2118 226.807 61.3323 229.699C58.6314 233.856 58.2399 238.978 58.1843 240.186C58.1762 240.362 58.1718 240.538 58.1647 240.714L57.7662 250.669C57.6901 252.568 58.6622 254.396 58.5911 256.295C58.5793 256.61 58.7653 257.114 59.0227 257.653C59.8119 259.303 60.4537 261.032 60.8373 262.821C60.8906 263.07 60.9499 263.322 61.0155 263.573C61.5689 265.686 63.0121 267.623 63.7599 269.675C64.0857 270.569 64.2456 271.513 64.3943 272.452C64.5436 273.395 64.8465 274.571 65.458 275.215C66.4521 276.261 66.113 277.807 66.0182 278.161C66.0099 278.192 66.04 278.22 66.0706 278.21L70.8702 276.647C70.8838 276.643 72.6714 274.452 72.6768 274.439C73.4188 272.592 72.2554 270.19 72.2205 270.119C72.2194 270.116 72.2205 270.119 72.2194 270.117C72.1834 270.044 67.9321 261.455 67.4087 260.206C66.8834 258.95 66.1295 257.483 66.4311 256.015C66.7326 254.548 66.495 238.983 66.8879 236.608C67.1347 235.116 66.839 232.772 66.5849 231.236Z" fill="#444053"/>
<path opacity="0.1" d="M66.5123 271.875C66.825 271.904 67.1291 271.972 67.4111 272.078C67.6378 272.169 67.8339 272.304 68.0549 272.399C68.3139 272.51 68.6063 272.57 68.9034 272.574C68.572 272.574 68.2406 272.601 67.8987 272.605C67.693 272.613 67.4873 272.593 67.291 272.547C67.1104 272.478 66.9416 272.392 66.7886 272.291C66.5871 272.177 66.3655 272.085 66.1304 272.017C65.9181 271.948 65.9692 271.812 66.1913 271.835C66.2988 271.846 66.4058 271.859 66.5123 271.875Z" fill="black"/>
<path opacity="0.1" d="M65.5446 206.561L65.0561 206.061C65.0218 206.026 65.0544 205.984 65.0933 206.014C65.2339 206.121 65.3614 206.259 65.4712 206.421C65.5037 206.459 65.5362 206.499 65.5685 206.539C65.5814 206.555 65.5599 206.575 65.5446 206.561Z" fill="black"/>
<path opacity="0.1" d="M65.5133 227.549C66.2129 227.785 66.3047 228.711 65.6775 229.1C65.6702 229.105 65.6628 229.109 65.6555 229.114C65.4356 229.245 65.1836 229.33 64.9194 229.361C64.5446 229.391 64.1667 229.356 63.8071 229.26C63.35 229.159 62.899 229.038 62.4563 228.897C61.591 228.586 60.704 228.324 59.8008 228.112C58.4249 227.84 56.8232 227.938 55.8363 228.809C54.9706 229.576 54.7573 230.767 53.8917 231.533C52.7333 232.557 50.8346 232.495 49.1911 232.295C48.9894 232.271 48.8575 232.071 48.9149 231.876C49.622 229.475 50.3534 227.511 50.9183 227.185C52.1884 226.467 57.7451 226.9 59.9022 227.1C60.4782 227.154 61.0515 227.189 61.6296 227.209C62.7383 227.248 64.6212 227.341 65.5133 227.549Z" fill="black"/>
<path opacity="0.1" d="M52.8257 214.732C52.8256 213.15 53.2975 211.603 54.1827 210.285C55.0678 208.967 56.3266 207.935 57.8016 207.321C59.2767 206.707 60.9023 206.535 62.4751 206.83C62.6545 206.863 62.8324 206.903 63.0083 206.948C65.6186 207.618 65.9971 210.579 66.7608 213.163C67.468 215.572 68.7717 218.091 67.1201 219.982C66.7017 220.461 66.2246 220.893 65.6963 221.266C64.0671 222.418 62.0652 222.936 60.0742 222.72C58.083 222.503 56.2425 221.569 54.905 220.095C53.5676 218.621 52.8272 216.712 52.8257 214.732Z" fill="black"/>
<path d="M65.3649 206.821C63.8157 205.438 61.8639 204.57 59.786 204.34C57.7081 204.11 55.6094 204.529 53.7869 205.539C52.9495 205.993 52.2346 206.638 51.7019 207.42C50.6041 209.14 50.8849 211.36 50.3105 213.312C49.7659 215.176 48.4638 216.718 47.3872 218.339C46.3108 219.959 45.4129 221.895 45.8171 223.784C46.1108 225.166 47.0936 226.406 47.0596 227.818C47.0204 228.603 46.6821 229.345 46.112 229.897C45.5708 230.419 45.3978 231.562 46.1197 231.774C46.9452 232.016 47.8114 232.158 48.6638 232.278C50.302 232.509 52.2636 232.58 53.4465 231.395C54.3273 230.515 54.5443 229.137 55.4251 228.257C56.4293 227.247 58.059 227.135 59.4589 227.453C60.8588 227.771 62.1481 228.438 63.5352 228.793C63.9018 228.902 64.2859 228.94 64.6671 228.906C65.8627 228.747 66.5564 227.441 66.65 226.259C66.7266 225.275 66.5819 224.14 67.2924 223.445C67.556 223.221 67.8407 223.024 68.1436 222.854C68.6892 222.483 69.1206 221.973 69.3911 221.377C69.6625 220.782 69.7615 220.125 69.6796 219.478C69.352 217.141 66.7819 215.684 66.1096 213.417C65.7181 212.102 66.0202 210.698 65.9946 209.329C65.9691 207.96 65.4457 206.397 64.1352 205.937" fill="#444053"/>
<path opacity="0.1" d="M69.6806 219.489C69.3482 217.155 66.7796 215.7 66.1077 213.438C65.7164 212.124 66.0183 210.724 65.9971 209.356C66.0073 208.484 65.7584 207.629 65.2836 206.896C65.26 206.86 65.3071 206.814 65.3421 206.839C65.2372 206.738 65.1266 206.642 65.0103 206.551C64.8506 206.384 64.6655 206.243 64.4617 206.132C64.3426 206.044 64.2193 205.965 64.1002 205.885L64.2916 206.056C64.2563 206.031 64.2092 206.077 64.2329 206.114C64.7084 206.847 64.9573 207.701 64.9465 208.574C64.9465 209.938 64.6659 211.343 65.0572 212.656C65.7291 214.919 68.2978 216.374 68.6292 218.707C68.7102 219.353 68.6102 220.009 68.3388 220.604C68.0674 221.198 67.635 221.707 67.0901 222.078C66.7877 222.246 66.5028 222.444 66.2395 222.667C65.5335 223.362 65.6738 224.495 65.5973 225.478C65.5037 226.657 64.8104 227.961 63.6196 228.12C63.2373 228.154 62.8519 228.115 62.4841 228.008C61.0975 227.652 59.8089 226.983 58.4096 226.669C57.0104 226.356 55.3857 226.464 54.3777 227.473C53.4973 228.351 53.2804 229.722 52.4 230.605C51.2219 231.787 49.2911 231.712 47.6238 231.487C46.5379 231.365 45.4692 231.124 44.4378 230.769C44.4186 230.762 44.3981 230.761 44.3779 230.764C44.2575 230.781 44.2115 230.945 44.3158 231.007C45.6069 231.783 47.1558 232.066 48.6616 232.277C50.299 232.507 52.2597 232.578 53.4377 231.395C54.3181 230.516 54.5351 229.141 55.4155 228.263C56.4234 227.255 58.0524 227.142 59.4473 227.459C60.8423 227.777 62.1353 228.442 63.5218 228.798C63.8896 228.906 64.275 228.944 64.6573 228.911C65.8482 228.752 66.5414 227.447 66.635 226.268C66.7116 225.285 66.5712 224.152 67.2773 223.458C67.5417 223.236 67.8265 223.038 68.1274 222.868C68.6769 222.499 69.1121 221.988 69.3863 221.392C69.6596 220.797 69.7615 220.138 69.6806 219.489Z" fill="black"/>
</g>
</g>
</g>
<defs>
<filter id="filter0_d_117_4249" x="-212.857" y="-210.294" width="877.447" height="583.186" filterUnits="userSpaceOnUse" color-interpolation-filters="sRGB">
<feFlood flood-opacity="0" result="BackgroundImageFix"/>
<feColorMatrix in="SourceAlpha" type="matrix" values="0 0 0 0 0 0 0 0 0 0 0 0 0 0 0 0 0 0 127 0" result="hardAlpha"/>
<feOffset dy="4"/>
<feGaussianBlur stdDeviation="2"/>
<feComposite in2="hardAlpha" operator="out"/>
<feColorMatrix type="matrix" values="0 0 0 0 0 0 0 0 0 0 0 0 0 0 0 0 0 0 0.25 0"/>
<feBlend mode="normal" in2="BackgroundImageFix" result="effect1_dropShadow_117_4249"/>
<feBlend mode="normal" in="SourceGraphic" in2="effect1_dropShadow_117_4249" result="shape"/>
</filter>
<linearGradient id="paint0_linear_117_4249" x1="60.0594" y1="339.336" x2="60.0594" y2="204.262" gradientUnits="userSpaceOnUse">
<stop stop-color="#808080" stop-opacity="0.25"/>
<stop offset="0.54" stop-color="#808080" stop-opacity="0.12"/>
<stop offset="1" stop-color="#808080" stop-opacity="0.1"/>
</linearGradient>
</defs>
</svg>
