<svg width="829" height="375" viewBox="0 0 829 375" fill="none" xmlns="http://www.w3.org/2000/svg">
<mask id="mask0_117_3863" style="mask-type:alpha" maskUnits="userSpaceOnUse" x="0" y="-458" width="829" height="833">
<rect y="-457.041" width="829" height="831.623" fill="#D9D9D9"/>
</mask>
<g mask="url(#mask0_117_3863)">
<mask id="mask1_117_3863" style="mask-type:luminance" maskUnits="userSpaceOnUse" x="-58" y="-681" width="888" height="1098">
<path d="M829.001 -680.032H-57.7141V416.395H829.001V-680.032Z" fill="white"/>
</mask>
<g mask="url(#mask1_117_3863)">
<g filter="url(#filter0_d_117_3863)">
<path d="M829 -680.039H-57.7152V416.387H829V-680.039Z" fill="white"/>
<path opacity="0.1" d="M1581.23 -120.055C1581.27 -84.618 1577.08 -49.3022 1568.76 -14.8571C1560.91 17.7325 1549.15 49.2509 1533.73 79.0094C1533.77 114.346 1526.86 149.343 1513.38 181.998C1499.9 214.654 1480.12 244.326 1455.17 269.313C1430.21 294.301 1400.58 314.112 1367.97 327.615C1335.36 341.119 1300.41 348.049 1265.12 348.005H-104.858C-168.175 347.967 -230.243 330.358 -284.169 297.13C-338.094 263.902 -381.767 216.359 -410.338 159.78C-434.473 111.957 -447.005 59.1096 -446.921 5.526C-480.431 -54.586 -499.932 -126.485 -499.932 -203.793C-499.932 -414.061 -355.778 -584.507 -177.935 -584.507C-171.641 -584.507 -165.383 -584.27 -159.179 -583.851C-47.5896 -805.704 204.097 -960.412 496.514 -960.412C676.287 -960.412 840.615 -901.975 966.503 -805.431C1012.78 -835.869 1066.07 -853.247 1122.77 -853.247C1300.6 -853.247 1444.77 -682.782 1444.77 -472.534C1444.77 -459.078 1444.16 -445.805 1442.95 -432.714C1526.54 -363.931 1581.23 -249.552 1581.23 -120.055Z" fill="#08A69B"/>
<path d="M548.141 -56.6638C542.76 -60.5982 532.073 -70.2609 538.105 -81.8018C542.707 -90.6097 553.902 -93.6961 562.753 -89.1053L683.212 -26.479L722.498 -6.06179C722.498 -6.06179 730.67 5.0347 678.457 -13.1236L678.263 -13.1829L553.302 -54.0402C551.456 -54.6397 549.714 -55.5241 548.141 -56.6638Z" fill="white"/>
<path d="M678.702 -12.8949C683.359 -17.9098 684.023 -22.5143 683.601 -25.7968L722.5 -5.9676C722.5 -5.9676 730.59 4.80969 678.894 -12.8243L678.702 -12.8949Z" fill="#F9A826"/>
<path d="M438.012 -56.6638C443.339 -60.5982 453.916 -70.2609 447.946 -81.8018C443.389 -90.6097 432.313 -93.6961 423.553 -89.1053L304.337 -26.479L265.454 -6.06179C265.454 -6.06179 257.366 5.0347 309.042 -13.1236L309.233 -13.1829L432.904 -54.0287C434.734 -54.6328 436.457 -55.5218 438.012 -56.6638Z" fill="white"/>
<path d="M307.328 -12.8949C302.872 -17.9098 302.238 -22.5143 302.641 -25.7968L265.434 -5.9676C265.434 -5.9676 257.695 4.80969 307.146 -12.8243L307.328 -12.8949Z" fill="#F9A826"/>
<path d="M511.295 347.504H474.734L486.348 -96.993H499.683L511.295 347.504Z" fill="white"/>
<path d="M790.307 154.438L767.216 158.931L774.62 -145.096H783.003L790.307 154.438Z" fill="white"/>
<path d="M207.267 155.083H184.176L191.514 -145.096H199.927L207.267 155.083Z" fill="white"/>
<path d="M1059.19 205.232C1047.96 246.249 1023.6 282.438 989.836 308.232C956.075 334.029 914.789 348.002 872.325 348.007H-115.536C-161.193 347.979 -205.948 335.278 -244.833 311.312C-283.717 287.348 -315.208 253.057 -335.81 212.248C-335.81 212.248 -192.629 13.8837 179.221 143.481C487.935 251.072 630.329 149.328 669.825 111.673C674.102 107.616 679.153 104.465 684.676 102.416C690.199 100.365 696.08 99.4574 701.964 99.7446C777.615 103.33 1039.67 121.698 1059.23 205.204L1059.19 205.232Z" fill="white"/>
<path opacity="0.1" d="M139.92 357.125C208.996 357.125 264.994 350.665 264.994 342.694C264.994 334.722 208.996 328.262 139.92 328.262C70.8427 328.262 14.8447 334.722 14.8447 342.694C14.8447 350.665 70.8427 357.125 139.92 357.125Z" fill="#F9A826"/>
<path d="M201.05 330.197C201.05 330.197 193.07 329.256 187.875 325.365L187.481 325.053C187.795 324.578 188.026 324.054 188.158 323.5C187.599 322.411 187.305 321.203 187.301 319.976C187.317 318.825 187.082 317.683 186.615 316.632V310.938C186.615 310.938 184.889 309.094 184.718 304.403C184.547 299.712 184.374 276.591 184.374 276.591C184.109 275.381 184.05 274.134 184.203 272.903C184.374 270.229 184.374 269.226 184.374 269.226C183.811 267.671 183.633 266.003 183.861 264.364C184.374 262.337 182.651 260.006 182.651 260.006L185.233 247.282C185.233 247.282 186.665 203.32 182.498 190.067V189.987C182.498 189.987 182.498 189.875 182.498 189.825C182.851 181.273 177.686 167.037 180.613 157.16C183.537 147.281 183.881 145.093 183.881 145.093C183.881 145.093 170.989 112.592 167.741 104.892C165.491 99.5807 163.161 93.7453 160.861 90.4218C160.659 90.1323 160.457 89.8587 160.256 89.6012C160.145 89.4598 160.034 89.3185 159.923 89.1977C160.626 88.0192 161.05 86.6948 161.164 85.3271C161.344 82.936 161.002 80.1801 162.737 78.4887C163.398 77.9439 164.112 77.4653 164.866 77.0595C166.195 76.1797 167.253 74.9464 167.921 73.4967C168.588 72.0469 168.842 70.4377 168.648 68.8534C168.285 66.33 166.842 64.2329 165.199 62.1951C165.762 59.1064 165.536 55.9219 164.545 52.9427C163.555 49.9634 161.83 47.285 159.529 45.1537C159.529 44.8414 159.529 44.5155 159.529 44.2032C159.576 41.8804 158.868 39.6078 157.512 37.7272L157.996 38.0737C157.724 37.8298 157.461 37.5973 157.179 37.3625C156.781 36.959 156.325 36.6194 155.827 36.3504C152.002 33.7244 147.531 32.2086 142.905 31.967C138.278 31.7253 133.675 32.7693 129.6 34.9827C127.559 36.0791 125.807 37.6451 124.485 39.5508C121.792 43.7268 122.468 49.1268 121.076 53.8681C119.724 58.3975 116.537 62.1449 113.893 66.0975C111.251 70.0478 109.042 74.7299 110.04 79.3481C110.756 82.7035 113.137 85.7124 113.066 89.1453C112.948 90.9461 112.208 92.6465 110.974 93.955C109.74 95.2657 108.09 96.1023 106.308 96.3188H106.217C105.883 96.3712 105.546 96.3986 105.208 96.4008C108.416 98.6188 112.401 99.4394 116.304 99.9568C116.224 100.26 116.143 100.565 116.072 100.878C112.915 112.845 110.101 128.042 110.101 128.042C110.101 128.042 111.987 143.442 108.033 155.508C104.079 167.575 104.593 192.367 104.593 192.367C104.593 192.367 115.598 186.663 116.284 190.34C116.97 194.019 116.284 195.031 116.284 195.031C116.284 195.031 118.534 196.178 121.177 197.19L121.066 198.66L120.582 205.246C120.397 206.627 120.606 208.031 121.187 209.296C122.135 211.14 121.187 216.167 121.187 216.167C121.187 216.167 120.38 216.673 121.187 219.023C121.994 221.375 120.551 224.717 120.551 224.717C120.551 224.717 119.543 237.281 119.411 239.914C119.28 242.549 115.972 250.138 115.972 250.138C115.972 250.138 118.897 253.817 115.972 254.323C113.046 254.829 112.703 259.388 112.703 259.388C112.703 259.388 109.263 262.235 109.263 263.238C109.263 263.238 93.7892 278.993 90.1778 304.95C90.1778 304.95 86.5664 308.303 87.0809 311.485C87.3736 313.288 86.7885 313.906 86.2236 314.109C86.8591 314.191 87.5551 314.606 87.2323 316.135C86.7178 318.811 85.346 324.515 85.346 324.515H85.5881C82.7736 327.788 78.658 333.268 78.0326 338.08C78.0326 338.283 78.0123 338.486 77.9719 338.688L76.4185 342.203L90.0064 348.283L91.2068 346.439C91.2068 346.439 97.2592 353.309 104.109 354.809C105.292 355.066 106.499 355.199 107.71 355.203C111.533 355.137 115.312 354.378 118.867 352.965C118.867 352.965 123.85 346.774 110.948 345.597C110.948 345.597 103.393 336.885 104.078 333.197C104.337 331.645 104.496 330.079 104.553 328.506C104.553 328.162 104.553 327.824 104.553 327.494L105.43 327.624L105.592 324.818C105.969 324.344 106.153 323.742 106.106 323.136C106.106 321.971 105.097 321.8 106.106 321.111C107.115 320.421 107.115 321.111 107.115 319.438C107.115 317.767 106.429 318.264 107.972 316.591C109.515 314.92 107.801 311.9 107.801 311.9C107.801 311.9 111.412 309.215 111.241 305.7C111.069 302.185 122.76 279.905 125.161 279.064C127.562 278.223 127.744 273.867 127.744 273.867C127.744 273.867 131.012 274.535 132.041 273.867C133.07 273.197 136.338 268.011 136.338 268.011C136.338 268.011 149.452 234.84 149.583 222.276L150.44 219.429C150.44 219.429 155.434 225.964 154.738 230.655C154.042 235.346 158.551 238.69 158.551 238.69V252.935C159.055 255.417 159.332 257.94 159.378 260.473C159.207 262.814 161.394 265.164 160.568 267.17C159.741 269.176 160.568 272.702 160.568 272.702C160.568 272.702 160.387 277.393 160.568 278.729C160.75 280.067 159.893 295.476 164.371 302.185C164.371 302.185 166.257 307.038 164.371 310.218C162.484 313.4 166.086 316.591 166.086 316.591C166.086 316.591 163.856 320.27 166.086 322.953C167.364 324.651 167.939 326.778 167.69 328.891C166.792 332.297 166.127 336.765 167.629 339.874V339.944L168.032 344.727L181.208 343.715V341.039C181.208 341.039 190.205 343.441 198.589 342.133C203.107 341.435 207.444 339.65 210.098 335.841C210.168 335.891 215.495 326.682 201.05 330.197Z" fill="url(#paint0_linear_117_3863)"/>
<path d="M208.273 336.237C205.736 340.233 201.594 342.097 197.291 342.831C189.306 344.197 180.689 341.682 180.689 341.682V344.516L168.102 345.58L167.712 340.575V340.488C166.253 337.185 166.924 332.412 167.801 328.822C168.223 327.128 168.745 325.462 169.358 323.836C169.358 323.836 180.202 314.012 183.815 321.386C184.599 322.911 185.686 324.233 186.999 325.263C191.991 329.332 199.586 330.324 199.586 330.324C213.363 326.595 208.273 336.237 208.273 336.237Z" fill="#65617D"/>
<path opacity="0.1" d="M174.556 326.891C174.556 326.891 174.556 336.125 180.416 335.952C186.279 335.781 187.066 332.273 185.21 329.9C183.95 328.218 182.86 326.376 181.964 324.409L174.556 326.891Z" fill="black"/>
<path d="M117.869 352.891C114.56 354.35 111.029 355.134 107.455 355.202C106.327 355.193 105.203 355.061 104.101 354.803C97.7029 353.237 92.1022 346.148 92.1022 346.148L90.9841 348.061L78.344 341.833L79.7732 338.188L79.8316 337.568C80.4149 332.601 84.246 326.941 86.8713 323.559C88.3005 321.721 89.3798 320.566 89.3798 320.566L104.587 322.982C104.587 322.982 104.645 325.081 104.587 327.644C104.536 329.267 104.386 330.885 104.139 332.485C103.508 336.287 110.537 345.278 110.537 345.278C122.507 346.518 117.869 352.891 117.869 352.891Z" fill="#65617D"/>
<path opacity="0.1" d="M105.255 323.221C105.255 323.221 105.318 325.492 105.255 328.264L86.0405 324.856C86.0405 324.856 86.1347 324.459 86.2703 323.8C87.8055 321.815 88.9646 320.566 88.9646 320.566L105.255 323.221Z" fill="black"/>
<path opacity="0.1" d="M186.099 325.002C183.33 331.583 166.858 330.028 166.858 330.028C166.938 329.497 166.97 328.959 166.947 328.421C167.369 326.794 167.886 325.193 168.5 323.632C168.5 323.632 179.318 314.195 182.922 321.277C183.706 322.743 184.789 324.013 186.099 325.002Z" fill="black"/>
<path d="M186.101 322.272C184.434 329.757 166.189 328.098 166.189 328.098C166.54 325.873 166 323.601 164.687 321.766C162.51 319.105 164.687 315.442 164.687 315.442C164.687 315.442 161.17 312.276 163.019 309.11C164.869 305.941 163.019 301.116 163.019 301.116C158.659 294.46 159.503 279.133 159.32 277.847C159.137 276.561 159.32 271.857 159.32 271.857C159.32 271.857 158.497 268.358 159.32 266.354C160.143 264.35 157.998 262.023 158.161 259.696C158.114 257.179 157.845 254.672 157.358 252.201V238.036C157.358 238.036 152.978 234.708 153.649 230.044C154.319 225.378 149.461 218.913 149.461 218.913L148.628 221.747C148.465 234.232 135.75 267.204 135.75 267.204C135.75 267.204 132.569 272.374 131.563 273.042C130.557 273.71 127.386 273.042 127.386 273.042C127.386 273.042 127.213 277.371 124.875 278.2C122.538 279.03 111.155 301.177 111.327 304.679C111.5 308.178 107.974 310.84 107.974 310.84C107.974 310.84 109.65 313.874 108.146 315.504C106.642 317.131 107.303 316.666 107.303 318.335C107.303 320.006 107.303 319.347 106.286 319.995C105.27 320.642 106.286 320.836 106.286 322.019C106.334 322.616 106.152 323.209 105.778 323.678L105.626 326.48L86.0405 323.354C86.0405 323.354 87.3822 317.688 87.8803 315.018C88.175 313.459 87.4939 313.044 86.8639 312.994C87.4228 312.791 87.992 312.174 87.7075 310.393C87.1992 307.227 90.7565 303.899 90.7565 303.899C94.2731 278.08 109.325 262.417 109.325 262.417C109.325 261.407 112.669 258.595 112.669 258.595C112.669 258.595 113.004 254.093 115.85 253.596C118.696 253.101 115.85 249.427 115.85 249.427C115.85 249.427 119.032 241.941 119.194 239.31C119.357 236.68 120.302 224.136 120.302 224.136C120.302 224.136 121.704 220.805 120.922 218.478C120.139 216.153 120.922 215.647 120.922 215.647C120.922 215.647 121.867 210.648 120.922 208.818C120.361 207.564 120.157 206.183 120.332 204.822L120.81 198.266L121.501 188.503C121.501 188.503 173.55 179.558 179.28 186.711C179.9 187.596 180.359 188.583 180.632 189.625C184.699 202.777 183.294 246.493 183.294 246.493L180.785 259.151C180.785 259.151 182.462 261.487 181.963 263.48C181.74 265.109 181.911 266.766 182.462 268.317C182.462 268.317 182.462 269.329 182.289 271.98C182.143 273.201 182.203 274.439 182.462 275.64C182.462 275.64 182.624 298.618 182.798 303.281C182.971 307.945 184.637 309.778 184.637 309.778V315.442C185.088 316.493 185.314 317.628 185.298 318.77C185.289 319.983 185.565 321.182 186.101 322.272Z" fill="#444053"/>
<path opacity="0.1" d="M107.207 355.2C106.089 355.193 104.974 355.06 103.881 354.807C97.5381 353.273 91.9853 346.319 91.9853 346.319L90.8765 348.195L78.344 342.086L79.7612 338.489L79.8188 337.882L92.7756 344.94C92.7756 344.94 103.12 350.235 107.207 355.2Z" fill="black"/>
<path opacity="0.1" d="M197.645 342.462C189.332 344.007 180.364 341.158 180.364 341.158V344.37L167.262 345.578L166.858 339.902C171.014 339.986 177.695 340.071 180.604 339.804C186.362 339.793 192.094 340.686 197.645 342.462Z" fill="black"/>
<path opacity="0.1" d="M92.5285 309.035C93.3708 308.978 94.2192 309.06 95.0147 309.279C95.8465 309.655 96.6354 310.083 97.3726 310.562C97.9261 310.785 98.4495 311.047 98.9361 311.348C99.5511 311.804 99.8076 312.486 100.423 312.942C101.55 313.787 103.408 313.594 104.908 314.002C105.075 314.002 105.254 314.109 105.279 314.234C105.305 314.362 105.164 314.469 105.023 314.546C104.652 314.706 104.233 314.79 103.806 314.79C103.379 314.79 102.959 314.706 102.588 314.546C101.845 314.227 101.16 313.835 100.551 313.379C99.3802 312.591 98.0412 311.961 96.591 311.515C94.6047 310.92 91.1447 310.756 89.8887 309.279C90.4781 308.939 91.7597 309.046 92.5285 309.035Z" fill="black"/>
<path opacity="0.1" d="M92.2411 311.205C92.6835 311.481 93.11 311.868 93.5126 312.359L95.6614 314.752C94.1355 314.978 92.6124 314.225 91.2746 312.584C90.7998 312.16 90.3368 311.67 89.8887 311.121C90.6694 310.859 91.4645 310.888 92.2411 311.205Z" fill="black"/>
<path opacity="0.1" d="M93.9244 316.812C94.4079 316.803 94.8918 316.823 95.3657 316.871C96.2 317.019 96.973 317.24 97.6454 317.53C99.2609 318.184 101.282 318.535 103.358 318.521C102.95 318.617 102.497 318.656 102.048 318.633H97.4097C96.2032 318.672 95.0001 318.533 93.9506 318.232C93.1644 318.04 89.915 317.575 89.8888 317.03C89.8626 316.483 93.1382 316.812 93.9244 316.812Z" fill="black"/>
<path opacity="0.1" d="M176.476 318.549C177.655 318.64 178.84 318.663 180.021 318.617C181.266 318.592 182.478 318.332 183.522 317.865C184.555 317.316 184.338 316.753 183.023 316.714C181.799 316.755 180.598 316.958 179.49 317.316C178.915 317.475 178.362 317.669 177.835 317.895C177.564 317.977 176.672 318.556 176.476 318.549Z" fill="black"/>
<path opacity="0.1" d="M180.328 320.566C180.244 321.658 179.897 322.257 179.585 322.667C178.817 323.627 178.012 324.217 177.194 324.414C176.989 324.414 176.412 324.414 176.485 323.349C176.56 322.285 177.417 322.613 177.622 322.531C178.536 322.077 179.439 321.421 180.328 320.566Z" fill="black"/>
<path opacity="0.1" d="M170.291 320.662C171.731 320.313 173.19 320.919 174.46 322.399C174.499 322.451 174.526 322.529 174.542 322.62C174.549 322.65 174.553 322.684 174.553 322.718C174.553 322.752 174.549 322.786 174.542 322.818C174.41 323.343 174.207 323.773 173.959 324.056C173.71 324.336 173.427 324.457 173.147 324.4C172.589 324.263 172.041 323.976 171.519 323.543C170.651 322.953 169.744 322.663 168.832 322.686C168.426 322.763 168.018 322.763 167.612 322.686C166.402 322.246 166.799 321.213 167.726 320.992C168.579 320.787 169.434 320.678 170.291 320.662Z" fill="black"/>
<path opacity="0.1" d="M124.524 255.14C122.829 253.941 120.82 253.277 118.751 253.232C120.846 253.1 122.911 253.783 124.524 255.14Z" fill="black"/>
<path opacity="0.1" d="M122.33 247.517C123.784 247.529 125.209 248.169 126.448 249.364L124.958 248.716C124.061 248.27 123.138 247.966 122.202 247.809C121.663 247.732 121.124 247.809 120.585 247.716C120.045 247.624 119.359 247.469 118.751 247.44C119.937 247.531 121.134 247.424 122.33 247.517Z" fill="black"/>
<path opacity="0.1" d="M127.16 251.807C127.668 251.971 128.264 252.34 128.374 253.209C128.374 252.692 124.774 250.993 124.333 250.754C123.593 250.312 121.219 248.577 120.678 249.776C122.765 250.717 125.017 251.069 127.16 251.807Z" fill="black"/>
<path opacity="0.1" d="M132.557 238.017C134.631 237.21 136.499 235.822 137.995 233.975C137.979 234.798 137.788 235.603 137.439 236.321C137.089 237.037 136.591 237.643 135.991 238.083C134.775 238.938 133.431 239.517 132.03 239.793C130.63 240.071 129.264 240.545 127.963 241.204C127.339 241.571 125.392 243.702 124.778 243.593C124.002 243.458 125.239 242.038 125.526 241.78C127.579 239.927 130.178 239.104 132.557 238.017Z" fill="black"/>
<path opacity="0.1" d="M174.554 258.319C173.781 257.998 164.383 260.204 164.957 257.998C165.313 256.662 168.363 257.143 169.126 257.184C170.97 257.246 172.798 257.628 174.554 258.319Z" fill="black"/>
<path d="M164.934 56.9468C164.934 61.3895 163.397 65.6932 160.584 69.1306C157.772 72.568 153.857 74.9273 149.503 75.8072C145.15 76.6871 140.626 76.0329 136.699 73.9585C132.773 71.882 129.685 68.5129 127.96 64.419C126.235 60.3273 125.979 55.7615 127.235 51.5034C128.492 47.2431 131.183 43.5481 134.853 41.0475C138.523 38.5447 142.946 37.389 147.37 37.7765C151.795 38.164 155.949 40.0696 159.128 43.172C160.973 44.9591 162.438 47.1018 163.434 49.4679C164.432 51.8363 164.943 54.3778 164.934 56.9468Z" fill="#FBBEBE"/>
<path d="M155.313 66.4951C155.313 66.4951 148.919 84.1747 152.551 87.774C156.184 91.3732 126.449 93.5023 126.449 93.5023C126.449 93.5023 138.892 72.3921 137.684 67.1516C136.477 61.9111 155.313 66.4951 155.313 66.4951Z" stroke="#6C63FF" stroke-miterlimit="10"/>
<path opacity="0.1" d="M180.33 189.813C180.33 190.258 180.33 190.682 180.33 191.097C179.995 199.779 164.797 217.301 161.287 214.406C157.777 211.511 133.896 205.724 133.896 205.724C133.896 205.724 130.386 200.11 126.714 200.11C124.629 199.925 122.588 199.387 120.678 198.518L121.367 188.544C121.367 188.544 173.297 179.478 179.019 186.786C179.63 187.707 180.074 188.733 180.33 189.813Z" fill="black"/>
<path d="M182.773 189.684C182.597 193.949 178.617 200.381 174.222 205.387C169.827 210.391 165.068 213.937 163.272 212.479C161.956 211.642 160.53 210.983 159.032 210.523C150.938 207.614 135.229 203.967 135.229 203.967C135.229 203.967 131.634 198.467 127.873 198.467C124.111 198.467 116.932 194.799 116.932 194.799C116.932 194.799 117.617 193.787 116.932 190.128C116.246 186.472 105.305 192.155 105.305 192.155C105.305 192.155 104.786 167.475 108.724 155.46C112.661 143.445 110.802 128.106 110.802 128.106C110.802 128.106 113.617 112.989 116.672 101.044C118.511 93.8821 120.444 87.8735 121.919 86.9229C125.857 84.4201 146.377 86.9229 146.377 86.9229C146.377 86.9229 154.928 87.0848 158.18 87.935C159.19 88.3202 160.051 89.0041 160.643 89.8908C160.84 90.1529 161.048 90.4264 161.245 90.7205C163.532 94.0645 165.859 99.8384 168.093 105.118C171.343 112.786 184.177 145.136 184.177 145.136C184.177 145.136 183.833 147.304 180.924 157.142C178.015 166.978 183.117 181.184 182.773 189.684Z" fill="#65617D"/>
<path d="M166.311 199.336L172.484 204.661C172.484 204.661 178.135 221.921 170.765 220.41C163.398 218.898 157.236 209.356 157.236 209.356L166.311 199.336Z" fill="#FBBEBE"/>
<path opacity="0.1" d="M180.327 145.46C166.894 145.293 163.431 124.924 163.431 124.924C163.431 124.924 162.472 104.732 160.744 101.01C159.785 98.931 159.353 93.8158 159.161 89.6558C161.273 93.0864 163.411 99.0131 165.485 104.431C168.487 112.259 180.327 145.46 180.327 145.46Z" fill="black"/>
<path d="M184.177 145.46C168.293 145.293 164.209 124.917 164.209 124.917C164.209 124.917 163.076 104.73 161.033 101.008C159.898 98.9287 159.388 93.8135 159.161 89.6558C161.656 93.0864 164.197 99.013 166.636 104.427C170.165 112.266 184.177 145.46 184.177 145.46Z" fill="#65617D"/>
<path opacity="0.1" d="M156.519 94.7841C156.519 94.7841 152.488 83.2454 145.883 94.7841C139.278 106.325 139.121 120.927 139.121 120.927L137.996 152.835C137.996 152.835 140.09 157.084 140.012 159.457C139.934 161.83 143.926 168.625 143.926 168.625C143.926 168.625 144.904 182.033 148.593 184.24L152.135 195.275C152.135 195.275 152.302 202.576 154.719 205.464C157.135 208.352 155.863 212.806 155.863 212.806L170.179 207.527C170.179 207.527 168.565 208.135 170.179 203.577C171.793 199.018 169.201 193.068 169.201 193.068C169.201 193.068 160.022 172.019 158.897 168.965C157.771 165.913 156.157 162.345 156.803 158.776C157.448 155.208 156.93 117.36 157.781 111.595C158.632 105.83 156.519 94.7841 156.519 94.7841Z" fill="black"/>
<path d="M158.698 92.7794C158.698 92.7794 154.192 81.4207 146.811 92.7794C139.429 104.14 139.254 118.515 139.254 118.515L137.996 149.926C137.996 149.926 140.336 154.106 140.249 156.443C140.161 158.777 144.623 165.467 144.623 165.467C144.623 165.467 145.717 178.665 149.84 180.838L153.799 191.699C153.799 191.699 153.985 198.887 156.686 201.729C159.387 204.572 157.976 208.957 157.976 208.957L173.965 203.749C173.965 203.749 172.16 204.36 173.965 199.871C175.768 195.385 172.871 189.527 172.871 189.527C172.871 189.527 162.614 168.807 161.355 165.802C160.098 162.798 158.293 159.285 159.015 155.773C159.737 152.26 159.168 115.002 160.109 109.317C161.049 103.632 158.698 92.7794 158.698 92.7794Z" fill="#444053"/>
<path opacity="0.1" d="M159.209 193.736C159.957 193.804 160.685 193.968 161.36 194.221C161.903 194.44 162.372 194.762 162.901 194.989C163.521 195.256 164.221 195.4 164.932 195.409C164.139 195.409 163.346 195.473 162.527 195.482C162.035 195.502 161.543 195.454 161.073 195.345C160.641 195.179 160.237 194.973 159.87 194.732C159.388 194.458 158.857 194.237 158.295 194.075C157.874 193.939 157.417 193.891 157.236 193.562C157.899 193.581 158.559 193.638 159.209 193.736Z" fill="black"/>
<path opacity="0.1" d="M156.892 37.3969L155.312 35.7785C155.485 35.8606 155.652 35.9632 155.811 36.0863C156.148 36.3438 156.453 36.6744 156.716 37.0619C156.892 37.267 157.067 37.4904 157.236 37.7047L156.892 37.3969Z" fill="black"/>
<path opacity="0.1" d="M159.16 89.2609C158.731 90.1134 158.038 90.8474 157.158 91.3808C156.632 91.6954 156.029 91.8983 155.397 91.9735C154.499 92.0442 153.595 91.9598 152.734 91.7296C151.64 91.488 150.56 91.1985 149.501 90.8611C147.429 90.118 145.306 89.4911 143.144 88.9828C139.851 88.3309 136.017 88.5656 133.654 90.6514C131.582 92.4863 131.072 95.338 129 97.1707C126.227 99.6234 121.682 99.4752 117.748 98.9965L116.827 98.8848C118.599 92.7371 120.461 87.5832 121.883 86.7649C125.676 84.6176 145.446 86.7649 145.446 86.7649C145.446 86.7649 153.685 86.9039 156.818 87.6356C157.772 87.957 158.589 88.5224 159.16 89.2609Z" fill="black"/>
<path opacity="0.1" d="M126.449 56.9538C126.449 53.1676 127.579 49.4634 129.698 46.3086C131.816 43.1538 134.829 40.6851 138.36 39.2149C141.891 37.7446 145.782 37.3343 149.547 38.0387C153.312 38.743 156.783 40.5301 159.525 43.1743C159.588 46.5297 158.85 49.9672 159.805 53.1995C160.688 56.2061 162.921 58.6269 164.934 61.1298C163.89 65.7548 161.157 69.8373 157.257 72.5955C153.357 75.3514 148.566 76.5914 143.8 76.074C139.034 75.5565 134.628 73.3204 131.427 69.7917C128.225 66.2631 126.453 61.6928 126.449 56.9538Z" fill="black"/>
<path d="M156.463 38.0174C152.755 34.7076 148.083 32.631 143.109 32.0794C138.136 31.53 133.112 32.533 128.749 34.9493C126.745 36.0366 125.034 37.5797 123.759 39.4512C121.131 43.5702 121.803 48.8837 120.428 53.5566C119.125 58.0175 116.008 61.7079 113.431 65.5876C110.854 69.4673 108.705 74.0992 109.673 78.6217C110.376 81.9292 112.728 84.897 112.647 88.2775C112.553 90.1558 111.743 91.9338 110.378 93.2536C109.014 94.5712 107.195 95.3371 105.283 95.394C108.522 97.6507 112.565 98.4029 116.487 98.9545C120.408 99.5062 125.103 99.6772 127.935 96.8392C130.043 94.733 130.563 91.4346 132.671 89.3283C135.075 86.9121 138.975 86.6431 142.326 87.4045C145.677 88.1658 148.763 89.7614 152.084 90.6117C152.961 90.8715 153.881 90.9627 154.793 90.883C157.655 90.5023 159.315 87.3748 159.539 84.546C159.723 82.1913 159.376 79.4742 161.077 77.8101C161.708 77.2745 162.39 76.8026 163.115 76.3969C164.421 75.5079 165.453 74.2861 166.101 72.8614C166.75 71.4368 166.987 69.8639 166.791 68.3139C166.007 62.7201 159.855 59.2324 158.246 53.8073C157.309 50.6593 158.032 47.2994 157.971 44.0215C157.91 40.7436 156.657 37.0031 153.52 35.9021" fill="#444053"/>
<path opacity="0.1" d="M166.794 68.3408C165.998 62.7561 159.85 59.273 158.241 53.857C157.305 50.7136 158.027 47.3606 157.977 44.0872C158.003 41.8078 157.29 39.5762 155.94 37.7207L156.409 38.0626C156.158 37.8209 155.893 37.5907 155.615 37.3719C155.232 36.973 154.789 36.6356 154.301 36.3689C154.016 36.1592 153.721 35.97 153.436 35.7785L153.894 36.1888L153.426 35.8492C154.777 37.7047 155.49 39.934 155.462 42.2157C155.462 45.48 154.79 48.8422 155.727 51.9856C157.335 57.4016 163.484 60.8847 164.277 66.4694C164.471 68.0171 164.231 69.5876 163.582 71.01C162.932 72.4324 161.897 73.6519 160.593 74.5387C159.869 74.9421 159.187 75.414 158.557 75.9497C156.867 77.6114 157.203 80.324 157.02 82.6764C156.796 85.4984 155.136 88.6213 152.286 89.0019C151.37 89.0817 150.448 88.9906 149.568 88.733C146.249 87.8805 143.164 86.2803 139.815 85.528C136.465 84.7781 132.576 85.0379 130.164 87.4519C128.056 89.5536 127.537 92.836 125.43 94.9491C122.61 97.7802 117.988 97.6001 113.997 97.0599C111.373 96.7658 108.792 96.1823 106.301 95.3183C105.964 95.3708 105.624 95.3981 105.283 95.3981C108.52 97.6502 112.562 98.4025 116.481 98.9519C120.401 99.5035 125.094 99.6721 127.914 96.841C130.021 94.7371 130.54 91.4455 132.648 89.3438C135.06 86.9299 138.96 86.6609 142.299 87.42C145.638 88.1813 148.733 89.7724 152.052 90.6249C152.932 90.8825 153.854 90.9737 154.77 90.8939C157.62 90.5133 159.28 87.3903 159.504 84.5683C159.687 82.2159 159.351 79.5034 161.041 77.8416C161.674 77.3105 162.355 76.8364 163.076 76.4307C164.391 75.5462 165.433 74.3244 166.089 72.8974C166.743 71.4728 166.987 69.8954 166.794 68.3408Z" fill="black"/>
</g>
</g>
</g>
<defs>
<filter id="filter0_d_117_3863" x="-503.932" y="-960.412" width="2089.16" height="1384.8" filterUnits="userSpaceOnUse" color-interpolation-filters="sRGB">
<feFlood flood-opacity="0" result="BackgroundImageFix"/>
<feColorMatrix in="SourceAlpha" type="matrix" values="0 0 0 0 0 0 0 0 0 0 0 0 0 0 0 0 0 0 127 0" result="hardAlpha"/>
<feOffset dy="4"/>
<feGaussianBlur stdDeviation="2"/>
<feComposite in2="hardAlpha" operator="out"/>
<feColorMatrix type="matrix" values="0 0 0 0 0 0 0 0 0 0 0 0 0 0 0 0 0 0 0.25 0"/>
<feBlend mode="normal" in2="BackgroundImageFix" result="effect1_dropShadow_117_3863"/>
<feBlend mode="normal" in="SourceGraphic" in2="effect1_dropShadow_117_3863" result="shape"/>
</filter>
<linearGradient id="paint0_linear_117_3863" x1="143.763" y1="355.215" x2="143.763" y2="31.8917" gradientUnits="userSpaceOnUse">
<stop stop-color="#808080" stop-opacity="0.25"/>
<stop offset="0.54" stop-color="#808080" stop-opacity="0.12"/>
<stop offset="1" stop-color="#808080" stop-opacity="0.1"/>
</linearGradient>
</defs>
</svg>
