<svg width="829" height="356" viewBox="0 0 829 356" fill="none" xmlns="http://www.w3.org/2000/svg">
<path d="M834 -53C834 -25.6955 831.17 0.990456 825.764 26.7928C824.082 34.8845 822.133 42.8877 819.944 50.8027C815.619 66.481 810.319 81.7806 804.126 96.6637C803.284 98.7087 802.417 100.741 801.522 102.773C799.32 107.835 797.011 112.847 794.594 117.795C793.313 120.446 791.991 123.085 790.63 125.71C785.544 135.62 780.031 145.314 774.118 154.757C767.403 165.512 760.181 175.964 752.466 186.05C738.663 204.152 723.325 221.144 706.64 236.835C628.429 310.492 520.584 356 401.5 356C281.868 356 173.57 310.063 95.2793 235.825C79.1407 220.525 64.2701 204.026 50.8547 186.467C35.3834 166.257 21.8212 144.645 10.4213 121.873C8.53906 118.136 6.72364 114.362 4.97487 110.562C4.74805 110.095 4.54778 109.641 4.33416 109.174C1.65104 103.329 -0.871729 97.4085 -3.26121 91.425C-5.39715 86.0726 -7.42619 80.6572 -9.32161 75.1912C-12.1248 67.1627 -14.6745 59.0332 -16.9437 50.79C-18.7858 44.1501 -20.4544 37.4344 -21.9361 30.6682C-27.3291 6.16613 -30.3994 -19.1313 -30.9065 -45.022C-30.9733 -47.6729 -31 -50.3365 -31 -53C-31 -64.9544 -30.4528 -76.7826 -29.3982 -88.472C-29.0244 -92.5367 -28.5972 -96.5888 -28.1034 -100.616C-22.6437 -145.151 -9.61525 -187.503 9.7271 -226.497C14.7062 -236.532 20.0991 -246.341 25.8924 -255.909C47.3305 -291.318 74.2017 -323.407 105.438 -351.141C109.803 -355.029 114.248 -358.816 118.786 -362.515C194.594 -424.508 293.415 -462 401.5 -462C640.363 -462 834 -278.884 834 -53Z" fill="#F2F2F2"/>
<path d="M631.054 -61.6826H615.515V46.9074H631.054V-61.6826Z" fill="#3F3D56"/>
<path d="M809 292.697C793.439 310.841 776.147 327.872 757.335 343.6C540.548 347.156 279.304 346.713 68.0845 342.588C49.8897 327.252 33.1246 310.715 18 293.114C61.8691 292.09 108.462 291.28 156.786 290.647C175.914 290.381 195.328 290.166 214.952 289.964C234.441 289.787 254.141 289.622 273.991 289.483H274.006C454.374 288.256 647.309 289.382 809 292.697Z" fill="#D0CDE1"/>
<path d="M820.911 157.034C816.753 172.719 811.66 188.025 805.707 202.915C804.898 204.961 804.064 206.994 803.204 209.027H783.33V157.034H820.911V157.034Z" fill="#3F3D56"/>
<path d="M805.712 202.916C804.903 204.961 804.069 206.995 803.21 209.028C801.093 214.092 798.873 219.106 796.551 224.057C795.319 226.709 794.049 229.348 792.74 231.975C787.851 241.889 782.553 251.588 776.869 261.034C578.278 283.81 394.49 289.268 239.499 261.034V202.916H805.712V202.916Z" fill="#3F3D56"/>
<path d="M796.546 133.804V224.051C795.314 226.703 794.044 229.342 792.735 231.969C736.332 204.863 684.768 208.097 636.498 231.969V33.9079C675.575 10.913 715.324 7.12806 756.143 33.9079L793.646 126.618L796.546 133.804V133.804Z" fill="#D0CDE1"/>
<path d="M661.358 46.1424H729.727V113.438C707.185 125.29 684.39 125.037 661.358 113.438C649.482 91.0059 649.482 68.5741 661.358 46.1424V46.1424Z" fill="white"/>
<path d="M781.002 114.205C772.016 124.161 755.539 120.598 737.495 114.205V46.9097H756.141L781.002 114.205V114.205Z" fill="white"/>
<path d="M680.005 151.675H664.467V180.734H680.005V151.675Z" fill="#3F3D56"/>
<path d="M750.705 89.7301H751.482C759.635 89.7301 766.244 96.2352 766.244 104.26V104.26C766.244 112.284 759.635 118.789 751.482 118.789H750.705V89.7301V89.7301Z" fill="#3F3D56"/>
<path d="M172.673 202.909H173.45C181.603 202.909 188.212 209.414 188.212 217.438V217.438C188.212 225.463 181.603 231.968 173.45 231.968H172.673V202.909V202.909Z" fill="#3F3D56"/>
<path d="M826.503 133.014C824.887 141.11 823.013 149.116 820.909 157.035C816.752 172.72 811.658 188.026 805.705 202.916C804.897 204.962 804.063 206.995 803.203 209.029C801.086 214.093 798.866 219.107 796.544 224.057C795.312 226.709 794.042 229.349 792.733 231.976H785.664L784.83 209.029L784.612 202.916L783.328 167.315L781.776 124.326L793.644 126.624L826.503 133.014V133.014Z" fill="#D0CDE1"/>
<path d="M249.588 316.854C282.198 316.854 308.634 290.834 308.634 258.736C308.634 226.638 282.198 200.617 249.588 200.617C216.978 200.617 190.542 226.638 190.542 258.736C190.542 290.834 216.978 316.854 249.588 316.854Z" fill="#3F3D56"/>
<path d="M249.59 289.322C266.753 289.322 280.666 275.627 280.666 258.733C280.666 241.839 266.753 228.144 249.59 228.144C232.426 228.144 218.513 241.839 218.513 258.733C218.513 275.627 232.426 289.322 249.59 289.322Z" fill="#D0CDE1"/>
<path d="M641.156 196.031H641.156V6.38058H608.525C602.051 18.3912 598.764 36.6556 597.593 59.0723C593.593 135.685 529.866 196.031 451.928 196.031H171.896V209.796H605.749C606.669 219.216 607.604 228.668 608.525 238.09L641.156 238.09V209.796H641.156V196.031Z" fill="#3F3D56"/>
<path d="M388.835 132.537L397.6 126.197L451.436 198.305L442.671 204.645C402.239 199.733 384.482 175.537 388.835 132.537V132.537Z" fill="#3F3D56"/>
<path d="M478.546 -111.27L488.484 -106.919L380.971 204.692L371.033 200.341C384.357 114.952 425.296 -41.2784 478.546 -111.27V-111.27Z" fill="#3F3D56"/>
<path d="M760.025 117.261H744.486V123.379H760.025V117.261Z" fill="#3F3D56"/>
<path d="M620.465 27.4481C620.472 27.334 620.478 27.2323 620.458 27.1262C620.365 26.2759 619.6 25.6792 618.749 25.7729L608.732 26.8812L256.93 39.3998L253.819 39.7366C253.141 39.8095 252.593 40.3159 252.47 40.9872C252.319 41.8201 252.879 42.6116 253.725 42.7608L612.945 86.834C613.802 86.9209 614.555 86.2966 614.643 85.4526L620.465 27.4481ZM264.793 41.6067L608.162 30.0139L617.18 29.0245L611.711 83.5117L264.793 41.6067Z" fill="#3F3D56"/>
<path d="M367.289 -168.458L360.527 -154.642L268.891 32.3441L329.952 -166.866L334.455 -181.567L331.722 -182.665L327.232 -167.953L264.234 38.9617L263.567 41.9675C263.412 42.6242 263.72 43.2935 264.336 43.6219C265.081 44.0386 266.03 43.7734 266.441 43.0283L363.247 -153.555L370.035 -167.359L367.289 -168.458V-168.458Z" fill="#3F3D56"/>
<path d="M68.1556 43.2443L63.6521 1.4043L62.4204 -10.126L56.0563 -69.331L52.1945 -105.311C52.1174 -106.081 51.4502 -106.675 50.6547 -106.675C49.8592 -106.675 49.192 -106.094 49.1021 -105.324L44.9065 -69.331L37.2082 -3.15477L35.7842 9.08271L31.6656 44.444L25.9302 93.7353C25.9174 93.7857 25.9174 93.8363 25.9174 93.8994C25.9046 94.7329 26.5975 95.4276 27.4572 95.4401L46.1384 95.617L72.069 95.8569H72.0819C72.1331 95.8569 72.1843 95.8443 72.2357 95.8443C73.0954 95.7559 73.7112 94.9982 73.6215 94.1647L68.1556 43.2443H68.1556ZM52.7846 92.6112L45.3557 92.5481L29.2148 92.3966L33.8853 52.2614V52.2489L39.0175 8.19874L40.4415 -4.05146L48.0501 -69.331L50.5907 -91.1792L52.9384 -69.331L59.3922 -9.29254L60.6239 2.23778L65.1146 44.0778L70.3496 92.7754L52.7846 92.6112H52.7846Z" fill="#3F3D56"/>
<path d="M298.154 103.66L289.789 108.156L265.885 114.735L245.844 120.267L202.323 132.252L182.281 137.771C119.991 127.713 88.5371 148.884 58.8001 171.794L38.7587 177.312L23.8368 181.429C21.1424 173.397 18.6917 165.264 16.5106 157.018C14.74 150.375 13.1362 143.656 11.712 136.887C6.5284 112.374 3.57731 87.0652 3.0899 61.1631C3.02569 58.5109 3 55.8462 3 53.1815C3 41.2218 3.52594 29.3883 4.5396 17.6938C4.8989 13.6273 5.30956 9.57338 5.78413 5.5447L37.2061 -3.15665L40.4395 -4.05335L59.3902 -9.29443L62.4184 -10.1279L110.52 -23.4515C147.501 -26.0226 175.673 -10.2143 199.667 14.3093C199.667 14.3093 233.822 4.26915 258.957 21.9877C266.912 27.6077 273.956 36.006 278.729 48.3951L282.847 60.0769L298.154 103.66H298.154Z" fill="#FB8C00"/>
<path d="M223.026 165.424C247.096 165.424 266.607 146.218 266.607 122.527C266.607 98.836 247.096 79.6306 223.026 79.6306C198.957 79.6306 179.445 98.836 179.445 122.527C179.445 146.218 198.957 165.424 223.026 165.424Z" fill="#3F3D56"/>
<path d="M223.026 145.107C235.694 145.107 245.963 134.999 245.963 122.53C245.963 110.061 235.694 99.9531 223.026 99.9531C210.358 99.9531 200.088 110.061 200.088 122.53C200.088 134.999 210.358 145.107 223.026 145.107Z" fill="#D0CDE1"/>
<path d="M59.5212 179.589C59.5212 193.784 52.5158 206.363 41.7122 214.168C40.3908 215.128 39.0051 216.012 37.5808 216.82C37.3628 216.353 37.1703 215.898 36.965 215.431C34.386 209.583 31.9612 203.66 29.6645 197.674C27.6114 192.319 25.6612 186.902 23.8393 181.433C21.1449 173.401 18.6943 165.268 16.5131 157.021C14.7425 150.378 13.1387 143.66 11.7145 136.891C13.1002 136.752 14.5115 136.689 15.9358 136.689C37.2986 136.689 55.0819 151.818 58.8026 171.797C59.2773 174.323 59.5212 176.925 59.5212 179.589V179.589Z" fill="#3F3D56"/>
<path d="M38.8775 179.588C38.8775 186.989 35.2594 193.556 29.6653 197.673C27.6123 192.318 25.662 186.9 23.8402 181.432C21.1458 173.4 18.6951 165.267 16.514 157.02C28.1512 157.298 37.6202 166.087 38.7621 177.315C38.839 178.06 38.8775 178.818 38.8775 179.588H38.8775Z" fill="#D0CDE1"/>
<path d="M168.855 15.5014L34.0055 52.6535L22.6441 12.699C39.623 -0.353175 73.0297 -6.16132 108.645 -10.9956L168.855 15.5014V15.5014Z" fill="white"/>
<path d="M17.4857 57.1985L3.0899 61.1641C3.02569 58.5119 3 55.8472 3 53.1825C3 41.2227 3.52594 29.3893 4.5396 17.6948L6.13058 17.2528C20.1941 26.3357 23.7492 39.7456 17.4857 57.1985V57.1985Z" fill="white"/>
<path d="M49.3595 80.5546L42.4795 82.4501L46.1384 95.3168L53.0184 93.4213L49.3595 80.5546Z" fill="#3F3D56"/>
<path d="M282.842 60.0823C271.008 64.7443 257.575 59.0809 252.839 47.4328C249.22 38.5328 251.666 28.3546 258.953 21.9944C266.908 27.6092 273.963 36.006 278.733 48.3985L282.842 60.0823H282.842Z" fill="#3F3D56"/>
</svg>
