<svg width="33" height="33" viewBox="0 0 33 33" fill="none" xmlns="http://www.w3.org/2000/svg">
<path d="M31.1792 0H1.82079C0.815194 0 0 0.815194 0 1.82079V31.1792C0 32.1848 0.815194 33 1.82079 33H31.1792C32.1848 33 33 32.1848 33 31.1792V1.82079C33 0.815194 32.1848 0 31.1792 0Z" fill="#3D5A98"/>
<path d="M22.0864 33V20.2279H26.2137L26.8309 15.2505H22.0864V12.0735C22.0864 10.6327 22.4729 9.64897 24.4614 9.64897H27V5.19C25.7707 5.05695 24.5353 4.99369 23.2994 5.0005C19.6444 5.0005 17.1273 7.31358 17.1273 11.5803V15.2505H13V20.2279H17.1273V33H22.0864Z" fill="white"/>
</svg>
