<svg width="35" height="35" viewBox="0 0 35 35" fill="none" xmlns="http://www.w3.org/2000/svg">
<path d="M26.9885 0H8.82895C4.40428 0 0.817383 3.5869 0.817383 8.01157V26.1711C0.817383 30.5958 4.40428 34.1827 8.82895 34.1827H26.9885C31.4132 34.1827 35.0001 30.5958 35.0001 26.1711V8.01157C35.0001 3.5869 31.4132 0 26.9885 0Z" fill="url(#paint0_radial_1_441)"/>
<path d="M26.9885 0H8.82895C4.40428 0 0.817383 3.5869 0.817383 8.01157V26.1711C0.817383 30.5958 4.40428 34.1827 8.82895 34.1827H26.9885C31.4132 34.1827 35.0001 30.5958 35.0001 26.1711V8.01157C35.0001 3.5869 31.4132 0 26.9885 0Z" fill="url(#paint1_radial_1_441)"/>
<path d="M17.91 3.73871C14.2837 3.73871 13.8285 3.7546 12.4043 3.81936C10.9828 3.88452 10.0124 4.10951 9.16347 4.43972C8.28514 4.78075 7.54019 5.23701 6.79806 5.97941C6.05525 6.72168 5.59899 7.46662 5.2569 8.34456C4.92575 9.19379 4.70049 10.1645 4.63653 11.5854C4.57284 13.0097 4.55615 13.465 4.55615 17.0915C4.55615 20.7179 4.57218 21.1716 4.6368 22.5958C4.70223 24.0173 4.92722 24.9877 5.25716 25.8366C5.59846 26.715 6.05472 27.4599 6.79712 28.202C7.53913 28.9448 8.28407 29.4022 9.16174 29.7432C10.0114 30.0734 10.9818 30.2984 12.4031 30.3636C13.8274 30.4283 14.2822 30.4442 17.9084 30.4442C21.5351 30.4442 21.9888 30.4283 23.413 30.3636C24.8345 30.2984 25.8059 30.0734 26.6555 29.7432C27.5335 29.4022 28.2773 28.9448 29.0192 28.202C29.762 27.4599 30.2181 26.715 30.5604 25.837C30.8886 24.9877 31.114 24.0171 31.1807 22.5961C31.2447 21.1719 31.2614 20.7179 31.2614 17.0915C31.2614 13.465 31.2447 13.01 31.1807 11.5856C31.114 10.1641 30.8886 9.19392 30.5604 8.34496C30.2181 7.46663 29.762 6.72168 29.0192 5.97941C28.2765 5.23674 27.5337 4.78048 26.6547 4.43985C25.8035 4.10951 24.8326 3.88439 23.4111 3.81936C21.9868 3.7546 21.5333 3.73871 17.9058 3.73871H17.91ZM16.7121 6.14498C17.0677 6.14445 17.4644 6.14498 17.91 6.14498C21.4753 6.14498 21.8977 6.1578 23.3056 6.22176C24.6075 6.28131 25.3141 6.49883 25.7848 6.68162C26.408 6.92357 26.8522 7.21293 27.3193 7.6804C27.7866 8.14774 28.0758 8.59278 28.3185 9.21595C28.5013 9.68596 28.719 10.3926 28.7783 11.6945C28.8423 13.1021 28.8562 13.5248 28.8562 17.0884C28.8562 20.6519 28.8423 21.0748 28.7783 22.4823C28.7188 23.7842 28.5013 24.4908 28.3185 24.961C28.0765 25.5841 27.7866 26.0278 27.3193 26.4949C26.8519 26.9622 26.4082 27.2515 25.7848 27.4935C25.3147 27.6771 24.6075 27.8941 23.3056 27.9537C21.898 28.0176 21.4753 28.0315 17.91 28.0315C14.3446 28.0315 13.9219 28.0176 12.5144 27.9537C11.2126 27.8936 10.5059 27.6761 10.0349 27.4933C9.41183 27.2512 8.96665 26.962 8.49931 26.4946C8.03197 26.0273 7.74275 25.5833 7.50014 24.9599C7.31734 24.4897 7.09956 23.7831 7.04027 22.4812C6.97631 21.0736 6.9635 20.6509 6.9635 17.085C6.9635 13.5194 6.97631 13.0988 7.04027 11.6911C7.09983 10.3892 7.31734 9.68262 7.50014 9.21195C7.74222 8.58878 8.03197 8.14374 8.49945 7.67639C8.96679 7.20905 9.41183 6.9197 10.035 6.67722C10.5057 6.49362 11.2126 6.27664 12.5144 6.21682C13.7462 6.16114 14.2236 6.14445 16.7121 6.14164V6.14498ZM25.0376 8.36205C24.153 8.36205 23.4353 9.07909 23.4353 9.96383C23.4353 10.8484 24.153 11.5661 25.0376 11.5661C25.9222 11.5661 26.6399 10.8484 26.6399 9.96383C26.6399 9.07922 25.9222 8.36152 25.0376 8.36152V8.36205ZM17.91 10.2342C14.1232 10.2342 11.0529 13.3045 11.0529 17.0915C11.0529 20.8784 14.1232 23.9472 17.91 23.9472C21.6969 23.9472 24.7661 20.8784 24.7661 17.0915C24.7661 13.3047 21.6966 10.2342 17.9097 10.2342H17.91ZM17.91 12.6405C20.3681 12.6405 22.3609 14.6331 22.3609 17.0915C22.3609 19.5495 20.3681 21.5424 17.91 21.5424C15.4518 21.5424 13.4591 19.5495 13.4591 17.0915C13.4591 14.6331 15.4518 12.6405 17.91 12.6405Z" fill="white"/>
<defs>
<radialGradient id="paint0_radial_1_441" cx="0" cy="0" r="1" gradientUnits="userSpaceOnUse" gradientTransform="translate(9.89716 36.8154) rotate(-90) scale(33.8776 31.5088)">
<stop stop-color="#FFDD55"/>
<stop offset="0.1" stop-color="#FFDD55"/>
<stop offset="0.5" stop-color="#FF543E"/>
<stop offset="1" stop-color="#C837AB"/>
</radialGradient>
<radialGradient id="paint1_radial_1_441" cx="0" cy="0" r="1" gradientUnits="userSpaceOnUse" gradientTransform="translate(-4.90835 2.46236) rotate(78.681) scale(15.1435 62.4219)">
<stop stop-color="#3771C8"/>
<stop offset="0.128" stop-color="#3771C8"/>
<stop offset="1" stop-color="#6600FF" stop-opacity="0"/>
</radialGradient>
</defs>
</svg>
