<svg width="32" height="32" viewBox="0 0 32 32" fill="none" xmlns="http://www.w3.org/2000/svg">
<path d="M29.6393 0.00012118H2.36066C1.74172 -0.00617774 1.14557 0.233311 0.703 0.666039C0.260435 1.09877 0.00760951 1.68939 0 2.3083V29.6969C0.00898566 30.3149 0.262416 30.9042 0.704831 31.3358C1.14725 31.7674 1.74262 32.0062 2.36066 31.9999H29.6393C30.2583 32.0048 30.8541 31.7645 31.2964 31.3315C31.7387 30.8985 31.9917 30.308 32 29.6891V2.30043C31.989 1.68333 31.7348 1.09553 31.2928 0.664787C30.8507 0.234046 30.2565 -0.00481561 29.6393 0.00012118Z" fill="#0076B2"/>
<path d="M4.37903 11.6429H9.14591V27H4.37903V11.6429ZM6.76379 4C7.31053 4 7.84498 4.16236 8.29954 4.46655C8.7541 4.77074 9.10834 5.20309 9.31745 5.70889C9.52656 6.2147 9.58114 6.77124 9.47428 7.30811C9.36743 7.84498 9.10394 8.33806 8.71715 8.72496C8.33037 9.11187 7.83766 9.37522 7.30136 9.4817C6.76507 9.58817 6.20928 9.533 5.70431 9.32314C5.19934 9.11329 4.76788 8.75819 4.4645 8.30277C4.16113 7.84735 3.99948 7.31207 4 6.76464C4.0007 6.03117 4.29219 5.32798 4.81043 4.80958C5.32866 4.29119 6.03124 4 6.76379 4ZM12.1361 11.6429H16.7055V13.7513H16.7687C17.4057 12.5443 18.9587 11.2713 21.2776 11.2713C26.1051 11.2608 27 14.4418 27 18.5664V27H22.2331V19.5284C22.2331 17.7494 22.2015 15.4591 19.7562 15.4591C17.3109 15.4591 16.8951 17.3989 16.8951 19.4124V27H12.1361V11.6429Z" fill="white"/>
</svg>
